<?xml version="1.0" encoding="UTF-8" standalone="no"?>
<!-- Created with Inkscape (http://www.inkscape.org/) -->

<svg
   width="512mm"
   height="512mm"
   viewBox="0 0 512 512"
   version="1.1"
   id="svg5"
   inkscape:version="1.1.2 (b8e25be833, 2022-02-05)"
   sodipodi:docname="Black_Knight.svg"
   xmlns:inkscape="http://www.inkscape.org/namespaces/inkscape"
   xmlns:sodipodi="http://sodipodi.sourceforge.net/DTD/sodipodi-0.dtd"
   xmlns="http://www.w3.org/2000/svg"
   xmlns:svg="http://www.w3.org/2000/svg">
  <sodipodi:namedview
     id="namedview7"
     pagecolor="#ffffff"
     bordercolor="#cccccc"
     borderopacity="1"
     inkscape:pageshadow="0"
     inkscape:pageopacity="1"
     inkscape:pagecheckerboard="true"
     inkscape:document-units="mm"
     showgrid="false"
     inkscape:zoom="0.19398324"
     inkscape:cx="845.43386"
     inkscape:cy="1154.7389"
     inkscape:window-width="1920"
     inkscape:window-height="1017"
     inkscape:window-x="-8"
     inkscape:window-y="32"
     inkscape:window-maximized="1"
     inkscape:current-layer="layer1"
     showborder="false"
     lock-margins="true"
     fit-margin-top="10"
     fit-margin-left="10"
     fit-margin-right="10"
     fit-margin-bottom="10" />
  <defs
     id="defs2" />
  <g
     inkscape:label="Livello 1"
     inkscape:groupmode="layer"
     id="layer1"
     transform="translate(10.000015,9.9998589)">
    <text
       xml:space="preserve"
       style="font-size:40px;line-height:1.25;font-family:'Chess Condal';-inkscape-font-specification:'Chess Condal';fill:#ffffff;fill-opacity:1;stroke:none;stroke-width:0.264583;stroke-opacity:1"
       x="87.548508"
       y="91.29937"
       id="text29524"><tspan
         sodipodi:role="line"
         id="tspan29522"
         style="fill:#ffffff;fill-opacity:1;stroke:none;stroke-width:0.264583;stroke-opacity:1"
         x="87.548508"
         y="91.29937" /></text>
    <text
       xml:space="preserve"
       style="font-size:40px;line-height:1.25;font-family:'Chess Leipzig';-inkscape-font-specification:'Chess Leipzig';stroke-width:0.264583"
       x="254.01411"
       y="94.275764"
       id="text58610"><tspan
         sodipodi:role="line"
         id="tspan58608"
         style="stroke-width:0.264583"
         x="254.01411"
         y="94.275764" /></text>
    <text
       xml:space="preserve"
       style="font-size:40px;line-height:1.25;font-family:'Chess Maya';-inkscape-font-specification:'Chess Maya';stroke-width:0.264583"
       x="237.01553"
       y="39.904449"
       id="text87666"><tspan
         sodipodi:role="line"
         id="tspan87664"
         style="stroke-width:0.264583"
         x="237.01553"
         y="39.904449" /></text>
    <g
       id="g4714"
       transform="translate(-13.076908,15.061451)">
      <path
         style="fill:#000000;fill-opacity:1;stroke:#000000;stroke-width:4.57682px;stroke-linecap:butt;stroke-linejoin:miter;stroke-opacity:1"
         d="m 18.718253,301.10804 c 2.284166,-2.06267 1.748756,-5.7094 2.949244,-8.11039 1.013331,-2.02666 3.222941,-3.23973 4.423859,-5.16115 3.291618,-5.26661 7.128222,-10.56925 11.059657,-15.48355 1.632071,-2.04006 3.711981,-3.72469 5.161173,-5.89848 0.43109,-0.6466 0.25181,-1.60509 0.737303,-2.21192 0.553562,-0.69192 1.644647,-0.79381 2.211933,-1.47468 1.484328,-1.7812 2.457703,-3.93232 3.686552,-5.89849 1.494569,-2.39129 1.729859,-4.93433 2.94924,-7.3731 1.738627,-3.47724 3.575765,-6.75517 5.161174,-10.32235 1.565422,-3.5222 1.922424,-7.53139 3.686552,-11.05965 1.508338,-3.01669 3.652829,-5.83105 5.161173,-8.84772 0.695148,-1.39027 0.674891,-3.09099 1.474625,-4.42388 1.431775,-2.38626 7.596526,-8.78067 8.110416,-10.32232 0.155512,-0.46636 -0.272637,-1.06557 0,-1.47467 1.028087,-1.54214 5.334724,-2.73259 5.898483,-4.42388 0.15551,-0.46636 -0.155512,-1.00831 0,-1.47467 0.480389,-1.44111 2.38569,-2.73321 2.949244,-4.42385 0.878144,-2.63444 -2.854655,3.03736 0.737302,-2.94925 0.7153,-1.1922 2.327487,-1.70579 2.949239,-2.94925 0.219825,-0.43971 -0.09635,-0.99258 0,-1.47468 1.073408,-5.36708 0.08372,0.56981 2.211935,-3.68655 0.453197,-0.90642 0.234565,-2.06943 0.737303,-2.94925 1.934807,-3.38592 2.314958,-1.78369 3.686553,-5.89848 0.377551,-1.13259 1.609722,-0.57132 2.211929,-1.47462 0.272638,-0.40898 -0.155511,-1.00831 0,-1.47462 0.377551,-1.1326 1.609723,-0.57131 2.21193,-1.47463 0.859048,-1.28857 0.957058,-7.07529 1.474618,-8.11042 0.31087,-0.62175 1.08903,-0.89622 1.47463,-1.47461 0.76117,-1.14177 0.67155,-3.95657 1.47462,-5.16118 1.16075,-1.74113 2.51155,-3.39866 3.68656,-5.16116 0.95711,-1.43568 4.5794,-4.36974 5.89847,-5.16118 1.605,-0.963 3.83767,-0.88842 5.16118,-2.21193 0.54957,-0.54957 0.2518,-1.60505 0.73729,-2.21193 2.05291,-2.56588 8.57296,-4.88615 11.05968,-7.37287 3.76794,-3.76794 -3.09152,1.02834 2.21193,-2.94925 1.53345,-1.15009 1.24544,-0.18595 2.21194,-1.47463 0.85984,-1.14646 1.19859,-2.67321 2.21193,-3.68654 1.11518,-1.11519 3.4324,-2.19936 4.42386,-3.68655 0.60967,-0.91454 0.83576,-2.05486 1.47463,-2.94925 1.0101,-1.41414 3.04113,-2.07299 3.68654,-3.68655 0.27384,-0.68458 -0.27382,-1.52735 0,-2.21193 0.58445,-1.46115 2.24546,-2.27899 2.94925,-3.68655 1.58844,-3.17691 2.88378,-7.1113 3.68656,-10.322348 0.81702,-3.268138 3.69829,-7.396596 5.16115,-10.322341 1.53426,-3.068512 -0.0508,0.788211 1.47464,-0.737321 1.71338,-1.713391 3.93436,-4.671678 5.16116,-5.898482 0.34757,-0.347556 1.12705,0.347558 1.47462,0 1.79078,-1.79078 -0.21924,-1.082679 1.47463,-2.211931 0.84314,-0.562107 2.2327,-0.02058 2.94924,-0.737304 0.34758,-0.347556 -0.21982,-1.034971 0,-1.474624 0.34758,-0.695146 1.86436,-0.04203 2.21193,-0.737319 0.21983,-0.439653 -0.21982,-1.034972 0,-1.474625 0.46632,-0.932634 1.95903,-1.200358 2.21192,-2.211935 0.17887,-0.715299 -0.1453,-1.488946 0,-2.21193 0.6639,-3.319682 2.95275,-6.642792 4.42386,-9.585034 1.05589,-2.111866 1.45255,-5.09485 2.21194,-7.373104 2.35403,-7.062099 0.0571,-13.499083 1.47467,-19.170068 0.0848,-0.337177 0.68017,-0.39447 0.73725,-0.737304 0.39215,-2.353006 -1.06436,-6.718935 0,-8.847725 0.27054,-0.541003 0.73725,0.392549 0.73725,-2.21193 0,-4.519861 -1.87672,-8.713695 2.94925,-10.322348 5.97543,-1.9918129 16.66465,2.605646 22.1193,4.42386 1.63867,0.546202 4.42204,0.736402 5.8985,1.474622 2.62118,1.310597 0.97215,1.061379 4.42385,2.211931 2.26897,0.75633 3.64263,3.642637 5.16116,5.161173 0.77722,0.777193 2.28978,0.595318 2.94926,1.474624 0.46636,0.62175 0.30619,1.565266 0.73725,2.21193 0.13667,0.2045 0.56358,-0.173779 0.73725,0 1.79078,1.790779 -0.21934,1.08268 1.47467,2.21193 0.73674,0.491167 2.59879,1.160539 2.94925,2.211935 0.15569,0.466309 -0.15569,1.008298 0,1.474624 0.37763,1.132585 1.60978,0.571309 2.21193,1.474623 0.27262,0.408983 -0.15568,1.008314 0,1.474624 0.43661,1.30991 2.53713,2.450213 2.94925,3.686551 0.56427,1.692721 0.35946,3.488355 1.47467,5.161175 0.86785,1.301658 2.45689,2.946785 2.94925,4.423861 0.23319,0.699472 -0.27383,1.527349 0,2.21193 0.25809,0.645416 1.08892,0.896223 1.47467,1.474624 0.51255,0.768942 0.35046,2.175476 0.73725,2.949244 0.11067,0.219826 0.62742,-0.219826 0.73725,0 0.32971,0.659478 -0.6594,1.882192 0,2.21193 0.43973,0.219826 1.12699,-0.347574 1.47468,0 0.50062,0.500524 0.33957,3.628404 0.73725,4.42386 0.36569,0.731455 1.22005,1.448208 1.47469,2.21193 0.15567,0.466325 -0.21987,1.034971 0,1.474623 0.87891,1.757896 3.79181,3.265055 4.42387,5.161175 0.15568,0.466308 -0.27263,1.065641 0,1.474622 0.57671,0.865 3.57397,2.836667 4.42384,3.686552 0.98306,0.983077 -1.5641,0.707499 0.73725,1.474623 2.23855,0.746196 5.20533,0.911272 7.37311,2.211934 0.5961,0.357642 0.8291,1.216448 1.47467,1.474624 2.5288,0 1.99769,-0.233145 4.42385,0.73732 4.28195,1.712786 8.35643,4.107973 12.5343,5.898484 3.30727,1.417418 2.29157,0.03979 5.16114,1.474624 2.33383,1.166888 4.23998,3.397071 6.63581,4.423859 3.30732,1.417419 2.29158,0.03979 5.16116,1.474624 3.79239,1.896189 7.35084,3.779155 11.05967,5.898478 2.30297,1.31598 5.25035,2.0945 7.3731,3.68656 8.56717,6.42538 16.76976,13.72903 25.06856,20.64469 1.69367,1.41137 2.82271,3.88023 4.42386,5.16117 0.60684,0.48551 1.66236,0.18774 2.21194,0.7373 0.54956,0.54957 0.18767,1.66238 0.73724,2.21194 1.01333,1.01333 2.58564,1.2945 3.68656,2.21193 1.31917,1.09932 1.90308,3.53215 3.68655,4.42386 0.43989,0.21983 1.03495,-0.21983 1.47468,0 0.64314,0.32157 7.4625,8.1998 8.11039,8.84773 1.69628,1.69622 4.68197,2.95848 6.63582,4.42386 1.92731,1.44546 3.05649,3.33802 4.42388,5.16117 0.41687,0.5561 0.98305,0.98308 1.47467,1.47463 0.73725,0.49154 1.65837,0.78266 2.21193,1.47462 0.48555,0.60689 0.18768,1.66238 0.73742,2.21193 0.54956,0.54956 1.66236,0.18774 2.21192,0.73732 0.93584,0.93588 0.68052,2.62774 1.47468,3.68656 2.26754,3.02339 5.00306,5.88516 7.37308,8.84772 1.40099,1.75111 3.593,4.55858 4.42387,6.63578 0.18267,0.45634 -0.27278,1.06557 0,1.47469 0.3048,0.45718 1.08598,0.34872 1.47467,0.73725 2.76607,2.76604 0.46654,1.35928 2.21196,3.68654 0.62566,0.83412 1.74565,1.27938 2.21192,2.21194 1.01904,2.03799 2.49281,3.90892 3.68656,5.89848 0.39992,0.6665 0.27088,1.59023 0.73724,2.21192 0.32953,0.43973 1.1697,0.28006 1.47468,0.73726 0.73413,1.1012 0.77323,2.56422 1.47468,3.68654 0.86403,1.38248 3.55976,3.77864 4.42381,5.16119 1.84654,2.9544 5.92471,14.03505 7.37314,15.4835 0.38852,0.38871 1.22886,0.24582 1.47467,0.73726 4.09141,8.18279 -3.37924,-2.48832 0.73742,3.68655 0.98306,1.47468 1.6961,3.17069 2.94922,4.42387 0.62654,0.62654 1.72031,0.73725 2.21192,1.47467 7.299,10.94842 -4.55493,-3.88319 1.47468,5.16116 0.57845,0.86751 1.63348,1.34442 2.21188,2.21196 0.91907,1.37865 7.0615,16.87471 7.37314,18.43274 0.14531,0.72308 -0.27366,1.52744 0,2.21195 0.25809,0.6454 1.21642,0.8291 1.47468,1.47468 0.59991,1.49975 0.57483,6.76064 1.47467,8.11042 0.3048,0.45735 1.22888,0.2458 1.47469,0.73725 0.32953,0.6594 -0.14532,1.48885 0,2.21194 0.54333,2.71695 1.66685,5.38556 2.21192,8.11041 0.28923,1.44595 -0.28924,2.97786 0,4.42386 1.26484,6.32436 0.73724,13.30246 0.73724,19.90737 0,9.3393 0,18.67853 0,28.01778 0,7.61891 0,15.23777 0,22.85662 0,3.08377 -0.50233,6.57119 0,9.58508 0.74937,4.49559 1.88982,11.61082 0.73727,16.22083 -0.50858,2.03444 -1.70475,3.86965 -2.21194,5.89847 -0.91265,3.65061 -1.0756,7.651 -2.21194,11.05964 -0.7741,2.32205 -3.83757,6.50265 -4.42387,8.84774 -0.23837,0.95365 0.4399,2.06995 0,2.94924 -1.58486,3.1696 -2.87017,6.47764 -4.42387,9.58504 -0.37797,0.75609 -0.35929,2.19317 -0.73726,2.94921 -0.73776,1.47571 -2.20229,2.92995 -2.94926,4.42386 -0.21969,0.4399 0.15569,1.00832 0,1.47469 -0.42986,1.28905 -2.32516,2.43839 -2.94921,3.68654 -0.33455,0.66945 -1.28508,4.97161 -1.47467,5.16113 -0.36846,0.36898 -1.10588,0.36898 -1.47469,0.73743 -0.90209,0.90211 -1.10932,3.13521 -2.21193,3.68653 -0.4399,0.21969 -1.06557,-0.27279 -1.47468,0 -0.57845,0.38575 -0.85298,1.16384 -1.47467,1.47468 -1.58816,0.794 -27.78486,0 -30.96704,0 -6.74356,0 -13.28823,0.52898 -19.90742,1.47467 -3.73144,0.53314 -8.04776,0 -11.79694,0 -8.3562,0 -16.71241,0 -25.06857,0 -10.54557,0 -23.58135,-1.14825 -33.91628,0 -8.77033,0.97442 -17.64142,0.73725 -26.54317,0.73725 -4.58847,0 -9.45037,0.45582 -14.00889,0 -17.93551,-1.79353 -36.51248,-0.73725 -54.56097,-0.73725 -20.98331,0 -41.71411,-0.73725 -62.67137,-0.73725 -6.14425,0 -12.2885,0 -18.43276,0 -2.8114,0 -6.8485,0.68414 -9.58504,0 -0.85966,-0.21518 -1.37127,-1.19444 -2.21193,-1.47467 -3.26318,-1.08772 -6.42173,0.9514 -8.84772,-1.47468 -0.54956,-0.54956 -0.3062,-1.56531 -0.7373,-2.21188 -0.30487,-0.4572 -1.22886,-0.24582 -1.47462,-0.73727 -0.42181,-0.84362 -0.16053,-2.82124 -0.73732,-3.68654 -0.38559,-0.57845 -1.08902,-0.89622 -1.47462,-1.47467 -1.38775,-2.08159 1.13587,-11.65744 2.21194,-13.27157 2.8814,-4.32209 7.49847,-7.4985 11.05966,-11.05965 2.19564,-2.19566 -1.10274,-0.96041 2.21191,-2.94924 3.29301,-1.9758 6.50711,-3.59006 9.58505,-5.89848 7.18486,-5.38866 12.58714,-12.8153 19.90737,-17.69546 2.56816,-1.71219 3.76887,-5.24349 5.89849,-7.3731 2.63513,-2.63515 3.05382,-2.73745 5.16118,-5.89849 1.09363,-1.64039 3.15586,-2.41856 4.42385,-3.68652 1.37,-1.37002 1.20541,-3.116 2.94925,-4.42387 2.60984,-1.95742 5.07791,-3.60329 7.3731,-5.89848 1.20522,-1.20517 1.49732,-2.59763 2.94925,-3.68658 0.62169,-0.46636 1.66236,-0.18769 2.21192,-0.73725 0.38869,-0.38852 0.34873,-1.08599 0.73725,-1.47468 1.54509,-1.54509 4.55484,-3.08026 5.89848,-4.42386 0.38869,-0.38852 0.34874,-1.086 0.73726,-1.47469 2.49644,-2.49643 0.45286,1.02181 2.94925,-1.47467 0.38851,-0.38851 0.34873,-1.08599 0.73724,-1.47468 0.61754,-0.61755 3.12627,-1.65163 3.68655,-2.21194 0.3887,-0.38852 0.34874,-1.08598 0.73726,-1.47467 0.7772,-0.77721 2.17205,-0.69748 2.94924,-1.47469 1.02199,-1.02197 4.03784,-5.33679 5.16118,-5.89847 0.43971,-0.21969 1.12697,0.34735 1.47467,0 0.34752,-0.34735 -0.15569,-1.00831 0,-1.47467 0.60422,-1.81274 3.55677,-2.68965 4.42387,-4.42388 1.12248,-2.24487 0.82461,-1.56186 2.94924,-3.68653 1.36518,-1.36517 1.52122,-3.73314 2.94924,-5.1612 1.61029,-1.61029 2.2993,-3.08029 3.68654,-5.16115 0.94017,-1.41032 3.87533,-3.6925 4.42388,-4.42386 1.26537,-1.68711 1.74517,-3.76091 2.21193,-5.16116 0.21985,-0.65941 1.2164,-0.82928 1.47467,-1.47468 1.7692,-4.42296 0.84277,-1.68536 2.21193,-4.42381 1.68709,-3.37414 1.75582,-6.39223 2.21192,-9.58508 0.21139,-1.47985 1.79442,-3.36675 0.73725,-4.42384 -0.56081,-0.56081 -6.27519,-0.11935 -6.63579,0 -1.86794,0.62256 -3.23402,1.8265 -5.16118,2.2119 -4.13201,0.82652 -8.37698,1.81546 -12.53427,2.94927 -1.27678,0.34822 -2.39456,1.18753 -3.68655,1.47468 -1.43956,0.32002 -3.0249,-0.46636 -4.42387,0 -2.37531,0.79174 -5.49709,1.23198 -8.11041,2.21194 -1.02906,0.38575 -1.8924,1.17265 -2.94924,1.47467 -0.70889,0.20275 -1.52744,-0.27364 -2.21193,0 -1.86649,0.74661 -1.08269,1.46534 -2.94924,2.21194 -7.51732,3.00693 -14.8836,3.90523 -22.85662,5.89846 -1.14981,0.28751 -2.52622,-0.23196 -3.68656,0 -4.3604,0.87219 -0.0742,0.47208 -4.42386,2.21195 -0.4564,0.18268 -0.98308,0 -1.47462,0 -0.7373,0.24582 -1.51679,0.38991 -2.21193,0.73726 -2.8731,1.43661 -5.26272,3.73729 -8.11042,5.16114 -0.69514,0.34735 -1.61487,0.23977 -2.21193,0.73725 -0.94404,0.78673 -1.44426,1.98971 -2.21194,2.94928 -1.38488,1.73108 -0.18842,-0.3662 -2.94923,1.47467 -3.62366,2.41578 -0.96631,1.70354 -3.68655,4.42387 -0.93218,0.93221 -3.66208,2.18745 -4.42386,2.94922 -0.38862,0.38851 -0.29767,1.14497 -0.73731,1.47467 -1.7838,1.33785 -3.81791,1.44769 -5.16117,3.68655 -0.39989,0.6665 -0.18774,1.66236 -0.73732,2.21192 -0.54953,0.54957 -1.51677,0.38957 -2.21191,0.73725 -1.12926,0.56462 -0.5766,1.31399 -1.47464,2.21193 -0.50503,0.50511 -4.21337,2.63356 -4.42385,2.94928 -1.5825,2.37372 0.14098,1.73745 -1.47462,2.9492 -1.56264,1.17195 -4.56443,2.3525 -5.89849,3.68661 -0.38862,0.38852 -0.34872,1.08598 -0.73732,1.47467 -0.816873,0.81682 -3.41629,1.07163 -4.423859,1.47467 -2.449679,0.97995 -4.523635,3.01577 -6.635795,4.42388 -1.317624,0.8784 -7.931894,1.26796 -9.585034,1.47467 -8.780608,1.09758 0.830471,0.16088 -4.423861,1.47468 -1.841671,0.46031 -4.0237,-0.31258 -5.898482,0 -5.117924,0.85298 -10.229467,1.31345 -15.483521,0 -2.504205,-0.6262 -9.738654,-3.84026 -11.059722,-5.16133 -0.691255,-0.69124 -1.230909,-2.29524 -2.211933,-2.94921 -2.586655,-1.72448 -6.210459,-3.36526 -8.110411,-5.89854 -0.590942,-0.78793 -4.422717,-5.40613 -5.161174,-5.89847 -0.457279,-0.30479 -1.086018,-0.34873 -1.474623,-0.73725 -1.392457,-1.39251 -0.347937,-1.39182 -0.737303,-2.94926 -0.404589,-1.61826 -1.578119,-1.68157 -2.211931,-2.94922 -0.695146,-1.39026 -0.779476,-3.03363 -1.474623,-4.42387 -2.513085,-5.02618 -3.686552,-6.82684 -3.686552,-12.5343 0,-5.07802 3.957861,-2.40663 0.737303,-8.84773 z"
         id="path997" />
      <g
         aria-label="n"
         id="text90574"
         style="font-size:600.874px;line-height:1.25;font-family:'Chess Magnetic';-inkscape-font-specification:'Chess Magnetic';fill:#ffffff;fill-opacity:1;stroke:#000000;stroke-width:3.97453;stroke-opacity:1"
         transform="matrix(1.1515378,0,0,1.1515378,6.1423875e-5,-4.988254e-4)">
        <path
           d="M 374.50123,401.09668 H 93.721716 c -11.540224,0 -17.505933,-5.08552 -17.897127,-15.25657 -0.391194,-10.17104 6.161306,-21.41787 19.6575,-33.74048 5.867911,-6.84589 12.224811,-13.39839 19.070711,-19.6575 6.84589,-6.25911 13.49619,-12.51821 19.95089,-18.77731 -4.88992,-2.73836 -9.38865,-5.67232 -13.49619,-8.80187 -3.91194,-3.32515 -8.31287,-6.1613 -13.2028,-8.50847 -5.86791,5.28112 -12.127014,10.17105 -18.777312,14.66978 -6.454702,4.30313 -13.593993,6.74809 -21.417873,7.33488 -1.95597,0 -4.889925,0.48899 -8.801866,1.46698 -3.91194,0.97799 -5.86791,0.48899 -5.86791,-1.46698 -3.520747,0.78239 -6.454702,0.5868 -8.801866,-0.58679 -2.347164,-1.17358 -5.281119,-2.05377 -8.801865,-2.64056 -4.498731,-0.97798 -10.757836,-5.9657 -18.777314,-14.96317 -7.8238803,-9.19306 -12.9094025,-15.74556 -15.2565666,-19.6575 -3.5207463,-14.66977 0.097799,-27.67697 10.8556346,-39.0216 10.757835,-11.54023 19.559701,-23.56944 26.405596,-36.08765 7.041493,-13.69179 15.158769,-26.79679 24.351828,-39.315 9.388657,-12.51821 15.158769,-27.48138 17.310336,-44.88952 13.496192,-4.69433 24.449628,-13.78959 32.860298,-27.285778 8.60627,-13.691791 17.99492,-26.21 28.16597,-37.554627 2.54276,-8.215075 3.61854,-17.01694 3.22735,-26.405597 -0.19559,-9.388657 -0.97798,-18.386119 -2.34716,-26.9923875 2.93395,-2.15156712 7.13929,-3.12955217 12.616,-2.93395516 5.47672,0.19559701 10.95344,0.68458953 16.43015,1.46697756 2.93396,0.5867911 6.45471,1.4669776 10.56224,2.6405597 9.38866,5.2811196 18.19053,12.3226124 26.4056,21.1244774 8.41067,8.801865 14.37638,18.777313 17.89713,29.926343 8.41067,4.107537 16.72354,8.019478 24.93861,11.735821 8.21508,3.520746 16.62575,7.334888 25.23202,11.442425 24.44963,10.757836 47.62787,10.171045 69.53474,-1.760373 -5.47672,9.388657 -11.54023,16.919142 -18.19053,22.591455 -3.12955,2.347169 -6.55249,4.694329 -10.26884,7.041489 22.29806,20.92888 47.82347,26.60119 76.57623,17.01694 -6.06351,7.82388 -13.39839,14.18078 -22.00466,19.07071 -2.34717,1.56478 -4.79213,2.93396 -7.33489,4.10754 -2.54276,0.97799 -4.88992,1.95597 -7.04149,2.93395 15.84335,26.99239 39.1194,39.5106 69.82813,37.55463 -8.21507,6.25911 -16.82134,10.46444 -25.8188,12.61601 -5.67231,1.76037 -10.56224,2.44496 -14.66978,2.05377 8.41067,29.92634 27.67698,47.82347 57.79892,53.69138 -9.77985,3.71634 -19.26631,5.57451 -28.45937,5.57451 -4.49873,0 -8.89967,-0.29339 -13.2028,-0.88018 0,2.15157 0.3912,5.18332 1.17359,9.09526 -0.3912,13.49619 -0.6846,25.23201 -0.88019,35.20746 11.93142,12.51821 25.72101,20.24429 41.36877,23.17824 -9.77985,3.71635 -19.26631,5.57452 -28.45937,5.57452 -3.32515,0 -8.31287,-0.39119 -14.96317,-1.17358 -1.56477,9.77985 -3.32515,20.04869 -5.28112,30.80653 11.73582,13.105 25.9166,21.41787 42.54235,24.93862 -9.38865,3.71634 -18.87511,5.57451 -28.45936,5.57451 -8.01948,0 -17.01694,-1.56478 -26.99239,-4.69433 -2.54276,4.30313 -5.37892,8.50847 -8.50847,12.61601 z M 143.59895,88.630452 c -6.4547,9.388659 -13.49619,18.875118 -21.12447,28.459368 -7.62829,9.58425 -16.13676,15.84336 -25.525413,18.77731 -1.760373,13.105 -7.530485,27.97037 -17.310336,44.59612 -9.584253,16.62575 -17.603731,30.31754 -24.058433,41.07537 11.931418,14.47418 24.840821,27.67698 38.728209,39.6084 19.950893,-19.9509 37.848023,-40.09739 53.691383,-60.43948 15.84335,-20.34209 27.67697,-42.34675 35.50085,-66.01399 -4.10753,-4.69433 -6.1613,-10.56224 -6.1613,-17.60373 0,-2.54276 0.48899,-4.20534 1.46698,-4.98773 z m 8.80187,211.538168 14.37638,-14.37638 c 5.08552,-5.08552 9.68205,-10.36664 13.78959,-15.84336 6.4547,-6.4547 9.77985,-10.56224 9.97545,-12.32261 l -3.81414,1.46698 c -2.34717,0.97799 -3.42295,1.85817 -3.22736,2.64056 -4.49873,1.95597 -9.29085,4.10753 -14.37638,6.4547 -4.88992,2.15157 -9.97544,3.81414 -15.25656,4.98772 -11.34463,-1.56477 -21.80907,1.36918 -31.39332,8.80187 4.88992,3.32515 9.87764,6.4547 14.96317,9.38866 5.08552,2.93395 10.07324,5.86791 14.96317,8.80186 z m 87.43186,-214.472123 -9.97544,14.963173 c 4.30313,4.10753 6.4547,9.58425 6.4547,16.43015 0,19.5597 -9.87765,29.33955 -29.63295,29.33955 -0.58679,0 -2.83616,-0.1956 -6.7481,-0.58679 -19.16851,41.85776 -45.7697,79.41239 -79.80358,112.66388 4.10754,-2.34717 9.48646,-4.20534 16.13676,-5.57452 6.4547,0.58679 11.63802,0.58679 15.54996,0 3.91194,-0.78239 8.89966,-3.52074 14.96317,-8.21507 0.58679,0 9.38866,-1.66258 26.4056,-4.98773 17.21253,-3.32515 21.71126,2.05377 13.49619,16.13676 -1.76037,4.69433 -3.91194,9.97545 -6.4547,15.84336 -2.34717,5.67231 -5.86791,11.54022 -10.56224,17.60373 -4.30313,7.82388 -9.77985,14.47418 -16.43015,19.95089 36.38105,15.25657 72.95769,23.27605 109.72993,24.05844 36.96783,0.78239 71.00171,-4.69433 102.10164,-16.43015 0.58679,-16.23455 -0.97799,-34.52288 -4.69433,-54.86497 -6.84589,-39.70619 -21.41787,-73.44668 -43.71593,-101.22145 -10.36665,-13.49619 -21.71127,-25.03642 -34.03388,-34.62067 -15.45217,-12.51821 -36.38105,-26.0144 -62.78665,-40.488583 z M 43.551082,240.90273 c -12.127015,13.49619 -19.364104,23.27604 -21.711268,29.33955 3.520746,5.67231 7.921679,11.83362 13.202798,18.48392 5.281119,6.65029 12.029216,10.17104 20.244291,10.56223 4.107537,1.76037 8.312873,1.76037 12.616007,0 4.498731,-1.76037 8.215075,-3.81413 11.14903,-6.1613 2.933955,-1.17358 6.943694,-3.61854 12.029216,-7.33489 -8.215075,-6.4547 -16.332351,-13.59399 -24.351828,-21.41787 -8.019477,-7.82388 -15.745559,-15.64776 -23.178246,-23.47164 z M 382.12951,341.53739 c -34.03388,11.14903 -71.00171,15.45216 -110.9035,12.9094 -39.7062,-2.73835 -78.63001,-13.10499 -116.77142,-31.09992 -2.73836,2.54276 -5.67232,5.37892 -8.80187,8.50847 -3.12955,2.93395 -6.4547,6.3569 -9.97544,10.26884 -7.43269,7.62829 -16.62575,15.54997 -27.57918,23.76504 -10.757838,8.01947 -12.713808,13.10499 -5.86791,15.25656 h 261.4154 c 9.38866,-15.25657 15.54997,-28.45936 18.48392,-39.60839 z M 155.04138,73.373885 188.48847,95.085154 c 4.49873,-4.889925 10.56224,-7.334888 18.19052,-7.334888 3.52075,0 6.25911,0.391194 8.21508,1.173582 l 8.50847,-12.616008 c -7.62829,-3.91194 -12.42042,-6.356903 -14.37639,-7.334888 -3.52074,-10.366641 -6.1613,-17.310335 -7.92167,-20.831082 -1.56478,-3.716343 -5.28112,-8.801865 -11.14903,-15.256567 -3.52075,-3.325149 -7.13929,-6.259104 -10.85564,-8.801865 -3.52075,-2.738358 -8.21507,-4.009739 -14.08298,-3.814142 1.36918,9.975448 1.85817,18.679515 1.46697,26.112201 -0.39119,7.23709 -3.12955,14.376381 -8.21507,21.417873 -2.15157,2.151567 -3.22735,4.009739 -3.22735,5.574515 z m -37.26123,80.683765 c 8.21507,-13.49619 15.64776,-18.38612 22.29806,-14.66977 6.4547,3.71634 5.77011,12.32261 -2.05377,25.8188 -8.21507,13.49619 -15.54996,18.28832 -22.00466,14.37638 -6.8459,-3.32515 -6.25911,-11.83362 1.76037,-25.52541 z"
           id="path862"
           sodipodi:nodetypes="csscscccccscscccccccccccscccccccccccccccccsccccscccscccsccccscscccscccccccscccssccccccccccccccccccsccccsccccccccccccsccccccccccccccc"
           style="fill:#ffffff;fill-opacity:1;stroke:#000000;stroke-opacity:1" />
      </g>
    </g>
  </g>
</svg>
