<?xml version="1.0" encoding="UTF-8" standalone="no"?>
<!-- Created with Inkscape (http://www.inkscape.org/) -->

<svg
   width="512"
   height="512"
   viewBox="0 0 135.46666 135.46666"
   version="1.1"
   id="svg5"
   inkscape:version="1.1.2 (b8e25be833, 2022-02-05)"
   sodipodi:docname="Black_King.svg"
   xmlns:inkscape="http://www.inkscape.org/namespaces/inkscape"
   xmlns:sodipodi="http://sodipodi.sourceforge.net/DTD/sodipodi-0.dtd"
   xmlns="http://www.w3.org/2000/svg"
   xmlns:svg="http://www.w3.org/2000/svg">
  <sodipodi:namedview
     id="namedview7"
     pagecolor="#ffffff"
     bordercolor="#cccccc"
     borderopacity="1"
     inkscape:pageshadow="0"
     inkscape:pageopacity="1"
     inkscape:pagecheckerboard="true"
     inkscape:document-units="mm"
     showgrid="false"
     inkscape:zoom="0.77593296"
     inkscape:cx="341.52435"
     inkscape:cy="372.45486"
     inkscape:window-width="1920"
     inkscape:window-height="1057"
     inkscape:window-x="-8"
     inkscape:window-y="-8"
     inkscape:window-maximized="1"
     inkscape:current-layer="layer1"
     showborder="false"
     fit-margin-top="10"
     lock-margins="true"
     fit-margin-left="10"
     fit-margin-right="10"
     fit-margin-bottom="10"
     units="px" />
  <defs
     id="defs2" />
  <g
     inkscape:label="Livello 1"
     inkscape:groupmode="layer"
     id="layer1"
     transform="translate(9.9999995,9.9999863)">
    <g
       id="g2062"
       transform="matrix(0.26458322,0,0,0.26458322,-7.354173,-7.3540847)">
      <path
         style="fill:#000001;fill-opacity:1;stroke:#000000;stroke-width:3.86266px;stroke-linecap:butt;stroke-linejoin:miter;stroke-opacity:1"
         d="m 77.645839,452.92841 c -4.491664,-3.06766 -1.499294,-3.61796 -2.640021,-7.0401 -1.177123,-3.53156 -0.582794,0.0116 -1.760019,-3.52004 -0.491843,-1.47563 0.230665,-12.08966 -0.880032,-13.20018 -1.820795,-1.82079 0.07153,2.7824 -1.760034,-0.88004 -0.262345,-0.52468 0.262345,-1.23522 0,-1.76001 -0.185408,-0.37126 -0.694477,-0.50893 -0.880031,-0.88003 -0.262345,-0.5247 0.414905,-1.34516 0,-1.76004 -0.207453,-0.20745 -0.672579,0.20746 -0.880031,0 -0.440016,-0.44002 0.440016,-2.20002 0,-2.64002 -0.207453,-0.20745 -0.672579,0.20746 -0.880032,0 -0.622211,-0.62221 0.27855,-1.80517 0,-2.64001 -0.829956,-2.48967 -3.177967,-4.59596 -4.40004,-7.04011 -0.572868,-1.14558 -0.192708,-3.36905 -0.880032,-4.40008 -0.363809,-0.54571 -1.366472,-0.35534 -1.760033,-0.88003 -0.556517,-0.74207 -0.465126,-1.81036 -0.880032,-2.64002 -0.880178,-1.76044 -2.617305,-2.29368 -3.520053,-4.40008 -0.476367,-1.11173 -0.257674,-2.48293 -0.880031,-3.52004 -3.555048,-5.92504 -0.187306,6.29031 -2.640066,-3.52005 -0.564838,-2.25952 -0.269207,-5.93222 -1.760019,-7.9201 -0.393591,-0.52469 -1.396108,-0.33417 -1.760019,-0.88003 -0.344538,-0.51696 -0.880031,-13.14408 -0.880031,-15.84022 0,-2.56705 -1.099602,-7.48096 0,-9.68011 0.609803,-1.2196 2.15066,-2.15066 2.64002,-2.64002 0.855213,-0.85522 0.257674,-2.48296 0.880032,-3.52006 1.457863,-2.42985 3.463043,-3.46304 5.280072,-5.28006 0.406731,-0.40688 -0.265702,-2.10871 0,-2.64003 1.685126,-3.37032 3.537864,-13.17645 0.880032,-16.72021 -6.55187,-8.73585 -15.384055,-14.19995 -21.120274,-23.76032 -0.754626,-1.25771 -2.09533,-2.15827 -2.64005,-3.52005 -2.800671,-7.00171 -5.546374,-13.99908 -7.920094,-21.12026 -0.958429,-2.87526 -2.9199,-5.7995 -3.520053,-8.80012 -0.509799,-2.54906 -0.370087,-5.37105 -0.880031,-7.92009 -0.828205,-4.14068 -2.801327,-8.00782 -3.520054,-12.32018 -2.325485,-13.95292 -3.562113,-27.82385 -1.760019,-42.24052 0.517974,-4.14418 0.969816,-16.89988 2.640007,-20.24027 0.371254,-0.74208 1.299754,-1.06968 1.760034,-1.76002 0.693893,-1.04077 0.673601,-3.31364 1.760019,-4.40004 0.207453,-0.20746 0.672579,0.20745 0.880031,0 1.639358,-1.63941 2.760654,-4.52072 4.400042,-6.16012 1.209532,-1.20939 3.086081,-1.54502 4.400054,-2.64001 3.678614,-3.06549 5.864459,-6.81835 9.680157,-9.68013 1.834956,-1.37625 6.678122,-2.53711 7.920093,-4.40006 0.325268,-0.4882 -0.414905,-1.34517 0,-1.76004 0.02336,-0.0234 9.864441,-5.04815 10.560101,-5.28003 0.556516,-0.18541 1.345157,0.41476 1.760033,0 0.463813,-0.46381 0.334173,-1.39625 0.880032,-1.76003 1.322237,-0.88149 3.881205,-0.18074 5.280072,-0.88003 1.776209,-0.88807 3.387406,-2.5737 5.280072,-3.52005 1.868184,-0.93405 4.386056,-0.87303 6.160074,-1.76003 1.177707,-0.58893 2.094061,-2.09407 2.640008,-2.64003 0.855213,-0.85521 2.438277,-0.33912 3.520052,-0.88003 0.742071,-0.37125 0.972882,-1.49762 1.760034,-1.76001 3.241693,-1.08062 7.284144,-0.0613 10.560147,-0.88004 5.529094,-1.38223 24.078764,-2.04831 29.920274,-0.88003 1.86299,0.37271 3.43458,2.17862 5.28005,2.64002 1.10807,0.27695 3.34742,-0.52629 4.40016,0 2.76359,1.38181 3.74743,0.9558 6.16007,1.76003 0.39272,0.13139 0.47301,0.79856 0.88032,0.88003 1.15041,0.23022 2.3817,-0.28469 3.51999,0 0.28468,0.0715 -0.26278,0.74878 0,0.88003 3.51998,1.76003 0.43943,-0.88003 2.64009,0 1.21757,0.48717 2.27541,1.34516 3.51999,1.76003 1.27449,0.42482 3.15339,0.25694 4.4,0.88003 1.33436,0.66702 10.98404,5.70392 11.44012,6.16011 0.20731,0.20746 -0.26278,0.74879 0,0.88004 0.78689,0.39359 1.85291,-0.3936 2.6401,0 0.73433,0.3673 1.651,2.58554 1.76006,2.64001 0.52411,0.26221 1.20296,-0.1854 1.76006,0 2.20621,0.73551 3.56641,3.56648 4.40002,4.40009 0.38103,0.38118 2.95208,1.38136 3.51997,1.76002 1.24823,0.83229 1.08618,1.96668 1.76007,2.64002 0.16204,0.16219 2.4779,0.71783 2.64009,0.88003 0.19125,0.19081 0.70805,1.67423 0.88033,1.76002 0.5241,0.26234 1.27158,-0.32527 1.75991,0 0.54601,0.3638 0.41607,1.29625 0.88032,1.75999 0.20731,0.20745 0.61755,-0.13139 0.88033,0 1.34165,0.67068 1.90416,2.41622 2.64009,3.52006 0.94019,1.41055 2.88682,1.37391 3.51998,2.64004 0.37666,0.75258 0.50367,1.88741 0.88033,2.64002 0.70367,1.40881 3.02361,1.1507 3.51998,2.64006 0.18541,0.55651 -0.32556,1.27186 0,1.76002 0.39856,0.59886 5.66808,4.78802 6.16007,5.28003 0.36936,0.36893 0.61316,2.10671 0.88032,2.64007 0.70806,1.41494 1.69584,0.50104 2.6401,1.76002 0.78689,1.04939 0.83215,2.59243 1.75992,3.52005 1.12997,1.12953 2.67411,1.79398 3.52012,2.64002 0.20731,0.20746 -0.26278,0.74879 0,0.88004 0.5241,0.26234 1.23508,-0.26235 1.76006,0 0.30367,0.15183 1.45554,3.21509 1.75992,3.52005 0.30512,0.30512 3.36845,1.4567 3.52013,1.76002 0.26278,0.52469 -0.41461,1.34516 0,1.76004 0.41461,0.4149 1.27158,-0.32527 1.76006,0 0.67155,0.4476 1.66765,4.35394 1.75992,4.40006 0.5241,0.26235 1.23508,-0.26234 1.76007,0 0.7241,0.36235 1.49844,4.49537 1.76005,5.28005 1.10953,3.32687 4.58192,6.52404 6.16008,9.68015 0.26278,0.52469 -0.41461,1.34516 0,1.76002 1.07595,1.07537 3.66816,1.90813 4.40001,2.64002 0.41462,0.41491 -0.41462,1.34517 0,1.76002 0.94456,0.94514 10.26942,-2.34931 10.56009,-2.64005 0.46424,-0.46381 0.41606,-1.29625 0.88032,-1.75999 0.46425,-0.46381 1.2964,-0.41622 1.76006,-0.88003 0.92704,-0.92762 0.83215,-2.59243 1.76006,-3.52005 0.46425,-0.46382 1.36647,-0.35535 1.75992,-0.88003 2.54404,-3.39189 6.57119,-14.90238 8.80017,-19.36027 0.71097,-1.42342 2.63761,-1.3164 3.52012,-2.64002 2.95033,-4.42562 5.19128,-6.07135 8.80003,-9.68012 1.97452,-1.97448 3.35107,-5.11116 5.28004,-7.0401 1.79963,-1.79961 2.50972,-2.19474 4.40016,-4.40005 2.83966,-3.313 6.76856,-5.00857 9.68005,-7.92013 1.07158,-1.07187 0.4117,-1.9661 1.76007,-2.64001 0.82922,-0.41491 1.86824,-0.36541 2.63994,-0.88003 0.29929,-0.19898 2.42112,-3.15372 3.52013,-3.52005 0.55623,-0.18541 1.19128,0.14161 1.76006,0 2.72404,-0.68105 1.01464,-1.13727 3.51998,-2.64006 3.04303,-1.82577 9.77787,-5.89933 13.20018,-7.0401 1.14749,-0.38235 2.43819,-0.33914 3.51999,-0.88003 2.17686,-1.08836 4.40555,-3.87314 7.0401,-4.40004 0.86281,-0.17271 1.85291,0.39359 2.6401,0 0.58687,-0.29359 0.29343,-1.4667 0.88032,-1.76004 0.78689,-0.39359 1.77715,0.17271 2.63994,0 7.96,-1.59199 -2.3903,-0.0832 2.6401,-1.76002 1.53758,-0.51257 2.86243,-0.3673 4.40001,-0.88003 0.39417,-0.13139 0.58688,-0.58659 0.88033,-0.88003 0.58688,-0.29314 1.12413,-0.7209 1.76006,-0.88003 1.13872,-0.28468 2.4068,0.37126 3.51998,0 2.83733,-0.94573 6.39556,-1.1031 9.6802,-1.76003 1.39567,-0.27929 3.01996,0.34497 4.40001,0 2.52009,-0.62995 4.81711,-1.89901 7.04011,-2.64002 1.32997,-0.44323 3.0366,0.34074 4.40001,0 7.24551,-1.8114 15.36668,-0.88004 22.88038,-0.88004 3.69239,0 10.92462,-0.69769 14.08006,0.88004 0.74164,0.37125 1.01756,1.38895 1.76007,1.76003 1.08178,0.54089 2.39716,0.43082 3.52012,0.88003 1.35042,0.54046 5.11405,2.47417 6.16008,3.52005 0.46425,0.46382 0.31826,1.42253 0.88032,1.76002 1.03653,0.62236 2.48301,0.25768 3.52012,0.88003 1.68255,3.36521 -0.2584,0.79361 2.63996,1.76004 1.01171,0.3368 1.22048,2.10093 1.76006,2.64002 7.94772,7.94767 0.1781,0.0891 3.52013,1.76002 0.58687,0.29314 0.29343,1.46669 0.88032,1.76002 0.5241,0.26235 1.20296,-0.18541 1.75991,0 1.39567,0.46527 1.8135,2.69348 2.6401,3.52006 1.47392,1.47396 4.27168,3.39168 5.28005,4.40003 0.8555,0.85521 0.20876,2.51371 0.88031,3.52005 2.28914,3.43362 3.23297,3.08941 5.28005,6.16008 0.32556,0.48819 -0.26278,1.23522 0,1.76002 1.83116,3.66239 -0.0584,-0.94077 1.76006,0.88003 0.79273,0.79302 1.23509,3.35074 1.76007,4.40004 0.473,0.94602 1.01171,1.89217 1.75991,2.64007 0.20731,0.20745 0.74893,-0.26235 0.88032,0 0.39418,0.78703 -0.62191,2.01773 0,2.64001 0.20731,0.20744 0.67302,-0.20746 0.88033,0 0.5533,0.55285 5.74239,16.80968 6.16007,18.48024 0.28468,1.1383 -0.5241,2.47056 0,3.52005 0.37082,0.74208 1.38838,1.01785 1.76006,1.76003 0.89785,1.79733 -0.39854,5.05028 0,7.04006 1.06428,5.32079 2.10431,26.78304 0.88033,31.6804 -0.20146,0.80499 -1.55889,0.95507 -1.76007,1.76004 -0.21314,0.85374 0.21315,1.78628 0,2.64004 -0.10219,0.42965 -4.38103,10.54104 -4.40015,10.56013 -0.2073,0.20745 -0.74893,-0.26236 -0.88032,0 -0.26279,0.52468 0.26278,1.23522 0,1.76001 -0.37082,0.74207 -1.38838,1.01799 -1.76006,1.76004 -1.04384,2.08706 -1.18253,7.06844 -1.76007,8.80012 -0.27009,0.81098 -1.23362,3.87445 -1.75992,4.40004 -0.20731,0.20745 -0.74893,-0.26219 -0.88032,0 -0.81462,1.62873 -0.28614,4.37899 -0.88032,6.1601 -1.28181,3.84398 -0.63214,-0.6206 -2.64009,4.40005 -0.47448,1.18515 -0.27447,3.19028 -0.88033,4.40003 -1.2818,2.56413 -3.11792,5.35602 -4.40002,7.92015 -0.26278,0.52468 0.41462,1.34515 0,1.75998 -1.82079,1.82079 0.073,-2.78236 -1.76006,0.88003 -0.26278,0.52469 0.18541,1.2034 0,1.76002 -0.68032,2.04158 -2.47395,3.35408 -3.51997,4.40004 -0.36936,0.36892 -0.61316,2.10671 -0.88033,2.64007 -0.37081,0.74207 -1.29932,1.06967 -1.76006,1.76002 -1.66401,2.49608 -2.30257,5.82259 -4.40002,7.92009 -0.2073,0.20746 -0.67301,-0.20745 -0.88032,0 -0.82338,0.82309 -1.2015,4.16446 -1.76006,5.28008 -1.83116,3.66239 0.0584,-0.94077 -1.75992,0.88003 -1.092,1.0923 -0.22774,2.86779 -0.88033,3.52003 -0.2073,0.20745 -0.67301,-0.20745 -0.88031,0 -0.41461,0.41491 0.41461,1.34516 0,1.76004 -0.20731,0.20745 -0.74894,-0.26235 -0.88033,0 0,4.98673 0.58688,0.29315 -0.88032,1.76002 -1.2599,1.25975 1.48545,17.65657 1.76006,18.48024 0.63652,1.91122 1.67962,4.23912 2.63995,6.16007 1.238,2.47644 -0.40732,6.22593 0.88033,8.80012 0.55768,1.11537 0,4.00564 0,5.28008 0,1.27012 0.8482,7.95166 0,8.80008 -0.20731,0.20745 -0.74894,-0.26234 -0.88033,0 -0.25256,0.50439 -1.63655,5.15666 -1.75992,5.28008 -0.2073,0.20746 -0.74893,-0.26234 -0.88033,0 -0.26277,0.52469 0.41463,1.34516 0,1.76002 -0.41461,0.41491 -1.23507,-0.26234 -1.76006,0 -0.33869,0.1695 -1.4161,2.83203 -1.76005,3.52006 -0.29345,0.58673 -1.46663,0.29314 -1.75992,0.88003 -0.87157,1.7426 -0.61754,3.87507 -1.76007,6.1601 -2.01379,4.02746 0.36498,-3.73427 -1.76006,2.64003 -0.3314,0.99711 0.46571,2.58752 0,3.52005 -2.65718,5.31449 -3.46056,12.2012 -6.16008,17.6002 -1.87437,3.74888 1.33728,10.06754 0,14.0802 -0.46279,1.38983 -2.06269,9.98291 -2.63994,10.56016 -0.20731,0.20745 -0.67302,-0.20746 -0.88033,0 -1.19128,1.19201 -0.0438,0.99463 -0.88032,3.52001 -0.2073,0.62221 -1.46662,0.29358 -1.76007,0.88003 -0.26278,0.52469 0.32556,1.27187 0,1.76002 -0.36351,0.54571 -1.29639,0.41621 -1.75991,0.88003 -0.75623,0.75608 -5.91379,6.95797 -6.16022,7.04009 -0.55623,0.18541 -1.27158,-0.32527 -1.75992,0 -2.48199,1.65469 0.70367,1.52561 -5.28004,3.52005 -2.90886,0.96953 -4.76791,2.46929 -7.92014,3.52006 -2.9566,0.98558 -9.85831,-0.35067 -12.32015,0.88002 -1.62414,0.81216 -2.66666,0.30206 -4.40016,0.88003 -0.3927,0.1314 -0.47738,0.77946 -0.88031,0.88004 -2.66711,0.66674 -16.04043,1.8601 -17.60034,2.64005 -3.72962,1.86482 -8.6409,1.68041 -12.32015,3.52005 -1.12121,0.56075 -3.17837,-0.30555 -4.40002,0 -1.27303,0.31826 -2.27555,1.34516 -3.51997,1.75999 -1.02048,0.33987 -2.4963,-0.25607 -3.52013,0 -4.64527,1.16136 -9.44063,1.48017 -14.08021,2.64006 -7.02872,1.75719 -16.38088,-1.05421 -23.76026,0 -11.66627,1.66658 -23.32376,2.57667 -35.2004,0.88003 -7.83911,-1.1199 -25.58646,2.16704 -31.68039,-0.88003 -2.50506,-1.25246 -8.58352,0 -11.44027,0 -8.50673,0 -17.01345,0 -25.52033,0 -3.99416,0 -8.40906,0.5587 -12.32015,0 -3.04477,-0.43506 -5.9421,-1.04559 -8.80002,-1.76003 -1.54984,-0.38745 -3.88174,0.69916 -5.28019,0 -1.30807,-0.65417 -2.80112,-1.44019 -4.40001,-1.76003 -5.35362,-1.07069 -12.18745,-0.40688 -17.60019,-1.76002 -2.50024,-0.62513 -3.76408,-2.04103 -6.16008,-2.64002 -1.13873,-0.28468 -2.36943,0.23023 -3.52013,0 -3.95372,-0.79068 -7.67487,-2.57875 -11.44011,-3.52005 -2.98128,-0.74529 -22.578387,-3.31883 -22.880182,-3.52006 -1.455963,-0.97069 -4.675873,-3.80638 -6.160102,-4.40003 -0.817109,-0.32673 -1.822956,0.32673 -2.640021,0 -2.066951,-0.82675 -5.151221,-4.02085 -7.040106,-5.28008 -1.057556,-0.70513 -3.442212,-0.1638 -4.400041,-1.76001 -0.622212,-1.03713 -0.58659,-2.34671 -0.880032,-3.52006 z"
         id="path856" />
      <path
         style="fill:#000001;fill-opacity:1;stroke:#000000;stroke-width:3.86266px;stroke-linecap:butt;stroke-linejoin:miter;stroke-opacity:1"
         d="m 207.09397,134.33164 c -0.31681,-10.71213 0.24015,-22.80051 6.16007,-31.6804 0.80529,-1.20786 1.11157,-3.381124 2.64004,-4.400065 3.21879,-2.145859 6.00144,-3.17383 9.68013,-4.400054 0.83492,-0.278276 1.80517,0.278276 2.64002,0 1.10706,-0.369037 2.22163,-1.327216 3.52005,-1.760025 2.29852,-0.766174 5.77801,1.071049 7.92011,0 3.31322,-1.656613 7.65445,-1.002883 11.44014,-1.760021 7.40941,-1.481882 0.0277,-0.01352 3.52004,-1.760021 1.45056,-0.725267 8.75859,-0.460776 9.68013,0 0.26234,0.131245 -0.20746,0.672593 0,0.880003 0.44002,0.44 2.20002,-0.440002 2.64003,0 0.20746,0.207423 -0.26234,0.74883 0,0.880016 0.52469,0.26236 1.23523,-0.262345 1.76002,0 0.10658,0.05329 0.73755,2.497548 0.88003,2.640035 1.91216,1.912152 1.57746,0.514897 3.52004,4.400054 0.6739,1.347806 1.5682,0.688188 2.64004,1.760025 1.0923,1.092273 0.22774,2.867783 0.88003,3.520043 0.38833,0.38832 2.25745,1.49227 2.64004,2.64004 0.78863,2.36595 0.69695,4.914 1.76003,7.04009 0.4663,0.93252 -0.33242,2.52293 0,3.52005 1.61009,4.83026 2.64003,8.05126 2.64003,13.20016 0,3.48392 0.89084,17.58934 -0.88003,19.36026 -0.20745,0.20744 -0.67258,-0.20745 -0.88003,0 -0.79857,0.79856 -0.54468,2.70987 -1.76002,3.52003 -0.5457,0.36381 -1.29624,0.41622 -1.76001,0.88003 -0.2933,0.2933 -0.58674,2.34671 -0.88003,2.64004 -0.49725,0.49725 -2.8645,1.10442 -3.52004,1.76002 -0.46382,0.46381 -0.41622,1.29625 -0.88004,1.76002 -0.6771,0.6771 -2.61665,0.65418 -3.52004,0.88003 -1.70844,0.42717 -2.82279,2.00913 -4.40006,2.64004 -0.65068,0.26029 -3.8846,0.36454 -4.40004,0.88003 -0.20746,0.20745 0.26234,0.74879 0,0.88003 -1.04953,0.52469 -2.3695,-0.23009 -3.52006,0 -1.8192,0.36381 -3.46086,1.39611 -5.28007,1.76002 -3.71237,0.74251 -16.38939,1.84272 -20.24025,0.88003 -4.6934,-1.17333 0.88003,-0.2933 -2.64004,-2.64004 -0.4882,-0.32541 -1.19085,0.14162 -1.76002,0 -2.02658,-0.50659 -6.60988,-3.08982 -7.92011,-4.40005 -1.76002,-1.76002 -2.64004,-4.40005 -4.40006,-6.16008 -0.20745,-0.20745 -0.67257,0.20745 -0.88003,0 -0.63973,-0.63973 -1.12033,-3.76039 -1.76003,-4.40006 -0.20745,-0.20746 -0.67258,0.20745 -0.88003,0 -0.18511,-0.18512 -0.60659,-5.06668 -0.88003,-6.16008 -0.20132,-0.8049 -1.38896,-1.01794 -1.76002,-1.76003 -1.24581,-2.49188 -1.75993,-4.38437 -1.75993,-7.04017 z"
         id="path1781" />
      <text
         xml:space="preserve"
         style="font-size:583.963px;line-height:1.25;font-family:'Chess Condal';-inkscape-font-specification:'Chess Condal';fill:#ffffff;fill-opacity:1;stroke:#000000;stroke-width:3.86266;stroke-opacity:1"
         x="-46.154484"
         y="551.95312"
         id="text19176"><tspan
           sodipodi:role="line"
           id="tspan19174"
           style="fill:#ffffff;fill-opacity:1;stroke:#000000;stroke-width:3.86266;stroke-opacity:1"
           x="-46.154484"
           y="551.95312">k</tspan></text>
    </g>
  </g>
</svg>
