<?xml version="1.0" encoding="UTF-8" standalone="no"?>
<!-- Created with Inkscape (http://www.inkscape.org/) -->

<svg
   width="532.00024mm"
   height="542.53528mm"
   viewBox="0 0 532.00024 542.53528"
   version="1.1"
   id="svg5"
   inkscape:version="1.1.2 (b8e25be833, 2022-02-05)"
   sodipodi:docname="Black_King.svg"
   xmlns:inkscape="http://www.inkscape.org/namespaces/inkscape"
   xmlns:sodipodi="http://sodipodi.sourceforge.net/DTD/sodipodi-0.dtd"
   xmlns="http://www.w3.org/2000/svg"
   xmlns:svg="http://www.w3.org/2000/svg">
  <sodipodi:namedview
     id="namedview7"
     pagecolor="#ffffff"
     bordercolor="#cccccc"
     borderopacity="1"
     inkscape:pageshadow="0"
     inkscape:pageopacity="1"
     inkscape:pagecheckerboard="true"
     inkscape:document-units="mm"
     showgrid="false"
     inkscape:zoom="0.19398324"
     inkscape:cx="1020.7067"
     inkscape:cy="1149.5839"
     inkscape:window-width="1920"
     inkscape:window-height="1017"
     inkscape:window-x="-8"
     inkscape:window-y="32"
     inkscape:window-maximized="1"
     inkscape:current-layer="layer1"
     showborder="false"
     fit-margin-top="10"
     lock-margins="true"
     fit-margin-left="10"
     fit-margin-right="10"
     fit-margin-bottom="10" />
  <defs
     id="defs2" />
  <g
     inkscape:label="Livello 1"
     inkscape:groupmode="layer"
     id="layer1"
     transform="translate(9.9999995,9.9999863)">
    <path
       style="fill:#000001;fill-opacity:1;stroke:#000000;stroke-width:4.06816px;stroke-linecap:butt;stroke-linejoin:miter;stroke-opacity:1"
       d="m 78.689378,479.2048 c -4.730624,-3.23086 -1.579058,-3.81044 -2.780472,-7.41464 -1.239747,-3.71944 -0.6138,0.0122 -1.853654,-3.70731 -0.518009,-1.55413 0.242937,-12.73284 -0.92685,-13.90244 -1.917663,-1.91765 0.07534,2.93043 -1.853669,-0.92685 -0.276302,-0.5526 0.276302,-1.30094 0,-1.85365 -0.195272,-0.39101 -0.731424,-0.536 -0.92685,-0.92685 -0.276302,-0.55261 0.436979,-1.41672 0,-1.85367 -0.218489,-0.21849 -0.70836,0.21849 -0.926849,0 -0.463425,-0.46343 0.463425,-2.31706 0,-2.78047 -0.21849,-0.21849 -0.708361,0.21849 -0.92685,0 -0.655314,-0.65532 0.293369,-1.90121 0,-2.78046 -0.874111,-2.62213 -3.347038,-4.84047 -4.634126,-7.41465 -0.603345,-1.20653 -0.20296,-3.54829 -0.92685,-4.63417 -0.383164,-0.57474 -1.43917,-0.37424 -1.853669,-0.92685 -0.586124,-0.78155 -0.489871,-1.90667 -0.92685,-2.78047 -0.927004,-1.8541 -2.756548,-2.41571 -3.707323,-4.63417 -0.50171,-1.17087 -0.271382,-2.61502 -0.926849,-3.70731 -3.744179,-6.24025 -0.197271,6.62496 -2.780519,-3.70732 -0.594888,-2.37972 -0.283529,-6.24781 -1.853654,-8.34145 -0.41453,-0.55261 -1.470382,-0.35195 -1.853653,-0.92685 -0.362868,-0.54446 -0.92685,-13.84335 -0.92685,-16.68293 0,-2.70362 -1.158101,-7.87895 0,-10.1951 0.642245,-1.28449 2.265077,-2.26508 2.780472,-2.78047 0.900711,-0.90072 0.271382,-2.61506 0.92685,-3.70733 1.535422,-2.55912 3.64728,-3.64728 5.560976,-5.56097 0.428369,-0.42852 -0.279838,-2.22089 0,-2.78048 1.774776,-3.54962 3.726081,-13.87745 0.92685,-17.60974 -6.900434,-9.2006 -16.202498,-14.95539 -22.243889,-25.02438 -0.794772,-1.32462 -2.206803,-2.27309 -2.780503,-3.70732 -2.949668,-7.37421 -5.841445,-14.74385 -8.341449,-22.24388 -1.009418,-3.02822 -3.075241,-6.10803 -3.707322,-9.26829 -0.536921,-2.68467 -0.389776,-5.65679 -0.92685,-8.34145 -0.872266,-4.36096 -2.95036,-8.43384 -3.707323,-12.97562 -2.449203,-14.69523 -3.75162,-29.3041 -1.853654,-44.48775 0.545531,-4.36465 1.021411,-17.79896 2.780458,-21.31707 0.391005,-0.78155 1.368902,-1.12658 1.853669,-1.85365 0.730809,-1.09614 0.709437,-3.48993 1.853653,-4.63413 0.21849,-0.21849 0.708361,0.21849 0.92685,0 1.726573,-1.72662 2.907523,-4.76122 4.634127,-6.48784 1.27388,-1.27373 3.250263,-1.62722 4.634141,-2.78046 3.874319,-3.22858 6.176452,-7.18109 10.195149,-10.19512 1.932577,-1.44947 7.033403,-2.67209 8.341448,-4.63415 0.342572,-0.51417 -0.436978,-1.41673 0,-1.85367 0.0246,-0.0246 10.389237,-5.31672 11.121906,-5.56093 0.586124,-0.19528 1.416721,0.43682 1.853669,0 0.488488,-0.48849 0.351951,-1.47054 0.92685,-1.85367 1.392581,-0.92839 4.087688,-0.19035 5.560976,-0.92685 1.870705,-0.93531 3.567619,-2.71062 5.560976,-3.70732 1.967573,-0.98374 4.619397,-0.91947 6.487795,-1.85366 1.240362,-0.62026 2.205466,-2.20548 2.780458,-2.78048 0.900711,-0.90071 2.567995,-0.35717 3.707322,-0.92685 0.781549,-0.391 1.02464,-1.5773 1.853669,-1.85365 3.414153,-1.13811 7.671666,-0.0646 11.121955,-0.92685 5.82325,-1.45577 25.35977,-2.15729 31.51206,-0.92685 1.9621,0.39254 3.6173,2.29452 5.56095,2.78047 1.16702,0.29168 3.5255,-0.55429 4.63425,0 2.91062,1.45532 3.9468,1.00665 6.48779,1.85366 0.41361,0.13838 0.49818,0.84105 0.92716,0.92685 1.21161,0.24247 2.5084,-0.29983 3.70725,0 0.29983,0.0753 -0.27676,0.78862 0,0.92685 3.70725,1.85366 0.46281,-0.92685 2.78055,0 1.28234,0.51309 2.39646,1.41672 3.70725,1.85366 1.3423,0.44743 3.32116,0.27061 4.63409,0.92685 1.40534,0.70251 11.5684,6.00738 12.04874,6.48784 0.21834,0.21849 -0.27676,0.78862 0,0.92685 0.82875,0.41453 1.95149,-0.41453 2.78055,0 0.7734,0.38685 1.73884,2.7231 1.8537,2.78047 0.55199,0.27615 1.26696,-0.19527 1.8537,0 2.32358,0.77463 3.75614,3.75622 4.6341,4.63417 0.4013,0.40146 3.10913,1.45485 3.70724,1.85366 1.31463,0.87657 1.14396,2.07131 1.8537,2.78047 0.17067,0.17082 2.60973,0.75602 2.78055,0.92685 0.20142,0.20096 0.74572,1.7633 0.92716,1.85365 0.55199,0.2763 1.33923,-0.34257 1.85354,0 0.57506,0.38316 0.43821,1.36521 0.92716,1.85362 0.21834,0.21849 0.6504,-0.13838 0.92716,0 1.41303,0.70637 2.00546,2.54477 2.78055,3.70733 0.9902,1.4856 3.0404,1.44701 3.70724,2.7805 0.3967,0.79262 0.53047,1.98782 0.92716,2.78047 0.74111,1.48376 3.18447,1.21192 3.70725,2.78051 0.19527,0.58612 -0.34288,1.33953 0,1.85366 0.41976,0.63072 5.96963,5.04274 6.48779,5.56093 0.38901,0.38855 0.64578,2.21879 0.92716,2.78052 0.74572,1.49022 1.78605,0.5277 2.78055,1.85366 0.82875,1.10521 0.87642,2.73034 1.85355,3.70732 1.19008,1.18962 2.81637,1.88942 3.70739,2.78047 0.21834,0.21849 -0.27676,0.78862 0,0.92685 0.55199,0.2763 1.30079,-0.2763 1.8537,0 0.31982,0.15991 1.53297,3.38614 1.85355,3.70732 0.32135,0.32136 3.54765,1.5342 3.7074,1.85366 0.27676,0.5526 -0.43667,1.41672 0,1.85367 0.43667,0.43698 1.33923,-0.34257 1.8537,0 0.70728,0.47142 1.75637,4.58558 1.85355,4.63415 0.55198,0.27631 1.30078,-0.2763 1.8537,0 0.76263,0.38163 1.57816,4.73453 1.85369,5.56095 1.16856,3.50387 4.82568,6.87113 6.4878,10.19515 0.27676,0.5526 -0.43667,1.41672 0,1.85365 1.13319,1.13258 3.86331,2.00964 4.6341,2.78047 0.43667,0.43698 -0.43668,1.41673 0,1.85366 0.99481,0.99542 10.81576,-2.4743 11.12189,-2.78051 0.48894,-0.48848 0.4382,-1.36521 0.92715,-1.85362 0.48895,-0.48849 1.36537,-0.43836 1.8537,-0.92685 0.97636,-0.97697 0.87642,-2.73035 1.8537,-3.70732 0.48895,-0.48849 1.43917,-0.37425 1.85355,-0.92685 2.67938,-3.57234 6.92078,-15.69519 9.26834,-20.39025 0.7488,-1.49914 2.77794,-1.38643 3.7074,-2.78047 3.10729,-4.66107 5.46746,-6.39435 9.26819,-10.19511 2.07957,-2.07952 3.52935,-5.38308 5.56095,-7.41464 1.89537,-1.89535 2.64324,-2.3115 4.63425,-4.63413 2.99073,-3.48926 7.12865,-5.27503 10.19504,-8.34149 1.12858,-1.12889 0.4336,-2.0707 1.8537,-2.78046 0.87334,-0.43698 1.96763,-0.38485 2.78039,-0.92685 0.31521,-0.20957 2.54992,-3.3215 3.7074,-3.70732 0.58582,-0.19527 1.25466,0.14914 1.8537,0 2.86896,-0.71728 1.06862,-1.19777 3.70725,-2.78051 3.20492,-1.9229 10.29806,-6.21318 13.90244,-7.41464 1.20853,-0.40269 2.5679,-0.35718 3.70725,-0.92685 2.29267,-1.14626 4.63993,-4.07919 7.41464,-4.63413 0.90871,-0.18189 1.95149,0.41453 2.78055,0 0.6181,-0.3092 0.30905,-1.54472 0.92716,-1.85367 0.82875,-0.41453 1.87169,0.1819 2.78039,0 8.38347,-1.67669 -2.51747,-0.0876 2.78055,-1.85365 1.61938,-0.53984 3.01472,-0.38685 4.6341,-0.92685 0.41514,-0.13838 0.6181,-0.6178 0.92716,-0.92685 0.6181,-0.30874 1.18393,-0.75925 1.8537,-0.92685 1.1993,-0.29983 2.53484,0.39101 3.70724,0 2.98828,-0.99604 6.73581,-1.16179 10.1952,-1.85367 1.46992,-0.29414 3.18062,0.36333 4.63409,0 2.65416,-0.66346 5.07338,-2.00003 7.41465,-2.78047 1.40073,-0.46681 3.19815,0.35887 4.63409,0 7.63098,-1.90776 16.1842,-0.92685 24.09764,-0.92685 3.88883,0 11.50582,-0.73481 14.82913,0.92685 0.78109,0.391 1.07169,1.46285 1.8537,1.85367 1.13934,0.56967 2.5247,0.45374 3.7074,0.92685 1.42226,0.56921 5.38612,2.60579 6.4878,3.70732 0.48895,0.48849 0.33519,1.49821 0.92715,1.85365 1.09168,0.65547 2.61511,0.27139 3.7074,0.92685 1.77206,3.54424 -0.27215,0.83583 2.7804,1.85367 1.06554,0.35472 1.28541,2.21271 1.8537,2.78048 8.37055,8.37049 0.18758,0.0938 3.7074,1.85365 0.6181,0.30874 0.30905,1.54472 0.92716,1.85365 0.55198,0.27631 1.26696,-0.19527 1.85354,0 1.46992,0.49003 1.90998,2.83678 2.78055,3.70733 1.55234,1.55238 4.49894,3.57213 5.56095,4.63412 0.90102,0.90071 0.21987,2.64744 0.92715,3.70732 2.41092,3.61629 3.40496,3.25377 5.56095,6.4878 0.34288,0.51416 -0.27676,1.30094 0,1.85365 1.92858,3.85724 -0.0615,-0.99081 1.8537,0.92685 0.8349,0.83521 1.30079,3.52901 1.8537,4.63413 0.49817,0.99635 1.06554,1.99283 1.85354,2.78052 0.21834,0.21849 0.78878,-0.2763 0.92716,0 0.41515,0.8289 -0.655,2.12508 0,2.78046 0.21834,0.21848 0.70882,-0.21849 0.92716,0 0.58274,0.58227 6.04789,17.70397 6.48779,19.46341 0.29983,1.19885 -0.55198,2.60199 0,3.70732 0.39055,0.78155 1.46224,1.072 1.8537,1.85366 0.94561,1.89295 -0.41975,5.31896 0,7.4146 1.1209,5.60386 2.21626,28.20792 0.92716,33.36582 -0.21218,0.84782 -1.64182,1.00588 -1.8537,1.85367 -0.22448,0.89917 0.22449,1.88132 0,2.7805 -0.10763,0.45251 -4.61411,11.10183 -4.63425,11.12193 -0.21833,0.21849 -0.78877,-0.27631 -0.92715,0 -0.27677,0.5526 0.27676,1.30094 0,1.85365 -0.39055,0.78155 -1.46224,1.07215 -1.8537,1.85367 -1.09937,2.1981 -1.24544,7.44449 -1.8537,9.2683 -0.28446,0.85412 -1.29925,4.08057 -1.85355,4.63412 -0.21834,0.21849 -0.78878,-0.27614 -0.92716,0 -0.85796,1.71538 -0.30136,4.61196 -0.92715,6.48783 -1.35,4.04848 -0.66577,-0.65362 -2.78055,4.63413 -0.49972,1.2482 -0.28907,3.36001 -0.92716,4.63412 -1.34999,2.70054 -3.2838,5.64096 -4.6341,8.3415 -0.27676,0.5526 0.43667,1.41672 0,1.85362 -1.91766,1.91765 0.0769,-2.93039 -1.8537,0.92685 -0.27676,0.5526 0.19527,1.26742 0,1.85365 -0.71651,2.15019 -2.60557,3.53252 -3.70724,4.63413 -0.38901,0.38854 -0.64578,2.21878 -0.92716,2.78052 -0.39054,0.78155 -1.36844,1.12658 -1.8537,1.85365 -1.75253,2.62888 -2.42506,6.13236 -4.6341,8.34145 -0.21833,0.21849 -0.70882,-0.21849 -0.92715,0 -0.86719,0.86688 -1.26543,4.38601 -1.8537,5.56098 -1.92858,3.85723 0.0615,-0.99082 -1.85355,0.92685 -1.1501,1.15041 -0.23986,3.02036 -0.92716,3.7073 -0.21833,0.21849 -0.70882,-0.21849 -0.92715,0 -0.43667,0.43698 0.43667,1.41672 0,1.85367 -0.21834,0.21849 -0.78878,-0.2763 -0.92716,0 0,5.25203 0.6181,0.30875 -0.92716,1.85366 -1.32692,1.32677 1.56448,18.59591 1.8537,19.4634 0.67038,2.0129 1.76898,4.46465 2.7804,6.48779 1.30386,2.60819 -0.42899,6.55716 0.92716,9.2683 0.58735,1.17471 0,4.21874 0,5.56098 0,1.33769 0.89333,8.37469 0,9.26825 -0.21834,0.21849 -0.78878,-0.2763 -0.92716,0 -0.266,0.53123 -1.72362,5.431 -1.85355,5.56099 -0.21833,0.21849 -0.78877,-0.2763 -0.92716,0 -0.27676,0.5526 0.43668,1.41672 0,1.85365 -0.43667,0.43698 -1.30078,-0.2763 -1.8537,0 -0.35671,0.17852 -1.49144,2.9827 -1.85369,3.70733 -0.30906,0.61795 -1.54465,0.30874 -1.85355,0.92685 -0.91793,1.83531 -0.65039,4.08123 -1.8537,6.48782 -2.12093,4.24172 0.38439,-3.93293 -1.8537,2.78048 -0.34903,1.05016 0.49049,2.72518 0,3.70732 -2.79854,5.59723 -3.64467,12.85032 -6.4878,18.53655 -1.97409,3.94832 1.40842,10.60314 0,14.82927 -0.48741,1.46377 -2.17243,10.51401 -2.78039,11.12197 -0.21834,0.21849 -0.70882,-0.21849 -0.92716,0 -1.25466,1.25543 -0.0461,1.04755 -0.92716,3.70728 -0.21833,0.65531 -1.54464,0.3092 -1.8537,0.92685 -0.27676,0.5526 0.34288,1.33953 0,1.85365 -0.38285,0.57475 -1.36536,0.43836 -1.85354,0.92685 -0.79646,0.79631 -6.22841,7.32814 -6.48795,7.41463 -0.58582,0.19527 -1.33923,-0.34257 -1.85355,0 -2.61403,1.74272 0.74111,1.60677 -5.56094,3.70732 -3.06362,1.02111 -5.02157,2.60066 -8.3415,3.70733 -3.11389,1.03801 -10.38278,-0.36933 -12.97559,0.92684 -1.71055,0.85536 -2.80853,0.31813 -4.63425,0.92685 -0.4136,0.13839 -0.50278,0.82092 -0.92715,0.92685 -2.809,0.70221 -16.89379,1.95906 -18.53669,2.78051 -3.92804,1.96403 -9.1006,1.76981 -12.97559,3.70732 -1.18086,0.59058 -3.34746,-0.32181 -4.6341,0 -1.34076,0.33519 -2.39662,1.41672 -3.70724,1.85362 -1.07477,0.35795 -2.6291,-0.26969 -3.7074,0 -4.89241,1.22314 -9.94288,1.55892 -14.82929,2.78051 -7.40266,1.85068 -17.25236,-1.11029 -25.02433,0 -12.28692,1.75525 -24.5646,2.71375 -37.07308,0.92685 -8.25616,-1.17948 -26.94768,2.28233 -33.36582,-0.92685 -2.63833,-1.31909 -9.04017,0 -12.0489,0 -8.95929,0 -17.91858,0 -26.87803,0 -4.20665,0 -8.85643,0.58843 -12.97559,0 -3.20676,-0.4582 -6.25823,-1.10121 -9.26819,-1.85366 -1.63229,-0.40807 -4.08825,0.73635 -5.5611,0 -1.37766,-0.68898 -2.95014,-1.51681 -4.63409,-1.85367 -5.63844,-1.12765 -12.83583,-0.42852 -18.53654,-1.85365 -2.63325,-0.65839 -3.96433,-2.14962 -6.4878,-2.78047 -1.19931,-0.29983 -2.49548,0.24247 -3.7074,0 -4.16406,-0.83275 -8.08318,-2.71594 -12.04874,-3.70732 -3.13988,-0.78494 -23.77957,-3.4954 -24.09742,-3.70733 -1.533422,-1.02233 -4.924634,-4.00888 -6.487825,-4.63412 -0.86058,-0.34411 -1.919938,0.34411 -2.780472,0 -2.176914,-0.87073 -5.42527,-4.23476 -7.414645,-5.56098 -1.113819,-0.74265 -3.62534,-0.17252 -4.634127,-1.85365 -0.655314,-1.0923 -0.617797,-2.47155 -0.92685,-3.70733 z"
       id="path856" />
    <path
       style="fill:#000001;fill-opacity:1;stroke:#000000;stroke-width:4.06816px;stroke-linecap:butt;stroke-linejoin:miter;stroke-opacity:1"
       d="m 215.02425,143.65843 c -0.33366,-11.28202 0.25293,-24.01351 6.48779,-33.36582 0.84813,-1.27212 1.17071,-3.561 2.78049,-4.63415 3.39004,-2.26002 6.32072,-3.34268 10.19512,-4.63414 0.87934,-0.29308 1.90121,0.29308 2.78048,0 1.16595,-0.38867 2.33982,-1.397825 3.70731,-1.85366 2.42081,-0.806935 6.08541,1.12803 8.34147,0 3.48949,-1.744746 8.06167,-1.056237 12.04877,-1.853655 7.80359,-1.56072 0.0292,-0.01424 3.7073,-1.853656 1.52774,-0.763851 9.22456,-0.485289 10.19512,0 0.2763,0.138228 -0.21849,0.708376 0,0.92682 0.46343,0.463409 2.31707,-0.46341 2.78049,0 0.21849,0.218458 -0.2763,0.788668 0,0.926834 0.5526,0.276317 1.30094,-0.276302 1.85365,0 0.11225,0.05612 0.77679,2.630419 0.92685,2.780487 2.01389,2.01388 1.66138,0.54229 3.70731,4.63414 0.70975,1.41951 1.65163,0.7248 2.78049,1.85366 1.15041,1.15038 0.23986,3.02035 0.92685,3.70731 0.40899,0.40898 2.37755,1.57166 2.78049,2.78049 0.83059,2.49182 0.73403,5.17543 1.85367,7.41463 0.4911,0.98213 -0.35011,2.65715 0,3.70732 1.69574,5.08723 2.78048,8.47959 2.78048,13.90242 0,3.66927 0.93823,18.52511 -0.92685,20.39024 -0.21849,0.21848 -0.70836,-0.21849 -0.92685,0 -0.84105,0.84105 -0.57366,2.85404 -1.85365,3.7073 -0.57474,0.38317 -1.36521,0.43836 -1.85365,0.92685 -0.3089,0.3089 -0.61795,2.47155 -0.92685,2.78049 -0.5237,0.5237 -3.01689,1.16318 -3.70731,1.85365 -0.48849,0.48849 -0.43836,1.36522 -0.92685,1.85366 -0.71313,0.71312 -2.75586,0.68898 -3.70731,0.92685 -1.79933,0.44989 -2.97297,2.11602 -4.63415,2.78049 -0.6853,0.27414 -4.09126,0.38393 -4.63413,0.92685 -0.21849,0.21848 0.2763,0.78862 0,0.92685 -1.10536,0.5526 -2.49555,-0.24233 -3.70732,0 -1.91599,0.38316 -3.64499,1.47038 -5.56098,1.85365 -3.90987,0.78201 -17.26132,1.94076 -21.31705,0.92685 -4.94309,-1.23575 0.92685,-0.3089 -2.78049,-2.78049 -0.51417,-0.34272 -1.2542,0.14915 -1.85365,0 -2.1344,-0.53354 -6.96153,-3.2542 -8.34147,-4.63414 -1.85365,-1.85365 -2.78049,-4.63414 -4.63414,-6.4878 -0.21849,-0.21849 -0.70836,0.21849 -0.92685,0 -0.67377,-0.67376 -1.17994,-3.96045 -1.85367,-4.63415 -0.21849,-0.21849 -0.70836,0.21849 -0.92685,0 -0.19496,-0.19497 -0.63886,-5.33623 -0.92685,-6.4878 -0.21203,-0.84772 -1.46285,-1.07209 -1.85365,-1.85366 -1.31209,-2.62445 -1.85356,-4.61763 -1.85356,-7.41472 z"
       id="path1781" />
    <text
       xml:space="preserve"
       style="font-size:615.03px;line-height:1.25;font-family:'Chess Condal';-inkscape-font-specification:'Chess Condal';fill:#ffffff;fill-opacity:1;stroke-width:4.06816"
       x="-51.69722"
       y="583.49774"
       id="text19176"><tspan
         sodipodi:role="line"
         id="tspan19174"
         style="fill:#ffffff;fill-opacity:1;stroke-width:4.06816"
         x="-51.69722"
         y="583.49774">k</tspan></text>
  </g>
</svg>
