<?xml version="1.0" encoding="UTF-8" standalone="no"?>
<!-- Created with Inkscape (http://www.inkscape.org/) -->

<svg
   width="531.99988mm"
   height="609.58679mm"
   viewBox="0 0 531.99988 609.58679"
   version="1.1"
   id="svg5"
   inkscape:version="1.1.2 (b8e25be833, 2022-02-05)"
   sodipodi:docname="Black_Knight.svg"
   xmlns:inkscape="http://www.inkscape.org/namespaces/inkscape"
   xmlns:sodipodi="http://sodipodi.sourceforge.net/DTD/sodipodi-0.dtd"
   xmlns="http://www.w3.org/2000/svg"
   xmlns:svg="http://www.w3.org/2000/svg">
  <sodipodi:namedview
     id="namedview7"
     pagecolor="#ffffff"
     bordercolor="#cccccc"
     borderopacity="1"
     inkscape:pageshadow="0"
     inkscape:pageopacity="1"
     inkscape:pagecheckerboard="true"
     inkscape:document-units="mm"
     showgrid="false"
     inkscape:zoom="0.19398324"
     inkscape:cx="855.74403"
     inkscape:cy="1371.2525"
     inkscape:window-width="1920"
     inkscape:window-height="1017"
     inkscape:window-x="-8"
     inkscape:window-y="32"
     inkscape:window-maximized="1"
     inkscape:current-layer="layer1"
     showborder="false"
     lock-margins="true"
     fit-margin-top="10"
     fit-margin-left="10"
     fit-margin-right="10"
     fit-margin-bottom="10" />
  <defs
     id="defs2" />
  <g
     inkscape:label="Livello 1"
     inkscape:groupmode="layer"
     id="layer1"
     transform="translate(9.9999996,9.999981)">
    <text
       xml:space="preserve"
       style="font-size:40px;line-height:1.25;font-family:'Chess Condal';-inkscape-font-specification:'Chess Condal';fill:#ffffff;fill-opacity:1;stroke:none;stroke-width:0.264583;stroke-opacity:1"
       x="87.548508"
       y="91.29937"
       id="text29524"><tspan
         sodipodi:role="line"
         id="tspan29522"
         style="fill:#ffffff;fill-opacity:1;stroke:none;stroke-width:0.264583;stroke-opacity:1"
         x="87.548508"
         y="91.29937" /></text>
    <text
       xml:space="preserve"
       style="font-size:40px;line-height:1.25;font-family:'Chess Leipzig';-inkscape-font-specification:'Chess Leipzig';stroke-width:0.264583"
       x="254.01411"
       y="94.275764"
       id="text58610"><tspan
         sodipodi:role="line"
         id="tspan58608"
         style="stroke-width:0.264583"
         x="254.01411"
         y="94.275764" /></text>
    <text
       xml:space="preserve"
       style="font-size:40px;line-height:1.25;font-family:'Chess Maya';-inkscape-font-specification:'Chess Maya';stroke-width:0.264583"
       x="237.01553"
       y="39.904449"
       id="text87666"><tspan
         sodipodi:role="line"
         id="tspan87664"
         style="stroke-width:0.264583"
         x="237.01553"
         y="39.904449" /></text>
    <path
       style="fill:#000000;fill-opacity:1;stroke:#000000;stroke-width:4.57682px;stroke-linecap:butt;stroke-linejoin:miter;stroke-opacity:1"
       d="m 18.718228,301.10783 c 2.284163,-2.06267 1.748754,-5.7094 2.94924,-8.11039 1.013331,-2.02666 3.222939,-3.23972 4.423856,-5.16115 3.291615,-5.26661 7.128215,-10.56924 11.059646,-15.48353 1.63207,-2.04006 3.711978,-3.72469 5.161169,-5.89847 0.431089,-0.64661 0.25181,-1.6051 0.737302,-2.21192 0.553561,-0.69193 1.644646,-0.79382 2.211931,-1.47468 1.484327,-1.7812 2.4577,-3.93232 3.686549,-5.89849 1.494567,-2.39129 1.729857,-4.93432 2.949237,-7.37309 1.738625,-3.47724 3.575762,-6.75517 5.161169,-10.32234 1.565421,-3.52219 1.922422,-7.53139 3.686549,-11.05964 1.508336,-3.01669 3.652825,-5.83104 5.161168,-8.84771 0.695147,-1.39026 0.674891,-3.09099 1.474623,-4.42387 1.431774,-2.38627 7.596519,-8.78067 8.110409,-10.32232 0.155511,-0.46636 -0.272637,-1.06557 0,-1.47467 1.028086,-1.54214 5.334719,-2.73259 5.898477,-4.42387 0.155511,-0.46636 -0.155511,-1.00831 0,-1.47467 0.480389,-1.44112 2.385688,-2.73321 2.949241,-4.42385 0.878144,-2.63444 -2.854651,3.03736 0.737302,-2.94925 0.715299,-1.19219 2.327484,-1.70578 2.949236,-2.94924 0.219825,-0.43972 -0.09635,-0.99258 0,-1.47468 1.073407,-5.36707 0.08372,0.56981 2.211933,-3.68654 0.453196,-0.90643 0.234564,-2.06943 0.737302,-2.94925 1.934805,-3.38592 2.314957,-1.7837 3.686549,-5.89848 0.377551,-1.13258 1.609721,-0.57131 2.211928,-1.47462 0.272637,-0.40898 -0.155511,-1.0083 0,-1.47462 0.377551,-1.13259 1.609721,-0.57131 2.211928,-1.47462 0.859047,-1.28857 0.957058,-7.07528 1.474618,-8.11041 0.31087,-0.62175 1.08903,-0.89622 1.47463,-1.47462 0.76117,-1.14177 0.67155,-3.95656 1.47462,-5.16117 1.16074,-1.74112 2.51154,-3.39866 3.68655,-5.16116 0.95711,-1.43567 4.5794,-4.36973 5.89847,-5.16117 1.605,-0.963 3.83766,-0.88842 5.16117,-2.21193 0.54957,-0.54957 0.25181,-1.60505 0.7373,-2.21193 2.0529,-2.56588 8.57294,-4.88614 11.05966,-7.37286 3.76794,-3.76794 -3.09152,1.02834 2.21193,-2.94925 1.53345,-1.15009 1.24544,-0.18595 2.21193,-1.47462 0.85984,-1.14646 1.19859,-2.67321 2.21193,-3.68655 1.11518,-1.11518 3.4324,-2.19935 4.42386,-3.68654 0.60967,-0.91453 0.83576,-2.05485 1.47462,-2.94924 1.01011,-1.41415 3.04113,-2.07299 3.68655,-3.68655 0.27383,-0.68458 -0.27383,-1.52735 0,-2.21193 0.58445,-1.46115 2.24546,-2.27899 2.94924,-3.68655 1.58844,-3.1769 2.88378,-7.11129 3.68655,-10.322335 0.81703,-3.268135 3.69829,-7.396589 5.16116,-10.322332 1.53425,-3.068509 -0.0508,0.788211 1.47463,-0.73732 1.71339,-1.71339 3.93436,-4.671674 5.16116,-5.898476 0.34756,-0.347556 1.12705,0.347556 1.47462,0 1.79078,-1.790779 -0.21924,-1.082679 1.47462,-2.21193 0.84315,-0.562106 2.23271,-0.02058 2.94924,-0.737303 0.34758,-0.347556 -0.21982,-1.03497 0,-1.474622 0.34758,-0.695146 1.86436,-0.04203 2.21193,-0.737319 0.21983,-0.439652 -0.21982,-1.034971 0,-1.474623 0.46633,-0.932634 1.95903,-1.200358 2.21192,-2.211933 0.17886,-0.715299 -0.14531,-1.488945 0,-2.211928 0.6639,-3.319679 2.95274,-6.642786 4.42386,-9.585025 1.05589,-2.111864 1.45254,-5.094845 2.21193,-7.373097 2.35403,-7.062093 0.0571,-13.499071 1.47467,-19.170051 0.0848,-0.337177 0.68017,-0.394469 0.73725,-0.737303 0.39215,-2.353003 -1.06436,-6.718928 0,-8.847717 0.27055,-0.541002 0.73725,0.392549 0.73725,-2.211928 0,-4.519856 -1.87672,-8.713686 2.94925,-10.322338 5.97543,-1.9918111 16.66464,2.605644 22.11928,4.423856 1.63866,0.546202 4.42203,0.736401 5.89849,1.47462 2.62118,1.310596 0.97216,1.061378 4.42385,2.211929 2.26897,0.75633 3.64262,3.642633 5.16116,5.161169 0.77721,0.777192 2.28977,0.595318 2.94925,1.474622 0.46636,0.62175 0.30618,1.565265 0.73725,2.211928 0.13666,0.2045 0.56358,-0.173778 0.73725,0 1.79078,1.790778 -0.21934,1.082679 1.47467,2.211928 0.73674,0.491166 2.59879,1.160538 2.94925,2.211933 0.15568,0.466309 -0.15569,1.008297 0,1.474622 0.37762,1.132585 1.60977,0.571309 2.21192,1.474622 0.27262,0.408982 -0.15568,1.008314 0,1.474623 0.43661,1.309908 2.53713,2.450211 2.94925,3.686548 0.56427,1.692718 0.35945,3.488351 1.47467,5.161169 0.86785,1.301657 2.45689,2.946783 2.94925,4.423858 0.23318,0.699471 -0.27384,1.527347 0,2.211928 0.25808,0.645414 1.08892,0.896221 1.47467,1.474622 0.51255,0.768941 0.35046,2.175474 0.73725,2.949241 0.11071,0.219826 0.62741,-0.219826 0.73725,0 0.3297,0.659477 -0.65941,1.882191 0,2.211928 0.43972,0.219826 1.12698,-0.347574 1.47467,0 0.50062,0.500524 0.33957,3.6284 0.73725,4.423856 0.36569,0.731455 1.22005,1.448207 1.47468,2.211928 0.15568,0.466325 -0.21986,1.03497 0,1.474622 0.87892,1.757894 3.79182,3.265051 4.42387,5.161169 0.15568,0.466308 -0.27262,1.06564 0,1.474622 0.57672,0.864998 3.57397,2.836664 4.42384,3.686548 0.98306,0.983076 -1.5641,0.707498 0.73725,1.474622 2.23855,0.746194 5.20532,0.911271 7.3731,2.211932 0.5961,0.357641 0.8291,1.216446 1.47467,1.474622 2.5288,0 1.99769,-0.233145 4.42385,0.73732 4.28194,1.712784 8.35641,4.107969 12.53428,5.898478 3.30727,1.417417 2.29157,0.03979 5.16115,1.474622 2.33381,1.166887 4.23997,3.397068 6.63579,4.423856 3.30732,1.417417 2.29159,0.03979 5.16116,1.474622 3.79239,1.896187 7.35083,3.779151 11.05965,5.898475 2.30297,1.31598 5.25036,2.0945 7.3731,3.68655 8.56717,6.42538 16.76975,13.72902 25.06854,20.64467 1.69367,1.41138 2.82271,3.88024 4.42386,5.16117 0.60683,0.48551 1.66236,0.18774 2.21193,0.7373 0.54956,0.54957 0.18768,1.66238 0.73725,2.21193 1.01333,1.01333 2.58563,1.2945 3.68655,2.21193 1.31916,1.09932 1.90308,3.53215 3.68654,4.42386 0.4399,0.21983 1.03496,-0.21983 1.47468,0 0.64315,0.32157 7.4625,8.1998 8.11039,8.84772 1.69627,1.69623 4.68196,2.95848 6.63581,4.42386 1.9273,1.44545 3.05649,3.33802 4.42387,5.16116 0.41688,0.55611 0.98306,0.98308 1.47467,1.47463 0.73725,0.49154 1.65838,0.78266 2.21193,1.47462 0.48556,0.60689 0.18768,1.66238 0.73742,2.21193 0.54956,0.54956 1.66236,0.18773 2.21192,0.73732 0.93584,0.93587 0.68052,2.62773 1.47468,3.68655 2.26754,3.02339 5.00306,5.88516 7.37307,8.84772 1.40099,1.7511 3.593,4.55858 4.42387,6.63577 0.18267,0.45633 -0.27279,1.06557 0,1.47468 0.3048,0.45719 1.08598,0.34873 1.47467,0.73725 2.76606,2.76604 0.46654,1.35929 2.21195,3.68654 0.62567,0.83412 1.74565,1.27938 2.21192,2.21195 1.01904,2.03799 2.49281,3.90891 3.68655,5.89847 0.39993,0.6665 0.27089,1.59022 0.73725,2.21192 0.32953,0.43972 1.1697,0.28006 1.47467,0.73725 0.73414,1.10121 0.77323,2.56422 1.47468,3.68655 0.86404,1.38247 3.55976,3.77862 4.42381,5.16117 1.84654,2.95441 5.92471,14.03505 7.37313,15.4835 0.38852,0.3887 1.22887,0.24581 1.47467,0.73726 4.09141,8.18277 -3.37924,-2.48832 0.73743,3.68654 0.98305,1.47468 1.69609,3.17068 2.94921,4.42387 0.62654,0.62654 1.72031,0.73725 2.21192,1.47467 7.29899,10.94841 -4.55493,-3.88319 1.47467,5.16115 0.57846,0.86751 1.63348,1.34442 2.21189,2.21195 0.91906,1.37866 7.06149,16.8747 7.37313,18.43273 0.14531,0.72307 -0.27366,1.52743 0,2.21194 0.25809,0.6454 1.21641,0.82911 1.47468,1.47468 0.5999,1.49975 0.57482,6.76064 1.47467,8.11041 0.3048,0.45736 1.22887,0.24581 1.47468,0.73725 0.32953,0.65941 -0.14531,1.48886 0,2.21194 0.54333,2.71695 1.66685,5.38556 2.21192,8.1104 0.28923,1.44596 -0.28923,2.97787 0,4.42386 1.26485,6.32436 0.73725,13.30245 0.73725,19.90736 0,9.33928 0,18.67851 0,28.01775 0,7.6189 0,15.23775 0,22.8566 0,3.08377 -0.50234,6.57118 0,9.58507 0.74936,4.49559 1.88981,11.6108 0.73725,16.22081 -0.50857,2.03444 -1.70474,3.86965 -2.21192,5.89847 -0.91266,3.6506 -1.07561,7.65099 -2.21195,11.05962 -0.77409,2.32205 -3.83756,6.50265 -4.42386,8.84774 -0.23837,0.95365 0.43989,2.06995 0,2.94924 -1.58487,3.16959 -2.87016,6.47763 -4.42387,9.58502 -0.37796,0.7561 -0.35928,2.19317 -0.73725,2.94921 -0.73777,1.47571 -2.20229,2.92995 -2.94926,4.42386 -0.21969,0.4399 0.15568,1.00832 0,1.47468 -0.42986,1.28906 -2.32516,2.43839 -2.94921,3.68655 -0.33455,0.66944 -1.28509,4.97161 -1.47467,5.16113 -0.36846,0.36897 -1.10588,0.36897 -1.47468,0.73742 -0.9021,0.90211 -1.10933,3.1352 -2.21194,3.68653 -0.43989,0.21969 -1.06557,-0.27279 -1.47467,0 -0.57846,0.38575 -0.85298,1.16383 -1.47468,1.47468 -1.58815,0.79399 -27.78483,0 -30.96701,0 -6.74354,0 -13.28821,0.52898 -19.90739,1.47467 -3.73144,0.53313 -8.04776,0 -11.79694,0 -8.35619,0 -16.71238,0 -25.06855,0 -10.54555,0 -23.58131,-1.14826 -33.91624,0 -8.77032,0.97441 -17.64141,0.73725 -26.54314,0.73725 -4.58848,0 -9.45037,0.45581 -14.00889,0 -17.93549,-1.79353 -36.51244,-0.73725 -54.56091,-0.73725 -20.98329,0 -41.71407,-0.73725 -62.67132,-0.73725 -6.14424,0 -12.28849,0 -18.43274,0 -2.8114,0 -6.84849,0.68414 -9.58502,0 -0.85967,-0.21519 -1.37127,-1.19444 -2.21193,-1.47467 -3.26318,-1.08772 -6.42173,0.9514 -8.84772,-1.47468 -0.54956,-0.54956 -0.3062,-1.56531 -0.7373,-2.21189 -0.30487,-0.45719 -1.22885,-0.24581 -1.47462,-0.73725 -0.4218,-0.84363 -0.16053,-2.82125 -0.73731,-3.68655 -0.38559,-0.57845 -1.08902,-0.89622 -1.47462,-1.47467 -1.38775,-2.08158 1.13587,-11.65743 2.21193,-13.27155 2.8814,-4.32208 7.49847,-7.49849 11.05965,-11.05965 2.19565,-2.19565 -1.10273,-0.9604 2.21192,-2.94923 3.293,-1.9758 6.5071,-3.59006 9.58503,-5.89847 7.18485,-5.38866 12.58713,-12.81529 19.90736,-17.69545 2.56815,-1.71218 3.76886,-5.24349 5.89848,-7.37309 2.63513,-2.63515 3.05381,-2.73745 5.16117,-5.89848 1.09363,-1.64039 3.15586,-2.41856 4.42385,-3.68652 1.36999,-1.37002 1.20541,-3.116 2.94925,-4.42387 2.60984,-1.95742 5.07791,-3.60329 7.37309,-5.89847 1.20522,-1.20517 1.49732,-2.59763 2.94925,-3.68658 0.62169,-0.46636 1.66236,-0.18769 2.21192,-0.73725 0.38869,-0.38852 0.34873,-1.08599 0.73725,-1.47468 1.54508,-1.54508 4.55483,-3.08026 5.89847,-4.42386 0.38869,-0.38852 0.34874,-1.08599 0.73725,-1.47468 2.49645,-2.49643 0.45287,1.02181 2.94925,-1.47467 0.38852,-0.38852 0.34873,-1.08599 0.73725,-1.47468 0.61754,-0.61754 3.12626,-1.65163 3.68654,-2.21194 0.3887,-0.38852 0.34874,-1.08598 0.73726,-1.47467 0.7772,-0.77721 2.17205,-0.69747 2.94924,-1.47468 1.02198,-1.02198 4.03784,-5.33679 5.16117,-5.89847 0.43972,-0.21969 1.12698,0.34735 1.47467,0 0.34752,-0.34735 -0.15568,-1.00831 0,-1.47467 0.60423,-1.81274 3.55676,-2.68965 4.42387,-4.42387 1.12248,-2.24488 0.82461,-1.56186 2.94924,-3.68653 1.36518,-1.36517 1.52121,-3.73313 2.94923,-5.1612 1.61029,-1.61029 2.2993,-3.08028 3.68655,-5.16114 0.94016,-1.41032 3.87532,-3.69249 4.42386,-4.42386 1.26537,-1.6871 1.74517,-3.76091 2.21193,-5.16115 0.21986,-0.65941 1.21641,-0.82928 1.47467,-1.47468 1.7692,-4.42295 0.84277,-1.68536 2.21193,-4.42381 1.68709,-3.37413 1.75582,-6.39222 2.21192,-9.58506 0.21139,-1.47986 1.79442,-3.36675 0.73725,-4.42384 -0.56081,-0.56081 -6.27519,-0.11936 -6.63579,0 -1.86793,0.62256 -3.23401,1.8265 -5.16117,2.2119 -4.13201,0.82651 -8.37698,1.81545 -12.53426,2.94926 -1.27678,0.34822 -2.39456,1.18753 -3.68655,1.47468 -1.43956,0.32002 -3.0249,-0.46636 -4.42386,0 -2.37531,0.79174 -5.49709,1.23198 -8.1104,2.21194 -1.02907,0.38575 -1.89241,1.17265 -2.94924,1.47467 -0.70889,0.20274 -1.52744,-0.27365 -2.21193,0 -1.86649,0.7466 -1.08269,1.46534 -2.94924,2.21193 -7.51731,3.00693 -14.88358,3.90523 -22.8566,5.89847 -1.1498,0.2875 -2.52621,-0.23197 -3.68655,0 -4.3604,0.87218 -0.0742,0.47207 -4.42386,2.21194 -0.4564,0.18267 -0.98307,0 -1.47462,0 -0.7373,0.24581 -1.51678,0.3899 -2.21193,0.73725 -2.87309,1.43662 -5.26271,3.7373 -8.11041,5.16115 -0.69514,0.34735 -1.61487,0.23976 -2.21193,0.73725 -0.94403,0.78673 -1.44426,1.9897 -2.21193,2.94927 -1.38488,1.73108 -0.18843,-0.36621 -2.94923,1.47467 -3.62366,2.41578 -0.9663,1.70353 -3.68655,4.42387 -0.93218,0.9322 -3.66208,2.18744 -4.42386,2.94921 -0.38862,0.38851 -0.29767,1.14497 -0.7373,1.47467 -1.7838,1.33785 -3.81791,1.44769 -5.16117,3.68655 -0.39989,0.6665 -0.18774,1.66236 -0.73731,2.21192 -0.54954,0.54957 -1.51677,0.38956 -2.21192,0.73725 -1.12925,0.56462 -0.57659,1.31398 -1.47463,2.21193 -0.50503,0.50511 -4.21337,2.63355 -4.42385,2.94926 -1.5825,2.37373 0.14098,1.73745 -1.47462,2.94921 -1.56264,1.17195 -4.56442,2.35249 -5.89848,3.6866 -0.38862,0.38852 -0.34872,1.08598 -0.73732,1.47467 -0.816874,0.81682 -3.416288,1.07163 -4.423856,1.47468 -2.449677,0.97994 -4.523632,3.01575 -6.635789,4.42386 -1.317624,0.87841 -7.931887,1.26796 -9.585025,1.47468 -8.7806,1.09757 0.83047,0.16087 -4.423858,1.47467 -1.841668,0.46031 -4.023696,-0.31258 -5.898476,0 -5.117919,0.85298 -10.229457,1.31345 -15.483507,0 -2.504202,-0.6262 -9.738644,-3.84026 -11.059711,-5.16132 -0.691255,-0.69124 -1.230907,-2.29524 -2.21193,-2.94921 -2.586654,-1.72447 -6.210455,-3.36525 -8.110404,-5.89853 -0.590942,-0.78793 -4.422713,-5.40613 -5.161169,-5.89847 -0.457279,-0.30479 -1.086018,-0.34873 -1.474622,-0.73725 -1.392456,-1.39251 -0.347937,-1.39182 -0.737303,-2.94926 -0.404588,-1.61825 -1.578117,-1.68156 -2.211928,-2.94921 -0.695146,-1.39026 -0.779475,-3.03363 -1.474622,-4.42387 -2.513083,-5.02617 -3.686548,-6.82683 -3.686548,-12.53428 0,-5.07803 3.957857,-2.40663 0.737302,-8.84773 z"
       id="path997" />
    <text
       xml:space="preserve"
       style="font-size:691.929px;line-height:1.25;font-family:'Chess Magnetic';-inkscape-font-specification:'Chess Magnetic';fill:#ffffff;fill-opacity:1;stroke-width:4.57682"
       x="-82.62661"
       y="635.19739"
       id="text90574"><tspan
         sodipodi:role="line"
         id="tspan90572"
         style="fill:#ffffff;fill-opacity:1;stroke-width:4.57682"
         x="-82.62661"
         y="635.19739">n</tspan></text>
  </g>
</svg>
