<?xml version="1.0" encoding="UTF-8" standalone="no"?>
<!-- Created with Inkscape (http://www.inkscape.org/) -->

<svg
   width="512"
   height="512"
   viewBox="0 0 135.46666 135.46666"
   version="1.1"
   id="svg5"
   inkscape:version="1.1.2 (b8e25be833, 2022-02-05)"
   sodipodi:docname="Black_Bishop.svg"
   xmlns:inkscape="http://www.inkscape.org/namespaces/inkscape"
   xmlns:sodipodi="http://sodipodi.sourceforge.net/DTD/sodipodi-0.dtd"
   xmlns:xlink="http://www.w3.org/1999/xlink"
   xmlns="http://www.w3.org/2000/svg"
   xmlns:svg="http://www.w3.org/2000/svg">
  <sodipodi:namedview
     id="namedview7"
     pagecolor="#ffffff"
     bordercolor="#cccccc"
     borderopacity="1"
     inkscape:pageshadow="0"
     inkscape:pageopacity="0"
     inkscape:pagecheckerboard="true"
     inkscape:document-units="px"
     showgrid="false"
     inkscape:zoom="0.70710678"
     inkscape:cx="240.41631"
     inkscape:cy="309.71277"
     inkscape:window-width="1920"
     inkscape:window-height="1057"
     inkscape:window-x="-8"
     inkscape:window-y="-8"
     inkscape:window-maximized="1"
     inkscape:current-layer="layer1"
     showborder="false"
     lock-margins="true"
     fit-margin-top="2.7"
     fit-margin-left="2.7"
     fit-margin-right="2.7"
     fit-margin-bottom="2.7"
     width="512mm"
     units="px" />
  <defs
     id="defs2">
    <linearGradient
       inkscape:collect="always"
       id="linearGradient7081">
      <stop
         style="stop-color:#000003;stop-opacity:1;"
         offset="0"
         id="stop7077" />
      <stop
         style="stop-color:#000003;stop-opacity:0;"
         offset="1"
         id="stop7079" />
    </linearGradient>
    <linearGradient
       inkscape:collect="always"
       id="linearGradient2415">
      <stop
         style="stop-color:#ffffff;stop-opacity:1;"
         offset="0"
         id="stop2411" />
      <stop
         style="stop-color:#ffffff;stop-opacity:0;"
         offset="1"
         id="stop2413" />
    </linearGradient>
    <linearGradient
       inkscape:collect="always"
       xlink:href="#linearGradient2415"
       id="linearGradient2417"
       x1="252.76004"
       y1="56.705269"
       x2="289.05634"
       y2="56.705269"
       gradientUnits="userSpaceOnUse" />
    <linearGradient
       inkscape:collect="always"
       xlink:href="#linearGradient7081"
       id="linearGradient7083"
       x1="201.46381"
       y1="63.513065"
       x2="303.51083"
       y2="63.513065"
       gradientUnits="userSpaceOnUse" />
  </defs>
  <g
     inkscape:label="Livello 1"
     inkscape:groupmode="layer"
     id="layer1"
     transform="translate(0.05418288,0.05380351)">
    <text
       xml:space="preserve"
       style="font-size:40px;line-height:1.25;font-family:'Chess Condal';-inkscape-font-specification:'Chess Condal';fill:#ffffff;fill-opacity:1;stroke:none;stroke-width:0.264583;stroke-opacity:1"
       x="87.548508"
       y="91.29937"
       id="text29524"><tspan
         sodipodi:role="line"
         id="tspan29522"
         style="fill:#ffffff;fill-opacity:1;stroke:none;stroke-width:0.264583;stroke-opacity:1"
         x="87.548508"
         y="91.29937" /></text>
    <text
       xml:space="preserve"
       style="font-size:40px;line-height:1.25;font-family:'Chess Leipzig';-inkscape-font-specification:'Chess Leipzig';stroke-width:0.264583"
       x="254.01411"
       y="94.275764"
       id="text58610"><tspan
         sodipodi:role="line"
         id="tspan58608"
         style="stroke-width:0.264583"
         x="254.01411"
         y="94.275764" /></text>
    <g
       id="g1623"
       transform="matrix(0.95703359,0,0,0.95703442,3.5107965,-0.39208776)">
      <path
         style="fill:#000000;fill-opacity:1;stroke:#000000;stroke-width:0.264583px;stroke-linecap:butt;stroke-linejoin:miter;stroke-opacity:1"
         d="m 85.009358,128.76521 c 1.790305,0.0908 3.053302,-0.88492 4.464843,-1.85209 0.874649,-0.59929 1.774164,-1.16867 2.612761,-1.81901 1.006581,-0.83152 0.480031,-0.41334 1.455208,-1.15755 0.343866,-0.26242 0.720214,-0.56625 1.091406,-0.79375 0.592731,-0.36329 0.361548,-0.18268 0.959115,-0.42995 0.746133,-0.30874 1.476367,-0.68206 2.248958,-0.92604 0.216723,-0.0684 0.442058,-0.10607 0.661459,-0.16536 0.188584,-0.051 0.373044,-0.11672 0.562239,-0.16537 0.196874,-0.0506 0.400463,-0.0744 0.595313,-0.13229 0.213968,-0.0636 0.41662,-0.16092 0.62839,-0.23151 0.39369,-0.13123 0.79428,-0.2408 1.19062,-0.3638 0.44145,-0.137 0.39255,-0.12811 0.82682,-0.23151 0.0283,-0.007 0.51933,-0.11227 0.56224,-0.1323 0.0859,-0.0401 0.15174,-0.11408 0.23151,-0.16536 0.14953,-0.0961 0.30403,-0.18509 0.46302,-0.26458 0.2528,-0.1264 0.54633,-0.1602 0.79375,-0.29766 0.0409,-0.0227 0.0586,-0.076 0.0992,-0.0992 0.0395,-0.0225 0.0916,-0.0127 0.13229,-0.0331 0.0493,-0.0247 0.083,-0.0746 0.1323,-0.0992 0.0356,-0.0178 0.27469,-0.0599 0.29765,-0.0661 0.23548,-0.0642 0.50902,-0.18821 0.76068,-0.13229 0.33606,0.0747 0.73904,0.37687 0.95911,0.62839 0.29607,0.33835 0.40537,0.94123 0.33073,1.38906 -0.0453,0.27214 -0.0662,0.13717 -0.19843,0.3638 -0.0423,0.0725 -0.0597,0.15743 -0.0992,0.23151 -0.14047,0.26337 -0.29287,0.54797 -0.46302,0.79375 -0.15438,0.22299 -0.35304,0.4229 -0.52917,0.62839 -0.42568,0.49663 -0.80141,1.01329 -1.28984,1.45521 -0.48038,0.43462 -0.9895,0.82241 -1.52136,1.19062 -0.37429,0.25913 -0.53374,0.4006 -0.92604,0.62839 -0.59433,0.34509 -1.22092,0.62472 -1.85208,0.89297 -0.231813,0.0985 -0.456799,0.21445 -0.694535,0.29765 -0.575463,0.20141 -1.217356,0.33291 -1.81901,0.42995 -0.164701,0.0266 -0.33265,0.0327 -0.496094,0.0661 -0.740185,0.1514 -1.466892,0.38374 -2.215885,0.49609 -1.115457,0.16732 -2.254065,0.19422 -3.373438,0.33073 -0.585708,0.0714 -1.168159,0.19149 -1.752865,0.26458 -0.175368,0.0219 -0.354488,0.006 -0.529166,0.0331 -0.113758,0.0175 -0.217866,0.0767 -0.330729,0.0992 -0.108641,0.0217 -0.221443,0.0149 -0.330729,0.0331 -0.420974,0.0702 -0.822185,0.20487 -1.256771,0.16536 -0.354804,-0.0323 -0.624803,-0.32953 -0.926042,-0.42995 -0.07395,-0.0247 -0.156303,-0.0126 -0.23151,-0.0331 -0.164643,-0.0449 -0.323977,-0.13094 -0.496094,-0.16536 -0.137745,-0.0276 -0.262086,-0.0212 -0.396875,-0.0662 -0.09998,-0.0333 -0.222012,-0.12188 -0.330729,-0.16536 z"
         id="path1504" />
      <path
         style="fill:#000000;fill-opacity:1;stroke:#000000;stroke-width:0.599417px;stroke-linecap:butt;stroke-linejoin:miter;stroke-opacity:1"
         d="m 53.896079,84.915958 c -0.06865,-0.950262 -0.749671,-1.499211 -1.198837,-2.247817 -0.08126,-0.135455 -0.09991,-0.29971 -0.149864,-0.449565 -0.09991,-0.199796 -0.175804,-0.413545 -0.299708,-0.599417 -0.195921,-0.29389 -0.523153,-0.477929 -0.749274,-0.749272 -0.451928,-0.542313 -0.83323,-1.488626 -1.198835,-2.097964 -0.181875,-0.303101 -0.591938,-0.584456 -0.749272,-0.899127 -0.09212,-0.184209 -0.05775,-0.415206 -0.149864,-0.599417 -0.06318,-0.126371 -0.236524,-0.173335 -0.299709,-0.29971 -0.216743,-0.4335 -0.264962,-1.037041 -0.449563,-1.498545 -0.580779,-1.45194 -0.98122,-2.672603 -1.198837,-4.195928 -0.09753,-0.682754 -0.464234,-1.272187 -0.599417,-1.948109 -0.130109,-0.650577 -0.151359,-1.654423 -0.29971,-2.247816 -0.05419,-0.21672 -0.221273,-0.390251 -0.29971,-0.599417 -0.5069,-1.351737 0.149524,0.148346 -0.149864,-1.198837 -0.05836,-0.262594 -0.22893,-0.489755 -0.299707,-0.749273 -0.352984,-1.294269 -0.617064,-2.574114 -0.749272,-3.896218 -0.221908,-2.21901 -0.886393,-4.406482 -1.198837,-6.593599 -0.281339,-1.969364 0.413341,-7.296231 1.048982,-8.991271 0.07843,-0.209175 0.229066,-0.387492 0.299707,-0.599417 0.480548,-1.441644 0.477229,-3.038591 1.348692,-4.345781 0.778738,-1.168107 1.531385,-2.580369 2.547526,-3.596508 0.391566,-0.391565 0.877109,-0.716248 1.198837,-1.198837 0.08763,-0.131423 0.07148,-0.312415 0.149864,-0.449565 0.568129,-0.994226 1.612781,-1.762635 2.397672,-2.547526 0.78721,-0.787211 0.155754,-0.367904 0.749272,-1.198837 0.169053,-0.236667 0.730079,-0.662457 0.899127,-0.899127 0.437313,-0.612238 0.707473,-1.167484 1.348692,-1.648399 0.178704,-0.134028 0.441456,-0.141754 0.599417,-0.299708 0.11169,-0.11169 0.03815,-0.33787 0.149864,-0.449564 0.11169,-0.11169 0.314114,-0.06858 0.449562,-0.149864 0.32524,-0.195152 1.935192,-1.594141 2.097964,-1.6484 0.09477,-0.03158 0.210354,0.04468 0.29971,0 0.252737,-0.12637 0.357118,-0.454036 0.599417,-0.599417 0.135456,-0.08126 0.314114,-0.06858 0.449565,-0.149864 0.121137,-0.07268 0.199796,-0.199796 0.299708,-0.29971 0.149864,-0.09991 0.295126,-0.207045 0.449564,-0.299707 0.255843,-0.153512 0.49343,-0.146194 0.749273,-0.29971 0.593943,-0.356366 1.244133,-0.783244 1.798254,-1.198837 0.249542,-0.187154 0.679487,-0.229925 0.899127,-0.449562 0.171273,-0.171273 0.337417,-0.618274 0.599417,-0.749272 0.141278,-0.07064 0.314114,-0.06858 0.449565,-0.149864 0.371787,-0.223086 0.64236,-0.913441 1.04898,-1.048982 0.09477,-0.03158 0.229068,0.07064 0.299709,0 0.11169,-0.11169 0.06223,-0.318133 0.149864,-0.449565 0.548858,-0.823289 0.249305,-0.199434 0.749272,-0.599417 0.55553,-0.444422 0.767286,-1.21685 1.198837,-1.6484 0.0353,-0.03532 0.127526,0.04468 0.149864,0 0.09436,-0.188717 0.251185,-2.39553 0.149864,-2.547526 -0.122406,-0.183598 -0.372831,-0.06953 -0.449562,-0.29971 -0.112302,-0.336894 -0.386164,-1.106619 -0.749272,-1.348692 -0.348029,-0.232016 -1.355532,-1.069494 -1.498547,-1.498544 -0.247139,-0.741415 -0.558561,-3.8689368 -0.299708,-4.6454903 0.162483,-0.4874328 1.751145,-1.5490654 2.247817,-1.6483993 0.783697,-0.1567511 2.996713,-0.1502264 3.596508,0.4495647 0.428627,0.4286245 0.707589,4.7705329 0.449565,5.5446149 -0.145129,0.435381 -0.329436,0.868183 -0.449565,1.348692 0.09033,0.271228 -0.242752,0.278704 -0.299707,0.449562 -0.06319,0.189556 0.06318,0.409866 0,0.59942 -0.05696,0.170865 -0.242753,0.278702 -0.29971,0.449562 -0.09049,0.271427 -0.106071,1.586102 0,1.798255 0.277388,0.55477 0.54314,0.964566 0.899127,1.498546 0.301932,0.452902 0.409941,1.074376 0.749272,1.498545 0.258741,0.323423 0.553425,0.40357 0.749273,0.599417 0.274109,0.274109 0.43929,0.800994 0.749272,1.048982 0.123357,0.09869 0.33787,0.03815 0.449564,0.149864 0.07064,0.07064 -0.07064,0.229066 0,0.29971 0.07064,0.07064 0.204939,-0.03158 0.29971,0 0.170865,0.05695 0.30548,0.19164 0.449563,0.299707 0.149796,0.112347 1.213048,0.853914 1.348691,0.899127 0.229857,0.07662 1.851057,0.08231 2.097962,0 0.211917,-0.07064 0.387494,-0.229066 0.59942,-0.299707 0.134866,-0.04495 0.314694,0.04495 0.449562,0 0.134028,-0.04468 0.162641,-0.265444 0.29971,-0.29971 0.145378,-0.03634 0.302621,0.02938 0.449562,0 1.355484,-0.271096 -0.407041,-0.01427 0.449565,-0.29971 0.356114,-0.118713 0.272172,0.17739 0.599417,-0.149841 0.07898,-0.07898 0.07087,-0.220729 0.149864,-0.29971 0.157952,-0.157952 0.413545,-0.175804 0.599417,-0.29971 0.496398,-0.330931 1.556277,-1.314292 1.798255,-1.798254 0.2547,-0.509392 -0.344311,-3.963121 -0.599418,-4.34578 -0.178273,-0.267397 -0.456307,-0.463054 -0.599417,-0.749273 -0.04465,-0.08935 0.03711,-0.206955 0,-0.299709 -0.219732,-0.549352 -0.482689,-1.064764 -0.59942,-1.6484 -0.180493,-0.902466 -0.1169,-3.2128677 0.29971,-4.0460727 0.356373,-0.7127408 1.589435,-1.7460476 2.397672,-1.9481068 0.145378,-0.036339 0.310428,0.055664 0.449564,0 0.131174,-0.052469 0.173335,-0.2365268 0.29971,-0.2997098 0.08935,-0.044676 0.210353,0.044676 0.299708,0 0.04465,-0.022429 -0.0353,-0.1145445 0,-0.149864 0.05838,-0.058382 0.507972,0 0.599419,0 1.533887,0 1.740645,0.3919526 2.847234,1.4985444 0.07898,0.078976 0.232696,0.060489 0.29971,0.149864 0.190689,0.2542499 0.449565,1.7653022 0.449565,2.0979639 0,0.528233 0.127639,1.28774 0,1.798254 -0.09459,0.378366 -0.646318,0.889963 -0.749275,1.198837 -0.03158,0.09477 0.03158,0.204939 0,0.299708 -0.08759,0.262772 -0.452002,0.528148 -0.599417,0.749272 -0.142592,0.21391 -0.101699,0.70113 -0.29971,0.899127 -0.0353,0.03532 -0.127503,-0.04468 -0.149841,0 -0.130041,0.260099 -0.105234,0.607424 -0.29971,0.899127 -0.227018,0.340525 -0.566955,0.684342 -0.749272,1.048982 -0.04465,0.08935 0.03158,0.204939 0,0.29971 -0.320102,0.960298 -0.551472,1.690334 -0.29971,2.697381 0.02422,0.09692 -0.04465,0.210353 0,0.29971 0.02243,0.04468 0.114545,-0.03532 0.149864,0 0.07064,0.07064 -0.07064,0.229066 0,0.299707 0.0353,0.03532 0.127503,-0.04468 0.149864,0 0.04465,0.08935 -0.07064,0.229069 0,0.29971 0.07064,0.07064 0.229066,-0.07064 0.299707,0 0.07064,0.07064 -0.04465,0.210353 0,0.29971 0.01926,0.03856 0.508188,0.35833 0.59942,0.449562 0.259685,0.259687 0.590086,0.739941 0.899127,1.048982 0.0353,0.03532 0.114545,-0.03532 0.149864,0 0.182601,0.182601 0.266962,0.566672 0.449562,0.749272 0.0353,0.03532 0.127504,-0.04468 0.149864,0 0.04465,0.08935 -0.04465,0.210354 0,0.29971 0.06319,0.126371 0.217581,0.18473 0.29971,0.29971 0.333589,0.46702 0.55879,1.044757 0.899127,1.498544 0.208043,0.277386 0.593124,0.586826 0.749272,0.899127 0.128387,0.256781 0.292617,0.663711 0.449563,0.899128 0.23212,0.348178 0.485541,0.40763 0.599419,0.749272 0.175669,0.527007 0.454905,1.070343 0.599418,1.648399 0.108065,0.432247 0.04508,0.929571 0.149864,1.348692 0.05419,0.216719 0.255897,0.380367 0.299709,0.599417 0.06849,0.342481 0.03675,0.709676 0.149842,1.048982 0.100022,0.300086 0.361479,0.485009 0.449564,0.749272 0.03158,0.09477 -0.04465,0.210354 0,0.29971 0.02243,0.04468 0.114545,-0.03532 0.149864,0 0.02764,0.02762 0.122248,0.42195 0.149864,0.449562 0.310054,0.310055 -0.01201,-0.473803 0.299708,0.149864 0.184549,0.369085 -0.434986,-0.135274 0.149864,0.449565 0.0353,0.03532 0.127526,-0.04468 0.149864,0 0.06701,0.134028 -0.105958,0.3436 0,0.449563 0.0918,0.0918 0.392186,0.127571 0.449562,0.299709 0.219823,0.659461 0.515926,1.39791 0.749275,2.097964 0.06205,0.186158 0.402675,0.411858 0.449562,0.599418 0.04844,0.193837 -0.08935,0.420706 0,0.599417 0.174082,0.348174 0.364776,0.625047 0.449565,1.048982 0.461995,2.309964 0.149841,4.988204 0.149841,7.342871 0,1.83528 -0.06319,-0.44229 0.149864,1.048982 0.122768,0.859431 0.121817,3.642897 0,4.495636 -0.100498,0.703477 -0.277163,1.408365 -0.449562,2.097964 -0.09891,0.395693 -0.07524,1.050785 -0.149864,1.498544 -0.149139,0.894782 -0.08036,1.860094 -0.29971,2.847236 -0.07501,0.33759 -0.919818,2.824878 -1.048982,2.997091 -0.326953,0.43594 -0.322415,-0.18618 -0.449563,0.449563 -0.128749,0.643758 -0.170525,0.640765 -0.449564,1.198837 -0.2513,0.502598 -0.454094,1.66653 -0.599418,2.247816 -0.220253,0.881044 -0.831032,1.675751 -1.048981,2.547527 -0.134957,0.539836 -0.276523,1.129292 -0.449563,1.648401 -0.12338,0.370158 -0.496984,0.789091 -0.599419,1.198835 -0.02422,0.09692 0.03711,0.206955 0,0.29971 -0.228,0.570004 -1.246508,2.595197 -1.6484,2.997091 -0.07898,0.07897 -0.237752,0.05696 -0.29971,0.149864 -0.05544,0.08312 0.05544,0.216583 0,0.299709 -0.06196,0.09293 -0.242242,0.05408 -0.299707,0.149864 -0.105958,0.176597 -0.07336,0.408192 -0.149864,0.599418 -0.149909,0.374768 -0.594682,0.662514 -0.749272,1.048982 -0.16135,0.403343 -0.275949,0.914652 -0.449565,1.348691 -0.128115,0.320299 -0.357557,0.956977 -0.599417,1.198835 -0.0353,0.0353 -0.114522,-0.0353 -0.149864,0 -0.06233,0.06232 -0.714567,1.959144 -0.749272,2.097964 -0.06647,0.265926 -0.460743,1.313642 -0.599418,1.498544 -0.127163,0.169552 -0.382548,0.248514 -0.449564,0.449565 -0.08892,0.266771 -0.06092,0.632356 -0.149864,0.899127 -0.111554,0.334642 -0.342082,0.726531 -0.449563,1.048982 -0.08926,0.267771 -0.09071,1.857398 0,1.948109 0.310054,0.310054 -0.01201,-0.473806 0.299708,0.149841 0.265645,0.531289 0.306561,1.226232 0.449565,1.798255 0.105301,0.421164 -0.08509,0.923182 0,1.348691 0.09762,0.488131 0.213932,0.983831 0.299709,1.498545 0.03285,0.1971 -0.04844,0.405579 0,0.599419 0.128206,0.512784 0.40176,0.404984 0.599418,0.899127 0.31154,0.77886 0.612054,1.72422 0.749272,2.547527 0.11391,0.683529 0.07984,1.288485 0.29971,1.948109 0.05994,0.179814 -0.05995,0.419592 0,0.599417 0.127186,0.381565 0.365063,0.658389 0.599417,1.048982 0.278982,0.464963 0.720944,1.563413 0.899127,2.097963 0.05779,0.17338 -0.08052,0.43839 0,0.59942 0.560378,1.12075 -0.04866,5.54069 -0.449562,6.74345 -0.07898,0.23695 -0.337868,0.37603 -0.449565,0.59942 -0.102107,0.20421 -0.110218,0.55977 -0.29971,0.74927 -1.060065,1.06007 -2.657549,1.54186 -4.195926,1.79826 -0.641245,0.10688 -2.290412,-0.0358 -2.847236,0.14986 -0.397772,0.1326 -0.629977,0.39719 -1.048982,0.44956 -0.446091,0.0558 -0.903646,-0.0636 -1.348689,0 -0.708536,0.10123 -1.43364,0.22812 -2.097964,0.44957 -0.435274,0.1451 -0.209085,0.15682 -0.599417,0.44956 -0.23481,0.1761 -0.798545,0.1478 -0.899128,0.44956 -0.03158,0.0948 0.07064,0.22907 0,0.29971 -0.622369,0.62238 -0.616639,0.0345 -1.048981,0.89913 -0.322914,0.64583 0.289315,1.58906 -0.149864,2.24782 -0.433315,0.64997 -0.800133,-0.54856 -1.198837,-0.14987 -0.03416,0.0342 -0.263761,1.19884 -0.149864,1.19884 0.04993,0 -0.0353,-0.11452 0,-0.14986 0.178749,-0.17875 0.95398,0.32289 1.048979,0.44956 0.09477,0.12637 0.0512,0.32622 0.149864,0.44956 0.112506,0.14065 0.308929,0.1872 0.449565,0.29971 0.195016,0.15603 0.24976,0.44957 0.449562,0.59942 0.126371,0.0948 0.323195,0.0551 0.449565,0.14986 0.08935,0.067 0.05693,0.23776 0.149864,0.29971 0.08312,0.0554 0.204939,-0.0316 0.299708,0 0.208246,0.0694 0.585715,0.7823 0.749272,0.89913 0.181785,0.12984 0.407863,0.18478 0.599419,0.29971 0.09579,0.0575 0.04993,0.24976 0.149864,0.29971 0.08935,0.0447 0.216584,-0.0554 0.299708,0 0.09293,0.062 0.06049,0.23269 0.149864,0.29971 0.25048,0.18786 0.749272,0.20235 0.749272,0.59942 0.776209,0.0778 0.385546,0.98504 0.749186,1.34868 0.127345,0.12734 0.337052,0.15906 0.449563,0.2997 0.326191,0.40774 0.362673,1.04215 0.899127,1.3487 0.891965,0.50969 2.700022,1.49854 3.596508,1.49854 1.925744,1.52526 4.007926,0.21362 6.144035,0 1.70977,-0.17098 3.56436,-0.56883 5.24491,-1.04898 0.527317,-0.15066 0.989351,-0.42969 1.498544,-0.59942 0.288081,-0.096 0.760348,-0.15539 1.048982,-0.29971 1.413477,-0.70674 -0.0328,-0.0281 0.599417,-0.44956 0.99576,-0.66384 2.14627,-1.13114 3.14695,-1.79826 0.27704,-0.18468 0.0929,-0.25468 0.2997,-0.59941 0.19935,-0.33225 0.6538,-0.74232 0.89913,-1.04898 0.2594,-0.32426 0.67037,-0.40614 0.89913,-0.74928 0.26292,-0.39437 0.77424,-1.28625 1.19883,-1.49854 0.0894,-0.0447 0.20696,0.0371 0.29971,0 0.71376,-0.28551 1.37087,-0.95647 2.09797,-1.19884 0.14216,-0.0474 0.30262,0.0294 0.44956,0 0.51544,-0.10308 0.94494,-0.37048 1.49855,-0.44956 1.5845,-0.22637 3.8772,0 5.54461,0 0.93339,0 -0.37324,0.0447 0.59942,-0.14987 0.49275,-0.0985 1.1723,0.0529 1.6484,0 0.70479,-0.0783 1.3628,-0.14986 2.09796,-0.14986 0.61377,0 1.33836,-0.0871 1.94811,0 0.70853,0.10122 0.85457,0.53461 1.49855,0.74927 0.33906,0.11303 0.72798,0.059 1.04898,0.29971 0.11303,0.0848 0.17333,0.23653 0.29971,0.29971 0.13403,0.067 0.3436,-0.10596 0.44956,0 0.10977,0.10977 0.25527,0.46989 0.44957,0.59942 0.33574,0.22383 0.63836,0.25174 0.89912,0.59942 0.70603,0.94136 0.80535,2.679 0.44957,3.74636 -0.0498,0.14923 -0.24997,0.30033 -0.29971,0.44956 -0.0316,0.0948 0.0599,0.21978 0,0.29971 -0.10807,0.14409 -0.32221,0.17236 -0.44957,0.29971 -0.76581,0.76581 0.62834,-0.20902 -0.44956,0.59942 -1.80423,1.35317 -5.19413,1.20609 -7.34287,0.89913 -0.71492,-0.10213 -1.5223,0 -2.24782,0 -1.69835,0 -3.3967,0 -5.09505,0 -2.21281,0 -4.81434,0.56907 -6.89331,1.34869 -0.49762,0.18661 -1.19534,0.47743 -1.6484,0.74927 -0.12116,0.0727 -0.17333,0.23652 -0.29971,0.29971 -0.34522,0.17261 -0.37752,-0.12895 -0.74927,0.14986 -1.14967,0.86226 -2.234616,1.85292 -3.596509,2.39767 -1.034873,0.41395 0.128794,-0.0557 -0.899127,0.14987 -0.266588,0.0533 -0.525827,0.22521 -0.749275,0.29971 -0.355865,0.11862 -0.829344,-0.0739 -1.198834,0 -0.488756,0.0977 -1.022093,0.1806 -1.498547,0.29971 -0.353434,0.0883 -0.695546,0.3612 -1.04898,0.44956 -0.264021,0.066 -0.494281,0.0649 -0.749274,0.14984 -0.242891,0.081 -0.536504,0.39637 -0.749272,0.44957 -0.235478,0.0589 -1.062995,0.10904 -1.34869,0.14986 -0.993561,0.14193 -2.147422,0 -3.146946,0 -2.247816,0 -4.495635,0 -6.743452,0 -0.289651,0 -1.770957,0.0273 -1.948109,-0.14986 -0.07898,-0.079 -0.05691,-0.23776 -0.149864,-0.29971 -0.08312,-0.0554 -0.204939,0.0316 -0.29971,0 -0.363269,-0.1211 -0.868844,-0.52928 -1.198834,-0.74928 -0.296871,0.015 -0.07087,-0.22072 -0.149864,-0.29971 -0.162755,-0.16273 -1.365987,-0.83284 -1.498547,-0.89912 -0.267718,-0.13387 -0.280639,-0.53812 -0.449562,-0.74927 -0.301466,-0.37684 -0.595725,-0.59573 -0.899127,-0.89913 -0.568428,-0.56843 -0.08392,-0.28973 -0.449565,-0.89913 -0.09991,-0.0999 -0.199796,-0.19979 -0.299708,-0.29971 -0.04995,0 -0.114544,0.0353 -0.149864,0 -0.134775,-0.13477 -0.28434,-0.58405 -0.449564,-0.74927 -0.2958,-0.2958 -1.682167,-0.2538 -2.097962,-0.14986 -0.568649,0.14216 -2.291672,1.09283 -2.697381,1.49854 -0.207091,0.20709 -0.275942,0.7255 -0.449565,0.89913 -0.11169,0.11169 -0.314114,0.0686 -0.449562,0.14986 -0.322377,0.19343 -0.728253,0.58891 -1.048982,0.74927 -0.886223,0.44311 0.320509,-0.54009 -0.59942,0.14987 -0.113026,0.0848 -0.173335,0.23652 -0.299707,0.2997 -0.506432,0.25322 -1.14197,0.34621 -1.6484,0.59942 -0.12637,0.0632 -0.178568,0.22702 -0.299709,0.29971 -0.624166,0.3745 -1.439861,0.46723 -2.097964,0.74928 -0.387401,0.0161 -0.463194,0.45637 -0.749273,0.59941 -0.08935,0.0447 -0.206955,-0.0371 -0.299709,0 -0.357583,0.14305 -0.658618,0.50183 -1.048982,0.59942 -2.171408,0.54285 -4.504249,0.59942 -6.893307,0.59942 -0.610047,0 -1.664516,0.19443 -2.247817,0 -0.06701,-0.0224 -0.08133,-0.13271 -0.149864,-0.14986 -0.145378,-0.0363 -0.310428,0.0557 -0.449564,0 -0.131174,-0.0525 -0.169846,-0.24406 -0.299708,-0.29971 -0.234112,-0.10034 -0.510788,-0.0604 -0.749274,-0.14987 -0.322302,-0.12086 -0.425034,-0.3685 -0.749273,-0.44956 -1.076845,-0.26921 -2.214314,-0.68815 -3.296798,-1.04898 -1.456746,-0.48558 -3.046511,-0.56594 -4.495636,-1.04898 -0.246134,-0.082 -1.463857,-0.46101 -1.648399,-0.59942 -0.08935,-0.067 -0.05408,-0.24224 -0.149864,-0.29971 -0.535989,-0.3216 -1.363322,-0.40449 -1.948109,-0.59942 -0.60154,-0.20052 -1.577615,-0.55223 -2.097964,-0.89913 -0.09293,-0.062 -0.05691,-0.23775 -0.149864,-0.29971 -0.08312,-0.0554 -0.204938,0.0316 -0.299707,0 -0.28355,-0.0945 -0.612886,-0.49207 -0.899127,-0.59941 -0.463523,-0.17381 -1.831023,-0.48609 -2.397674,-0.59942 -0.478131,-0.0956 -1.014363,0.0605 -1.498545,0 -1.438213,-0.17977 -2.883933,-0.14987 -4.34578,-0.14987 -1.451404,0 -4.506403,-0.22299 -5.844326,0 -0.898047,0.14969 -1.284204,0.47802 -2.097964,0.74928 -0.318444,0.10614 -0.860185,0 -1.198835,0 -0.01155,0 -0.731959,0.0346 -0.749272,0 -0.04468,-0.0894 0.03158,-0.20494 0,-0.29971 -0.285535,-0.85661 -0.02861,0.90591 -0.29971,-0.44957 -0.149297,-0.74645 0.181966,-1.58415 -0.149864,-2.24781 -0.05995,-0.1199 0.05995,-0.32969 0,-0.44957 -0.143135,-0.28629 -0.185206,-0.63477 -0.449562,-0.89912 -0.07898,-0.079 -0.22073,-0.0709 -0.29971,-0.14987 -0.237682,-0.23768 -0.506003,-1.08595 -0.29971,-1.49855 0.333946,-0.66789 2.642631,-2.30487 3.296801,-2.69738 0.483887,-0.29033 1.410044,-0.34195 1.948109,-0.44956 1.0997,-0.21994 2.36077,0.27147 3.446653,0 0.485196,-0.12129 1.016492,-0.0293 1.498544,-0.14986 2.535959,-0.84532 -0.332134,0.005 1.498544,-0.29971 0.220345,-0.0367 0.382698,-0.24553 0.59942,-0.29971 0.58152,-0.14538 4.416408,-0.32612 4.945198,-0.14986 0.211916,0.0706 0.384623,0.23834 0.599419,0.2997 0.553405,0.15811 1.233894,0.009 1.798255,0.14987 0.376003,0.094 0.818397,-0.0761 1.198834,0 0.875326,0.17505 1.823284,0.23104 2.697381,0.44956 0.188061,0.047 0.411366,-0.047 0.59942,0 0.579639,0.1449 1.515953,0.46697 1.948109,0.89913 0.07898,0.079 0.07087,0.22073 0.149864,0.29971 0.157952,0.15795 0.441459,0.14175 0.59942,0.29971 0.03532,0.0353 -0.04468,0.12752 0,0.14986 0.08935,0.0447 0.204938,-0.0316 0.299707,0 0.164227,0.0547 0.303815,0.3524 0.449565,0.44957 0.363371,0.24224 0.892342,0.44277 1.198837,0.74927 0.256538,0.25654 0.427752,0.50813 0.749272,0.74927 0.351971,0.26398 0.831982,0.35485 1.198834,0.59942 0.117558,0.0784 0.173335,0.23652 0.29971,0.29971 0.15367,0.0768 0.445747,0.073 0.599418,0.14986 0.733438,0.36672 0.191753,0.18126 0.749274,0.59942 0.223108,0.16733 2.139271,1.1127 2.397671,1.19883 0.854617,0.28488 1.767754,0.4135 2.697382,0.59942 0.39161,0.0783 0.920022,0.3424 1.348691,0.44957 0.481446,0.12036 3.182143,0.11284 3.746361,0 0.453469,-0.0907 0.751921,-0.36018 1.198837,-0.44957 0.146942,-0.0294 0.307399,0.0474 0.449565,0 0.0474,-0.0159 -0.04468,-0.12752 0,-0.14986 0.340344,-0.17016 0.967247,-0.20435 1.348689,-0.29971 0.394851,-0.0987 0.80563,-0.44214 1.198837,-0.59942 0.191233,-0.0765 0.453786,-0.004 0.599418,-0.14986 0.03532,-0.0353 -0.03532,-0.11455 0,-0.14987 0.05231,-0.0523 0.418461,0.0622 0.449564,0 0.04468,-0.0894 -0.07064,-0.22907 0,-0.29971 0.05299,-0.053 0.493455,-0.0439 0.599418,-0.14986 0.03532,-0.0353 -0.03532,-0.11455 0,-0.14986 0.123357,-0.12336 0.585568,-0.28586 0.749272,-0.44957 0.111078,-0.11108 0.113706,-0.26356 0.29971,-0.44956 0.07492,-0.0749 0.224784,-0.0749 0.299709,-0.14987 0.268292,-0.26829 0.632564,-0.93227 0.899127,-1.19883 0.03532,-0.0353 0.09991,0 0.149842,0 0.09991,-0.0999 0.214929,-0.18668 0.29971,-0.29971 0.331918,-0.44256 1.233145,-3.16864 1.348691,-3.74636 0.132329,-0.66164 0.390573,-1.32158 0.599418,-1.94811 0.02825,-0.0848 -0.0602,-0.38938 0,-0.44956 0.03532,-0.0353 0.127526,0.0447 0.149864,0 0.169075,-0.33817 0.149864,-0.7883 0.149864,-1.19884 0,-0.52605 0.195899,-1.18349 0.149841,-1.19884 -0.189556,-0.0632 -0.420704,0.0893 -0.599417,0 -1.227435,-0.61371 -2.815223,-0.72654 -4.195926,-0.89913 -0.487345,-0.0609 -1.014003,0.0808 -1.498547,0 -0.996852,-0.16615 -2.019559,-0.43649 -2.997089,-0.59941 -0.344904,-0.0575 -0.709761,0.0848 -1.048982,0 -0.06853,-0.0172 -0.08058,-0.136 -0.149863,-0.14987 -0.195922,-0.0392 -0.40162,0.0282 -0.599418,0 -0.46446,-0.0663 -1.063472,-0.30453 -1.498546,-0.44956 -0.543267,-0.18108 -0.106638,-0.0711 -0.449563,-0.29971 -0.513139,-0.34209 -1.236193,-0.56192 -1.798254,-0.74927 -0.467745,-0.15591 0.04995,-0.0999 -0.149864,-0.29971 -0.189012,-0.18901 -0.513115,-0.36326 -0.749272,-0.59942 -0.17705,-0.17705 -0.672079,-1.33963 -0.749272,-1.6484 -0.08677,-0.34707 0,-0.83948 0,-1.19883 0,-0.8553 -0.203285,-2.03409 0,-2.84724 0.161372,-0.64554 0.291819,-1.31714 0.449562,-1.94811 0.09409,-0.37637 0.849941,-1.616374 1.048982,-1.948109 0.217694,-0.362809 0.158881,-0.846764 0.29971,-1.198834 0.341984,-0.854963 0.23137,-0.0947 0.449562,-0.749272 0.299993,-0.899982 0.693337,-1.80827 1.048982,-2.697382 0.09529,-0.238203 0.354282,-0.511071 0.449563,-0.749274 0.497199,-1.242994 0.499897,-2.698526 0.899127,-3.896216 0.11758,-0.352714 -0.08983,-0.839544 0,-1.198837 0.01722,-0.06853 0.11826,-0.08668 0.149864,-0.149864 0.03158,-0.06314 0.207,-3.220609 0.149864,-3.296798 -0.127164,-0.169552 -0.299708,-0.29971 -0.449563,-0.449565 z"
         id="path1200" />
      <text
         xml:space="preserve"
         style="font-size:152.345px;line-height:1.25;font-family:'Chess Leipzig';-inkscape-font-specification:'Chess Leipzig';fill:#ffffff;fill-opacity:1;stroke:#000000;stroke-width:1.00956;stroke-miterlimit:4;stroke-dasharray:none;stroke-opacity:1"
         x="-4.8720546"
         y="145.60255"
         id="text76144"
         transform="scale(0.97979342,1.0206233)"><tspan
           sodipodi:role="line"
           id="tspan76142"
           style="fill:#ffffff;fill-opacity:1;stroke:#000000;stroke-width:1.00956;stroke-miterlimit:4;stroke-dasharray:none;stroke-opacity:1"
           x="-4.8720546"
           y="145.60255">b</tspan></text>
    </g>
    <path
       style="fill:#ffffff;fill-opacity:1;stroke:#ffffff;stroke-width:1.26909;stroke-linecap:round;stroke-linejoin:round;stroke-miterlimit:4;stroke-dasharray:none;stroke-opacity:1"
       d=""
       id="path8771"
       transform="scale(0.26458333)" />
  </g>
</svg>
