<?xml version="1.0" encoding="UTF-8" standalone="no"?>
<!-- Created with Inkscape (http://www.inkscape.org/) -->

<svg
   width="550"
   height="550"
   viewBox="0 0 145.52084 145.52084"
   version="1.1"
   id="svg5"
   inkscape:version="1.1.2 (b8e25be833, 2022-02-05)"
   sodipodi:docname="Black_Queen.svg"
   xmlns:inkscape="http://www.inkscape.org/namespaces/inkscape"
   xmlns:sodipodi="http://sodipodi.sourceforge.net/DTD/sodipodi-0.dtd"
   xmlns="http://www.w3.org/2000/svg"
   xmlns:svg="http://www.w3.org/2000/svg">
  <sodipodi:namedview
     id="namedview7"
     pagecolor="#ffffff"
     bordercolor="#cccccc"
     borderopacity="1"
     inkscape:pageshadow="0"
     inkscape:pageopacity="1"
     inkscape:pagecheckerboard="true"
     inkscape:document-units="mm"
     showgrid="false"
     inkscape:zoom="1.0973349"
     inkscape:cx="254.25237"
     inkscape:cy="281.59133"
     inkscape:window-width="1920"
     inkscape:window-height="1057"
     inkscape:window-x="-8"
     inkscape:window-y="-8"
     inkscape:window-maximized="1"
     inkscape:current-layer="layer1"
     showborder="false"
     fit-margin-top="10"
     lock-margins="true"
     fit-margin-left="10"
     fit-margin-right="10"
     fit-margin-bottom="10"
     units="px"
     width="550px" />
  <defs
     id="defs2" />
  <g
     inkscape:label="Livello 1"
     inkscape:groupmode="layer"
     id="layer1"
     transform="translate(-246.32808,-49.565425)">
    <text
       xml:space="preserve"
       style="font-size:40px;line-height:1.25;font-family:'Chess Condal';-inkscape-font-specification:'Chess Condal';fill:#ffffff;fill-opacity:1;stroke:none;stroke-width:0.264583;stroke-opacity:1"
       x="87.548508"
       y="91.29937"
       id="text29524"><tspan
         sodipodi:role="line"
         id="tspan29522"
         style="fill:#ffffff;fill-opacity:1;stroke:none;stroke-width:0.264583;stroke-opacity:1"
         x="87.548508"
         y="91.29937" /></text>
    <g
       id="g871"
       transform="matrix(0.24628588,0,0,0.2523882,192.9093,52.180525)">
      <path
         style="fill:#000000;fill-opacity:1;stroke:#000000;stroke-width:3.61621px;stroke-linecap:butt;stroke-linejoin:miter;stroke-opacity:1"
         d="m 304.80573,174.04681 c -2.03729,-0.0738 -2.88317,2.46849 -4.66037,2.91278 -2.72176,0.68037 -5.94744,-0.39868 -8.73836,0 -0.6082,0.0861 -1.13987,0.49572 -1.74767,0.58251 -4.1056,0.58648 -13.94488,0.60083 -17.47686,-1.16516 -0.91573,-0.45759 -2.03141,-1.74264 -2.91283,-2.33024 -1.36826,-0.91217 -1.29432,-3.29998 -1.74767,-4.66048 -0.27472,-0.82388 -0.995,-1.47866 -1.16448,-2.33023 -1.08384,-5.41615 0.477,-13.5574 1.74767,-18.64187 0.31982,-1.27874 1.24648,-1.32863 1.74767,-2.33024 0.25969,-0.52101 -0.26105,-1.22667 0,-1.74765 0.35809,-0.71618 1.64367,-0.1707 2.33019,-0.58265 0.47153,-0.28237 0.69431,-0.88251 1.16448,-1.16516 3.68177,-2.20906 9.27536,-1.16516 13.39886,-1.16516 3.35908,0 12.23425,-0.87349 15.14654,0.58265 2.47957,1.23979 1.20411,0.64197 2.33018,2.33026 1.16448,1.74764 0,-1.16517 1.74768,1.74764 1.23008,2.04923 0.0547,4.28824 0.58223,6.40818 0.79682,3.18852 0.58224,6.51854 0.58224,9.90346 0,1.34694 -0.21321,2.38855 -0.58224,3.49536 -0.54807,1.64327 0.9991,5.07567 0,6.40814 -0.49476,0.65905 -1.16447,1.16516 -1.74767,1.74768 z"
         id="path1622" />
      <path
         style="fill:#000000;fill-opacity:1;stroke:#000000;stroke-width:3.61621px;stroke-linecap:butt;stroke-linejoin:miter;stroke-opacity:1"
         d="m 385.78144,144.33634 c -3.67671,-1.7701 -7.67297,-5.36606 -9.32087,-9.32097 -0.45513,-1.09026 -0.4032,-2.3279 -0.58224,-3.49535 -1.16175,-7.54696 -2.15278,-17.85179 4.66023,-23.30232 5.8951,-4.71612 17.71331,-3.36309 24.46755,-2.91279 3.07206,0.20474 11.89816,0.41481 14.56402,1.74768 3.67152,1.83573 4.66051,6.94052 4.66051,10.48603 0,4.73045 -0.041,8.97384 -2.91283,12.81629 -0.49477,0.65905 -1.29022,1.06224 -1.74768,1.74767 -0.95126,1.42703 -1.9658,2.57768 -3.49548,3.49536 -1.95815,1.17487 -1.34079,-0.015 -2.91283,1.16516 -0.4401,0.32939 -0.67381,0.91956 -1.16448,1.16516 -0.40319,0.20173 -3.50518,0.73559 -4.07758,1.16516 -0.34716,0.26037 -0.23508,0.90466 -0.58224,1.16516 -0.60547,1.57382 -2.08909,0.0328 -2.91283,0.58265 -0.36219,0.24082 -0.20911,0.9417 -0.58224,1.16516 -1.48061,0.88839 -4.15262,1.07851 -5.8258,1.74767 -1.19865,0.4796 -2.42641,2.06305 -3.49507,2.33023 -0.30342,0.0765 -2.37939,-0.26693 -2.91284,0 -1.91838,0.95905 -8.96319,2.9583 -5.82566,-1.74765 z"
         id="path1624" />
      <path
         style="fill:#000000;fill-opacity:1;stroke:#000000;stroke-width:3.61621px;stroke-linecap:butt;stroke-linejoin:miter;stroke-opacity:1"
         d="m 515.69197,112.29558 c -5.36753,-0.16456 -16.09685,2.2996 -19.22453,-2.91278 -1.45368,-2.4233 -3.51462,-5.34003 -4.07758,-8.15582 -0.4278,-2.137402 -0.33213,-4.323981 -1.16448,-6.408149 -0.88703,-2.217563 -1.54662,-9.006751 0,-11.0686 0.082,-0.102507 2.25282,-1.64455 2.32991,-1.747686 1.32575,-3.977933 -0.39499,-0.187382 1.74767,-2.330211 0.9909,-0.990216 1.34079,-2.505198 2.33032,-3.495358 1.8443,-1.844125 5.78671,-3.4856 8.15599,-4.077925 2.32745,-0.581965 0,-0.587022 2.33032,-1.747686 0.86789,-0.434219 1.94148,0 2.91242,0 1.29432,0 3.35416,-0.326518 4.66064,0 1.46749,0.366974 7.51307,5.182797 8.73864,6.40815 1.27245,1.272177 0.12301,0.945796 0.58224,2.330252 0.17357,0.521008 1.0319,0.632262 1.16584,1.165161 0.18861,0.753493 -0.24602,1.593365 0,2.330252 0.27472,0.823881 0.954,1.487742 1.16448,2.330211 0.41822,1.673007 0.24601,3.551478 0.58223,5.243031 0.69295,3.461189 2.67407,7.362966 1.74768,11.068618 -0.14078,0.56665 -1.25879,4.17141 -1.74768,4.66046 -0.5262,0.52606 -2.21865,0.818 -2.91296,1.16516 -0.85149,0.42574 -2.26841,2.29943 -2.32992,2.33021 -0.52073,0.26078 -1.33532,-0.41194 -1.74767,0 -0.30752,0.30697 -0.27472,0.85805 -0.58224,1.16516 -0.27471,0.27486 -0.89112,-0.27444 -1.16447,0 -0.54807,0.54752 -0.31846,1.46178 -1.74781,1.74767 -0.57131,0.11481 -1.16585,0 -1.74767,0 z"
         id="path1626" />
      <path
         style="fill:#000000;fill-opacity:1;stroke:#000000;stroke-width:3.61621px;stroke-linecap:butt;stroke-linejoin:miter;stroke-opacity:1"
         d="m 628.70829,146.08399 c -2.75798,-0.61614 -5.99706,0.68529 -8.73823,0 -2.46221,-0.61559 -10.59141,-4.3409 -11.65133,-6.99069 -1.20138,-3.00247 -2.76891,-15.13228 -2.33032,-18.6419 1.33669,-10.68824 -0.15171,1.19591 1.16448,-4.07788 0.42369,-1.69276 0.37039,-4.44859 1.74767,-5.82561 2.5896,-2.58954 7.36409,-4.00818 11.06882,-5.243 0.36766,-0.12301 0.88976,0.27444 1.16448,0 0.13804,-0.13736 -0.17358,-0.49573 0,-0.58252 0.62461,-0.31203 13.27258,-0.25818 14.56402,0 1.29979,0.25996 1.33396,1.24949 2.33019,1.74768 0.93486,0.4677 2.04248,0.5851 2.91256,1.16516 0.36219,0.24082 0.27472,0.85805 0.58224,1.16516 1.48484,1.48455 3.24085,1.60259 4.66064,3.49531 1.85113,2.46837 3.00905,15.24744 2.33032,18.6419 -0.50023,2.49866 -1.59801,4.21151 -2.33032,6.40815 -0.26789,0.80775 -1.99369,0.96315 -2.33032,1.16516 -0.9417,0.56515 -1.38822,1.76507 -2.33032,2.33025 -0.52621,0.316 -1.25605,0.21404 -1.74768,0.58251 -0.34715,0.26037 -0.27471,0.85805 -0.58223,1.16516 -0.84056,0.84097 -3.05935,0.9104 -4.07772,1.16516 -0.53304,0.13258 -0.67382,0.91956 -1.16585,1.16517 -0.46606,0.23289 -1.28202,-0.2329 -1.74767,0 -1.50617,0.75308 -1.10297,0.56693 -3.49548,1.16516 z"
         id="path1628" />
      <path
         style="fill:#000000;fill-opacity:1;stroke:#000000;stroke-width:3.61621px;stroke-linecap:butt;stroke-linejoin:miter;stroke-opacity:1"
         d="m 368.30472,458.33541 c -1.53104,-2.95113 -2.4372,-6.4497 -4.078,-9.32095 -0.48109,-0.84301 -1.36539,-1.4378 -1.74767,-2.33023 -0.25832,-0.60274 -1.00456,-5.44512 -1.16584,-6.40815 -0.49203,-2.95303 -0.59727,-0.61969 -1.74767,-3.49532 -0.14488,-0.36055 0.0957,-0.78835 0,-1.16516 -0.49204,-1.96812 -2.03839,-3.78267 -2.33019,-5.82557 -0.10934,-0.76894 0.12301,-1.56405 0,-2.33025 -0.27062,-1.62184 -1.64065,-3.28125 -2.33018,-4.66047 -0.17358,-0.34756 0.17358,-0.81773 0,-1.16516 -1.37769,-2.75519 -2.88031,-5.66317 -3.49535,-8.7384 -0.22278,-1.10994 0.27335,-2.39848 0,-3.49534 -0.34579,-1.38271 -0.82005,-2.69503 -1.16584,-4.0779 -0.67518,-2.70259 0.0957,-6.01589 -0.58224,-8.7384 -0.0683,-0.26652 -0.51527,-0.316 -0.58224,-0.58252 -0.43599,-1.74601 0.66288,-4.16895 0,-5.82561 -0.25968,-0.65003 -0.90479,-1.09764 -1.16447,-1.74768 -0.39226,-0.97997 -0.94717,-2.99045 -1.16585,-4.07789 -0.15171,-0.76169 0.24602,-1.59333 0,-2.33025 -0.9704,-2.90961 -1.83173,-5.74746 -2.33018,-8.73836 -0.22278,-1.34079 0.26652,-2.74499 0,-4.07792 -1.00047,-5.00079 -0.58224,-10.50445 -0.58224,-15.72908 0,-1.78529 0.34989,-4.07579 0,-5.82557 -1.6833,-8.41696 -2.93798,-17.02046 -4.66037,-25.63257 -1.33122,-6.65593 -4.27631,-13.04014 -5.24315,-19.807 -0.4401,-3.07631 -0.65058,-6.23693 -1.16448,-9.32093 -0.38952,-2.33612 -1.35719,-4.64575 -1.74767,-6.99072 -0.47837,-2.86722 0.0273,-5.96346 -1.16448,-8.7384 -0.27608,-0.64347 -0.97313,-1.07441 -1.16448,-1.74767 -0.5303,-1.85769 -0.25421,-4.00419 -1.16584,-5.82557 -0.24602,-0.49121 -1.05787,-0.62652 -1.16448,-1.16516 -0.15171,-0.7617 0.12301,-1.56409 0,-2.33025 -0.5139,-3.08102 -2.13118,-6.19457 -2.91283,-9.32093 -0.56447,-2.26025 -0.61777,-4.80328 -1.16448,-6.99072 -0.0683,-0.26652 -0.49613,-0.32228 -0.58223,-0.58251 -1.26152,-3.78385 -2.11137,-8.22662 -2.9127,-12.23375 -0.17495,-0.87404 -0.82142,-3.39147 -1.16584,-4.07789 -0.0683,-0.12711 -2.24367,-1.25168 -1.16448,-2.33026 1.50917,-1.50914 6.53569,2.17859 6.99069,2.33026 0.36902,0.123 0.84192,-0.21554 1.16448,0 1.64038,0.0355 0.14897,1.31345 0.58223,1.74768 0.43463,0.43422 1.23692,0.24192 1.74768,0.58251 1.62111,1.08083 2.88522,2.60773 4.6605,3.49536 1.66403,0.83208 2.01077,2.50568 3.49535,3.49536 3.99653,2.66431 6.99943,6.9995 10.48603,10.48603 1.65049,1.65048 3.31958,2.79564 5.24302,4.07794 1.18771,0.79204 1.4724,2.35155 2.33032,3.49536 0.36492,0.48697 4.06897,3.48642 4.66036,4.07788 0.913,0.91313 1.87724,3.04236 2.91284,4.07794 2.44868,2.44864 4.96419,4.53338 6.99069,7.57324 1.13987,1.70928 3.00932,2.9772 4.6605,4.07794 1.44726,0.96479 1.55674,2.59144 2.91283,3.49532 1.02234,0.68146 4.59518,2.84751 5.24288,3.49536 0.13805,0.13736 -0.13804,0.44529 0,0.58251 0.33623,0.33772 1.99287,0.82743 2.33019,1.16516 0.13804,0.13749 -0.13805,0.44529 0,0.58265 1.35719,1.35705 3.89471,0.39923 5.24315,1.74767 0.13804,0.13736 -0.13804,0.44529 0,0.58251 0.62187,0.62119 1.53624,-3.65527 1.74781,-4.0779 1.57232,-3.14443 0.72575,-11.64336 1.74767,-15.72906 0.0683,-0.26652 0.52894,-0.31312 0.58224,-0.58265 0.15171,-0.76169 -0.0957,-1.55948 0,-2.33025 0.31162,-2.49215 1.34626,-4.58524 1.74781,-6.99068 0.17358,-1.03149 0.99363,-1.8813 1.16584,-2.91277 0.12301,-0.76621 -0.18861,-1.57671 0,-2.33026 0.20912,-0.84247 0.88976,-1.50637 1.16448,-2.33025 0.64511,-1.93406 0.87062,-3.76649 1.16448,-5.82557 1.09887,-7.68937 0.041,2.71173 1.16584,-2.91279 0.5385,-2.69468 0.24192,-5.41979 0.58224,-8.15582 0.47016,-3.767 1.16174,-7.56283 2.33032,-11.0686 0.63691,-1.91019 0.25695,-4.59358 1.16448,-6.40815 0.24601,-0.49121 0.91982,-0.67395 1.16447,-1.16516 0.60274,-1.20644 0.4811,-3.29339 1.16448,-4.66047 0.62324,-1.24743 1.93041,-3.6779 2.91297,-4.66046 0.30752,-0.30697 0.89386,-0.24342 1.16448,-0.58251 0.5426,-0.67819 0.64374,-1.6355 1.16447,-2.33024 1.22872,-1.63858 6.09984,4.50069 6.99056,5.24303 8.68,7.23318 11.01647,16.36592 16.31169,25.63257 2.246,3.93036 0.30752,-1.26944 1.74768,2.33021 1.1221,2.80604 1.89022,6.06328 3.49534,8.73841 0.995,1.65806 1.29705,0.52688 1.74781,2.33025 0.31845,1.26643 0.28975,2.32808 1.16448,3.49531 0.32939,0.43942 0.91982,0.67395 1.16584,1.16517 0.35809,0.71604 0.22415,1.61408 0.58224,2.33021 0.91026,1.82199 1.29432,4.09842 2.32991,5.82561 0.28155,0.47098 0.91983,0.67381 1.16584,1.16516 0.52347,1.04584 0.57268,2.89282 1.16448,4.07788 0.19135,0.38023 2.05902,3.71639 2.33032,4.07794 0.25969,0.34757 0.92393,0.22128 1.16448,0.58251 0.56037,0.84028 0.60547,3.2376 1.16584,4.0779 0.24192,0.36123 0.92393,0.22128 1.16448,0.58251 0.16948,0.25312 1.10434,3.34221 1.16584,3.49533 0.58224,1.4574 1.11118,1.0576 1.74768,2.33024 0.17357,0.34757 -0.27472,0.89044 0,1.16516 0.13667,0.12984 3.45721,0.0765 3.49548,0 0.17357,-0.34757 -0.21732,-0.84192 0,-1.16516 0.24191,-0.36123 0.92392,-0.22128 1.16447,-0.58251 0.18042,-0.27048 1.0073,-3.60197 1.16448,-4.0779 0.25012,-0.75021 1.49783,-1.58002 1.74767,-2.33025 0.46197,-1.38435 -0.69021,-1.05801 0.58224,-2.33021 0.30752,-0.30698 0.92393,-0.22128 1.16448,-0.58251 0.21731,-0.32324 -0.14488,-0.80448 0,-1.16517 0.26105,-0.65002 0.94443,-1.08342 1.16584,-1.74768 0.18451,-0.55272 -0.18451,-1.19496 0,-1.74767 0.44283,-1.32849 1.94544,-2.14894 2.33019,-3.49536 0.21321,-0.7468 -0.21322,-1.58336 0,-2.33021 0.43052,-1.50536 1.83528,-2.59269 2.33032,-4.07794 1.5894,-4.76782 3.24741,-9.32534 5.24274,-13.98139 0.69158,-1.61301 0.84739,-3.7418 1.74781,-5.24303 0.28155,-0.47099 0.89249,-0.6883 1.16448,-1.16516 1.94407,-3.40222 2.56021,-7.52719 4.07799,-11.06862 0.27472,-0.64347 0.88976,-1.10406 1.16448,-1.74767 0.69841,-1.63128 0.63417,-3.65217 1.16447,-5.24304 -0.21731,-1.26917 0.9704,-0.19422 1.16585,-0.58251 0.43736,-0.8735 0.26378,-5.13174 0.58224,-6.40815 0.34032,-1.35952 1.4735,-2.70829 1.74767,-4.07789 0.10934,-0.5713 -0.10934,-1.17637 0,-1.74768 0.16948,-0.85163 0.995,-1.47867 1.16447,-2.33026 0.34716,-1.73675 2.47383,-14.48835 2.91243,-15.14649 0.24191,-0.36124 0.97039,-0.19422 1.16447,-0.58252 0.25969,-0.521 -0.10934,-1.17636 0,-1.74768 -0.43189,-1.0781 0.995,-1.0684 1.16585,-1.74767 0.14077,-0.56516 -0.21732,-1.20671 0,-1.74769 0.041,-0.0547 1.51737,-2.45204 1.74781,-2.91278 1.97223,-3.94417 2.72189,-8.35627 4.6605,-12.23372 0.46607,-0.93212 1.86412,-1.39813 2.33032,-2.33025 0.27472,-0.5493 0.14898,-1.31345 0.58224,-1.74767 3.97781,-1.32603 0.18861,0.39526 2.33032,-1.74769 0.30752,-0.30697 0.80365,-0.34169 1.16448,-0.58251 0.45923,-0.30588 3.47553,-5.07538 4.66064,-3.49536 1.93929,2.58585 3.23101,5.2966 4.6605,8.15582 0.54944,1.09847 0.53304,2.44222 1.16585,3.49536 2.37037,3.95083 0,-2.75978 2.33032,3.49533 0.85012,2.26859 1.37769,4.76873 2.33032,6.99072 1.91756,4.47463 0.51663,-1.36471 2.32991,4.07792 1.86412,5.59221 3.62013,11.37992 5.82567,16.89419 0.66834,1.67274 1.89637,3.50736 2.33032,5.24303 0.4852,1.94122 0.82415,4.56203 1.74767,6.40815 0.24602,0.49121 0.88292,0.69417 1.16584,1.16516 1.99615,3.3272 2.28768,8.0286 3.49507,11.65118 0.52347,1.57029 1.90499,3.17167 2.33032,4.66046 0.21322,0.7468 -0.18861,1.57667 0,2.33025 0.20912,0.84247 0.85969,1.51708 1.16448,2.33022 0.9827,2.6187 1.06197,5.61901 2.33019,8.15582 0.31435,0.62625 0.88975,1.10406 1.16447,1.74767 0.63144,1.47183 0.65878,3.14134 1.16585,4.66046 1.25468,3.76412 2.36681,7.64634 4.07799,11.06862 0.32529,0.65208 0.24192,2.4034 0.58224,2.91282 0.24191,0.36123 0.92393,0.22127 1.16447,0.58251 0.21322,0.32324 -0.0957,0.78834 0,1.16516 0.40867,1.63326 1.37674,3.81311 2.33005,5.24303 0.79682,1.19427 2.28098,2.23142 2.91283,3.49536 0.17358,0.34756 -0.123,0.79668 0,1.16516 0.37313,1.11923 1.16038,0.86625 1.74768,1.74768 0.21731,0.32324 -0.12301,0.79669 0,1.16516 0.30342,0.90835 2.62034,3.05784 3.49548,3.49532 2.55624,1.27806 3.07739,-2.1213 4.6605,-2.91279 0.34716,-0.17358 0.88976,0.27444 1.16448,0 0.61367,-0.61408 0.5508,-1.71614 1.16584,-2.33021 0.60958,-0.6104 1.88804,-1.30567 2.32991,-1.74767 0.56037,-0.55969 1.30389,-3.19052 1.74768,-4.07794 1.44726,-2.89412 4.74879,-10.43234 5.24315,-13.39881 0.12301,-0.76621 -0.21321,-1.58341 0,-2.33026 0.43053,-1.50536 1.83528,-2.59268 2.33032,-4.07793 0.86789,-2.60396 1.03874,-5.57229 2.33032,-8.15579 1.58489,-3.17022 3.79016,-6.05212 5.24274,-9.32096 1.28612,-2.8938 -0.31025,-1.91666 1.74768,-4.66047 1.31345,-1.75193 5.14092,-5.51869 5.8258,-7.57324 0.12301,-0.36848 -0.17358,-0.81773 0,-1.16516 2.58085,-5.16186 0.77632,-0.29044 2.91283,-3.49536 0.4811,-0.7226 0.62188,-1.65211 1.16448,-2.33025 0.27062,-0.33923 0.85832,-0.27554 1.16584,-0.58251 0.43326,-0.43422 0.14761,-1.31346 0.58224,-1.74768 0.45513,-0.45526 1.75355,-0.39034 2.32991,-0.58264 1.81861,-0.60616 -0.19544,-0.38844 0.58224,-1.16516 0.15581,-0.15404 1.50794,0 1.74767,0 3.2455,0 6.22572,2.68131 7.57348,5.82557 0.31435,0.73599 0.22414,1.61414 0.58223,2.33025 0.84056,1.68136 2.30176,2.82719 2.91284,4.66046 0.31845,0.95468 0.16948,2.67148 0.58224,3.49536 0.24601,0.49121 0.99089,0.64402 1.16447,1.16516 1.05787,3.17316 0.75172,7.17522 1.16448,10.48603 -0.60274,1.50327 0.92393,2.2911 1.16584,3.49536 0.53851,2.69542 0.041,5.50887 1.16448,8.15582 0.27472,0.64361 0.94443,1.08343 1.16448,1.74769 0.36902,1.1053 -0.16265,2.34197 0,3.49536 0.5426,3.80139 0.61094,8.24033 1.74781,11.65118 0.34715,1.0468 -0.26789,2.42216 0,3.49536 0.79818,3.19289 0.94716,6.70224 1.74767,9.90346 0.23508,0.94197 -0.19135,1.96074 0,2.91282 0.16948,0.85149 0.954,1.4877 1.16584,2.33021 0.32256,1.29145 -0.39636,3.09884 0.58224,4.07793 0.36493,0.36547 2.46235,0.13257 2.91297,0.58251 0.13804,0.13736 -0.13804,0.44529 0,0.58251 0.50843,0.50871 3.36632,0.34538 4.07758,0.58265 0.55901,0.18656 1.05787,1.11172 1.16585,1.16516 0.78588,0.39267 3.48714,0.007 4.07799,-0.58251 0.13804,-0.1375 -0.13668,-0.44529 0,-0.58251 0.30752,-0.30698 0.85832,-0.27554 1.16584,-0.58265 1.17541,-1.17487 1.81314,-3.34094 2.91284,-4.66047 3.00686,-3.60829 4.68592,-7.34543 6.4079,-11.65118 0.32255,-0.80625 0.5508,-1.71614 1.16448,-2.33021 0.13667,-0.13736 0.5221,0.1841 0.58224,0 0.18451,-0.55271 -0.25969,-1.22666 0,-1.74767 0.19544,-0.38843 0.85832,-0.27554 1.16584,-0.58265 0.61367,-0.61408 0.5508,-1.71618 1.16448,-2.33025 0.13804,-0.13736 0.49613,0.17358 0.58223,0 0.17358,-0.34757 -0.17357,-0.81773 0,-1.16516 0.66972,-1.33915 2.55557,-2.55539 3.49535,-3.49536 2.74076,-2.74076 4.80388,-6.55134 7.57306,-9.32093 0.30752,-0.30697 0.85833,-0.27553 1.16448,-0.58251 2.12025,-2.12007 5.4196,-7.37019 8.15599,-8.73836 1.04283,-0.52128 1.88981,-0.14242 2.91297,-1.16516 0.60274,-0.6026 7.10836,-5.12684 7.57306,-5.24303 0.37722,-0.0943 0.84192,0.21554 1.16448,0 0.36219,-0.24082 0.27471,-0.85805 0.58224,-1.16516 0.43326,-0.43299 2.19569,0.44802 2.33032,0.58251 0.43462,0.43422 0.30752,1.19851 0.58223,1.74769 2.78696,5.57392 2.33033,11.89751 2.33033,18.05931 0,6.54275 -0.68475,12.84298 -1.74781,19.22444 -0.96767,5.80384 -0.25969,-3.14633 -1.16448,4.0779 -0.62871,5.0297 -1.34899,10.23742 -2.33032,15.14652 -1.05377,5.26944 -0.0547,-1.58234 -1.16448,1.74769 -0.23098,0.69909 0.23098,1.63117 0,2.33025 -0.9704,2.91148 -1.5756,6.76109 -3.49548,9.32093 -0.32939,0.43941 -0.88156,0.69417 -1.16584,1.16516 -1.86699,3.1119 0.46196,0.36369 -0.58224,3.49536 -0.78589,2.35848 -2.68691,4.56427 -3.49548,6.99071 -0.73805,2.2149 -1.10708,4.95212 -2.33032,6.99068 -0.28156,0.47098 -0.91983,0.67394 -1.16448,1.16516 -1.92057,0.68857 -0.26789,1.97343 -0.58224,2.91277 -0.73121,2.19313 -1.7843,4.2245 -2.33032,6.40815 -0.18861,0.7535 0.18861,1.57667 0,2.33022 -1.66088,6.64435 -1.01687,15.15579 0.58224,21.55468 0.22825,0.91382 -0.22825,1.99897 0,2.91278 0.27472,1.09327 0.71345,2.00968 1.16584,2.91279 0.4032,0.80776 0.37176,13.07481 0,14.56396 -0.0683,0.26652 -0.51663,0.316 -0.58224,0.58265 -0.40319,1.61597 -0.41549,2.57777 -1.16447,4.07788 -0.44147,0.88334 -0.14898,2.62538 -0.58224,3.49536 -0.24602,0.49121 -0.97177,0.65085 -1.16585,1.16516 -0.41412,1.10598 -0.0957,2.41596 -0.58223,3.49532 -0.33213,0.75281 -1.25332,1.08862 -1.74781,1.74768 -1.05241,1.40335 -0.45103,3.81391 -1.16448,5.24304 -0.88839,1.77653 -0.46196,-1.06553 -1.16448,1.74768 -0.69841,2.79421 -0.45649,5.90618 -1.16584,8.73839 -0.44146,1.76724 -1.92193,3.60891 -2.33032,5.243 -0.0957,0.37682 0.17358,0.81773 0,1.16516 -1.68152,3.363 -0.89933,-1.3278 -1.74767,2.91278 -0.13668,0.6473 0.21731,1.67988 0,2.33023 -0.45923,1.37817 -1.28886,2.69978 -1.74768,4.07792 -0.22004,0.66001 0.30752,1.71293 0,2.33021 -0.81048,1.62093 -1.21368,3.64062 -1.74767,5.24305 -0.18451,0.55271 0.25969,1.22666 0,1.74767 -0.45786,0.91422 -0.88702,1.80077 -1.16584,2.91279 -0.12301,0.4919 0.25285,1.82097 0,2.33024 -1.67401,3.34821 -1.16448,7.7396 -1.16448,11.65118 0,0.20433 0.22415,2.68993 0,2.91279 -0.13804,0.13736 -0.44556,-0.13736 -0.58224,0 -0.67518,0.67477 -1.66853,2.50285 -2.33018,3.49536 -0.51664,0.77509 -1.78389,1.20151 -2.33005,1.74767 -0.52073,0.52019 -2.98759,3.95094 -3.49534,4.0779 -0.56584,0.14146 -1.19455,-0.1841 -1.74768,0 -0.18451,0.0615 0.13668,0.44529 0,0.58251 -0.80775,0.8083 -4.56004,0.91204 -5.8258,1.16516 -1.18498,-0.20214 -1.88722,0.96001 -2.91283,1.16516 -3.37138,0.67436 -7.15798,0.91573 -10.4859,1.74767 -0.26788,0.067 -0.31435,0.51595 -0.58224,0.58265 -1.22734,0.3067 -2.87374,-0.40142 -4.07799,0 -0.25968,0.0861 -0.38816,0.38843 -0.58224,0.58251 -0.58223,0.19422 -1.14534,0.4621 -1.74767,0.58265 -2.63237,0.52648 -5.51623,0.63718 -8.15571,1.16516 -1.9546,0.39089 -3.82446,1.82998 -5.82567,2.33025 -2.66189,0.66548 -5.55709,1.2279 -8.15571,1.74768 -1.40557,0.281 -3.97275,-0.0519 -5.24315,0.58251 -1.48075,0.74051 -2.9388,1.40337 -4.66051,1.74767 -1.29842,0.25968 -2.79611,-0.32037 -4.07772,0 -7.22768,1.80695 -15.8429,0.33636 -23.30252,1.16516 -3.09475,0.34388 -6.24622,0.65263 -9.32074,1.16516 -2.45934,0.40989 -5.09704,-0.30957 -7.57347,0 -0.9827,0.12301 -1.92672,0.49285 -2.91283,0.58265 -1.74043,0.158 -3.54742,-0.42383 -5.24275,0 -0.26788,0.067 -0.31435,0.51595 -0.58224,0.58251 -2.41574,0.60384 -5.6663,0 -8.15612,0 -6.7962,0 -13.59294,0 -20.38928,0 -6.5674,0 -13.81026,0.65796 -20.38955,0 -1.16448,-0.19421 -2.33033,-0.38843 -3.49549,-0.58251 -0.58223,-0.19422 -1.1426,-0.48165 -1.74767,-0.58265 -4.27945,-0.71331 -8.66018,-0.91641 -12.81622,-1.74767 -2.52371,-0.50474 -4.9467,0.0738 -7.57347,-0.58265 -1.19181,-0.29795 -2.27934,-0.99144 -3.49507,-1.16516 -5.76416,-0.82347 -11.69657,-0.004 -17.47672,-0.58251 -6.25182,-0.62516 -12.10961,-1.14029 -18.05937,-2.33021 -7.6168,-1.52334 5.78302,2.23488 -4.078,-0.58265 -2.5054,-0.71577 -5.00916,-1.90286 -7.57347,-2.33021 -0.9581,-0.1595 -1.95132,0.13736 -2.91256,0 -3.33338,-0.47618 -6.63752,-1.67703 -9.90366,-2.33026 -1.53295,-0.3067 -2.24968,-1.24948 -3.49507,-1.74767 -2.75812,-1.10311 -6.00731,-1.41976 -8.73863,-2.33022 -2.39101,-0.7971 -4.48761,-2.66102 -6.99083,-3.49535 -1.81314,-0.60451 -4.03275,-0.2687 -5.82539,-1.16516 -1.15901,-0.57923 -2.2546,-1.83402 -3.49535,-2.33024 -2.38212,-0.9529 -3.22568,0.0861 -2.33018,-3.49535 z"
         id="path1045" />
      <path
         style="fill:#000000;fill-opacity:1;stroke:#000000;stroke-width:3.61621px;stroke-linecap:butt;stroke-linejoin:miter;stroke-opacity:1"
         d="m 735.89894,178.12474 c -5.14297,1.42453 -8.56136,-0.92092 -13.39873,-2.91282 -2.16931,-0.89332 -4.5759,-1.44703 -6.4079,-2.91279 -0.94306,-0.75418 -0.91163,-4.22898 -1.16448,-5.24303 -0.79545,-3.17826 -1.29842,-12.51055 -0.58224,-15.72908 0.75035,-3.37515 2.95589,-8.57296 5.8254,-10.48604 1.62152,-1.08083 2.89656,-3.19583 4.66064,-4.07793 0.34715,-0.17358 0.79682,0.123 1.16584,0 0.4114,-0.13736 0.85833,-0.27554 1.16448,-0.58252 0.13804,-0.13735 -0.18451,-0.52114 0,-0.58264 1.25742,-0.41905 12.19721,-0.98311 13.39886,-0.58252 1.81055,0.60356 6.60718,2.72804 7.57334,4.66047 0.082,0.17358 0,0.38843 0,0.58251 0.19545,0.38843 0.34306,0.80393 0.58224,1.16516 0.89249,1.33833 0.33212,-0.24984 1.74767,1.16516 1.78786,1.78812 -0.34032,0.48438 0.58224,2.33021 0.58224,1.16516 1.16448,0.87391 1.74726,1.74769 0.34033,0.51089 0.14761,1.31345 0.58224,1.74767 0.30752,0.30697 0.9048,0.23508 1.16448,0.58265 2.27893,3.03859 3.00399,11.10527 2.33018,15.1465 -0.16264,0.98529 -0.86105,2.58291 -1.16447,3.49535 -0.97177,2.91684 -0.13668,-0.97094 -1.16585,0.58252 -0.34032,0.51089 -0.21321,1.25646 -0.58224,1.74768 -0.25968,0.34757 -0.85832,0.27554 -1.16447,0.58251 -0.80502,0.80557 -1.23008,2.39578 -1.74727,2.91282 -2.429,2.4288 -11.90062,5.74243 -15.14694,4.66047 z"
         id="path1630" />
      <text
         xml:space="preserve"
         style="font-size:546.703px;line-height:1.25;font-family:'Chess Condal';-inkscape-font-specification:'Chess Condal';fill:#ffffff;fill-opacity:1;stroke:#000000;stroke-width:3.61621;stroke-opacity:1"
         x="238.97667"
         y="551.54474"
         id="text45350"><tspan
           sodipodi:role="line"
           id="tspan45348"
           style="fill:#ffffff;fill-opacity:1;stroke:#000000;stroke-width:3.61621;stroke-opacity:1"
           x="238.97667"
           y="551.54474">q</tspan></text>
    </g>
  </g>
</svg>
