<?xml version="1.0" encoding="UTF-8" standalone="no"?>
<!-- Created with Inkscape (http://www.inkscape.org/) -->

<svg
   width="532.00018mm"
   height="854.52734mm"
   viewBox="0 0 532.00018 854.52735"
   version="1.1"
   id="svg5"
   inkscape:version="1.1.2 (b8e25be833, 2022-02-05)"
   sodipodi:docname="Black_Pawn.svg"
   xmlns:inkscape="http://www.inkscape.org/namespaces/inkscape"
   xmlns:sodipodi="http://sodipodi.sourceforge.net/DTD/sodipodi-0.dtd"
   xmlns="http://www.w3.org/2000/svg"
   xmlns:svg="http://www.w3.org/2000/svg">
  <sodipodi:namedview
     id="namedview7"
     pagecolor="#ffffff"
     bordercolor="#cccccc"
     borderopacity="1"
     inkscape:pageshadow="0"
     inkscape:pageopacity="1"
     inkscape:pagecheckerboard="true"
     inkscape:document-units="mm"
     showgrid="false"
     inkscape:zoom="0.096991619"
     inkscape:cx="1216.6"
     inkscape:cy="1494.9745"
     inkscape:window-width="1920"
     inkscape:window-height="1017"
     inkscape:window-x="-8"
     inkscape:window-y="32"
     inkscape:window-maximized="1"
     inkscape:current-layer="layer1"
     showborder="false"
     fit-margin-top="10"
     lock-margins="true"
     fit-margin-left="10"
     fit-margin-right="10"
     fit-margin-bottom="10" />
  <defs
     id="defs2" />
  <g
     inkscape:label="Livello 1"
     inkscape:groupmode="layer"
     id="layer1"
     transform="translate(-237.69713,-0.87911654)">
    <text
       xml:space="preserve"
       style="font-size:40px;line-height:1.25;font-family:'Chess Condal';-inkscape-font-specification:'Chess Condal';fill:#ffffff;fill-opacity:1;stroke:none;stroke-width:0.264583;stroke-opacity:1"
       x="87.548508"
       y="91.29937"
       id="text29524"><tspan
         sodipodi:role="line"
         id="tspan29522"
         style="fill:#ffffff;fill-opacity:1;stroke:none;stroke-width:0.264583;stroke-opacity:1"
         x="87.548508"
         y="91.29937" /></text>
    <text
       xml:space="preserve"
       style="font-size:40px;line-height:1.25;font-family:'Chess Leipzig';-inkscape-font-specification:'Chess Leipzig';stroke-width:0.264583"
       x="254.01411"
       y="94.275764"
       id="text58610"><tspan
         sodipodi:role="line"
         id="tspan58608"
         style="stroke-width:0.264583"
         x="254.01411"
         y="94.275764" /></text>
    <path
       style="fill:#000000;fill-opacity:1;stroke:#000000;stroke-width:6.36904px;stroke-linecap:butt;stroke-linejoin:miter;stroke-opacity:1"
       d="m 458.43061,135.42613 c -11.24571,-18.86435 -12.4067,-42.621509 -8.20806,-63.613899 0.66198,-3.306385 3.70347,-6.380836 5.12998,-9.234281 0.45015,-0.897645 0.58495,-3.441573 1.02547,-4.104107 0.42366,-0.636222 1.51172,-0.485291 2.05093,-1.025948 1.78614,-1.78542 5.78691,-5.882665 7.18236,-8.208237 0.55606,-0.927493 0.37793,-2.212938 1.02547,-3.078085 0.45977,-0.61191 1.51172,-0.485292 2.05334,-1.025949 1.27341,-1.273408 1.29266,-2.317651 2.05093,-3.078085 1.40581,-1.404842 5.7715,-2.693512 7.18212,-4.104131 0.24072,-0.241923 -0.30571,-0.873091 0,-1.025948 1.75726,-0.878628 8.21481,-1.029318 10.26021,-2.052137 0.30571,-0.154061 -0.24072,-0.784266 0,-1.025949 0.61865,-0.617687 22.49214,-1.657838 25.65087,-1.025948 1.02065,0.204612 16.22693,6.992697 16.41638,7.182216 0.24072,0.241924 -0.24072,0.784266 0,1.025948 0.38034,0.380338 3.47046,0.709161 4.10427,1.025949 1.37451,0.687014 1.42266,2.447736 2.05094,3.078085 0.60902,0.609263 6.76663,3.688383 7.18236,4.104131 1.1049,1.104182 3.10721,4.133185 4.10403,5.130151 1.28063,1.281833 4.97905,2.338112 6.15617,4.10413 8.44157,12.662422 8.20831,19.734364 8.20831,36.9371 0,2.815413 1.23008,8.826984 0,11.286324 -0.99176,1.98353 -1.18193,4.41666 -2.05093,6.15619 -1.56468,3.12895 -0.81364,-1.87665 -2.05094,3.07809 -0.37552,1.50017 -0.337,3.75013 -1.02546,5.13015 -0.4333,0.86515 -1.74522,1.13427 -2.05094,2.05214 -0.32978,0.98912 -0.43089,5.56087 -1.02546,6.15619 -0.24072,0.24193 -0.87382,-0.30595 -1.02547,0 -0.61143,1.22358 0.4333,2.80629 0,4.10411 -4.15988,12.47984 -3.07809,24.6568 -3.07809,38.98917 0,4.48923 -0.88103,9.96156 0,14.36443 1.81744,9.08496 5.14106,17.46416 9.23426,25.65078 0.96769,1.93466 1.08565,4.22148 2.05093,6.15617 0.69809,1.39449 2.38072,2.70959 3.07809,4.10413 0.14443,0.30595 0,0.68388 0,1.02595 0.34182,0.68412 0.6018,1.41567 1.02547,2.05213 0.2672,0.40249 0.68364,0.68413 1.02546,1.02595 0.68365,0.34206 1.59357,0.41428 2.05094,1.02595 1.29507,1.72572 0.75827,3.40448 2.05334,5.13015 0.56569,0.75466 3.80963,2.19489 4.10403,3.07809 1.11454,3.34591 1.6706,3.93798 4.10428,7.18221 0.73901,0.98647 2.39275,1.02595 3.07808,2.05214 0.38034,0.56906 -0.30571,1.44023 0,2.05214 0.31294,0.62731 3.45265,2.101 4.10404,3.07808 0.80641,1.21107 -0.0481,5.09412 1.02546,6.1562 0.24072,0.24192 0.78475,-0.24192 1.02547,0 1.27582,1.27509 -0.72697,6.74064 -2.05334,7.18221 -0.91474,0.305 -5.73371,1.20722 -6.15617,2.05214 -0.30572,0.61167 0.30571,1.44023 0,2.05214 -0.12036,0.25637 -2.57932,1.55312 -3.07809,2.05214 -0.48384,0.4836 0.48385,1.56829 0,2.05213 -0.24312,0.24193 -0.78474,-0.24192 -1.02546,0 -0.48385,0.48361 0.48384,1.56829 0,2.05214 -0.24072,0.24193 -0.87382,-0.30595 -1.02547,0 -2.36146,4.72059 -0.78956,21.15548 0,26.6768 0.55366,3.8694 1.89687,3.04371 3.07809,7.18222 0.66679,2.33089 0.46458,3.91461 1.02546,6.15617 0.79438,3.17615 1.32637,1.18386 3.07809,4.10413 1.72596,2.87554 3.20157,9.31668 6.15617,11.28634 0.5681,0.37938 1.48283,-0.37937 2.05093,0 1.86558,1.24356 6.78879,9.39355 8.20831,11.28633 0.58014,0.77391 1.24693,1.51557 2.05094,2.05213 0.28404,0.19017 0.83529,-0.28453 1.02546,0 0.59939,0.89982 0.37793,2.21294 1.02547,3.07809 0.45977,0.61191 1.51172,0.48529 2.05334,1.02595 0.48144,0.48072 5.06788,8.02148 5.13022,8.20823 0.21665,0.64899 -0.38033,1.48284 0,2.05214 0.0722,2.88905 2.31332,0.26118 3.07809,1.02595 1.11694,1.11766 2.52732,4.26416 4.10403,6.15617 1.66338,1.99605 6.01367,3.81881 7.18236,6.1562 0.30572,0.61191 -0.21664,1.40315 0,2.05213 1.07602,3.2283 4.23523,6.68131 5.12999,10.26031 1.46839,5.86937 3.66159,11.56827 5.13022,17.44254 0.38515,1.53796 -0.5007,3.62753 0,5.13015 1.88484,5.65737 6.35452,10.8556 8.20831,16.41647 0.43329,1.29772 -0.4333,2.80629 0,4.10416 2.72278,8.16856 6.46453,22.36478 4.10403,31.8069 -1.23971,4.95466 -0.48625,-0.0505 -2.05334,3.07811 -0.94121,1.88171 -0.63069,8.92036 -1.02547,11.28632 -0.0722,0.48794 -0.68123,5.46675 -1.02546,6.1562 -1.56468,3.12899 -0.81364,-1.87642 -2.05094,3.07811 -1.32155,5.28267 -2.02204,11.21015 -4.10403,16.41647 -1.64171,4.10435 -4.77709,8.17511 -6.15617,12.31239 -1.21323,3.64067 1.66337,0.51899 -1.02547,4.10415 -4.65745,6.21007 -8.34744,12.88661 -12.31234,19.49456 -0.99658,1.65904 -2.94328,2.55635 -4.10404,4.10408 -1.35284,1.80324 -1.82225,4.48332 -3.07808,6.1562 -1.24693,0.62298 -2.29406,0.87694 -3.07809,2.05214 -1.9739,2.96124 -3.59371,6.67172 -6.15617,9.2343 -5.24336,5.24344 1.43228,-4.3021 -4.10427,3.07809 -0.45978,0.61215 -0.41404,1.59332 -1.02547,2.05214 -0.86419,0.64898 -2.21222,0.37696 -3.07809,1.02619 -2.26758,1.7014 -7.93364,10.73699 -9.23425,13.33836 -0.54644,1.09455 0.54643,3.0097 0,4.10415 -0.68365,1.36946 -3.88474,10.47977 -2.05334,12.31239 0.24072,0.24193 0.91714,-0.32473 1.02546,0 0.28164,0.8483 -0.54402,4.04034 0,5.13015 1.28785,2.57749 1.12657,5.43178 2.05094,8.20824 1.06639,3.20254 0.68364,-0.34206 2.05093,1.02595 0.72457,0.72553 -0.32497,2.10461 0,3.07809 0.90992,2.73118 10.49467,19.72902 12.31234,21.54667 0.98936,0.99032 2.83713,1.38895 4.10404,3.07811 0.70531,0.94097 2.12555,4.49496 3.07808,5.13012 0.5681,0.37962 1.4034,-0.21664 2.05094,0 2.07741,0.69231 2.79981,3.82572 4.10403,5.13015 1.74522,1.74402 4.23041,2.56348 6.15641,4.10416 4.27206,3.41776 7.57835,7.57839 11.28616,11.28632 1.08083,1.08156 3.02272,0.97058 4.10427,2.05214 3.54677,3.54701 5.16344,7.21563 9.23426,11.28635 1.17471,1.17591 3.9543,1.90216 5.12998,3.07808 1.16268,1.16292 1.37692,3.25388 3.07809,4.10416 0.61142,0.30571 1.4395,-0.30572 2.05093,0 1.62727,0.81315 1.86799,3.29776 3.07809,4.1041 0.5705,0.37962 1.40339,-0.21665 2.05093,0 2.28202,0.76092 1.14342,3.19623 2.05334,4.10413 1.08083,1.08156 2.9428,1.05652 4.10403,2.05214 2.02927,1.73968 6.61932,6.85094 8.20831,9.2343 0.5994,0.89982 0.0481,2.59436 1.02547,3.07809 0.61143,0.30571 1.43951,-0.30571 2.05093,0 0.12036,0.0578 1.66579,4.61458 2.05094,5.13015 1.62726,2.16913 4.34571,5.37167 6.15617,7.18219 0.84974,0.84902 2.53863,1.90386 4.10427,3.07809 4.06143,3.04607 0.0722,1.09166 4.10404,5.13015 5.24336,5.24343 -1.43229,-4.3021 4.10403,3.07809 4.72774,6.30351 8.97597,13.84753 13.33853,22.57266 3.78171,7.56364 0.14444,0.13962 4.10404,4.10416 0.9027,0.90342 1.18915,4.8617 2.05093,6.15619 1.98113,2.97123 6.30253,8.79331 7.18212,12.31232 0.25035,0.99538 -0.1685,2.0661 0,3.07811 0.19258,1.15811 4.46054,11.30768 5.13022,12.31239 0.80401,1.20721 2.61928,1.70165 3.07809,3.07809 0.21665,0.64898 -0.30571,1.44023 0,2.05214 0.14443,0.30571 0.87381,-0.30572 1.02547,0 0.40922,0.82085 -0.40923,2.25723 0,3.07811 0.43329,0.86514 1.81743,1.11357 2.05093,2.05213 0.85456,3.4201 -0.57051,2.2801 0,5.1302 0.97492,4.86953 2.05334,9.29906 2.05334,14.36443 0,0.42367 2.5059,4.6763 1.02547,6.15613 -2.36146,2.36074 -2.84339,0.90872 -5.13022,2.05213 -0.86419,0.43258 -1.18675,1.61957 -2.05094,2.05214 -0.61143,0.30572 -1.56949,-0.48336 -2.05334,0 -0.24072,0.24193 0.30572,0.87309 0,1.02595 -2.54369,1.27172 -6.42578,0.55799 -9.23426,1.02595 -10.72864,1.78807 -21.89733,1.02619 -32.83299,1.02619 -26.33476,0 -52.66952,0 -79.00428,0 -27.01889,0 -54.03777,0 -81.05642,0 -13.01524,0 -27.13395,1.61017 -40.01535,0 -6.47128,-0.80906 -13.01573,-1.33215 -19.49447,-2.05214 -3.0593,-0.34014 -6.17494,0.34014 -9.23425,0 -6.20432,-0.68942 -12.37036,-2.31573 -18.46852,-3.07811 -6.92358,-0.86539 -14.52407,0 -21.54684,0 -6.27532,0 -17.76922,-1.45732 -23.59849,0 -0.46941,0.11795 -0.5681,0.87309 -1.02547,1.02595 -2.72327,0.90775 -6.43083,-0.5604 -9.23426,0 -3.80145,0.76043 -7.31716,0.52982 -11.28639,1.02595 -12.72349,1.59043 3.03981,0.34832 -7.18212,2.05213 -3.30629,0.55101 -6.97414,-0.65716 -10.26021,0 -15.02622,3.00525 -41.8157,1.58105 -57.45792,-1.02594 -5.08858,-0.8483 -11.5495,1.62221 -16.41637,0 -2.02927,-0.67643 -2.27481,-1.57648 -5.13023,-2.05214 -1.35044,-0.22387 -3.13682,0.96745 -4.10403,0 -1.70189,-1.70261 -1.02547,-21.58076 -1.02547,-24.62471 0,-5.48943 1.30952,-11.52492 4.10404,-16.41647 0.47903,-0.83988 1.55505,-1.22262 2.05334,-2.05214 1.19397,-1.98931 1.32155,-5.42535 3.07808,-7.18219 2.59159,-2.59162 7.47026,-5.70629 9.23426,-9.23428 1.96668,-3.93308 5.36565,-12.5478 8.20807,-15.39043 0.24312,-0.24193 0.78474,0.24192 1.02546,0 0.76549,-0.76477 0.35145,-2.23364 1.02547,-3.07809 0.90751,-1.13307 2.2724,-1.87087 3.07809,-3.07811 0.59939,-0.89981 0.37793,-2.21294 1.02546,-3.07808 1.75485,-2.3386 5.1348,-3.08264 7.18236,-5.13015 1.90651,-1.90651 3.22348,-5.27567 5.13023,-7.18224 4.79249,-4.79247 -1.22527,5.42987 5.12998,-4.10411 0.59939,-0.89981 0.35145,-2.23364 1.02547,-3.07809 0.7703,-0.96288 2.20499,-1.18025 3.07808,-2.05213 2.10149,-2.10053 2.97024,-6.04843 5.12998,-8.20824 0.54162,-0.54066 1.59357,-0.41404 2.05335,-1.02595 0.64994,-0.86515 0.54161,-2.11063 1.02546,-3.07808 1.61283,-3.22522 4.21188,-5.29173 6.15617,-8.20824 1.37933,-2.06995 1.82225,-4.0641 3.07809,-6.1562 0.64994,-1.083 3.65581,-2.7587 4.10427,-4.10415 0.21665,-0.64898 -0.48384,-1.56829 0,-2.05214 0.76549,-0.76477 2.31332,-0.26118 3.07809,-1.02595 0.76549,-0.76476 0.54162,-2.11063 1.02547,-3.07811 1.75003,-3.4973 4.62206,-7.18797 7.18236,-10.26027 2.10389,-2.52602 4.12786,-4.64705 6.15617,-7.1822 1.79336,-2.24182 2.43945,-4.96282 4.10403,-7.18224 2.34221,-3.12288 5.12012,-3.7455 7.18212,-7.18219 2.01964,-3.36553 3.15079,-8.24461 7.18236,-10.26035 5.26334,-2.63162 17.96469,-4.62639 21.5466,-8.20823 2.39998,-2.3995 12.21196,-14.59423 14.36448,-18.46852 0.68365,-1.23273 0.39478,-2.84288 1.02547,-4.10415 0.61624,-1.23129 2.46256,-1.84681 3.07809,-3.07809 0.94362,-1.88508 0.12036,-5.37388 1.02546,-7.18219 1.87521,-3.74844 2.23629,-7.07481 3.07809,-11.28632 0.27201,-1.362 0.82567,-7.99552 0,-9.23431 -0.97733,-1.4655 -2.10149,-0.58663 -3.07809,-2.05214 -2.1087,-3.16313 -6.80467,-8.53248 -10.26044,-10.26035 -0.61143,-0.30571 -1.5045,0.41019 -2.05335,0 -0.98695,-0.73997 -1.17952,-2.20619 -2.05093,-3.07808 -1.34322,-1.34394 -5.45182,-2.71965 -7.18236,-4.10408 -1.13379,-0.90655 -1.87039,-2.27312 -3.07808,-3.07811 -0.66198,-0.44148 -3.65967,-1.60777 -4.10404,-2.05214 -0.48385,-0.48409 0.48385,-1.56853 0,-2.05214 -3.4926,-3.49258 -7.41562,-7.0192 -10.2602,-11.28632 -2.01002,-3.01627 -6.54951,-12.61977 -7.18236,-16.41647 -0.48144,-2.89105 -0.68606,-6.50363 -2.05335,-9.23431 -1.92816,-3.85708 -2.36627,-7.22879 -4.10403,-11.28632 -0.66198,-1.5447 -2.62577,-3.32071 -3.07809,-5.13015 -2.14,-8.55516 -5.90823,-16.73353 -7.18212,-25.65076 -1.26618,-8.86578 0.24072,-17.86021 -1.02546,-26.67682 -1.22286,-8.55535 -2.47533,-22.08456 -1.02547,-30.7809 1.16268,-6.97782 0.71494,0.93423 3.07809,-6.1562 0.32497,-0.97347 -0.32498,-2.10485 0,-3.07809 1.94742,-5.83916 7.04467,-9.54098 10.2602,-14.36443 2.29647,-1.8249 1.738,-4.94872 3.07809,-7.18221 1.20119,-2.00063 3.72466,-3.25598 5.13022,-5.13015 2.11834,-2.8231 2.98493,-6.55283 5.13022,-9.23426 2.78658,-3.48331 6.02041,-6.61397 8.20831,-10.26033 2.53575,-4.22636 4.14953,-9.29504 7.18212,-13.33838 1.16027,-1.54783 2.86553,-2.61786 4.10404,-4.10413 3.06003,-3.6718 5.52981,-8.29444 8.20831,-12.31237 2.01723,-3.02696 3.85488,-3.85494 6.15617,-6.15617 1.98112,-1.98185 2.23869,-5.31577 4.10427,-7.18222 1.36729,-1.36801 0.98455,2.17659 2.05094,-1.02595 0.32497,-0.97347 -0.45978,-2.16046 0,-3.07808 0.43329,-0.86515 1.74521,-1.13428 2.05334,-2.05214 0.21664,-0.64898 -0.30572,-1.44023 0,-2.05214 0.76549,-1.52953 2.31331,-2.57459 3.07808,-4.1041 1.09528,-2.19104 8.20831,-19.69725 8.20831,-21.54665 0,-1.2686 2.3735,-7.19676 1.02547,-8.20826 -1.16268,-0.87237 -16.0825,-2.74409 -16.41638,-3.07809 -2.80487,-2.80475 -4.52794,-14.11964 -3.07833,-18.46854 1.58635,-4.75487 6.87545,-7.15807 9.2345,-11.28634 2.07982,-3.64212 -0.0722,-3.49579 2.05094,-6.1562 5.28211,-6.60259 9.61772,-13.07891 13.33853,-20.5206 1.96668,-3.93373 4.91478,-7.50741 7.18212,-11.28635 3.46011,-5.76697 5.54113,-12.93037 7.18212,-19.49458 0.6355,-2.53844 0.5031,-4.57289 1.02546,-7.18222 0.45015,-2.24977 2.52155,-3.9304 3.07809,-6.15617 0.97251,-3.89504 3.55471,-27.29894 2.05093,-31.80695 -0.12036,-0.32449 -0.78474,0.24193 -1.02546,0 -0.48385,-0.4836 0.48384,-1.56829 0,-2.05214 -0.48385,-0.4836 -1.43951,0.30596 -2.05094,0 -1.10249,-0.55149 -2.05334,-1.36801 -3.07832,-2.05213 z"
       id="path864" />
    <text
       xml:space="preserve"
       style="font-size:962.88px;line-height:1.25;font-family:'Chess Leipzig';-inkscape-font-specification:'Chess Leipzig';fill:#ffffff;fill-opacity:1;stroke-width:6.36904"
       x="22.492285"
       y="909.81787"
       id="text82762"><tspan
         sodipodi:role="line"
         id="tspan82760"
         style="fill:#ffffff;fill-opacity:1;stroke-width:6.36904"
         x="22.492285"
         y="909.81787">p</tspan></text>
  </g>
</svg>
