<?xml version="1.0" encoding="UTF-8" standalone="no"?>
<!-- Created with Inkscape (http://www.inkscape.org/) -->

<svg
   width="512"
   height="512"
   viewBox="0 0 135.46666 135.46666"
   version="1.1"
   id="svg5"
   inkscape:version="1.1.2 (b8e25be833, 2022-02-05)"
   sodipodi:docname="White_King.svg"
   xmlns:inkscape="http://www.inkscape.org/namespaces/inkscape"
   xmlns:sodipodi="http://sodipodi.sourceforge.net/DTD/sodipodi-0.dtd"
   xmlns="http://www.w3.org/2000/svg"
   xmlns:svg="http://www.w3.org/2000/svg">
  <sodipodi:namedview
     id="namedview7"
     pagecolor="#ffffff"
     bordercolor="#cccccc"
     borderopacity="1"
     inkscape:pageshadow="0"
     inkscape:pageopacity="1"
     inkscape:pagecheckerboard="true"
     inkscape:document-units="mm"
     showgrid="false"
     inkscape:zoom="0.54866746"
     inkscape:cx="138.51742"
     inkscape:cy="317.13199"
     inkscape:window-width="1920"
     inkscape:window-height="1057"
     inkscape:window-x="-8"
     inkscape:window-y="-8"
     inkscape:window-maximized="1"
     inkscape:current-layer="layer1"
     showborder="false"
     fit-margin-top="10"
     lock-margins="true"
     fit-margin-left="10"
     fit-margin-right="10"
     fit-margin-bottom="10"
     units="px" />
  <defs
     id="defs2" />
  <g
     inkscape:label="Livello 1"
     inkscape:groupmode="layer"
     id="layer1"
     transform="translate(9.9999995,9.9999863)">
    <path
       style="fill:#ffffff;fill-opacity:1;stroke:#ffffff;stroke-width:1.02199px;stroke-linecap:butt;stroke-linejoin:miter;stroke-opacity:1"
       d="m 13.189613,112.48317 c -1.188419,-0.81165 -0.396688,-0.95725 -0.698505,-1.86269 -0.311447,-0.93439 -0.154198,0.003 -0.465672,-0.93134 -0.130133,-0.39043 0.06103,-3.19872 -0.232841,-3.49255 -0.481752,-0.48175 0.01892,0.73618 -0.465676,-0.23284 -0.06941,-0.13882 0.06941,-0.32682 0,-0.46567 -0.04906,-0.0982 -0.183747,-0.13466 -0.232841,-0.23284 -0.06941,-0.13883 0.109777,-0.35591 0,-0.46568 -0.05489,-0.0549 -0.177953,0.0549 -0.232842,0 -0.116421,-0.11642 0.116421,-0.58209 0,-0.69851 -0.05489,-0.0549 -0.177953,0.0549 -0.232841,0 -0.164627,-0.16462 0.0737,-0.47761 0,-0.6985 -0.219593,-0.65872 -0.8408371,-1.21601 -1.1641771,-1.86269 -0.1515713,-0.3031 -0.050987,-0.8914 -0.2328417,-1.16419 -0.096258,-0.14439 -0.3615456,-0.094 -0.4656752,-0.23284 C 8.6184559,99.946489 8.6426364,99.663838 8.5328593,99.444324 8.2999789,98.978541 7.8403643,98.837454 7.6015123,98.280136 7.4754736,97.985991 7.5333361,97.623195 7.3686709,97.348793 6.4280648,95.781126 7.3191128,99.013103 6.6701537,96.417446 6.5207071,95.819615 6.5989261,94.847881 6.2044822,94.321921 6.1003446,94.183097 5.8350955,94.233505 5.7388107,94.08908 5.6476517,93.952301 5.5059693,90.611377 5.5059693,89.898023 c 0,-0.679198 -0.2909363,-1.979336 0,-2.561194 0.1613436,-0.322686 0.5690285,-0.569029 0.698505,-0.698505 0.226275,-0.226277 0.068176,-0.65695 0.2328417,-0.931349 0.3857261,-0.642898 0.916263,-0.916262 1.3970184,-1.397015 0.1076142,-0.107654 -0.0703,-0.55793 0,-0.698508 0.4458561,-0.89173 0.9360595,-3.486268 0.2328417,-4.423887 C 6.3336613,76.876206 3.9968133,75.430496 2.479106,72.900983 2.2794447,72.568214 1.9247169,72.329941 1.7805931,71.969637 1.0395825,70.117102 0.31311561,68.265715 -0.31493088,66.38157 -0.56851511,65.620825 -1.0874874,64.84712 -1.2462778,64.053206 -1.3811621,63.378768 -1.3441966,62.632117 -1.4791193,61.957683 -1.6982484,60.862129 -2.2203034,59.838949 -2.4104665,58.697971 -3.0257508,55.006262 -3.3529418,51.336247 -2.876138,47.521838 c 0.1370472,-1.096481 0.2565971,-4.471425 0.6985016,-5.355236 0.098228,-0.196342 0.3438931,-0.283019 0.4656754,-0.465672 0.1835925,-0.27537 0.1782236,-0.876733 0.4656715,-1.164177 0.054889,-0.05489 0.1779531,0.05489 0.2328415,0 0.43374658,-0.43376 0.73042269,-1.196106 1.16417724,-1.629864 0.32002187,-0.319984 0.81652525,-0.408786 1.16418046,-0.698502 0.9732995,-0.811078 1.5516374,-1.804021 2.5612071,-2.5612 0.4854986,-0.364133 1.766919,-0.671277 2.0955237,-1.164182 0.08606,-0.12917 -0.1097769,-0.35591 0,-0.465677 0.00618,-0.0062 2.6099656,-1.335656 2.7940255,-1.397008 0.1472448,-0.04906 0.355906,0.109739 0.4656752,0 0.1227172,-0.122716 0.088417,-0.369424 0.2328417,-0.465674 0.3498418,-0.233228 1.0269021,-0.04782 1.3970181,-0.232841 0.469955,-0.234969 0.896251,-0.680958 1.397019,-0.931346 0.49429,-0.247134 1.160477,-0.23099 1.629852,-0.465675 0.311602,-0.155821 0.554053,-0.554056 0.698502,-0.698508 0.226275,-0.226274 0.645127,-0.08973 0.931347,-0.232841 0.196339,-0.09823 0.257408,-0.396245 0.465675,-0.465669 0.857698,-0.285914 1.927262,-0.01622 2.794038,-0.232844 1.462905,-0.365714 6.370837,-0.541948 7.916402,-0.232841 0.492916,0.09861 0.908732,0.576427 1.397013,0.698505 0.293177,0.07328 0.885671,-0.139247 1.164208,0 0.7312,0.365604 0.991507,0.252889 1.629851,0.465675 0.103908,0.03476 0.125151,0.211285 0.232918,0.232841 0.30438,0.06091 0.630158,-0.07532 0.931331,0 0.07532,0.01892 -0.06953,0.198114 0,0.232841 0.931327,0.465674 0.116265,-0.232841 0.698523,0 0.322149,0.128897 0.602035,0.355907 0.93133,0.465674 0.337209,0.112401 0.834335,0.06798 1.164167,0.232842 0.353049,0.176482 2.906192,1.509161 3.026863,1.629861 0.05485,0.05489 -0.06953,0.198118 0,0.232844 0.208198,0.104137 0.490249,-0.10414 0.698527,0 0.194291,0.09718 0.436826,0.684091 0.465682,0.698502 0.138671,0.06938 0.318283,-0.04905 0.465682,0 0.583726,0.194604 0.943612,0.943631 1.164172,1.16419 0.100814,0.100854 0.781071,0.365485 0.931325,0.465672 0.33026,0.22021 0.287385,0.520351 0.465685,0.698505 0.04287,0.04291 0.65561,0.189926 0.698523,0.232841 0.0506,0.05049 0.187338,0.442974 0.232921,0.465672 0.138668,0.06941 0.336438,-0.08606 0.465642,0 0.144465,0.09625 0.110086,0.342966 0.232918,0.465664 0.05485,0.05489 0.163394,-0.03476 0.232921,0 0.354978,0.177451 0.503809,0.639291 0.698523,0.931349 0.248759,0.373208 0.763804,0.363513 0.931328,0.69851 0.09966,0.19912 0.133263,0.499377 0.232921,0.698505 0.186179,0.372748 0.799996,0.304456 0.931327,0.698516 0.04906,0.147243 -0.08614,0.336512 0,0.465671 0.105452,0.158449 1.499679,1.26683 1.629851,1.397008 0.09773,0.09761 0.162232,0.5574 0.232918,0.698518 0.187341,0.374369 0.448691,0.132567 0.698526,0.465672 0.208198,0.277651 0.220173,0.685913 0.465646,0.931346 0.298971,0.298855 0.707524,0.474657 0.931364,0.698505 0.05485,0.05489 -0.06953,0.198117 0,0.232844 0.138668,0.06941 0.326782,-0.06941 0.465683,0 0.08035,0.04017 0.385111,0.850659 0.465645,0.931346 0.08073,0.08073 0.891235,0.385418 0.931367,0.465672 0.06953,0.138824 -0.109698,0.355906 0,0.465677 0.109699,0.109775 0.336439,-0.08606 0.465683,0 0.177681,0.118427 0.441232,1.151979 0.465645,1.164182 0.138668,0.06941 0.326781,-0.06941 0.465685,0 0.191585,0.09587 0.396462,1.189399 0.46568,1.397012 0.293563,0.880234 1.212299,1.726152 1.629853,2.561206 0.06953,0.138824 -0.109698,0.355906 0,0.465671 0.284679,0.284525 0.970534,0.504859 1.164169,0.698505 0.109702,0.109779 -0.109701,0.35591 0,0.465672 0.249915,0.250068 2.717117,-0.621588 2.794023,-0.698513 0.12283,-0.122716 0.110082,-0.342966 0.232918,-0.465664 0.122833,-0.122716 0.343006,-0.110125 0.465682,-0.232841 0.245279,-0.245433 0.220173,-0.685913 0.465683,-0.931346 0.122832,-0.122719 0.361545,-0.09402 0.465645,-0.232841 0.67311,-0.897437 1.738626,-3.94292 2.328377,-5.122403 0.188111,-0.376613 0.697867,-0.348297 0.931365,-0.698505 0.780608,-1.170945 1.373525,-1.606377 2.32834,-2.561197 0.522425,-0.522414 0.886637,-1.352327 1.39701,-1.862692 0.476152,-0.476147 0.66403,-0.580692 1.164209,-1.16418 0.751326,-0.876564 1.790847,-1.325183 2.561178,-2.095533 0.283522,-0.283599 0.108929,-0.520197 0.465685,-0.698503 0.219398,-0.109778 0.494305,-0.09668 0.698484,-0.232841 0.07919,-0.05265 0.640588,-0.834421 0.931368,-0.931346 0.147169,-0.04906 0.315192,0.03747 0.465682,0 0.720735,-0.180194 0.268457,-0.300903 0.931327,-0.698516 0.805135,-0.483068 2.587061,-1.560863 3.492547,-1.862692 0.303606,-0.101163 0.645104,-0.08973 0.93133,-0.232841 0.575961,-0.287962 1.165635,-1.024768 1.862692,-1.164177 0.228285,-0.0457 0.490249,0.104137 0.698526,0 0.155276,-0.07768 0.07764,-0.388064 0.232918,-0.465677 0.208198,-0.104137 0.470204,0.0457 0.698484,0 2.106083,-0.421214 -0.632433,-0.02201 0.698526,-0.465672 0.406818,-0.135617 0.757351,-0.09718 1.164169,-0.232841 0.104291,-0.03476 0.155279,-0.155202 0.232921,-0.232841 0.155278,-0.07756 0.297426,-0.190738 0.465682,-0.232841 0.301286,-0.07532 0.636799,0.09823 0.931328,0 0.75071,-0.250224 1.692157,-0.291862 2.561218,-0.465675 0.369271,-0.0739 0.799031,0.09127 1.164169,0 0.666773,-0.166674 1.274526,-0.502446 1.862695,-0.698505 0.351888,-0.117271 0.803433,0.09015 1.164169,0 1.91704,-0.479266 4.065765,-0.232843 6.053768,-0.232843 0.97694,0 2.89047,-0.184597 3.72534,0.232843 0.19623,0.09823 0.26923,0.367493 0.46569,0.465675 0.28622,0.14311 0.63425,0.113988 0.93136,0.232841 0.3573,0.142997 1.3531,0.654624 1.62986,0.931346 0.12283,0.122719 0.0842,0.376378 0.23292,0.465672 0.27424,0.164666 0.65696,0.06818 0.93136,0.232841 0.44517,0.890378 -0.0684,0.209976 0.69849,0.465677 0.26768,0.08911 0.32292,0.555871 0.46568,0.698505 2.10283,2.10282 0.0471,0.02358 0.93137,0.465672 0.15527,0.07756 0.0776,0.388061 0.23292,0.465672 0.13866,0.06941 0.31828,-0.04906 0.46564,0 0.36927,0.123102 0.47982,0.712649 0.69853,0.931348 0.38997,0.389986 1.13021,0.897382 1.39701,1.164175 0.22635,0.226274 0.0552,0.665085 0.23291,0.931346 0.60567,0.908478 0.85539,0.817406 1.39702,1.629854 0.0861,0.129166 -0.0695,0.326818 0,0.465671 0.48449,0.969007 -0.0155,-0.248912 0.46568,0.232842 0.20974,0.209819 0.32678,0.886549 0.46568,1.164176 0.12515,0.250301 0.26768,0.500637 0.46565,0.698518 0.0549,0.05489 0.19815,-0.06941 0.23291,0 0.1043,0.208235 -0.16454,0.533858 0,0.698503 0.0549,0.05488 0.17807,-0.05489 0.23292,0 0.1464,0.146275 1.51934,4.447559 1.62986,4.889561 0.0753,0.301175 -0.13867,0.653669 0,0.931346 0.0981,0.196342 0.36734,0.269306 0.46568,0.465675 0.23755,0.475543 -0.10545,1.336219 0,1.862682 0.28159,1.407791 0.55676,7.086343 0.23292,8.382102 -0.0533,0.212987 -0.41246,0.252695 -0.46569,0.465677 -0.0564,0.225885 0.0564,0.47262 0,0.69851 -0.027,0.113678 -1.15914,2.788982 -1.1642,2.794033 -0.0549,0.05489 -0.19816,-0.06942 -0.23292,0 -0.0695,0.138822 0.0695,0.326819 0,0.465669 -0.0981,0.19634 -0.36734,0.269343 -0.46568,0.465677 -0.27619,0.552202 -0.31288,1.870191 -0.46569,2.328365 -0.0715,0.214571 -0.32639,1.025114 -0.46564,1.164176 -0.0549,0.05489 -0.19816,-0.06937 -0.23292,0 -0.21554,0.430935 -0.0757,1.158608 -0.23292,1.629859 -0.33914,1.017053 -0.16725,-0.1642 -0.69852,1.16418 -0.12554,0.313571 -0.0726,0.844094 -0.23292,1.164174 -0.33915,0.678426 -0.82495,1.417113 -1.16417,2.095539 -0.0695,0.138821 0.1097,0.355904 0,0.465661 -0.48175,0.48175 0.0193,-0.736166 -0.46569,0.232841 -0.0695,0.138824 0.0491,0.318399 0,0.465672 -0.18,0.540168 -0.65456,0.887433 -0.93132,1.164177 -0.0977,0.09761 -0.16223,0.5574 -0.23292,0.698518 -0.0981,0.196339 -0.34378,0.283017 -0.46568,0.465672 -0.44027,0.66042 -0.60923,1.540559 -1.16418,2.095522 -0.0548,0.05489 -0.17806,-0.05489 -0.23291,0 -0.21786,0.217776 -0.3179,1.101847 -0.46569,1.397021 -0.48449,0.969007 0.0155,-0.248912 -0.46564,0.232841 -0.28893,0.289004 -0.0603,0.758769 -0.23292,0.931341 -0.0549,0.05489 -0.17807,-0.05489 -0.23292,0 -0.1097,0.109778 0.1097,0.355907 0,0.465677 -0.0549,0.05489 -0.19815,-0.06941 -0.23292,0 0,1.319405 0.15528,0.07756 -0.23292,0.465672 -0.33334,0.333309 0.39303,4.671632 0.46569,4.889561 0.16841,0.505677 0.4444,1.1216 0.69848,1.629851 0.32756,0.655225 -0.10777,1.647277 0.23292,2.328365 0.14756,0.295108 0,1.059825 0,1.39702 0,0.336053 0.22442,2.103876 0,2.328354 -0.0548,0.05489 -0.19815,-0.06941 -0.23292,0 -0.0668,0.133453 -0.433,1.364365 -0.46564,1.39702 -0.0548,0.05489 -0.19816,-0.06941 -0.23292,0 -0.0695,0.138824 0.1097,0.355907 0,0.465672 -0.1097,0.109778 -0.32678,-0.06941 -0.46569,0 -0.0896,0.04485 -0.37467,0.749308 -0.46567,0.931349 -0.0777,0.155239 -0.38805,0.07756 -0.46565,0.232841 -0.2306,0.461063 -0.16339,1.025278 -0.46569,1.629859 -0.53281,1.065598 0.0966,-0.988025 -0.46568,0.698508 -0.0877,0.263818 0.12322,0.684614 0,0.931342 -0.70304,1.40613 -0.9156,3.22824 -1.62985,4.65672 -0.49593,0.99189 0.35382,2.6637 0,3.72539 -0.12245,0.36772 -0.54575,2.64131 -0.69849,2.79404 -0.0548,0.0549 -0.17806,-0.0549 -0.23292,0 -0.31519,0.31538 -0.0116,0.26316 -0.23291,0.93133 -0.0549,0.16463 -0.38805,0.0777 -0.46569,0.23284 -0.0695,0.13883 0.0861,0.33652 0,0.46568 -0.0962,0.14438 -0.343,0.11012 -0.46564,0.23284 -0.20009,0.20004 -1.56469,1.84096 -1.62989,1.86269 -0.14717,0.0491 -0.336441,-0.0861 -0.465647,0 -0.656693,0.4378 0.186179,0.40365 -1.39701,0.93134 -0.769636,0.25652 -1.261509,0.65334 -2.095536,0.93135 -0.782267,0.26077 -2.608344,-0.0928 -3.259705,0.23284 -0.429721,0.21488 -0.705554,0.0799 -1.164209,0.23284 -0.103902,0.0348 -0.126307,0.20623 -0.232915,0.23285 -0.705673,0.1764 -4.244029,0.49215 -4.656755,0.69851 -0.986795,0.4934 -2.286237,0.44461 -3.259705,0.93134 -0.296653,0.14837 -0.840943,-0.0808 -1.164171,0 -0.336823,0.0842 -0.602072,0.35591 -0.931325,0.46567 -0.270002,0.0899 -0.660479,-0.0678 -0.931367,0 -1.229061,0.30727 -2.497833,0.39163 -3.725388,0.69851 -1.859681,0.46493 -4.334106,-0.27892 -6.286566,0 -3.086699,0.44095 -6.171075,0.68175 -9.313435,0.23284 -2.074097,-0.2963 -6.769748,0.57337 -8.3821,-0.23284 -0.662796,-0.33138 -2.271055,0 -3.026903,0 -2.250738,0 -4.501473,0 -6.752251,0 -1.056788,0 -2.224896,0.14783 -3.259705,0 -0.805595,-0.11511 -1.57218,-0.27664 -2.328338,-0.46567 -0.410061,-0.10251 -1.027043,0.18499 -1.397049,0 -0.346094,-0.17308 -0.74113,-0.38105 -1.164169,-0.46568 -1.416478,-0.28328 -3.224595,-0.10765 -4.656715,-0.46567 -0.661522,-0.1654 -0.995913,-0.54002 -1.629854,-0.6985 -0.301289,-0.0753 -0.626911,0.0609 -0.931367,0 -1.046088,-0.2092 -2.030642,-0.6823 -3.026861,-0.93135 -0.788797,-0.19719 -5.973863,-0.8781 -6.053713,-0.93135 -0.385223,-0.25683 -1.237157,-1.0071 -1.629859,-1.16417 -0.216194,-0.0864 -0.482324,0.0864 -0.698506,0 -0.54688,-0.21875 -1.362926,-1.06385 -1.862693,-1.39702 -0.279812,-0.18657 -0.910752,-0.0433 -1.164178,-0.46567 -0.164626,-0.27441 -0.155201,-0.6209 -0.232841,-0.93135 z"
       id="path856" />
    <path
       style="fill:#ffffff;fill-opacity:1;stroke:#ffffff;stroke-width:1.02199px;stroke-linecap:butt;stroke-linejoin:miter;stroke-opacity:1"
       d="m 47.439416,28.187813 c -0.08382,-2.83425 0.06354,-6.032632 1.629852,-8.382102 0.213066,-0.31958 0.294102,-0.894589 0.69851,-1.164183 0.851638,-0.567759 1.58788,-0.839743 2.5612,-1.164181 0.220906,-0.07363 0.477618,0.07363 0.698505,0 0.292909,-0.09764 0.587806,-0.351159 0.931346,-0.465673 0.60815,-0.202717 1.528764,0.283382 2.095528,0 0.876623,-0.438312 2.025239,-0.265346 3.026869,-0.465672 1.960406,-0.392081 0.0073,-0.0036 0.931344,-0.465672 0.383794,-0.191894 2.317376,-0.121914 2.5612,0 0.06941,0.03473 -0.05489,0.177957 0,0.232834 0.116422,0.116417 0.582088,-0.116417 0.698507,0 0.05489,0.05488 -0.06941,0.198128 0,0.232837 0.138825,0.06942 0.326822,-0.06941 0.465672,0 0.0282,0.0141 0.195144,0.66081 0.232841,0.698509 0.505926,0.505924 0.41737,0.136234 0.931344,1.164181 0.178302,0.356607 0.414919,0.182083 0.69851,0.465673 0.289004,0.288997 0.06026,0.758767 0.232841,0.931344 0.102746,0.102743 0.597284,0.39483 0.698511,0.698511 0.208658,0.62599 0.184401,1.300161 0.465674,1.862689 0.123375,0.246729 -0.08795,0.667525 0,0.931346 0.426003,1.278006 0.698508,2.130229 0.698508,3.492541 0,0.921787 0.235701,4.653844 -0.232842,5.1224 -0.05489,0.05488 -0.177953,-0.05489 -0.232841,0 -0.211288,0.211286 -0.144113,0.716986 -0.465671,0.931341 -0.144384,0.09626 -0.342964,0.110125 -0.46567,0.232841 -0.0776,0.0776 -0.155241,0.6209 -0.232841,0.69851 -0.131564,0.131565 -0.757898,0.292211 -0.931343,0.465672 -0.122719,0.122717 -0.110125,0.342966 -0.232844,0.465672 -0.179149,0.179149 -0.692322,0.173085 -0.931344,0.232841 -0.452024,0.113022 -0.746862,0.531582 -1.164182,0.69851 -0.172159,0.06887 -1.0278,0.09645 -1.164176,0.232842 -0.05489,0.05489 0.06941,0.198117 0,0.232841 -0.277688,0.138824 -0.62693,-0.06088 -0.931349,0 -0.48133,0.09626 -0.915686,0.369387 -1.397018,0.465672 -0.982231,0.196455 -4.336358,0.487552 -5.355231,0.232841 -1.241795,-0.310444 0.232842,-0.0776 -0.69851,-0.698511 -0.129169,-0.0861 -0.315079,0.03747 -0.465672,0 -0.536199,-0.134035 -1.748863,-0.817514 -2.095528,-1.164179 -0.465672,-0.465672 -0.69851,-1.164179 -1.164182,-1.629854 -0.05489,-0.05489 -0.177951,0.05489 -0.232841,0 -0.169262,-0.169262 -0.296421,-0.994936 -0.465675,-1.164182 -0.05489,-0.05489 -0.177953,0.05489 -0.232841,0 -0.04898,-0.04898 -0.160493,-1.340558 -0.232841,-1.629854 -0.05327,-0.212963 -0.367495,-0.269329 -0.465672,-0.465674 -0.32962,-0.65931 -0.465648,-1.160031 -0.465648,-1.862711 z"
       id="path1781" />
    <text
       xml:space="preserve"
       style="font-size:154.507px;line-height:1.25;font-family:'Chess Condal';-inkscape-font-specification:'Chess Condal';fill:#000000;fill-opacity:1;stroke:#000000;stroke-width:1.02199;stroke-opacity:1"
       x="-19.565874"
       y="138.68346"
       id="text19176"><tspan
         sodipodi:role="line"
         id="tspan19174"
         style="fill:#000000;fill-opacity:1;stroke:#000000;stroke-width:1.02199;stroke-opacity:1"
         x="-19.565874"
         y="138.68346">k</tspan></text>
  </g>
</svg>
