<?xml version="1.0" encoding="UTF-8" standalone="no"?>
<!-- Created with Inkscape (http://www.inkscape.org/) -->

<svg
   width="210mm"
   height="297mm"
   viewBox="0 0 210 297"
   version="1.1"
   id="svg5"
   inkscape:version="1.1.2 (b8e25be833, 2022-02-05)"
   sodipodi:docname="White_Bishop.svg"
   xmlns:inkscape="http://www.inkscape.org/namespaces/inkscape"
   xmlns:sodipodi="http://sodipodi.sourceforge.net/DTD/sodipodi-0.dtd"
   xmlns:xlink="http://www.w3.org/1999/xlink"
   xmlns="http://www.w3.org/2000/svg"
   xmlns:svg="http://www.w3.org/2000/svg">
  <sodipodi:namedview
     id="namedview7"
     pagecolor="#ffffff"
     bordercolor="#cccccc"
     borderopacity="1"
     inkscape:pageshadow="0"
     inkscape:pageopacity="0"
     inkscape:pagecheckerboard="true"
     inkscape:document-units="mm"
     showgrid="false"
     inkscape:zoom="1.4142136"
     inkscape:cx="195.16147"
     inkscape:cy="237.58788"
     inkscape:window-width="1920"
     inkscape:window-height="1057"
     inkscape:window-x="-8"
     inkscape:window-y="-8"
     inkscape:window-maximized="1"
     inkscape:current-layer="layer1"
     showborder="false" />
  <defs
     id="defs2">
    <linearGradient
       inkscape:collect="always"
       id="linearGradient7081">
      <stop
         style="stop-color:#000003;stop-opacity:1;"
         offset="0"
         id="stop7077" />
      <stop
         style="stop-color:#000003;stop-opacity:0;"
         offset="1"
         id="stop7079" />
    </linearGradient>
    <linearGradient
       inkscape:collect="always"
       id="linearGradient2415">
      <stop
         style="stop-color:#ffffff;stop-opacity:1;"
         offset="0"
         id="stop2411" />
      <stop
         style="stop-color:#ffffff;stop-opacity:0;"
         offset="1"
         id="stop2413" />
    </linearGradient>
    <linearGradient
       inkscape:collect="always"
       xlink:href="#linearGradient2415"
       id="linearGradient2417"
       x1="252.76004"
       y1="56.705269"
       x2="289.05634"
       y2="56.705269"
       gradientUnits="userSpaceOnUse" />
    <linearGradient
       inkscape:collect="always"
       xlink:href="#linearGradient7081"
       id="linearGradient7083"
       x1="201.4638"
       y1="63.513066"
       x2="303.51084"
       y2="63.513066"
       gradientUnits="userSpaceOnUse" />
  </defs>
  <g
     inkscape:label="Livello 1"
     inkscape:groupmode="layer"
     id="layer1">
    <text
       xml:space="preserve"
       style="font-size:40px;line-height:1.25;font-family:'Chess Condal';-inkscape-font-specification:'Chess Condal';stroke:none;stroke-width:0.264583;stroke-opacity:1;fill:#ffffff;fill-opacity:1"
       x="87.548508"
       y="91.29937"
       id="text29524"><tspan
         sodipodi:role="line"
         id="tspan29522"
         style="stroke:none;stroke-width:0.264583;stroke-opacity:1;fill:#ffffff;fill-opacity:1"
         x="87.548508"
         y="91.29937" /></text>
    <text
       xml:space="preserve"
       style="font-size:40px;line-height:1.25;font-family:'Chess Leipzig';-inkscape-font-specification:'Chess Leipzig';stroke-width:0.264583"
       x="254.01411"
       y="94.275764"
       id="text58610"><tspan
         sodipodi:role="line"
         id="tspan58608"
         style="stroke-width:0.264583"
         x="254.01411"
         y="94.275764" /></text>
    <text
       xml:space="preserve"
       style="font-size:112.123px;line-height:1.25;font-family:'Chess Leipzig';-inkscape-font-specification:'Chess Leipzig';fill:#ffffff;fill-opacity:1;stroke:#fffffe;stroke-width:0.742812;stroke-miterlimit:4;stroke-dasharray:none;stroke-opacity:1"
       x="-5.0535274"
       y="104.71275"
       id="text76144-6"
       transform="scale(0.97979342,1.0206233)"><tspan
         sodipodi:role="line"
         id="tspan76142-3"
         style="fill:#ffffff;fill-opacity:1;stroke:#fffffe;stroke-width:0.742812;stroke-miterlimit:4;stroke-dasharray:none;stroke-opacity:1"
         x="-5.0535274"
         y="104.71275">b</tspan></text>
    <path
       style="fill:#ffffff;fill-opacity:1;stroke:#ffffff;stroke-width:3.78756;stroke-linecap:round;stroke-linejoin:round;stroke-miterlimit:4;stroke-dasharray:none;stroke-opacity:1"
       d="m 38.059808,58.083963 c -2.37335,-5.391104 -3.53233,-8.531707 -4.48063,-12.141729 -1.2513,-4.763415 -1.50904,-8.830317 -0.77763,-12.270154 0.64275,-3.022955 2.39732,-6.645511 4.65551,-9.611989 2.83343,-3.722151 7.16516,-7.710032 12.08367,-11.12446 l 0.75647,-0.525149 0.82901,0.573333 c 3.38703,2.342423 7.14397,5.529835 9.43457,8.004343 4.79188,5.176615 7.26745,10.13545 7.66294,15.349712 0.33299,4.390566 -1.12757,10.434408 -4.36061,18.044305 -0.57981,1.364745 -1.85196,4.192479 -1.91405,4.254578 -0.0127,0.01272 -0.41989,-0.09594 -0.90485,-0.24145 -1.84294,-0.55295 -4.23159,-0.990223 -6.75738,-1.237029 -1.81605,-0.177454 -6.91814,-0.149649 -8.72019,0.04752 -2.48465,0.271854 -5.35713,0.835592 -6.70343,1.31557 -0.22445,0.08002 -0.4393,0.145494 -0.47745,0.145494 -0.0382,0 -0.18482,-0.262303 -0.32595,-0.5829 z M 54.240198,44.53735 v -6.668385 h 3.40413 3.40415 V 33.625447 29.38193 h -3.40415 -3.40413 v -4.75647 -4.756471 h -4.10362 -4.10362 v 4.756471 4.75647 h -3.45078 -3.45077 v 4.243517 4.243518 h 3.45077 3.45078 v 6.668385 6.668384 h 4.10362 4.10362 z"
       id="path8461" />
    <path
       style="fill:#ffffff;fill-opacity:1;stroke:#ffffff;stroke-width:1.33909;stroke-linecap:round;stroke-linejoin:round;stroke-miterlimit:4;stroke-dasharray:none;stroke-opacity:1"
       d="m 49.110958,41.309881 v -6.677204 h -3.42928 -3.42927 v -1.038676 -1.038676 h 3.42927 3.42928 v -4.781208 -4.781208 h 0.98922 0.98921 v 4.781208 4.781208 h 3.44577 3.44578 v 1.038676 1.038676 h -3.44578 -3.44577 v 6.677204 6.677204 h -0.98921 -0.98922 z"
       id="path8539" />
    <path
       style="fill:#ffffff;fill-opacity:1;stroke:#ffffff;stroke-width:0.473444;stroke-linecap:round;stroke-linejoin:round;stroke-miterlimit:4;stroke-dasharray:none;stroke-opacity:1"
       d="m 49.425438,7.4106696 c -0.47024,-0.02033 -0.82916,-0.137246 -1.10668,-0.360499 -0.27825,-0.223837 -0.45081,-0.586039 -0.52167,-1.095022 -0.024,-0.172448 -0.0205,-0.75005 0.006,-0.924683 0.0924,-0.616809 0.34036,-1.009017 0.77156,-1.220689 0.28225,-0.138544 0.59256,-0.199207 1.02041,-0.199483 0.34677,-2.23e-4 0.5826,0.03208 0.82572,0.113095 0.68794,0.22926 1.00627,0.79512 1.00627,1.788755 0,0.87815 -0.24925,1.42075 -0.77748,1.692498 -0.31382,0.161442 -0.71052,0.228221 -1.22388,0.206028 z"
       id="path8578" />
    <path
       style="fill:#ffffff;fill-opacity:1;stroke:#ffffff;stroke-width:0.473444;stroke-linecap:round;stroke-linejoin:round;stroke-miterlimit:4;stroke-dasharray:none;stroke-opacity:1"
       d="m 62.121018,7.7374906 c -0.52889,-0.05683 -0.94197,-0.250956 -1.1817,-0.555315 -0.20002,-0.253934 -0.30618,-0.527231 -0.37024,-0.953065 -0.0274,-0.182027 -0.034,-0.652111 -0.012,-0.85807 0.0988,-0.927677 0.52359,-1.408945 1.3716,-1.554053 0.37399,-0.06401 0.89277,-0.05213 1.23439,0.02824 0.78041,0.183603 1.16139,0.676735 1.23831,1.602796 0.0164,0.197151 0.007,0.5848 -0.0188,0.775258 -0.12154,0.898532 -0.5615,1.358408 -1.43384,1.498743 -0.14034,0.02258 -0.66952,0.03247 -0.82771,0.01546 z"
       id="path8617" />
    <path
       style="fill:#ffffff;fill-opacity:1;stroke:#ffffff;stroke-width:1.33909;stroke-linecap:round;stroke-linejoin:round;stroke-miterlimit:4;stroke-dasharray:none;stroke-opacity:1"
       d="m 69.854148,31.128064 c -0.5225,-1.606488 -1.61112,-4.458732 -2.19883,-5.761038 -1.89411,-4.19714 -4.49809,-7.561071 -7.71998,-9.972977 -0.40872,-0.305957 -0.43973,-0.337071 -0.49216,-0.49381 -0.0778,-0.232725 -0.0723,-0.52587 0.0135,-0.718509 0.13941,-0.312706 0.59227,-0.701897 1.03955,-0.893398 0.1994,-0.08537 0.28081,-0.101963 0.5018,-0.102264 0.2405,-2.63e-4 0.28877,0.01148 0.54664,0.133723 0.31595,0.149776 0.37027,0.204747 1.07064,1.083432 2.36823,2.971185 4.29441,6.660601 5.66375,10.848395 0.53988,1.651145 1.31244,4.428566 1.67204,6.011263 0.0653,0.287562 0.0198,0.224316 -0.0969,-0.134817 z"
       id="path8693" />
    <path
       style="fill:#ffffff;fill-opacity:1;stroke:#ffffff;stroke-width:1.33909;stroke-linecap:round;stroke-linejoin:round;stroke-miterlimit:4;stroke-dasharray:none;stroke-opacity:1"
       d="m 71.005588,37.84223 c -0.0634,-0.0062 -0.17718,-0.01941 -0.25271,-0.02929 l -0.13733,-0.01796 -0.0206,-0.286924 c -0.0884,-1.23739 -0.40151,-2.771157 -0.92745,-4.544408 -0.22916,-0.772611 -0.37676,-1.291684 -0.37633,-1.323689 1.6e-4,-0.01341 0.0441,0.05187 0.0975,0.145072 0.23649,0.412355 0.81263,0.459499 1.11609,0.09133 0.20049,-0.243208 0.19075,-0.486214 -0.0598,-1.497303 -0.51755,-2.087951 -1.30053,-4.781451 -1.79933,-6.189821 -1.12083,-3.164685 -2.50073,-5.950624 -4.16112,-8.401105 -0.72619,-1.071738 -1.76423,-2.406675 -2.13708,-2.748323 -0.22316,-0.204485 -0.59822,-0.410575 -0.88779,-0.487813 -0.21732,-0.05797 -0.71235,-0.05606 -0.93975,0.0036 -0.28196,0.07402 -0.7587,0.330543 -1.02634,0.552259 -0.59575,0.493514 -0.82332,0.952716 -0.77757,1.568975 0.0391,0.525689 0.18209,0.787026 0.61259,1.119005 0.64157,0.49474 1.06331,0.83472 1.43836,1.159505 0.5056,0.437841 1.68525,1.621636 2.10627,2.113664 0.49452,0.577925 0.82335,0.989033 0.80542,1.00696 -0.009,0.0089 -0.14062,-0.13615 -0.29276,-0.322294 -1.26108,-1.542939 -2.6898,-2.899422 -4.17837,-3.967084 -0.21293,-0.152728 -0.28796,-0.228324 -0.33788,-0.340427 -0.43743,-0.982473 -0.2094,-1.792566 0.6968,-2.475414 0.44756,-0.337244 1.0208,-0.562458 1.4316,-0.562458 0.26743,0 0.65316,0.115446 1.00052,0.299436 0.29295,0.15518 0.34113,0.195475 0.60191,0.503421 2.90034,3.424902 5.15943,7.752297 6.69015,12.815342 1.08329,3.583146 1.75188,6.458388 2.01272,8.655634 0.11995,1.010568 0.12489,2.51151 0.01,3.08537 -0.0206,0.102422 -0.0219,0.102784 -0.30784,0.07473 z"
       id="path8732" />
    <path
       style="fill:#ffffff;fill-opacity:1;stroke:#ffffff;stroke-width:0.669551;stroke-linecap:round;stroke-linejoin:round;stroke-miterlimit:4;stroke-dasharray:none;stroke-opacity:1"
       d="m 68.986408,30.745884 c -0.11259,-0.32828 -0.30549,-0.840169 -0.44887,-1.191179 -0.0629,-0.154155 -0.22464,-0.569625 -0.35926,-0.923267 -0.70154,-1.842799 -1.06793,-2.716626 -1.5865,-3.783749 -0.66683,-1.372193 -1.49969,-2.777754 -2.32511,-3.923889 -0.16854,-0.234034 -0.20303,-0.291195 -0.18258,-0.302678 0.0331,-0.01851 0.0359,-0.01526 0.24447,0.277948 1.10675,1.555498 2.12652,3.380869 2.9014,5.193381 0.47203,1.104162 1.18946,2.969896 1.67428,4.354104 0.16458,0.46989 0.19046,0.550755 0.17631,0.550755 -0.005,0 -0.0467,-0.113142 -0.0941,-0.251426 z"
       id="path8958" />
    <path
       style="fill:#ffffff;fill-opacity:1;stroke:#ffffff;stroke-width:1.33909;stroke-linecap:round;stroke-linejoin:round;stroke-miterlimit:4;stroke-dasharray:none;stroke-opacity:1"
       d="m 60.124228,64.239308 c -4.36756,-1.103332 -11.78728,-1.334647 -17.24532,-0.537635 -0.75917,0.110857 -1.70371,0.28395 -2.35764,0.432053 -0.29016,0.06571 -0.56663,0.126078 -0.61436,0.134134 l -0.0868,0.01464 0.40004,-1.335311 0.40004,-1.335315 0.47811,-0.103728 c 1.91557,-0.415586 4.19175,-0.687961 6.6462,-0.795302 1.18879,-0.05199 4.47413,-0.02306 5.48818,0.04832 2.23924,0.157627 4.0657,0.402919 5.83637,0.783811 0.42618,0.09168 0.77945,0.170813 0.78504,0.175854 0.009,0.0077 0.30239,1.06486 0.64391,2.31627 0.0562,0.206369 0.0706,0.303874 0.0443,0.301503 -0.0214,-0.0019 -0.20955,-0.04661 -0.4181,-0.0993 z"
       id="path9071" />
    <path
       style="fill:#ffffff;fill-opacity:1;stroke:#ffffff;stroke-width:1.33909;stroke-linecap:round;stroke-linejoin:round;stroke-miterlimit:4;stroke-dasharray:none;stroke-opacity:1"
       d="m 47.999188,68.716375 c -1.12832,-0.491937 -2.04088,-0.903388 -2.02788,-0.914333 0.0772,-0.06502 4.11041,-1.781957 4.15585,-1.769147 0.09,0.02537 4.07584,1.744182 4.10389,1.769714 0.0222,0.02015 -4.11947,1.822577 -4.16385,1.812093 -0.009,-0.0021 -0.93966,-0.406392 -2.06801,-0.898327 z"
       id="path9110" />
    <path
       style="fill:#ffffff;fill-opacity:1;stroke:#ffffff;stroke-width:1.33909;stroke-linecap:round;stroke-linejoin:round;stroke-miterlimit:4;stroke-dasharray:none;stroke-opacity:1"
       d="m 60.003268,69.45926 c -1.03677,-0.701578 -1.87991,-1.280748 -1.87359,-1.287048 0.026,-0.02595 3.4954,-0.78646 3.50169,-0.767581 0.0447,0.134222 0.93292,3.150116 0.93292,3.167658 0,0.01994 -0.60807,0.171946 -0.65948,0.164847 -0.009,-0.0013 -0.86476,-0.576296 -1.90154,-1.277876 z"
       id="path9149" />
    <path
       style="fill:#ffffff;fill-opacity:1;stroke:#ffffff;stroke-width:1.33909;stroke-linecap:round;stroke-linejoin:round;stroke-miterlimit:4;stroke-dasharray:none;stroke-opacity:1"
       d="m 38.081218,70.691321 c -0.0907,-0.02259 -0.16294,-0.05446 -0.16056,-0.07086 0.0166,-0.114585 0.88229,-3.168667 0.90501,-3.192778 0.0272,-0.02876 3.21772,0.689723 3.26703,0.735697 0.0258,0.02407 -3.72495,2.556973 -3.7969,2.564072 -0.0274,0.0027 -0.12391,-0.01357 -0.21458,-0.03613 z"
       id="path9188" />
    <path
       style="fill:#ffffff;fill-opacity:1;stroke:#ffffff;stroke-width:1.33909;stroke-linecap:round;stroke-linejoin:round;stroke-miterlimit:4;stroke-dasharray:none;stroke-opacity:1"
       d="m 48.649328,79.358481 c -1.07906,-0.0428 -1.95772,-0.08804 -2.53899,-0.130738 -5.62,-0.412795 -9.84715,-1.740615 -10.01353,-3.145422 -0.0361,-0.304172 0.23843,-0.713114 0.69842,-1.040663 1.15941,-0.825593 4.00986,-1.636252 7.18003,-2.041988 2.08112,-0.266355 3.73915,-0.360594 6.35574,-0.361252 2.2195,-5.26e-4 3.53625,0.05682 5.25932,0.229222 3.07768,0.307917 5.98515,0.977198 7.59668,1.748704 0.74401,0.356186 1.20234,0.708937 1.3918,1.071189 0.102,0.195017 0.10473,0.487508 0.006,0.675269 -0.28706,0.547592 -1.20227,1.093484 -2.61434,1.559362 -2.27477,0.750498 -5.0199,1.188411 -8.72158,1.391304 -0.61179,0.03354 -4.04283,0.0671 -4.59985,0.04502 z"
       id="path9227" />
    <path
       style="fill:#ffffff;fill-opacity:1;stroke:#ffffff;stroke-width:1.33909;stroke-linecap:round;stroke-linejoin:round;stroke-miterlimit:4;stroke-dasharray:none;stroke-opacity:1"
       d="m 36.580898,95.347727 c -1.8672,-0.1417 -3.80996,-0.41633 -4.88014,-0.68987 -1.31925,-0.33719 -3.9758,-1.31193 -4.39688,-1.61329 -0.72442,-0.51847 -2.02051,-1.33775 -2.78041,-1.75756 -0.41548,-0.22953 -1.27983,-0.65958 -1.66793,-0.82986 l -0.3215,-0.14106 v -1.70993 c 0,-0.94047 0.0124,-1.70993 0.0275,-1.70993 0.042,0 0.79696,0.30107 1.242,0.49521 1.79562,0.78333 3.96027,2.10507 5.76798,3.52193 0.44434,0.34827 0.72638,0.51783 1.48627,0.89354 0.95253,0.47098 1.78183,0.773 2.49287,0.90787 1.12525,0.21346 3.20977,0.22619 5.28895,0.0323 1.7598,-0.16411 3.09035,-0.49352 3.89753,-0.96495 0.94769,-0.55346 2.81151,-2.31478 3.42011,-3.23197 0.54894,-0.82729 1.0837,-2.08521 1.55115,-3.648842 0.25122,-0.840286 0.35676,-1.051724 0.69186,-1.386107 0.27414,-0.273561 0.51027,-0.422343 0.86651,-0.545993 0.25451,-0.08834 0.60824,-0.161792 0.77787,-0.161509 0.23555,2.64e-4 0.68453,0.127149 1.01178,0.285643 0.25825,0.125065 0.36027,0.198705 0.58097,0.419283 0.34501,0.344818 0.45777,0.569993 0.76967,1.537068 0.53898,1.671107 1.10067,2.931147 1.64594,3.692307 0.69254,0.96672 2.54268,2.68562 3.33441,3.09786 1.0931,0.56917 2.64813,0.86222 5.34991,1.00818 1.32567,0.0716 2.1017,0.0588 3.17382,-0.0519 1.02479,-0.106 1.99906,-0.42995 3.38761,-1.12634 0.58353,-0.29266 0.84782,-0.44512 1.03867,-0.59921 0.418,-0.33743 1.31196,-1.0025 1.80618,-1.34373 3.47976,-2.40258 6.91303,-3.68954 10.24621,-3.84079 l 0.48638,-0.0221 v 1.62079 1.62078 h -0.19254 c -0.31305,0 -1.17709,0.0916 -1.70113,0.18042 -2.43843,0.41307 -5.14437,1.62207 -7.87991,3.52066 -0.47454,0.32935 -0.58118,0.38727 -1.12111,0.60884 -1.21916,0.50035 -2.56134,0.95706 -3.61381,1.22969 -1.03985,0.26937 -2.95609,0.54905 -4.75973,0.69471 -0.57532,0.0465 -3.04586,0.0231 -3.56616,-0.0339 -2.16297,-0.23631 -3.91671,-0.96463 -5.51916,-2.2921 -0.17447,-0.14451 -1.04428,-0.98344 -1.93293,-1.86428 -1.81028,-1.79436 -2.22701,-2.1792 -2.42366,-2.23811 -0.32137,-0.0963 -0.4331,-0.003 -2.63782,2.20822 -0.89771,0.90026 -1.76575,1.74652 -1.92897,1.88059 -1.7565,1.44276 -3.70407,2.19672 -6.03422,2.33604 -0.50964,0.0305 -2.62616,0.0386 -2.98413,0.0114 z"
       id="path9266" />
    <path
       style="fill:#ffffff;fill-opacity:1;stroke:#ffffff;stroke-width:1.33909;stroke-linecap:round;stroke-linejoin:round;stroke-miterlimit:4;stroke-dasharray:none;stroke-opacity:1"
       d="m 60.882618,95.998327 c -0.99566,-0.0317 -1.7037,-0.12463 -2.55547,-0.33563 -1.48202,-0.3671 -2.9176,-1.08912 -4.12173,-2.07301 -0.27804,-0.22718 -1.12132,-1.0357 -2.3906,-2.29202 -1.02791,-1.01742 -1.74252,-1.69759 -1.78357,-1.69759 -0.0232,0 -0.50333,0.45157 -1.24178,1.16786 l -0.23907,0.23188 v -4.21102 -4.211037 l 0.15663,-0.07914 c 0.40448,-0.204395 1.14636,-0.370596 1.49009,-0.333824 0.44625,0.04773 1.11132,0.289305 1.47232,0.534767 0.26766,0.181995 0.62145,0.541704 0.79475,0.808023 0.19271,0.296176 0.28991,0.532707 0.62028,1.509611 0.15353,0.45395 0.37148,1.05873 0.48437,1.34395 0.24424,0.61722 0.68267,1.50952 0.91094,1.85402 0.50912,0.7684 2.08329,2.30182 2.97801,2.90093 0.29758,0.19926 0.7557,0.39626 1.26512,0.54403 1.15575,0.33524 3.26258,0.55671 5.3252,0.55982 2.11299,0.003 2.95116,-0.17519 4.68229,-0.99636 0.59851,-0.28391 1.00285,-0.51421 1.30247,-0.74189 1.32359,-1.00578 1.92372,-1.43237 2.73683,-1.94543 3.16509,-1.99714 6.24029,-3.07936 9.34246,-3.28776 0.74597,-0.05 0.88468,-0.0452 1.05412,0.0368 0.16087,0.0778 0.31535,0.28491 0.34988,0.4689 l 0.0206,0.10906 0.5993,0.0398 c 1.40905,0.0934 2.95064,0.3953 4.14797,0.81232 0.18403,0.064 0.43202,0.10663 0.96929,0.16626 1.19159,0.13225 2.49298,0.36229 2.49298,0.44067 0,0.0135 -0.14467,0.0808 -0.32151,0.14966 -0.51579,0.20076 -1.2853,0.5858 -1.6239,0.81255 -1.05387,0.70571 -1.22293,1.44518 -0.54196,2.37023 0.0829,0.11268 0.14607,0.2093 0.14026,0.21473 -0.006,0.005 -0.31389,-0.14189 -0.68467,-0.3274 -0.45955,-0.22993 -0.73242,-0.38803 -0.85732,-0.49671 -0.25488,-0.22179 -0.50143,-0.3238 -1.23208,-0.50973 -0.90745,-0.23092 -1.71137,-0.35371 -2.71361,-0.41445 l -0.36621,-0.0222 -0.0381,0.15082 c -0.0426,0.16896 -0.19325,0.35977 -0.34736,0.43984 -0.0714,0.0372 -0.2499,0.0612 -0.59133,0.08 -1.79337,0.0986 -3.48245,0.54891 -5.44623,1.452 -1.04026,0.47839 -2.10553,1.08958 -3.39194,1.94609 -0.91092,0.60652 -0.92308,0.6131 -1.72134,0.93473 -1.19354,0.48089 -2.61183,0.95433 -3.59183,1.19899 -0.91836,0.22929 -2.46969,0.46715 -4.1041,0.62925 -0.79091,0.0784 -2.21074,0.10647 -3.43041,0.0676 z"
       id="path9305" />
    <path
       style="fill:#ffffff;fill-opacity:1;stroke:#ffffff;stroke-width:1.89378;stroke-linecap:round;stroke-linejoin:round;stroke-miterlimit:4;stroke-dasharray:none;stroke-opacity:1"
       d="m 38.315348,98.901317 c -0.14106,-0.008 -0.46632,-0.0461 -0.72279,-0.0839 -0.25649,-0.038 -0.87552,-0.10099 -1.37565,-0.14026 -1.48248,-0.11638 -3.61127,-0.41453 -4.68613,-0.65632 -1.52215,-0.34239 -3.32688,-1.01736 -5.11808,-1.9141 -0.6236,-0.31221 -0.90948,-0.48724 -1.27091,-0.77809 -1.33489,-1.07425 -2.82996,-1.81364 -4.52549,-2.23805 -1.2239,-0.30637 -1.90683,-0.38038 -3.51854,-0.38139 -1.49084,-7.9e-4 -1.82027,0.0263 -2.86787,0.23625 -1.43729,0.28816 -2.54363,0.7326 -3.97874,1.59833 -0.9906202,0.59759 -1.3096402,0.87066 -2.7728802,2.37345 -0.97173,0.99799 -1.68924,1.55265 -2.30789,1.78413 l -0.25409,0.0951 -0.20433,-0.16744 c -0.40676,-0.33329 -0.5842,-0.81648 -0.58618,-1.59619 -0.002,-0.76381 0.1567,-1.33788 0.62542,-2.2634 0.61822,-1.22071 1.49474,-2.36946 3.08208,-4.03933 0.37599,-0.39555 0.67658,-0.72623 0.66796,-0.73486 -0.009,-0.009 -0.39147,0.0491 -0.85076,0.12834 -0.90527,0.1561 -1.6167,0.32898 -2.95684,0.7185 -1.28464,0.3734 -1.53669,0.43009 -2.37761,0.5348 -0.95132,0.11845 -1.28551,0.12398 -1.32465996,0.022 -0.10132,-0.26407 0.0357,-0.80576 0.39053996,-1.5447 0.32854,-0.68405 0.47339,-0.90092 0.90629,-1.35706 0.67418,-0.71037 1.39729,-1.19556 2.7785,-1.8643 0.50013,-0.24214 1.52835,-0.74048 2.28496,-1.10742 0.7566,-0.366938 1.66943,-0.781985 2.0285,-0.922327 1.8227802,-0.712437 3.6164102,-1.150185 5.5958502,-1.365698 1.01654,-0.110678 3.12185,-0.112113 4.12693,-0.0028 4.34866,0.472908 7.97387,2.036715 11.55377,4.983935 0.55856,0.45985 0.65737,0.52235 1.01897,0.64458 0.9857,0.33319 2.26212,0.60697 3.37543,0.72401 0.99746,0.10487 2.97351,0.0712 3.85531,-0.0655 2.782,-0.43173 4.59983,-1.5821 5.60598,-3.54766 0.51488,-1.0058 0.7668,-2.06191 0.86331,-3.619072 l 0.0232,-0.374365 -0.96536,-0.104743 c -5.12706,-0.556289 -9.20552,-1.829449 -10.60173,-3.309514 -0.34373,-0.364368 -0.51202,-0.670996 -0.5407,-0.985121 -0.0163,-0.178544 0.33673,-1.447997 2.1022,-7.55913 1.16699,-4.039501 2.13542,-7.398951 2.15206,-7.465443 0.0249,-0.09907 -0.0707,-0.289931 -0.52929,-1.057465 -1.21796,-2.038515 -2.48031,-4.390431 -3.45955,-6.445556 -0.32588,-0.683936 -0.60698,-1.289083 -0.62465,-1.344772 l -0.0322,-0.101251 h 17.23368 17.23368 v 0.872729 0.872728 l -0.32264,0.537892 c -0.17745,0.295842 -0.59661,0.936596 -0.93146,1.423901 -1.11585,1.623897 -2.60066,3.862949 -2.98467,4.500791 l -0.37946,0.63033 2.12735,7.460253 c 1.71579,6.017007 2.12313,7.497794 2.10548,7.654296 -0.0933,0.828079 -1.27609,1.778275 -3.11199,2.500086 -2.22424,0.874486 -5.32585,1.544813 -8.59862,1.85835 l -0.60122,0.05759 0.0304,0.562912 c 0.0955,1.773887 0.55723,3.183784 1.41645,4.325234 1.09156,1.45014 2.79089,2.32471 5.21163,2.68223 0.4498,0.0664 0.86151,0.0823 2.09843,0.0812 1.36241,-0.001 1.6164,-0.0135 2.21503,-0.10672 0.59726,-0.093 1.20438,-0.21129 1.59713,-0.3111 l 0.12825,-0.0327 v 4.52331 4.52332 l -0.10604,0.0267 c -0.28694,0.072 -2.16012,0.31781 -2.90172,0.38076 -0.46166,0.0393 -1.11218,0.10387 -1.44559,0.14374 -1.11675,0.13355 -1.71996,0.16675 -2.52792,0.13914 -1.93847,-0.0662 -3.47562,-0.43017 -5.02647,-1.19004 -1.98998,-0.97505 -3.45376,-2.31024 -4.92766,-4.49485 l -0.40436,-0.59933 -0.37093,0.55203 c -0.96448,1.43535 -1.98353,2.53705 -3.18134,3.43935 -2.25988,1.70235 -4.99299,2.46599 -8.15974,2.27985 z m 2.44818,-2.87654 c 1.18304,-0.19762 2.13677,-0.49823 3.12435,-0.98477 1.27328,-0.62727 2.02022,-1.18581 3.38038,-2.52775 0.74037,-0.73048 0.94297,-0.95524 0.89984,-0.99838 -0.0432,-0.0432 -0.274,0.15774 -1.02546,0.89225 -1.42267,1.39059 -2.08652,1.88561 -3.34802,2.49652 -1.23833,0.5997 -2.32521,0.89913 -3.7938,1.04516 -0.74624,0.0741 -3.36123,0.0601 -4.23109,-0.0227 -2.99119,-0.28493 -4.45608,-0.60826 -6.9557,-1.53535 -1.18635,-0.44001 -1.6001,-0.64384 -2.44877,-1.20641 -1.45857,-0.96688 -2.87051,-1.7612 -3.93385,-2.21306 -0.13139,-0.0557 -0.30451,-0.17626 -0.38471,-0.26762 -0.12176,-0.13868 -0.14584,-0.20456 -0.14584,-0.39928 0,-0.23286 -2.6e-4,-0.23333 -0.2154,-0.32554 -0.27982,-0.11994 -1.32428,-0.4337 -1.85973,-0.55868 -1.98424,-0.46312 -4.40998,-0.41773 -6.44585,0.12061 -0.72512,0.19174 -0.96796,0.28906 -1.18328,0.47425 -0.20853,0.17934 -1.4528,0.89885 -1.55441,0.89885 -0.0162,0 0.0543,-0.11083 0.15666,-0.24629 0.41695,-0.55226 0.55406,-1.1358 0.36016,-1.53295 -0.24662,-0.50516 -1.02678,-1.02859 -2.3555902,-1.58042 l -0.5301,-0.22014 0.15704,-0.0482 c 0.41249,-0.12643 1.19095,-0.25532 2.2950002,-0.37997 0.64218,-0.0724 0.94719,-0.13112 1.33558,-0.25667 2.39226,-0.77338 5.01949,-0.97067 7.4533,-0.55971 0.66284,0.11192 1.76757,0.37732 2.22334,0.53412 l 0.23759,0.0817 0.152,-0.13582 c 0.0836,-0.0746 0.21378,-0.14816 0.28928,-0.16326 0.0755,-0.0151 0.13726,-0.0563 0.13726,-0.0916 0,-0.0785 -0.0217,-0.0793 0.283,0.0108 0.58562,0.17313 2.01257,0.81612 2.90592,1.30945 1.3743,0.75892 2.60093,1.55458 3.91382,2.5387 0.86983,0.652 1.66731,1.09721 2.69,1.50175 1.16771,0.4619 1.59525,0.52084 3.77719,0.52074 2.24742,-10e-5 3.5751,-0.12481 4.90788,-0.46098 1.06541,-0.26873 1.5115,-0.51131 2.49759,-1.35809 0.67067,-0.57591 1.70558,-1.64453 2.00919,-2.07462 0.50197,-0.71107 0.99957,-1.84195 1.49787,-3.404146 0.32338,-1.013805 0.43906,-1.275747 0.70378,-1.593858 0.1671,-0.200779 0.23908,-0.411321 0.14064,-0.411321 -0.0671,0 -0.40481,0.468941 -0.55401,0.769428 -0.0763,0.153886 -0.23763,0.605051 -0.3583,1.00259 -0.43244,1.424687 -0.97259,2.709797 -1.42677,3.394507 -0.54261,0.81804 -2.27217,2.46041 -3.15348,2.99454 -0.75808,0.45945 -2.08688,0.76993 -4.02605,0.94071 -1.03712,0.0913 -3.81574,0.0789 -4.41292,-0.0197 -0.60691,-0.10023 -1.373,-0.34888 -2.12961,-0.69123 -0.83528,-0.37793 -1.40195,-0.71641 -2.10772,-1.25898 -1.36792,-1.05162 -3.08099,-2.13129 -4.54285,-2.86319 -2.83783,-1.42076 -5.41761,-2.077954 -8.1514,-2.076526 -1.83708,9.98e-4 -3.36616,0.223996 -4.99582,0.728736 -0.54528,0.16888 -0.8211,0.22462 -1.48791,0.30068 -2.4282502,0.27699 -3.2757002,0.58104 -3.2751702,1.17509 2.6e-4,0.40384 0.22057,0.59642 1.08546,0.94924 1.21395,0.49522 2.1326902,1.07185 2.1315402,1.33784 -0.001,0.23683 -0.29783,0.62435 -1.0239402,1.33694 -0.83326,0.81773 -0.92497,0.9503 -0.8441,1.22019 0.11805,0.39403 0.43777,0.41156 1.23894,0.0679 0.9084402,-0.38964 2.4659602,-1.24112 2.8707202,-1.5694 0.24028,-0.19488 1.65246,-0.53559 2.72512,-0.65747 0.75164,-0.0854 2.44849,-0.0738 3.06863,0.0209 1.56008,0.23829 3.03475,0.71045 4.62567,1.48106 1.12243,0.54367 2.32618,1.25543 3.40839,2.0153 0.50916,0.3575 0.66069,0.4346 1.56217,0.79488 2.71171,1.08373 4.27157,1.45579 7.45687,1.77865 0.93696,0.095 4.55805,0.0669 5.19948,-0.0402 z m 12.7772,-15.932723 c 5.74326,-0.301721 10.33185,-1.498136 11.48668,-2.995001 0.29843,-0.386828 0.39711,-0.650405 0.39778,-1.062441 5.3e-4,-0.297781 -0.022,-0.400635 -0.14489,-0.663262 -0.33098,-0.707303 -1.13862,-1.282686 -2.55306,-1.818868 -1.69804,-0.643675 -4.19269,-1.175078 -6.8316,-1.455241 -2.84963,-0.30253 -7.04275,-0.340389 -10.09584,-0.09115 -4.23416,0.345652 -8.09433,1.338241 -9.55958,2.458118 -1.06513,0.814064 -1.20797,1.906228 -0.3649,2.790097 1.47834,1.549889 6.2667,2.669007 12.34765,2.885857 1.27714,0.04555 4.00477,0.02087 5.31776,-0.04811 z m -12.3712,-10.315103 c 1.4908,-1.006671 2.74676,-1.848247 2.79104,-1.870173 0.0588,-0.02917 0.8913,0.312024 3.10349,1.272118 l 3.02297,1.311984 3.04938,-1.31191 c 2.22678,-0.958015 3.07107,-1.301175 3.12985,-1.272118 0.0443,0.0219 1.29758,0.862128 2.78519,1.867208 l 2.70473,1.827419 0.87038,-0.199318 c 0.4787,-0.109624 0.88244,-0.211389 0.89721,-0.226146 0.0148,-0.01476 -0.28434,-1.077688 -0.66465,-2.362069 -0.52087,-1.759086 -0.70905,-2.335358 -0.76273,-2.335724 -0.0393,-2.65e-4 -1.37923,0.29042 -2.97789,0.645976 l -2.90664,0.646464 -3.03764,-1.305691 c -1.6707,-0.718133 -3.05863,-1.306255 -3.08427,-1.306941 -0.0257,-7.91e-4 -1.40456,0.588045 -3.06425,1.308292 l -3.0176,1.309538 -2.85803,-0.666591 c -1.57193,-0.366627 -2.86154,-0.663939 -2.86583,-0.660695 -0.031,0.02338 -1.32073,4.717191 -1.30732,4.757519 0.009,0.02828 0.34062,0.128036 0.73606,0.221672 0.39542,0.09364 0.72504,0.172325 0.73248,0.174869 0.007,0.0026 1.23328,-0.819012 2.72407,-1.825683 z m 20.50671,-4.360097 c -10e-4,-0.01923 -0.27031,-1.01071 -0.59852,-2.203276 l -0.59676,-2.168302 -0.74214,-0.172675 c -1.95806,-0.45558 -4.31053,-0.775937 -6.82763,-0.92978 -1.16988,-0.07151 -4.65394,-0.07108 -5.82901,7.91e-4 -2.60544,0.159171 -4.66957,0.436501 -6.66033,0.89486 l -0.40618,0.09353 -0.66546,2.219269 c -0.366,1.2206 -0.65556,2.229166 -0.64347,2.241261 0.0121,0.01209 0.38539,-0.07447 0.82954,-0.192347 0.99862,-0.265045 2.10697,-0.497577 3.11585,-0.653696 5.05196,-0.781775 11.73374,-0.677448 16.31622,0.254751 0.58112,0.118216 1.97846,0.466126 2.40656,0.599184 0.17642,0.05485 0.30363,0.06182 0.30133,0.01651 z"
       id="path9344" />
    <text
       xml:space="preserve"
       style="font-size:112.46px;line-height:1.25;font-family:'Chess Leipzig';-inkscape-font-specification:'Chess Leipzig';fill:#000003;fill-opacity:1;stroke:#000000;stroke-width:0.745044;stroke-miterlimit:4;stroke-dasharray:none;stroke-opacity:1"
       x="-5.2739058"
       y="105.02737"
       id="text76144"
       transform="scale(0.97979341,1.0206233)"><tspan
         sodipodi:role="line"
         id="tspan76142"
         style="fill:#000003;fill-opacity:1;stroke:#000000;stroke-width:0.745044;stroke-miterlimit:4;stroke-dasharray:none;stroke-opacity:1"
         x="-5.2739058"
         y="105.02737">b</tspan></text>
    <path
       style="fill:#ffffff;fill-opacity:1;stroke:#ffffff;stroke-width:1.26909;stroke-linecap:round;stroke-linejoin:round;stroke-miterlimit:4;stroke-dasharray:none;stroke-opacity:1"
       d=""
       id="path8771"
       transform="scale(0.26458333)" />
  </g>
</svg>
