<?xml version="1.0" encoding="UTF-8" standalone="no"?>
<!-- Created with Inkscape (http://www.inkscape.org/) -->

<svg
   width="532.00006mm"
   height="718.53961mm"
   viewBox="0 0 532.00006 718.53962"
   version="1.1"
   id="svg5"
   inkscape:version="1.1.2 (b8e25be833, 2022-02-05)"
   sodipodi:docname="White_Rook.svg"
   xmlns:inkscape="http://www.inkscape.org/namespaces/inkscape"
   xmlns:sodipodi="http://sodipodi.sourceforge.net/DTD/sodipodi-0.dtd"
   xmlns="http://www.w3.org/2000/svg"
   xmlns:svg="http://www.w3.org/2000/svg">
  <sodipodi:namedview
     id="namedview7"
     pagecolor="#ffffff"
     bordercolor="#cccccc"
     borderopacity="1"
     inkscape:pageshadow="0"
     inkscape:pageopacity="1"
     inkscape:pagecheckerboard="true"
     inkscape:document-units="mm"
     showgrid="false"
     inkscape:zoom="0.09699162"
     inkscape:cx="2123.8948"
     inkscape:cy="2556.9219"
     inkscape:window-width="1920"
     inkscape:window-height="1017"
     inkscape:window-x="-8"
     inkscape:window-y="32"
     inkscape:window-maximized="1"
     inkscape:current-layer="layer1"
     showborder="false"
     fit-margin-top="10"
     lock-margins="true"
     fit-margin-left="10"
     fit-margin-right="10"
     fit-margin-bottom="10" />
  <defs
     id="defs2" />
  <g
     inkscape:label="Livello 1"
     inkscape:groupmode="layer"
     id="layer1"
     transform="translate(-249.49091,-32.383581)">
    <text
       xml:space="preserve"
       style="font-size:40px;line-height:1.25;font-family:'Chess Condal';-inkscape-font-specification:'Chess Condal';fill:#ffffff;fill-opacity:1;stroke:none;stroke-width:0.264583;stroke-opacity:1"
       x="87.548508"
       y="91.29937"
       id="text29524"><tspan
         sodipodi:role="line"
         id="tspan29522"
         style="fill:#ffffff;fill-opacity:1;stroke:none;stroke-width:0.264583;stroke-opacity:1"
         x="87.548508"
         y="91.29937" /></text>
    <text
       xml:space="preserve"
       style="font-size:40px;line-height:1.25;font-family:'Chess Leipzig';-inkscape-font-specification:'Chess Leipzig';stroke-width:0.264583"
       x="254.01411"
       y="94.275764"
       id="text58610"><tspan
         sodipodi:role="line"
         id="tspan58608"
         style="stroke-width:0.264583"
         x="254.01411"
         y="94.275764" /></text>
    <path
       style="fill:#ffffff;fill-opacity:1;stroke:none;stroke-width:5.33119px;stroke-linecap:butt;stroke-linejoin:miter;stroke-opacity:1"
       d="m 298.48355,58.299143 c 2.76249,25.083755 4.85823,48.508027 4.85823,74.089347 0,3.14319 -1.22106,20.63342 0,23.077 0.18134,0.36208 1.03366,-0.36209 1.21501,0 1.89001,3.78023 -0.87046,21.33707 1.21501,25.50616 0.74351,1.48743 1.43867,6.29624 2.42921,7.28749 0.64076,0.64014 1.78927,0.57446 2.42902,1.2146 0.405,0.40481 0.81,3.23888 1.21501,3.64372 0.64075,0.64015 1.78927,0.57446 2.42921,1.21461 3.61682,3.61692 -1.81546,1.58213 3.64362,4.85833 1.09815,0.65868 2.54608,0.55592 3.64382,1.21461 1.96457,1.17834 2.80984,3.83409 4.85823,4.85833 0.72538,0.36208 1.66031,-0.2561 2.42922,0 2.86665,0.95548 4.40808,5.06772 6.07303,7.28748 1.9545,2.60506 4.03049,2.81608 6.07284,4.85831 2.01917,2.01913 1.65426,4.1351 2.42921,6.07289 -4.21909,9.51994 2.87553,2.10741 3.64362,3.64374 0.36269,0.72417 -0.36269,1.70485 0,2.42916 0.50172,1.00243 4.0992,1.36633 4.85843,3.64374 0.2559,0.76809 -0.2559,1.66091 0,2.42915 0.7818,2.34582 2.0635,0.42455 3.64362,1.21461 0.36269,0.18134 -0.28612,0.92828 0,1.21461 2.17634,2.1763 5.745,4.20232 7.28744,7.28748 2.56563,5.13097 -3.12779,7.47036 -4.85823,10.93122 -1.53538,3.07233 0.22568,5.62213 -1.21501,8.50205 -1.97061,3.94284 -4.85822,7.38962 -4.85822,10.93122 0,7.76315 -2.31376,22.09322 1.21501,29.14989 1.04575,2.09117 2.62164,5.05072 3.64382,6.07292 0.6065,0.6073 3.03652,-0.6073 3.64382,0 1.32382,1.32442 3.64362,7.65994 3.64362,9.71662 0,3.19833 -0.92486,5.78379 -2.42921,7.28748 -0.28613,0.28632 -1.03367,-0.36209 -1.21501,0 -0.36269,0.72417 0.25589,1.66091 0,2.42915 -0.7677,2.3031 -2.54145,5.08275 -3.64383,7.28748 -1.27545,2.55096 0.90673,6.99895 0,9.71664 -2.97808,8.93409 -4.96501,24.07816 0,34.00822 2.27467,4.54931 -2.27466,-2.12013 0,2.42915 0.77979,1.55795 3.10463,3.24122 3.64383,4.85833 0.98933,2.96851 1.03165,5.7071 2.42901,8.50203 1.34598,2.69269 -0.75359,8.62546 -1.21501,10.93126 -0.405,2.02419 -0.55411,9.61093 -1.21501,10.93121 -0.57829,1.15657 -5.19251,6.40697 -6.07304,7.28748 -0.28612,0.28632 -1.03366,-0.36209 -1.21501,0 -0.56217,1.12494 -0.18134,17.69436 0,18.21868 0.73344,2.19992 0.27202,6.61715 1.21501,8.50205 0.2559,0.5124 1.10218,0.65305 1.21501,1.21461 0.44531,2.2222 -1.07799,7.55974 0,9.7166 1.26136,2.52319 7.28744,13.6341 7.28744,14.57496 0,0.7411 0.47352,4.38508 0,4.85833 -0.28612,0.28632 -1.03366,-0.36188 -1.21501,0 -0.36269,0.72417 0.57225,1.85657 0,2.42915 -0.57224,0.57265 -1.98068,-0.67379 -2.42901,0 -2.07599,3.11375 -3.76996,49.54536 -2.42921,52.22691 0.25589,0.5124 0.81,0.8096 1.21501,1.2146 0,0.80981 -0.2559,1.66092 0,2.42912 0.36269,1.08645 2.06693,1.34275 2.42921,2.42915 0.40098,1.20212 0.26597,3.90911 1.21501,4.85833 0.28612,0.28632 0.92889,-0.28632 1.21501,0 1.62002,1.61941 -1.62001,8.09719 0,9.71666 0.8765,0.8771 3.50882,-2.15926 1.21501,2.42915 -0.43321,0.86784 -5.33415,-0.73868 -6.07283,0 -1.45278,1.45277 0.32037,8.18169 -1.21501,9.71666 -0.28612,0.28632 -0.92889,-0.28633 -1.21501,0 -0.6065,0.6073 0.60649,3.03643 0,3.6437 -4.82539,4.82548 -13.67924,5.24169 -21.86233,7.2875 -1.21098,0.30285 -2.20515,2.31714 -2.42921,2.42915 -0.72337,0.36189 -1.66032,-0.25589 -2.42922,0 -2.91864,0.97282 -5.52034,5.79657 -8.50205,7.28749 -13.45074,6.72537 -14.60732,3.77294 -18.2187,18.21868 -1.21501,4.8618 1.57971,11.04995 0,15.78953 -0.95509,2.86809 -1.81345,5.42749 -2.42902,8.50205 -0.23776,1.19103 0.85837,2.78491 0,3.64376 -0.4191,0.41951 -3.02322,-0.12492 -3.64382,0 -4.46712,0.89343 -9.05273,2.7822 -13.36048,3.64372 -1.98471,0.39715 -4.64142,-1.43141 -6.07283,0 -1.48703,1.48683 0.37881,11.47029 0,13.36036 -1.12031,5.59953 0.29217,17.344 -1.21501,21.86247 -2.18944,6.56831 -2.24243,18.77872 0,25.50617 0.71732,2.1496 -1.59986,9.33162 0,10.9312 0.6065,0.6073 1.82151,0.6073 2.42921,1.21461 1.62002,1.61941 -0.405,6.88264 1.21501,8.50211 0.57225,0.57244 1.85577,-0.57265 2.42922,0 0.28612,0.28632 -0.36269,1.03346 0,1.2146 1.44874,0.72417 3.32183,-0.5124 4.85823,0 2.55373,0.85132 5.59166,1.70162 8.50205,2.42916 3.05545,0.76386 6.62009,-0.61939 9.71665,0 13.50616,2.70127 27.73387,3.81261 41.29564,6.07289 10.64716,1.77456 22.07107,-1.34034 32.79379,0 30.01861,3.75235 63.04291,1.21461 93.52254,1.21461 3.64362,0 7.31566,-0.45215 10.93127,0 3.31276,0.41427 6.40389,2.01502 9.71665,2.42915 8.0235,1.00284 16.45261,-0.23453 24.29154,-1.2146 4.18847,-0.52348 9.26169,1.0246 13.36028,0 7.94452,-1.98613 16.68695,-0.90834 24.29174,-2.42916 2.51082,-0.50212 4.76172,-2.00829 7.28745,-2.42917 8.15769,-1.35968 16.43769,-1.68026 24.29154,-3.64372 3.38611,-0.84648 8.69447,0 12.14567,0 8.25804,0 16.4526,-0.35342 24.29174,1.21461 4.87475,0.97503 11.09286,-1.56561 15.78949,0 6.11253,2.03753 12.92243,2.71362 19.43331,3.64376 5.37667,0.76809 11.58028,0 17.0041,0 13.76528,0 27.53036,0 41.29564,0 4.52052,0 30.56123,1.01774 32.79379,-1.21461 2.96761,-2.96767 3.44575,-9.51869 6.07284,-12.14575 0.28612,-0.28632 0.92888,0.28632 1.21501,0 1.4971,-1.49771 1.888,-4.44788 2.42901,-6.07294 0.47955,-1.43866 2.96096,-2.27797 3.64382,-3.64372 1.8477,-3.69387 0.23575,-16.5321 -1.21501,-19.43329 -1.36613,-2.73065 0.50575,-9.10581 0,-12.14575 -0.86038,-5.16055 -1.00143,-12.72005 -2.42921,-17.00414 -0.1209,-0.38385 -0.92889,0.28632 -1.21501,0 -0.57225,-0.57265 0.57224,-1.85657 0,-2.42915 -0.28613,-0.28633 -0.92889,0.28632 -1.21501,0 -1.82151,-1.82191 -1.82151,-5.46561 -3.64383,-7.28751 -2.11045,-2.11028 -6.70028,-5.4857 -8.50205,-7.28742 -0.20149,-0.19746 -1.06792,-3.57015 -1.21501,-3.64378 -0.72336,-0.36208 -1.70464,0.36209 -2.42921,0 -0.36269,-0.18134 0.18134,-0.85252 0,-1.21461 -1.26538,-2.53109 -5.85643,-5.85659 -7.28744,-7.28748 -0.57225,-0.57264 0.44933,-1.75542 0,-2.42917 -1.93636,-2.9038 -2.81306,-1.53579 -3.64362,-4.85831 -0.29418,-1.17834 0.85836,-2.78491 0,-3.64372 -0.28612,-0.28632 -0.92889,0.28632 -1.21501,0 -0.5118,-0.51079 0.22164,-4.41349 0,-4.85833 -0.18135,-0.36208 -0.81001,0 -1.21501,0 -0.40501,-0.4046 -0.95912,-0.70241 -1.21501,-1.21461 -0.94098,-1.88356 0.38687,-2.45752 -1.21501,-4.85833 -0.81001,-1.2146 -1.39636,-2.61152 -2.42922,-3.6437 -0.28612,-0.28632 -1.03366,0.36209 -1.21501,0 -0.92284,-1.84649 -0.44732,-4.15616 -1.21501,-6.07289 -0.86642,-2.16685 -6.42787,-9.89407 -8.50205,-10.93124 -0.36269,-0.18135 -0.92889,0.28632 -1.21501,0 -0.64075,-0.64015 -0.46142,-1.92689 -1.21501,-2.42918 -0.67299,-0.44893 -1.64419,0.19545 -2.42921,0 -5.22032,2.53484 -1.34195,-2.06701 -2.42922,-2.42915 -1.15254,-0.38385 -2.46528,0.29478 -3.64362,0 -1.11023,-0.27766 -1.36613,-2.00386 -2.42921,-2.42912 -1.91621,-0.76668 -4.22634,-0.29156 -6.07284,-1.2146 -1.04575,-0.52288 -2.54185,-2.1537 -3.64382,-2.42916 -1.17874,-0.29478 -2.55736,0.54323 -3.64362,0 -0.81001,-0.4046 -0.46142,-1.92689 -1.21501,-2.42917 -0.27605,-0.18336 -8.24011,-2.16723 -8.50205,-2.42916 -0.22366,-0.22386 -0.99135,-3.4199 -1.21501,-3.64372 -0.28612,-0.28632 -1.08605,0.38385 -1.21501,0 -0.74351,-2.2336 -0.41105,-23.06053 0,-24.29162 0.1209,-0.38384 0.92889,0.28632 1.21501,0 0.92284,-0.92244 -0.27605,-5.90936 0,-7.28742 3.22975,-16.1488 -0.60851,0.004 2.42922,-6.07294 1.35202,-2.7035 0,-27.00887 0,-31.57904 0,-3.79988 -1.17875,-11.04104 0,-14.57498 1.66434,-4.99364 0.86038,-9.86742 2.42901,-14.57493 1.4568,-4.37248 -1.4568,-10.20248 0,-14.57496 0.24784,-0.7413 2.18218,-2.90253 2.42921,-3.64372 0.1612,-0.49004 1.43061,-27.28712 1.21501,-27.93533 -0.68911,-2.06835 -1.21904,-4.25884 -2.42921,-6.07293 -0.22366,-0.3369 -0.92889,0.28632 -1.21501,0 -0.6065,-0.6073 0.6065,-3.03644 0,-3.64372 -0.28612,-0.28633 -0.92889,0.28632 -1.21501,0 -0.39896,-0.39815 -1.97666,-3.95191 -2.42922,-4.85833 -0.16119,-0.3375 -0.84224,-7.00936 -1.21501,-8.50203 -0.50373,-2.01792 -1.17471,-14.61399 0,-15.78953 0.64076,-0.64015 1.78927,-0.57446 2.42922,-1.21461 0.71329,-0.71329 0.10075,-5.0753 1.21501,-7.28748 1.13441,-2.26721 -1.13441,-6.23482 0,-8.50203 0.18134,-0.36208 0.92889,0.28632 1.21501,0 0.18134,-0.18336 0,-21.69603 0,-23.07701 0,-3.51763 -3.91221,-16.05813 -6.07284,-18.21869 -0.28612,-0.28632 -0.92888,0.28632 -1.21501,0 -1.29963,-1.30024 -3.4532,-18.7902 -2.42901,-21.86245 2.11851,-6.35605 10.63426,-5.47899 13.36028,-10.9312 1.31172,-2.62418 -0.26597,-10.24983 -1.21501,-12.14579 -0.18135,-0.36208 -1.03367,0.36209 -1.21501,0 -0.54404,-1.08646 0.85836,-2.78491 0,-3.64374 -1.62002,-1.61941 -1.16464,2.57651 -2.42902,-1.21461 -0.25589,-0.76809 0.36269,-1.70484 0,-2.42915 -1.9827,-3.96474 -0.65284,5.89328 -2.42921,-1.21461 -0.1209,-0.46807 -2.35688,-10.78677 -2.42922,-10.9312 -0.405,-0.80981 -1.92628,-0.46122 -2.42921,-1.21461 -0.59844,-0.89645 -2.00487,-6.92177 -1.21501,-8.50205 1.2271,-2.45301 8.32292,-6.41175 9.71646,-8.50205 0.44933,-0.67379 -0.2559,-1.66092 0,-2.42917 0.36268,-1.08646 1.91621,-1.40502 2.42921,-2.42916 1.18882,-2.37807 2.21563,-6.00267 3.64382,-8.50205 1.00344,-1.75763 2.84631,-2.99769 3.64362,-4.85832 1.40845,-3.28811 0.14105,-5.06355 2.42922,-8.50205 0.22365,-0.3369 0.92888,0.28632 1.21501,0 0.90068,-0.90028 -0.29217,-3.35079 1.21501,-4.85831 0.28612,-0.28632 0.92889,0.28632 1.21501,0 3.41512,-3.41521 6.97512,-8.03358 9.71645,-12.14581 0.40501,-0.4048 0.81001,-0.80981 1.21501,-1.21461 0.40501,0 0.92889,0.28632 1.21501,0 0.28612,-0.28632 -0.28612,-0.92828 0,-1.21461 2.21745,-2.2174 7.19476,-4.76544 9.71666,-7.28748 0.64075,-0.64015 0.71329,-1.67583 1.21501,-2.42915 1.85979,-2.79034 0.69314,0.52086 3.64382,-2.42916 3.08468,-3.08485 4.36316,-5.33041 7.28744,-9.71663 3.6539,-5.48085 5.87356,-11.74736 8.50205,-17.00412 1.44875,-2.89783 0,-11.31191 0,-14.57495 0,-1.2146 0.85837,-2.78491 0,-3.64374 -1.30165,-1.30084 -1.21501,-0.63249 -1.21501,-3.64374 0,-2.56949 -0.3506,-15.27731 -1.21501,-17.00412 -0.18134,-0.36208 -0.92889,0.28633 -1.21501,0 -0.65888,-0.65949 0.88255,-22.525018 -2.42901,-29.149906 -2.82938,-5.658563 3.3986,-24.536538 -2.42922,-30.364476 -1.77315,-1.772545 -10.58449,-2.255809 -13.36047,-3.643741 -1.84569,-0.922643 -5.25659,0.507765 -7.28745,0 -4.44073,-1.110234 -22.19177,-2.871716 -25.50614,-1.214608 -0.81001,0.404802 -1.78927,0.57446 -2.42922,1.214608 -0.28612,0.286323 0.38284,1.086658 0,1.214607 -1.53538,0.512198 -3.71313,-1.145092 -4.85823,0 -1.18075,1.180151 -3.55133,4.765822 -4.85843,6.072895 -0.28612,0.286323 -0.92888,-0.286323 -1.21501,0 -1.18075,1.180353 -0.21358,3.522885 -1.21501,4.858328 -0.54403,0.72417 -1.92628,0.461221 -2.42921,1.214607 -0.79993,1.199697 -1.92427,8.201864 -2.42921,9.716637 -0.55008,1.649029 -1.92427,2.841472 -2.42922,4.858328 -0.62262,2.49466 0.59239,23.699751 -1.21501,25.506151 -1.64419,1.64399 -25.20048,0.75882 -27.93536,1.2146 -0.89262,0.14911 -1.62002,0.80981 -2.42922,1.21461 -2.02421,0.4048 -4.02102,0.98652 -6.07283,1.21461 -6.4051,0.71168 -13.04937,0.41669 -19.43331,1.21461 -11.12712,1.39091 -39.23516,6.91895 -48.58308,-2.42916 -0.71732,-0.71792 -2.10159,-5.41747 -2.42922,-6.07291 -0.65284,-1.30569 -1.77718,-2.3381 -2.42921,-3.64372 -0.77173,-1.54224 0.53799,-4.458689 0,-6.0729 -2.23316,-6.699784 -1.21501,-15.518864 -1.21501,-23.077014 0,-2.026347 1.22508,-9.705171 0,-10.931223 -2.8441,-2.844232 -10.02555,-0.912769 -14.57489,-2.429154 -1.93837,-0.646192 -3.49169,-2.429154 -6.07283,-2.429154 -9.71666,0 -19.43332,0 -29.14997,0 -2.88137,0 -12.8507,-1.724186 -14.57489,0 -0.28612,0.286323 0.39695,1.135218 0,1.214607 -1.98471,0.396944 -4.08791,-0.396944 -6.07303,0 -0.39695,0.07858 0.10074,0.821895 0,1.214607 -0.3103,1.242011 -0.73949,2.455026 -1.21501,3.643741 -1.1324,2.831962 -1.85375,2.620111 -2.42902,6.072896 -0.34858,2.095741 0.52993,5.165183 0,7.287482 -0.21962,0.878313 -0.92888,1.570245 -1.21501,2.429154 -0.76366,2.290486 0.3768,21.486138 -1.21501,23.077018 -4.74015,4.74017 -0.65284,-0.28109 -3.64382,1.2146 -5.05468,2.52741 1.29762,-0.0846 -1.21501,2.42916 -0.59441,0.59481 -21.26187,3.58371 -21.86232,3.64374 -14.83663,1.4836 -29.87294,1.21461 -44.93947,1.21461 -5.04803,0 -21.05171,0.94541 -24.29154,-1.21461 -3.13323,-2.08879 -3.27931,-3.27922 -4.85842,-4.85831 -0.57225,-0.57265 -1.85577,0.57265 -2.42902,0 -4.74015,-4.74019 0.28209,-0.65224 -1.21501,-3.64374 -0.82612,-1.65084 -2.8183,-3.207507 -3.64382,-4.858309 -2.17694,-4.353968 -1.21501,-13.224026 -1.21501,-18.218706 0,-4.105122 1.74091,-13.522379 0,-17.004098 -0.14105,-0.263958 -5.60416,-0.74573 -6.07283,-1.214608 -0.28613,-0.286323 0.28612,-0.928283 0,-1.214607 -0.57225,-0.572646 -1.70465,0.362085 -2.42922,0 -11.06606,-5.533072 -31.069,-7.287462 -43.72485,-7.287462 -2.42902,0 -5.56971,-1.717738 -7.28744,0 -1.03166,1.032457 -3.78608,5.000724 -4.85823,6.072895 z"
       id="path860" />
    <text
       xml:space="preserve"
       style="font-size:805.977px;line-height:1.25;font-family:'Chess Leipzig';-inkscape-font-specification:'Chess Leipzig';stroke-width:5.33119"
       x="112.6992"
       y="794.05157"
       id="text60506"><tspan
         sodipodi:role="line"
         id="tspan60504"
         style="stroke-width:5.33119"
         x="112.6992"
         y="794.05157">r</tspan></text>
  </g>
</svg>
