<?xml version="1.0" encoding="UTF-8" standalone="no"?>
<!-- Created with Inkscape (http://www.inkscape.org/) -->

<svg
   width="140.86633mm"
   height="140.86621mm"
   viewBox="0 0 140.86633 140.86621"
   version="1.1"
   id="svg5"
   inkscape:version="1.1.2 (b8e25be833, 2022-02-05)"
   sodipodi:docname="White_Bishop.svg"
   xmlns:inkscape="http://www.inkscape.org/namespaces/inkscape"
   xmlns:sodipodi="http://sodipodi.sourceforge.net/DTD/sodipodi-0.dtd"
   xmlns:xlink="http://www.w3.org/1999/xlink"
   xmlns="http://www.w3.org/2000/svg"
   xmlns:svg="http://www.w3.org/2000/svg">
  <sodipodi:namedview
     id="namedview7"
     pagecolor="#ffffff"
     bordercolor="#cccccc"
     borderopacity="1"
     inkscape:pageshadow="0"
     inkscape:pageopacity="0"
     inkscape:pagecheckerboard="true"
     inkscape:document-units="px"
     showgrid="false"
     inkscape:zoom="0.70710678"
     inkscape:cx="343.6539"
     inkscape:cy="278.60007"
     inkscape:window-width="1920"
     inkscape:window-height="1017"
     inkscape:window-x="-8"
     inkscape:window-y="32"
     inkscape:window-maximized="1"
     inkscape:current-layer="layer1"
     showborder="false"
     lock-margins="true"
     fit-margin-top="2.7"
     fit-margin-left="2.7"
     fit-margin-right="2.7"
     fit-margin-bottom="2.7"
     width="78.99996mm" />
  <defs
     id="defs2">
    <linearGradient
       inkscape:collect="always"
       id="linearGradient7081">
      <stop
         style="stop-color:#000003;stop-opacity:1;"
         offset="0"
         id="stop7077" />
      <stop
         style="stop-color:#000003;stop-opacity:0;"
         offset="1"
         id="stop7079" />
    </linearGradient>
    <linearGradient
       inkscape:collect="always"
       id="linearGradient2415">
      <stop
         style="stop-color:#ffffff;stop-opacity:1;"
         offset="0"
         id="stop2411" />
      <stop
         style="stop-color:#ffffff;stop-opacity:0;"
         offset="1"
         id="stop2413" />
    </linearGradient>
    <linearGradient
       inkscape:collect="always"
       xlink:href="#linearGradient2415"
       id="linearGradient2417"
       x1="252.76004"
       y1="56.705269"
       x2="289.05634"
       y2="56.705269"
       gradientUnits="userSpaceOnUse" />
    <linearGradient
       inkscape:collect="always"
       xlink:href="#linearGradient7081"
       id="linearGradient7083"
       x1="201.46381"
       y1="63.513065"
       x2="303.51083"
       y2="63.513065"
       gradientUnits="userSpaceOnUse" />
  </defs>
  <g
     inkscape:label="Livello 1"
     inkscape:groupmode="layer"
     id="layer1"
     transform="translate(-7.2999842,-7.3003654)">
    <text
       xml:space="preserve"
       style="font-size:40px;line-height:1.25;font-family:'Chess Condal';-inkscape-font-specification:'Chess Condal';fill:#ffffff;fill-opacity:1;stroke:none;stroke-width:0.264583;stroke-opacity:1"
       x="87.548508"
       y="91.29937"
       id="text29524"><tspan
         sodipodi:role="line"
         id="tspan29522"
         style="fill:#ffffff;fill-opacity:1;stroke:none;stroke-width:0.264583;stroke-opacity:1"
         x="87.548508"
         y="91.29937" /></text>
    <text
       xml:space="preserve"
       style="font-size:40px;line-height:1.25;font-family:'Chess Leipzig';-inkscape-font-specification:'Chess Leipzig';stroke-width:0.264583"
       x="254.01411"
       y="94.275764"
       id="text58610"><tspan
         sodipodi:role="line"
         id="tspan58608"
         style="stroke-width:0.264583"
         x="254.01411"
         y="94.275764" /></text>
    <path
       style="fill:#ffffff;fill-opacity:1;stroke:#ffffff;stroke-width:0.599417px;stroke-linecap:butt;stroke-linejoin:miter;stroke-opacity:1"
       d="m 61.25025,92.27013 c -0.06865,-0.950262 -0.749671,-1.49921 -1.198837,-2.247817 -0.08126,-0.135455 -0.09991,-0.299709 -0.149864,-0.449564 -0.09991,-0.199796 -0.175804,-0.413545 -0.299708,-0.599418 -0.195922,-0.293889 -0.523153,-0.477929 -0.749274,-0.749272 -0.451928,-0.542312 -0.83323,-1.488626 -1.198835,-2.097964 -0.181876,-0.303101 -0.591939,-0.584456 -0.749272,-0.899127 -0.09212,-0.184209 -0.05775,-0.415206 -0.149864,-0.599417 -0.06318,-0.126371 -0.236525,-0.173335 -0.29971,-0.29971 -0.216742,-0.4335 -0.264961,-1.037041 -0.449562,-1.498545 -0.580779,-1.45194 -0.981221,-2.672603 -1.198837,-4.195928 -0.09753,-0.682754 -0.464234,-1.272187 -0.599418,-1.948109 -0.130108,-0.650577 -0.151359,-1.654423 -0.299709,-2.247816 -0.05419,-0.21672 -0.221274,-0.390252 -0.29971,-0.599418 -0.506901,-1.351736 0.149524,0.148346 -0.149864,-1.198837 -0.05836,-0.262594 -0.228931,-0.489755 -0.299708,-0.749272 -0.352983,-1.294269 -0.617063,-2.574114 -0.749272,-3.896218 -0.221907,-2.219011 -0.886393,-4.406483 -1.198837,-6.5936 -0.281339,-1.969364 0.413341,-7.296232 1.048982,-8.991271 0.07843,-0.209175 0.229067,-0.387492 0.299708,-0.599417 0.480548,-1.441644 0.477229,-3.038591 1.348691,-4.345781 0.778738,-1.168108 1.531386,-2.58037 2.547527,-3.596509 0.391565,-0.391565 0.877108,-0.716247 1.198837,-1.198837 0.08763,-0.131422 0.07148,-0.312414 0.149864,-0.449564 0.568128,-0.994227 1.612781,-1.762636 2.397671,-2.547527 0.787211,-0.78721 0.155755,-0.367904 0.749273,-1.198837 0.169053,-0.236667 0.730078,-0.662457 0.899127,-0.899127 0.437313,-0.612238 0.707473,-1.167484 1.348692,-1.648399 0.178704,-0.134028 0.441456,-0.141754 0.599417,-0.299708 0.11169,-0.11169 0.03815,-0.33787 0.149864,-0.449564 0.11169,-0.11169 0.314114,-0.06858 0.449562,-0.149864 0.32524,-0.195152 1.935191,-1.594141 2.097964,-1.6484 0.09477,-0.03158 0.210354,0.04468 0.29971,0 0.252737,-0.12637 0.357118,-0.454036 0.599417,-0.599417 0.135456,-0.08126 0.314114,-0.06858 0.449565,-0.149864 0.121137,-0.07268 0.199796,-0.199796 0.299708,-0.29971 0.149864,-0.09991 0.295126,-0.207045 0.449564,-0.299707 0.255843,-0.153512 0.49343,-0.146194 0.749273,-0.29971 0.593943,-0.356366 1.244133,-0.783244 1.798254,-1.198837 0.249542,-0.187154 0.679487,-0.229925 0.899127,-0.449562 0.171273,-0.171274 0.337417,-0.618274 0.599417,-0.749273 0.141278,-0.07064 0.314114,-0.06858 0.449565,-0.149864 0.371787,-0.223085 0.64236,-0.91344 1.04898,-1.048982 0.09477,-0.03158 0.229068,0.07064 0.29971,0 0.11169,-0.11169 0.06223,-0.318133 0.149863,-0.449564 0.548858,-0.823289 0.249305,-0.199434 0.749273,-0.599418 0.555529,-0.444422 0.767285,-1.21685 1.198837,-1.648399 0.0353,-0.03532 0.127526,0.04468 0.149864,0 0.09436,-0.188718 0.251184,-2.395531 0.149864,-2.547526 -0.122406,-0.183598 -0.372832,-0.06953 -0.449563,-0.29971 -0.112302,-0.336894 -0.386164,-1.106619 -0.749272,-1.348692 -0.348029,-0.232016 -1.355532,-1.069494 -1.498547,-1.498545 -0.247138,-0.741415 -0.558561,-3.868936 -0.299707,-4.64549 0.162483,-0.487433 1.751145,-1.549066 2.247816,-1.648399 0.783697,-0.156752 2.996713,-0.150227 3.596509,0.449564 0.428627,0.428625 0.707589,4.770534 0.449565,5.544616 -0.14513,0.43538 -0.329436,0.868182 -0.449565,1.348691 0.09033,0.271228 -0.242753,0.278704 -0.299708,0.449563 -0.06319,0.189556 0.06319,0.409866 0,0.59942 -0.05696,0.170865 -0.242752,0.278701 -0.299709,0.449562 -0.09049,0.271427 -0.106072,1.586102 0,1.798254 0.277387,0.554771 0.543139,0.964567 0.899127,1.498547 0.301932,0.452902 0.40994,1.074376 0.749272,1.498544 0.25874,0.323423 0.553425,0.403571 0.749272,0.599418 0.27411,0.274109 0.439291,0.800994 0.749272,1.048982 0.123358,0.09869 0.33787,0.03815 0.449565,0.149864 0.07064,0.07064 -0.07064,0.229066 0,0.299709 0.07064,0.07064 0.204939,-0.03158 0.29971,0 0.170865,0.05696 0.30548,0.191641 0.449562,0.299708 0.149796,0.112347 1.213049,0.853914 1.348692,0.899127 0.229857,0.07662 1.851057,0.08231 2.097962,0 0.211916,-0.07064 0.387494,-0.229066 0.599419,-0.299707 0.134867,-0.04495 0.314694,0.04495 0.449563,0 0.134028,-0.04468 0.162641,-0.265444 0.29971,-0.29971 0.145378,-0.03634 0.302621,0.02938 0.449562,0 1.355484,-0.271097 -0.407041,-0.01427 0.449565,-0.29971 0.356114,-0.118713 0.272172,0.17739 0.599417,-0.149841 0.07898,-0.07898 0.07086,-0.22073 0.149864,-0.29971 0.157952,-0.157952 0.413545,-0.175804 0.599417,-0.29971 0.496398,-0.330931 1.556277,-1.314292 1.798255,-1.798254 0.2547,-0.509393 -0.344311,-3.963121 -0.599418,-4.345781 -0.178273,-0.267397 -0.456307,-0.463053 -0.599417,-0.749272 -0.04465,-0.08935 0.03711,-0.206955 0,-0.29971 -0.219733,-0.549352 -0.482689,-1.064764 -0.59942,-1.648399 -0.180493,-0.902467 -0.1169,-3.212868 0.29971,-4.046073 0.356373,-0.712741 1.589435,-1.746048 2.397672,-1.948107 0.145378,-0.03634 0.310428,0.05566 0.449564,0 0.131174,-0.05247 0.173335,-0.236527 0.29971,-0.29971 0.08935,-0.04468 0.210354,0.04468 0.299708,0 0.04465,-0.02243 -0.0353,-0.114545 0,-0.149864 0.05838,-0.05838 0.507972,0 0.599419,0 1.533887,0 1.740645,0.391953 2.847234,1.498544 0.07898,0.07898 0.232696,0.06049 0.29971,0.149864 0.190689,0.25425 0.449565,1.765303 0.449565,2.097964 0,0.528233 0.127639,1.287741 0,1.798255 -0.09459,0.378366 -0.646318,0.889963 -0.749275,1.198837 -0.03158,0.09477 0.03158,0.204938 0,0.299707 -0.08758,0.262773 -0.452002,0.528149 -0.599417,0.749272 -0.142592,0.21391 -0.101699,0.70113 -0.29971,0.899127 -0.0353,0.03532 -0.127503,-0.04468 -0.149841,0 -0.130041,0.2601 -0.105233,0.607424 -0.29971,0.899128 -0.227018,0.340525 -0.566955,0.684342 -0.749272,1.048982 -0.04465,0.08935 0.03158,0.204938 0,0.299709 -0.320102,0.960299 -0.551472,1.690334 -0.29971,2.697382 0.02422,0.09692 -0.04465,0.210353 0,0.29971 0.02243,0.04468 0.114545,-0.03532 0.149864,0 0.07064,0.07064 -0.07064,0.229066 0,0.299707 0.0353,0.03532 0.127503,-0.04468 0.149864,0 0.04465,0.08935 -0.07064,0.229069 0,0.29971 0.07064,0.07064 0.229066,-0.07064 0.299708,0 0.07064,0.07064 -0.04465,0.210353 0,0.29971 0.01926,0.03856 0.508187,0.35833 0.599419,0.449562 0.259685,0.259687 0.590086,0.739941 0.899127,1.048982 0.0353,0.03532 0.114545,-0.03532 0.149864,0 0.182601,0.182601 0.266962,0.566672 0.449563,0.749272 0.0353,0.03532 0.127503,-0.04468 0.149864,0 0.04465,0.08935 -0.04465,0.210354 0,0.29971 0.06319,0.126371 0.21758,0.18473 0.299709,0.29971 0.333589,0.46702 0.55879,1.044757 0.899128,1.498544 0.208042,0.277386 0.593123,0.586826 0.749274,0.899128 0.12838,0.25678 0.29261,0.66371 0.44956,0.899127 0.23212,0.348178 0.48554,0.40763 0.59942,0.749272 0.17567,0.527007 0.4549,1.070343 0.59942,1.648399 0.10806,0.432247 0.0451,0.929571 0.14986,1.348692 0.0542,0.216719 0.2559,0.380367 0.29971,0.599417 0.0685,0.342481 0.0368,0.709676 0.14984,1.048982 0.10002,0.300086 0.36148,0.485009 0.44957,0.749273 0.0316,0.09477 -0.0447,0.210353 0,0.299709 0.0224,0.04468 0.11454,-0.03532 0.14986,0 0.0276,0.02762 0.12225,0.421951 0.14986,0.449563 0.31006,0.310054 -0.012,-0.473804 0.29971,0.149864 0.18455,0.369084 -0.43498,-0.135274 0.14987,0.449564 0.0353,0.03532 0.12752,-0.04468 0.14986,0 0.067,0.134028 -0.10596,0.3436 0,0.449563 0.0918,0.0918 0.39219,0.127571 0.44956,0.29971 0.21983,0.65946 0.51593,1.39791 0.74928,2.097964 0.062,0.186157 0.40267,0.411857 0.44956,0.599417 0.0484,0.193838 -0.0894,0.420707 0,0.599417 0.17408,0.348174 0.36478,0.625048 0.44956,1.048982 0.462,2.309965 0.14985,4.988205 0.14985,7.342872 0,1.83528 -0.0632,-0.44229 0.14986,1.048982 0.12277,0.859431 0.12182,3.642898 0,4.495636 -0.1005,0.703477 -0.27716,1.408366 -0.44956,2.097964 -0.0989,0.395693 -0.0752,1.050785 -0.14987,1.498544 -0.14914,0.894782 -0.0803,1.860094 -0.29971,2.847237 -0.075,0.337589 -0.91981,2.824878 -1.04898,2.997091 -0.32695,0.43594 -0.32241,-0.18618 -0.44956,0.449562 -0.12875,0.643758 -0.17053,0.640766 -0.44957,1.198837 -0.2513,0.502598 -0.45409,1.666531 -0.59941,2.247817 -0.22026,0.881044 -0.83104,1.675751 -1.04899,2.547526 -0.13495,0.539837 -0.27652,1.129293 -0.44956,1.648402 -0.12338,0.370158 -0.49698,0.789091 -0.59942,1.198835 -0.0242,0.09692 0.0371,0.206955 0,0.299709 -0.228,0.570005 -1.246505,2.595198 -1.648396,2.997092 -0.07898,0.07898 -0.237753,0.05696 -0.29971,0.149864 -0.05544,0.08312 0.05544,0.216583 0,0.299709 -0.06196,0.09293 -0.242243,0.05408 -0.299708,0.149864 -0.105958,0.176597 -0.07336,0.408192 -0.149864,0.599418 -0.149909,0.374768 -0.594682,0.662514 -0.749272,1.048982 -0.16135,0.403343 -0.275949,0.914652 -0.449565,1.348692 -0.128115,0.320298 -0.357557,0.956977 -0.599417,1.198834 -0.0353,0.0353 -0.114522,-0.0353 -0.149864,0 -0.06232,0.06233 -0.714567,1.959145 -0.749272,2.097964 -0.06647,0.265927 -0.460743,1.313642 -0.599418,1.498545 -0.127163,0.169551 -0.382548,0.248513 -0.449564,0.449564 -0.08892,0.266772 -0.06092,0.632356 -0.149864,0.899127 -0.111554,0.334642 -0.342082,0.726531 -0.449563,1.048982 -0.08926,0.267771 -0.09071,1.857398 0,1.94811 0.310055,0.310054 -0.01201,-0.473806 0.299708,0.149841 0.265645,0.531289 0.306561,1.226232 0.449565,1.798254 0.105301,0.421164 -0.08509,0.923183 0,1.348692 0.09762,0.488131 0.213932,0.98383 0.299709,1.498544 0.03285,0.1971 -0.04844,0.40558 0,0.599422 0.128206,0.51278 0.40176,0.40498 0.599418,0.89913 0.31154,0.77886 0.612054,1.72421 0.749272,2.54752 0.11391,0.68353 0.07984,1.28849 0.29971,1.94811 0.05994,0.17981 -0.05995,0.41959 0,0.59942 0.127186,0.38156 0.365063,0.65839 0.599417,1.04898 0.278983,0.46497 0.720944,1.56341 0.899127,2.09796 0.05779,0.17338 -0.08052,0.43839 0,0.59942 0.560378,1.12075 -0.04866,5.5407 -0.449562,6.74345 -0.07898,0.23695 -0.337868,0.37603 -0.449565,0.59942 -0.102107,0.20422 -0.110217,0.55978 -0.29971,0.74928 -1.060065,1.06007 -2.657549,1.54185 -4.195926,1.79825 -0.641245,0.10689 -2.290412,-0.0358 -2.847236,0.14986 -0.397773,0.1326 -0.629977,0.39719 -1.048982,0.44957 -0.446091,0.0557 -0.903647,-0.0636 -1.348689,0 -0.708536,0.10122 -1.43364,0.22812 -2.097964,0.44956 -0.435274,0.14511 -0.209085,0.15682 -0.599418,0.44956 -0.234809,0.1761 -0.798545,0.14781 -0.899127,0.44957 -0.03158,0.0948 0.07064,0.22906 0,0.29971 -0.622369,0.62237 -0.61664,0.0345 -1.048982,0.89913 -0.322913,0.64583 0.289316,1.58906 -0.149864,2.24781 -0.433314,0.64997 -0.800133,-0.54855 -1.198837,-0.14986 -0.03416,0.0342 -0.26376,1.19883 -0.149864,1.19883 0.04993,0 -0.0353,-0.11452 0,-0.14986 0.17875,-0.17875 0.95398,0.3229 1.04898,0.44957 0.09477,0.12637 0.0512,0.32621 0.149864,0.44956 0.112506,0.14064 0.308928,0.1872 0.449565,0.29971 0.195015,0.15602 0.249759,0.44956 0.449562,0.59941 0.126371,0.0948 0.323194,0.0551 0.449565,0.14987 0.08935,0.067 0.05693,0.23775 0.149864,0.29971 0.08312,0.0554 0.204938,-0.0316 0.299707,0 0.208247,0.0694 0.585716,0.7823 0.749273,0.89913 0.181785,0.12983 0.407863,0.18477 0.599419,0.2997 0.09579,0.0575 0.04993,0.24976 0.149864,0.29971 0.08935,0.0447 0.216584,-0.0554 0.299708,0 0.09293,0.062 0.06049,0.2327 0.149864,0.29971 0.25048,0.18786 0.749272,0.20236 0.749272,0.59942 0.776209,0.0778 0.385545,0.98504 0.749186,1.34868 0.127345,0.12735 0.337052,0.15906 0.449562,0.29971 0.326192,0.40774 0.362673,1.04215 0.899127,1.34869 0.891966,0.50969 2.700023,1.49854 3.596509,1.49854 1.925744,1.52526 4.007926,0.21362 6.144035,0 1.709771,-0.17097 3.564361,-0.56882 5.244911,-1.04898 0.52732,-0.15065 0.98935,-0.42968 1.49854,-0.59941 0.28808,-0.096 0.76035,-0.1554 1.04899,-0.29971 1.41348,-0.70674 -0.0328,-0.0281 0.59941,-0.44957 0.99577,-0.66384 2.14627,-1.13114 3.14695,-1.79825 0.27704,-0.18469 0.0929,-0.25469 0.29971,-0.59942 0.19934,-0.33224 0.65379,-0.74232 0.89912,-1.04898 0.25941,-0.32425 0.67037,-0.40613 0.89913,-0.74928 0.26292,-0.39437 0.77424,-1.28624 1.19884,-1.49854 0.0893,-0.0447 0.20695,0.0371 0.29971,0 0.71376,-0.2855 1.37086,-0.95647 2.09796,-1.19884 0.14216,-0.0474 0.30262,0.0294 0.44956,0 0.51544,-0.10308 0.94494,-0.37047 1.49855,-0.44956 1.58451,-0.22637 3.8772,0 5.54462,0 0.93339,0 -0.37325,0.0447 0.59942,-0.14986 0.49275,-0.0985 1.17229,0.0529 1.64839,0 0.70479,-0.0783 1.3628,-0.14987 2.09797,-0.14987 0.61376,0 1.33836,-0.0871 1.94811,0 0.70852,0.10123 0.85456,0.53462 1.49854,0.74928 0.33906,0.11302 0.72799,0.059 1.04898,0.29971 0.11303,0.0848 0.17334,0.23652 0.29971,0.2997 0.13403,0.067 0.3436,-0.10595 0.44957,0 0.10976,0.10977 0.25526,0.46989 0.44956,0.59942 0.33574,0.22384 0.63837,0.25174 0.89913,0.59942 0.70602,0.94137 0.80534,2.67901 0.44956,3.74636 -0.0498,0.14923 -0.24996,0.30034 -0.29971,0.44957 -0.0316,0.0948 0.0599,0.21978 0,0.29971 -0.10806,0.14408 -0.32221,0.17236 -0.44956,0.29971 -0.76582,0.76581 0.62833,-0.20902 -0.44957,0.59941 -1.80423,1.35318 -5.19413,1.20609 -7.34287,0.89913 -0.71491,-0.10213 -1.5223,0 -2.24781,0 -1.69836,0 -3.39671,0 -5.09506,0 -2.21281,0 -4.81433,0.56908 -6.89331,1.34869 -0.49762,0.18661 -1.19534,0.47744 -1.6484,0.74927 -0.12116,0.0727 -0.17333,0.23653 -0.29971,0.29971 -0.34522,0.17261 -0.37752,-0.12895 -0.74927,0.14987 -1.14967,0.86225 -2.23461,1.85291 -3.59651,2.39767 -1.03487,0.41395 0.1288,-0.0557 -0.89912,0.14986 -0.26659,0.0533 -0.52583,0.22522 -0.74928,0.29971 -0.35586,0.11862 -0.82934,-0.0739 -1.19883,0 -0.48876,0.0978 -1.0221,0.18061 -1.49855,0.29971 -0.35343,0.0884 -0.69555,0.36121 -1.04898,0.44956 -0.26402,0.066 -0.494281,0.0649 -0.749274,0.14985 -0.242891,0.081 -0.536504,0.39637 -0.749272,0.44956 -0.235478,0.0589 -1.062994,0.10904 -1.34869,0.14986 -0.99356,0.14194 -2.147422,0 -3.146946,0 -2.247816,0 -4.495635,0 -6.743452,0 -0.289651,0 -1.770957,0.0273 -1.948109,-0.14986 -0.07898,-0.079 -0.05691,-0.23775 -0.149864,-0.29971 -0.08312,-0.0554 -0.204939,0.0316 -0.29971,0 -0.363269,-0.12109 -0.868844,-0.52928 -1.198835,-0.74927 -0.296871,0.015 -0.07086,-0.22073 -0.149864,-0.29971 -0.162754,-0.16273 -1.365986,-0.83285 -1.498546,-0.89913 -0.267719,-0.13387 -0.280639,-0.53811 -0.449563,-0.74927 -0.301465,-0.37683 -0.595724,-0.59572 -0.899127,-0.89913 -0.568427,-0.56842 -0.08392,-0.28972 -0.449565,-0.89912 -0.09991,-0.0999 -0.199796,-0.1998 -0.299707,-0.29971 -0.04995,0 -0.114545,0.0353 -0.149864,0 -0.134776,-0.13478 -0.284341,-0.58405 -0.449565,-0.74928 -0.295799,-0.29579 -1.682167,-0.2538 -2.097962,-0.14986 -0.568649,0.14216 -2.291672,1.09284 -2.697381,1.49854 -0.207091,0.20709 -0.275942,0.72551 -0.449565,0.89913 -0.11169,0.11169 -0.314114,0.0686 -0.449562,0.14987 -0.322376,0.19342 -0.728253,0.5889 -1.048982,0.74927 -0.886223,0.44311 0.320509,-0.54009 -0.59942,0.14986 -0.113026,0.0848 -0.173334,0.23653 -0.299707,0.29971 -0.506432,0.25322 -1.14197,0.3462 -1.6484,0.59942 -0.12637,0.0632 -0.178568,0.22702 -0.299709,0.29971 -0.624166,0.3745 -1.439861,0.46722 -2.097964,0.74927 -0.387402,0.0161 -0.463194,0.45638 -0.749273,0.59942 -0.08935,0.0447 -0.206955,-0.0371 -0.299709,0 -0.357583,0.14304 -0.658618,0.50183 -1.048982,0.59941 -2.171408,0.54286 -4.50425,0.59942 -6.893308,0.59942 -0.610047,0 -1.664516,0.19443 -2.247816,0 -0.06701,-0.0224 -0.08133,-0.13271 -0.149864,-0.14986 -0.145378,-0.0363 -0.310428,0.0557 -0.449565,0 -0.131173,-0.0525 -0.169846,-0.24405 -0.299707,-0.29971 -0.234112,-0.10034 -0.510788,-0.0604 -0.749275,-0.14986 -0.322301,-0.12087 -0.425034,-0.36851 -0.749272,-0.44957 -1.076846,-0.26921 -2.214314,-0.68815 -3.296799,-1.04898 -1.456746,-0.48558 -3.046511,-0.56594 -4.495635,-1.04898 -0.246135,-0.082 -1.463858,-0.46101 -1.6484,-0.59942 -0.08935,-0.067 -0.05408,-0.24224 -0.149864,-0.29971 -0.535989,-0.32159 -1.363322,-0.40448 -1.948109,-0.59941 -0.60154,-0.20052 -1.577615,-0.55223 -2.097964,-0.89913 -0.09293,-0.062 -0.05691,-0.23775 -0.149864,-0.29971 -0.08312,-0.0554 -0.204939,0.0316 -0.299707,0 -0.28355,-0.0945 -0.612886,-0.49208 -0.899128,-0.59942 -0.463522,-0.17381 -1.831022,-0.48609 -2.397673,-0.59942 -0.478131,-0.0956 -1.014363,0.0605 -1.498545,0 -1.438214,-0.17977 -2.883933,-0.14986 -4.345781,-0.14986 -1.451403,0 -4.506403,-0.223 -5.844327,0 -0.898047,0.14968 -1.284204,0.47802 -2.097964,0.74927 -0.318443,0.10614 -0.860185,0 -1.198835,0 -0.01155,0 -0.731959,0.0346 -0.749272,0 -0.04468,-0.0893 0.03158,-0.20494 0,-0.29971 -0.285534,-0.8566 -0.02861,0.90592 -0.29971,-0.44956 -0.149297,-0.74645 0.181967,-1.58416 -0.149864,-2.24782 -0.05995,-0.11989 0.05995,-0.32968 0,-0.44956 -0.143135,-0.28629 -0.185206,-0.63478 -0.449562,-0.89913 -0.07898,-0.079 -0.220729,-0.0709 -0.29971,-0.14986 -0.237682,-0.23769 -0.506003,-1.08596 -0.29971,-1.49855 0.333947,-0.66789 2.642631,-2.30488 3.296801,-2.69738 0.483887,-0.29034 1.410045,-0.34195 1.948109,-0.44956 1.099701,-0.21994 2.360771,0.27147 3.446654,0 0.485197,-0.1213 1.016492,-0.0293 1.498544,-0.14987 2.535959,-0.84532 -0.332133,0.005 1.498545,-0.29971 0.220344,-0.0367 0.382698,-0.24553 0.599419,-0.29971 0.58152,-0.14537 4.416409,-0.32612 4.945198,-0.14986 0.211917,0.0706 0.384624,0.23834 0.59942,0.29971 0.553405,0.15811 1.233894,0.009 1.798254,0.14986 0.376004,0.094 0.818398,-0.0761 1.198835,0 0.875326,0.17506 1.823284,0.23104 2.697381,0.44957 0.188061,0.047 0.411366,-0.047 0.59942,0 0.579639,0.1449 1.515953,0.46697 1.948109,0.89912 0.07898,0.079 0.07086,0.22073 0.149864,0.29971 0.157952,0.15795 0.441459,0.14176 0.59942,0.29971 0.03532,0.0353 -0.04468,0.12753 0,0.14986 0.08935,0.0447 0.204938,-0.0316 0.299707,0 0.164228,0.0547 0.303815,0.3524 0.449565,0.44957 0.363371,0.24224 0.892342,0.44278 1.198837,0.74927 0.256538,0.25654 0.427752,0.50813 0.749272,0.74927 0.351971,0.26398 0.831982,0.35485 1.198835,0.59942 0.117557,0.0784 0.173334,0.23653 0.299709,0.29971 0.153671,0.0769 0.445748,0.073 0.599418,0.14986 0.733438,0.36672 0.191753,0.18127 0.749274,0.59942 0.223108,0.16733 2.139272,1.1127 2.397672,1.19884 0.854616,0.28487 1.767753,0.41349 2.697381,0.59942 0.391611,0.0783 0.920022,0.34239 1.348692,0.44956 0.481445,0.12037 3.182143,0.11285 3.746361,0 0.453468,-0.0907 0.751921,-0.36018 1.198837,-0.44956 0.146942,-0.0294 0.307399,0.0474 0.449565,0 0.04739,-0.0159 -0.04468,-0.12753 0,-0.14987 0.340344,-0.17016 0.967246,-0.20435 1.348689,-0.29971 0.394851,-0.0987 0.80563,-0.44213 1.198837,-0.59941 0.191233,-0.0765 0.453786,-0.004 0.599418,-0.14987 0.03532,-0.0353 -0.03532,-0.11454 0,-0.14986 0.05231,-0.0523 0.418461,0.0622 0.449564,0 0.04468,-0.0893 -0.07064,-0.22907 0,-0.29971 0.05299,-0.053 0.493455,-0.0439 0.599418,-0.14987 0.03532,-0.0353 -0.03532,-0.11454 0,-0.14986 0.123357,-0.12336 0.585568,-0.28586 0.749272,-0.44956 0.111078,-0.11108 0.113706,-0.26357 0.29971,-0.44957 0.07492,-0.0749 0.224784,-0.0749 0.299709,-0.14986 0.268292,-0.26829 0.632565,-0.93228 0.899128,-1.19884 0.03532,-0.0353 0.09991,0 0.149841,0 0.09991,-0.0999 0.214929,-0.18667 0.29971,-0.29971 0.331918,-0.44255 1.233146,-3.16864 1.348691,-3.74636 0.132329,-0.66164 0.390573,-1.32158 0.599418,-1.94811 0.02825,-0.0847 -0.06019,-0.38937 0,-0.44956 0.03532,-0.0353 0.127526,0.0447 0.149864,0 0.169075,-0.33817 0.149864,-0.78829 0.149864,-1.19884 0,-0.52605 0.195899,-1.18348 0.149841,-1.19883 -0.189556,-0.0632 -0.420704,0.0893 -0.599417,0 -1.227435,-0.61372 -2.815223,-0.72654 -4.195926,-0.89913 -0.487345,-0.0609 -1.014003,0.0808 -1.498547,0 -0.996852,-0.16615 -2.019559,-0.4365 -2.997089,-0.59942 -0.344904,-0.0575 -0.709761,0.0848 -1.048982,0 -0.06853,-0.0172 -0.08058,-0.136 -0.149864,-0.14986 -0.195922,-0.0392 -0.401619,0.0282 -0.599417,0 -0.464461,-0.0664 -1.063472,-0.30454 -1.498547,-0.44957 -0.543266,-0.18108 -0.106638,-0.0711 -0.449562,-0.29971 -0.51314,-0.34209 -1.236193,-0.56191 -1.798254,-0.74927 -0.467746,-0.15591 0.04995,-0.0999 -0.149864,-0.29971 -0.189012,-0.18901 -0.513115,-0.36326 -0.749273,-0.59941 -0.17705,-0.17705 -0.672079,-1.33963 -0.749272,-1.6484 -0.08677,-0.34708 0,-0.83948 0,-1.19884 0,-0.85529 -0.203285,-2.03409 0,-2.84724 0.161373,-0.64553 0.291819,-1.31713 0.449563,-1.94811 0.09409,-0.37637 0.84994,-1.61637 1.048982,-1.94811 0.217693,-0.3628 0.15888,-0.84676 0.299709,-1.19883 0.341985,-0.85496 0.231371,-0.0947 0.449563,-0.74927 0.299993,-0.89998 0.693336,-1.80827 1.048982,-2.69738 0.09529,-0.23821 0.354281,-0.51108 0.449562,-0.74928 0.4972,-1.24299 0.499898,-2.698524 0.899127,-3.896214 0.117581,-0.352714 -0.08983,-0.839544 0,-1.198837 0.01722,-0.06853 0.11826,-0.08668 0.149864,-0.149864 0.03158,-0.06314 0.207001,-3.22061 0.149864,-3.296799 -0.127163,-0.169551 -0.299707,-0.29971 -0.449562,-0.449565 z"
       id="path1200" />
    <text
       xml:space="preserve"
       style="font-size:152.345px;line-height:1.25;font-family:'Chess Leipzig';-inkscape-font-specification:'Chess Leipzig';fill:#000000;fill-opacity:1;stroke:#000000;stroke-width:1.00956;stroke-miterlimit:4;stroke-dasharray:none;stroke-opacity:1"
       x="3.0620043"
       y="152.07489"
       id="text76144"
       transform="scale(0.97979342,1.0206233)"><tspan
         sodipodi:role="line"
         id="tspan76142"
         style="fill:#000000;fill-opacity:1;stroke:#000000;stroke-width:1.00956;stroke-miterlimit:4;stroke-dasharray:none;stroke-opacity:1"
         x="3.0620043"
         y="152.07489">b</tspan></text>
    <path
       style="fill:#ffffff;fill-opacity:1;stroke:#ffffff;stroke-width:1.26909;stroke-linecap:round;stroke-linejoin:round;stroke-miterlimit:4;stroke-dasharray:none;stroke-opacity:1"
       d=""
       id="path8771"
       transform="scale(0.26458333)" />
  </g>
</svg>
