<?xml version="1.0" encoding="UTF-8" standalone="no"?>
<!-- Created with Inkscape (http://www.inkscape.org/) -->

<svg
   width="210mm"
   height="297mm"
   viewBox="0 0 210 297"
   version="1.1"
   id="svg5"
   inkscape:version="1.1.2 (b8e25be833, 2022-02-05)"
   sodipodi:docname="White_Bishop.svg"
   xmlns:inkscape="http://www.inkscape.org/namespaces/inkscape"
   xmlns:sodipodi="http://sodipodi.sourceforge.net/DTD/sodipodi-0.dtd"
   xmlns:xlink="http://www.w3.org/1999/xlink"
   xmlns="http://www.w3.org/2000/svg"
   xmlns:svg="http://www.w3.org/2000/svg">
  <sodipodi:namedview
     id="namedview7"
     pagecolor="#ffffff"
     bordercolor="#cccccc"
     borderopacity="1"
     inkscape:pageshadow="0"
     inkscape:pageopacity="0"
     inkscape:pagecheckerboard="true"
     inkscape:document-units="mm"
     showgrid="false"
     inkscape:zoom="4"
     inkscape:cx="1005.5"
     inkscape:cy="218.75"
     inkscape:window-width="1920"
     inkscape:window-height="1057"
     inkscape:window-x="-8"
     inkscape:window-y="-8"
     inkscape:window-maximized="1"
     inkscape:current-layer="layer1"
     showborder="false" />
  <defs
     id="defs2">
    <linearGradient
       inkscape:collect="always"
       id="linearGradient2415">
      <stop
         style="stop-color:#ffffff;stop-opacity:1;"
         offset="0"
         id="stop2411" />
      <stop
         style="stop-color:#ffffff;stop-opacity:0;"
         offset="1"
         id="stop2413" />
    </linearGradient>
    <linearGradient
       inkscape:collect="always"
       xlink:href="#linearGradient2415"
       id="linearGradient2417"
       x1="252.76004"
       y1="56.705269"
       x2="289.05634"
       y2="56.705269"
       gradientUnits="userSpaceOnUse" />
  </defs>
  <g
     inkscape:label="Livello 1"
     inkscape:groupmode="layer"
     id="layer1">
    <text
       xml:space="preserve"
       style="font-size:40px;line-height:1.25;font-family:'Chess Condal';-inkscape-font-specification:'Chess Condal';stroke:none;stroke-width:0.264583;stroke-opacity:1;fill:#ffffff;fill-opacity:1"
       x="87.548508"
       y="91.29937"
       id="text29524"><tspan
         sodipodi:role="line"
         id="tspan29522"
         style="stroke:none;stroke-width:0.264583;stroke-opacity:1;fill:#ffffff;fill-opacity:1"
         x="87.548508"
         y="91.29937" /></text>
    <text
       xml:space="preserve"
       style="font-size:40px;line-height:1.25;font-family:'Chess Leipzig';-inkscape-font-specification:'Chess Leipzig';stroke-width:0.264583"
       x="254.01411"
       y="94.275764"
       id="text58610"><tspan
         sodipodi:role="line"
         id="tspan58608"
         style="stroke-width:0.264583"
         x="254.01411"
         y="94.275764" /></text>
    <text
       xml:space="preserve"
       style="font-size:40px;line-height:1.25;font-family:'Chess Leipzig';-inkscape-font-specification:'Chess Leipzig';stroke-width:0.265;fill:#000003;fill-opacity:1;stroke:#000000;stroke-opacity:1;stroke-miterlimit:4;stroke-dasharray:none"
       x="250.88147"
       y="76.636909"
       id="text76144"><tspan
         sodipodi:role="line"
         id="tspan76142"
         style="stroke-width:0.265;fill:#000003;fill-opacity:1;stroke:#000000;stroke-opacity:1;stroke-miterlimit:4;stroke-dasharray:none"
         x="250.88147"
         y="76.636909">b</tspan></text>
    <path
       style="fill:#ffffff;fill-opacity:1;stroke:#010000;stroke-width:0.228183;stroke-linecap:round;stroke-linejoin:round;stroke-miterlimit:4;stroke-dasharray:none;stroke-opacity:1"
       d="m 1007.0771,224.35038 c -4.5089,-9.76654 -6.6859,-16.78788 -7.30727,-23.56731 -0.63579,-6.93738 1.37657,-13.19428 6.38917,-19.86585 3.3309,-4.43318 9.7188,-10.2705 15.7372,-14.38078 2.6442,-1.80584 2.1121,-1.86539 5.5932,0.62593 9.313,6.66492 15.2048,12.90278 18.5636,19.65389 2.3648,4.75332 3.2573,9.21179 2.7597,13.78603 -0.656,6.03028 -2.8274,12.86364 -6.9419,21.84642 -0.8267,1.80473 -1.5459,3.32419 -1.5982,3.37656 -0.052,0.0524 -0.8022,-0.11533 -1.6663,-0.37266 -7.4068,-2.20582 -21.4509,-2.2118 -29.1418,-0.0124 -0.8616,0.24639 -1.5915,0.44798 -1.622,0.44798 -0.03,0 -0.3749,-0.69201 -0.7654,-1.53781 z m 22.5767,-17.0299 v -8.77125 h 4.6704 4.6704 v -5.69562 -5.69561 h -4.6704 -4.6704 v -6.26518 -6.26518 h -5.6957 -5.6956 v 6.26518 6.26518 h -4.6704 -4.6704 v 5.69561 5.69562 h 4.6704 4.6704 v 8.77125 8.77125 h 5.6956 5.6957 z"
       id="path3393"
       transform="scale(0.26458333)" />
    <path
       style="fill:#ffffff;fill-opacity:1;stroke:#010000;stroke-width:0.0285229;stroke-linecap:round;stroke-linejoin:round;stroke-miterlimit:4;stroke-dasharray:none;stroke-opacity:1"
       d="m 1022.6339,203.03453 v -8.82821 h -4.7274 -4.7273 v -1.36695 -1.36694 h 4.7273 4.7274 v -6.3079 -6.3079 h 1.367 1.3669 v 6.3079 6.3079 h 4.7131 4.7132 v 1.36694 1.36695 h -4.7132 -4.7131 v 8.82821 8.82821 h -1.3669 -1.367 z"
       id="path3432"
       transform="scale(0.26458333)" />
    <path
       style="fill:#ffffff;fill-opacity:1;stroke:#010000;stroke-width:0.0285229;stroke-linecap:round;stroke-linejoin:round;stroke-miterlimit:4;stroke-dasharray:none;stroke-opacity:1"
       d="m 1051.2961,190.01472 c -0.6924,-2.09318 -2.173,-5.86633 -3.0597,-7.79767 -0.2571,-0.5598 -0.9205,-1.87932 -1.2099,-2.4064 -2.1998,-4.00607 -4.8195,-7.21768 -8.0553,-9.87543 -0.4805,-0.39469 -1.452,-1.12911 -1.8355,-1.38766 l -0.2323,-0.15662 -0.079,-0.22783 c -0.064,-0.18586 -0.079,-0.27793 -0.079,-0.49984 -7e-4,-0.25912 0,-0.28261 0.1097,-0.49537 0.1871,-0.37861 0.6832,-0.81164 1.2281,-1.07188 0.5593,-0.26718 0.9325,-0.30498 1.4096,-0.1428 0.4949,0.16819 0.6137,0.25085 1.0066,0.70009 3.7111,4.24361 6.5371,9.32343 8.5949,15.44982 0.4732,1.40875 1.1657,3.70774 1.6298,5.41084 0.338,1.24015 0.7175,2.78385 0.691,2.81036 -0.01,0.007 -0.06,-0.13242 -0.1191,-0.30961 z"
       id="path3471"
       transform="scale(0.26458333)" />
    <path
       style="fill:#ffffff;fill-opacity:1;stroke:#010000;stroke-width:0.0100844;stroke-linecap:round;stroke-linejoin:round;stroke-miterlimit:4;stroke-dasharray:none;stroke-opacity:1"
       d="m 1022.9067,158.25152 c -1.0827,-0.0928 -1.7051,-0.5223 -1.9837,-1.3688 -0.1055,-0.32083 -0.1527,-0.67699 -0.1521,-1.14782 9e-4,-0.68202 0.1149,-1.18514 0.36,-1.58956 0.2542,-0.41947 0.6977,-0.70941 1.2788,-0.83597 0.2611,-0.0569 0.4179,-0.0726 0.7822,-0.0786 0.5451,-0.009 0.8799,0.0333 1.2603,0.15921 0.4928,0.16304 0.8354,0.44726 1.0573,0.87697 0.1919,0.37172 0.2819,0.79198 0.2939,1.37232 0.022,1.08988 -0.2591,1.81954 -0.8574,2.22182 -0.2874,0.19322 -0.6684,0.31932 -1.1381,0.37671 -0.1545,0.0189 -0.7376,0.0278 -0.9012,0.0137 z"
       id="path3510"
       transform="scale(0.26458333)" />
    <path
       style="fill:#ffffff;fill-opacity:1;stroke:#010000;stroke-width:0.0142615;stroke-linecap:round;stroke-linejoin:round;stroke-miterlimit:4;stroke-dasharray:none;stroke-opacity:1"
       d="m 1040.6036,158.6927 c -1.1204,-0.1085 -1.7553,-0.52327 -2.0632,-1.34795 -0.272,-0.72827 -0.2692,-1.90297 0.01,-2.59596 0.2567,-0.64615 0.7444,-1.03633 1.5089,-1.2072 0.305,-0.0682 0.4978,-0.0857 0.9469,-0.0859 0.4489,-2.4e-4 0.6385,0.017 0.9462,0.0858 0.436,0.0975 0.7915,0.27035 1.0518,0.51136 0.2857,0.2645 0.4954,0.67534 0.592,1.15988 0.1165,0.58415 0.1006,1.30316 -0.041,1.8582 -0.1058,0.41428 -0.2765,0.73289 -0.5265,0.98288 -0.2555,0.25549 -0.5543,0.41785 -0.9714,0.52783 -0.3276,0.0864 -0.5129,0.10764 -0.9797,0.1124 -0.2271,0.002 -0.4386,0.002 -0.4699,-0.001 z"
       id="path3549"
       transform="scale(0.26458333)" />
    <path
       style="fill:#ffffff;fill-opacity:1;stroke:#010000;stroke-width:0.0201688;stroke-linecap:round;stroke-linejoin:round;stroke-miterlimit:4;stroke-dasharray:none;stroke-opacity:1"
       d="m 1021.0743,239.25211 c -1.57,-0.65548 -2.8542,-1.19635 -2.854,-1.20192 3e-4,-0.006 1.2904,-0.54689 2.8669,-1.20293 l 2.8664,-1.1928 2.8923,1.19272 c 1.5908,0.656 2.8923,1.19817 2.8923,1.20482 0,0.0131 -5.7106,2.37211 -5.7721,2.38442 -0.021,0.004 -1.3219,-0.52882 -2.8918,-1.18431 z"
       id="path3588"
       transform="scale(0.26458333)" />
    <path
       style="fill:#ffffff;fill-opacity:1;stroke:#010000;stroke-width:0.0403375;stroke-linecap:round;stroke-linejoin:round;stroke-miterlimit:4;stroke-dasharray:none;stroke-opacity:1"
       d="m 1038.1857,233.42279 c -0.471,-0.1269 -2.0096,-0.43616 -2.9803,-0.59903 -6.1776,-1.03657 -14.8734,-1.10885 -21.3384,-0.17736 -1.2892,0.18575 -3.5476,0.60812 -3.9814,0.74458 -0.061,0.0191 -0.058,-0.0101 0.023,-0.27252 0.4433,-1.43147 1.0079,-3.23654 1.0158,-3.24768 0.041,-0.0576 2.3236,-0.47751 3.5196,-0.64737 2.7746,-0.39407 5.1596,-0.55944 8.5784,-0.59482 4.4547,-0.0461 7.7542,0.18582 11.5394,0.81108 0.7558,0.12486 2.427,0.45335 2.734,0.53743 0.1161,0.0318 0.1211,0.0461 0.6113,1.76145 0.2719,0.95117 0.4911,1.73145 0.4871,1.73395 0,0.002 -0.098,-0.0199 -0.2086,-0.0497 z"
       id="path3627"
       transform="scale(0.26458333)" />
    <path
       style="fill:#ffffff;fill-opacity:1;stroke:#010000;stroke-width:0.0403375;stroke-linecap:round;stroke-linejoin:round;stroke-miterlimit:4;stroke-dasharray:none;stroke-opacity:1"
       d="m 1037.6096,240.22914 c -1.4244,-0.92246 -2.5752,-1.69054 -2.5574,-1.70682 0.028,-0.0261 4.7793,-1.05145 4.7867,-1.03315 0,0.004 0.2904,0.94054 0.6416,2.0813 0.3513,1.14077 0.6452,2.09302 0.6531,2.11613 0.012,0.0345 -0.7467,0.22123 -0.8939,0.22008 -0.022,-1.7e-4 -1.2057,-0.75507 -2.6301,-1.67754 z"
       id="path3666"
       transform="scale(0.26458333)" />
    <path
       style="fill:#ffffff;fill-opacity:1;stroke:#010000;stroke-width:0.0403375;stroke-linecap:round;stroke-linejoin:round;stroke-miterlimit:4;stroke-dasharray:none;stroke-opacity:1"
       d="m 1007.4163,241.85229 c -0.1624,-0.0398 -0.1997,-0.0647 -0.1927,-0.12855 0.01,-0.0822 1.2103,-4.21362 1.2292,-4.2271 0.01,-0.004 1.0295,0.22046 2.2748,0.49924 1.7407,0.38968 2.2529,0.51778 2.2151,0.55404 -0.1441,0.13835 -5.1393,3.33382 -5.2243,3.34204 -0.055,0.005 -0.1913,-0.0125 -0.3021,-0.0397 z"
       id="path3705"
       transform="scale(0.26458333)" />
    <path
       style="fill:#ffffff;fill-opacity:1;stroke:#010000;stroke-width:0.0403375;stroke-linecap:round;stroke-linejoin:round;stroke-miterlimit:4;stroke-dasharray:none;stroke-opacity:1"
       d="m 1022.038,253.3028 c -6.15,-0.16499 -11.4552,-0.9761 -14.662,-2.24163 -2.1045,-0.83054 -2.9985,-1.73023 -2.5712,-2.58762 0.8374,-1.68048 6.5693,-3.31791 13.4654,-3.84665 3.506,-0.26881 7.7361,-0.29183 11.2767,-0.0614 6.5551,0.42669 12.4371,1.87775 14.0174,3.45803 0.5828,0.58281 0.5988,1.12598 0.05,1.70127 -1.5484,1.62343 -7.1139,2.99881 -13.9064,3.43662 -2.2262,0.14348 -5.4058,0.20208 -7.67,0.14134 z"
       id="path3744"
       transform="scale(0.26458333)" />
    <path
       style="fill:#ffffff;fill-opacity:1;stroke:#010000;stroke-width:0.0201688;stroke-linecap:round;stroke-linejoin:round;stroke-miterlimit:4;stroke-dasharray:none;stroke-opacity:1"
       d="m 1005.1307,274.41718 c -0.2381,-0.0194 -0.4352,-0.0363 -0.4379,-0.0376 0,-10e-4 -0.01,-0.72121 -0.01,-1.59994 v -1.59769 l 0.4884,-0.0134 c 0.6982,-0.0192 2.4265,-0.11299 3.0356,-0.16479 2.5457,-0.21644 4.3279,-0.61536 5.4974,-1.23051 0.2684,-0.14115 0.5591,-0.33423 1.0169,-0.67553 1.0705,-0.79787 2.0436,-1.66153 2.9019,-2.57561 0.4741,-0.50489 0.5266,-0.56474 0.7229,-0.82389 0.8556,-1.12978 1.6456,-2.88847 2.4062,-5.35639 0.1478,-0.47958 0.2021,-0.62643 0.3163,-0.85506 0.2687,-0.53802 0.7277,-0.9768 1.3157,-1.25771 0.3548,-0.16947 0.8129,-0.30072 1.2925,-0.37029 0.1777,-0.0258 0.218,-0.025 0.4364,0.008 0.6232,0.0951 1.1898,0.30268 1.6332,0.59856 0.2405,0.1605 0.5856,0.50944 0.7507,0.75918 0.2079,0.31449 0.3169,0.5684 0.566,1.31927 0.8566,2.58123 1.6645,4.29843 2.5327,5.38281 0.3401,0.42475 1.1189,1.22778 1.7789,1.83433 0.7714,0.70884 1.8509,1.57036 2.3225,1.85355 1.0977,0.6591 2.9681,1.12202 5.4504,1.34892 0.7175,0.0656 2.0185,0.1504 2.3208,0.15129 l 0.065,2e-4 v 1.67384 1.67384 l -1.5556,-0.0109 c -1.5736,-0.011 -1.9535,-0.0261 -2.6476,-0.10507 -2.8196,-0.32073 -5.275,-1.3453 -7.4028,-3.08904 -0.3683,-0.30177 -0.6668,-0.57282 -1.2414,-1.12722 -2.7125,-2.61694 -4.0166,-3.82411 -4.4342,-4.1046 -0.2591,-0.17409 -0.4974,-0.17418 -0.7571,-3e-4 -0.3797,0.2542 -1.872,1.65443 -4.2224,3.96179 -0.3441,0.3378 -0.7296,0.70562 -0.8567,0.81739 -2.3157,2.0363 -4.925,3.1981 -7.9536,3.54138 -0.8029,0.091 -1.4196,0.11113 -3.3227,0.10847 -1.3147,-0.002 -1.6536,-0.008 -2.0137,-0.0376 z"
       id="path3783"
       transform="scale(0.26458333)" />
    <path
       style="fill:#ffffff;fill-opacity:1;stroke:#010000;stroke-width:0.0570459;stroke-linecap:round;stroke-linejoin:round;stroke-miterlimit:4;stroke-dasharray:none;stroke-opacity:1"
       d="m 1004.4222,274.34234 c -1.3335,-0.091 -4.2379,-0.48884 -5.29696,-0.72549 -1.37948,-0.30824 -3.23315,-0.89671 -5.23996,-1.6635 -0.83851,-0.32039 -1.07511,-0.44074 -1.76565,-0.89817 -4.30497,-2.85171 -8.34903,-4.4585 -12.13166,-4.82016 -0.8802,-0.0842 -3.41456,-0.0313 -4.30019,0.0897 -0.91258,0.12468 -1.72674,0.28829 -2.58146,0.51876 -0.82834,0.22336 -0.95749,0.28072 -1.43395,0.63686 -0.29217,0.21838 -1.94261,1.0965 -2.06089,1.0965 -0.0222,0 0.0378,-0.0833 0.13343,-0.18511 0.664,-0.70726 0.9182,-1.53957 0.65036,-2.12942 -0.30798,-0.67825 -1.35578,-1.37485 -3.12848,-2.07988 -0.39626,-0.1576 -0.7422,-0.30718 -0.76876,-0.3324 -0.106,-0.10067 1.53643,-0.39203 3.23783,-0.57437 0.98942,-0.10604 1.25888,-0.15797 2.05042,-0.39515 3.55317,-1.0647 7.39663,-1.25348 10.93559,-0.53713 2.3377,0.4732 4.28176,1.15858 6.77778,2.3895 2.05593,1.0139 4.06553,2.24703 5.97001,3.66332 1.1663,0.86733 2.822,1.70153 4.36688,2.20019 1.18216,0.38158 1.95926,0.4989 3.82296,0.57717 l 0.9459,0.0397 0.03,1.5723 c 0.017,0.86477 0.027,1.5723 0.022,1.5723 0,0 -0.1103,-0.007 -0.2356,-0.0156 z"
       id="path3822"
       transform="scale(0.26458333)" />
    <path
       style="fill:#ffffff;fill-opacity:1;stroke:#010000;stroke-width:0.0142615;stroke-linecap:round;stroke-linejoin:round;stroke-miterlimit:4;stroke-dasharray:none;stroke-opacity:1"
       d="m 1041.5505,272.78265 v -1.66781 l 0.1103,0.009 c 0.5609,0.0452 1.9378,0.0587 2.5951,0.0255 0.7309,-0.0369 1.5205,-0.10282 1.9151,-0.1599 1.3716,-0.19837 3.0329,-0.79457 4.8255,-1.73182 0.5169,-0.27026 0.5478,-0.28877 0.7742,-0.46415 1.4091,-1.09156 3.0773,-2.21622 4.5599,-3.07408 0.2819,-0.1631 0.8787,-0.49572 0.8894,-0.49572 0,0 0.01,1.0917 0.01,2.42599 v 2.42598 l -0.1602,0.0971 c -0.5363,0.32497 -1.0385,0.6472 -1.6796,1.07749 l -0.4656,0.31257 -0.4813,0.1916 c -2.5381,1.01048 -4.8803,1.73498 -6.5491,2.02578 -1.9802,0.34506 -4.8755,0.67042 -5.9659,0.67042 h -0.3755 z"
       id="path3861"
       transform="scale(0.26458333)" />
    <path
       style="fill:#ffffff;fill-opacity:1;stroke:#010000;stroke-width:0.0221319;stroke-linecap:round;stroke-linejoin:round;stroke-miterlimit:4;stroke-dasharray:none;stroke-opacity:1"
       d="m 1057.2462,267.63015 v -2.4251 l 0.7237,-0.36625 c 1.4942,-0.75622 2.673,-1.25376 4.0713,-1.71844 2.0462,-0.67993 3.8928,-1.04444 6.0546,-1.19517 0.4985,-0.0348 2.033,-0.0351 2.5744,-6.2e-4 2.1642,0.13795 4.009,0.48298 5.922,1.10762 0.3013,0.0984 0.3665,0.11149 0.7181,0.14414 1.1013,0.10228 2.2456,0.24871 2.9458,0.37695 0.3858,0.0707 0.9538,0.20234 1.0778,0.24988 l 0.053,0.0205 -0.055,0.0218 c -0.03,0.012 -0.2044,0.0791 -0.3867,0.14911 -2.7953,1.07354 -3.8897,2.05663 -3.5908,3.2255 0.092,0.35889 0.2889,0.71771 0.6283,1.14356 0.1041,0.13064 0.1854,0.23754 0.1807,0.23754 -0.012,0 -0.8051,-0.38437 -1.507,-0.73003 -0.5207,-0.25638 -0.5882,-0.29597 -0.6961,-0.40835 -0.2563,-0.26689 -0.5413,-0.39652 -1.338,-0.60862 -1.852,-0.49306 -3.4273,-0.68165 -5.4713,-0.655 -1.1407,0.0149 -1.7524,0.0691 -2.7917,0.24761 -2.7479,0.47192 -5.6125,1.57828 -8.6547,3.34259 l -0.4585,0.26591 z"
       id="path3900"
       transform="scale(0.26458333)" />
  </g>
</svg>
