<?xml version="1.0" encoding="UTF-8" standalone="no"?>
<!-- Created with Inkscape (http://www.inkscape.org/) -->

<svg
   width="550"
   height="550"
   viewBox="0 0 145.52083 145.52083"
   version="1.1"
   id="svg5"
   inkscape:version="1.1.2 (b8e25be833, 2022-02-05)"
   sodipodi:docname="White_Knight.svg"
   xmlns:inkscape="http://www.inkscape.org/namespaces/inkscape"
   xmlns:sodipodi="http://sodipodi.sourceforge.net/DTD/sodipodi-0.dtd"
   xmlns="http://www.w3.org/2000/svg"
   xmlns:svg="http://www.w3.org/2000/svg">
  <sodipodi:namedview
     id="namedview7"
     pagecolor="#ffffff"
     bordercolor="#cccccc"
     borderopacity="1"
     inkscape:pageshadow="0"
     inkscape:pageopacity="1"
     inkscape:pagecheckerboard="true"
     inkscape:document-units="mm"
     showgrid="false"
     inkscape:zoom="1.0973349"
     inkscape:cx="293.43822"
     inkscape:cy="312.57549"
     inkscape:window-width="1920"
     inkscape:window-height="1057"
     inkscape:window-x="-8"
     inkscape:window-y="-8"
     inkscape:window-maximized="1"
     inkscape:current-layer="layer1"
     showborder="false"
     lock-margins="true"
     fit-margin-top="10"
     fit-margin-left="10"
     fit-margin-right="10"
     fit-margin-bottom="10"
     units="px"
     width="550px" />
  <defs
     id="defs2" />
  <g
     inkscape:label="Livello 1"
     inkscape:groupmode="layer"
     id="layer1"
     transform="translate(10.000015,9.9998589)">
    <text
       xml:space="preserve"
       style="font-size:40px;line-height:1.25;font-family:'Chess Condal';-inkscape-font-specification:'Chess Condal';fill:#ffffff;fill-opacity:1;stroke:none;stroke-width:0.264583;stroke-opacity:1"
       x="87.548508"
       y="91.29937"
       id="text29524"><tspan
         sodipodi:role="line"
         id="tspan29522"
         style="fill:#ffffff;fill-opacity:1;stroke:none;stroke-width:0.264583;stroke-opacity:1"
         x="87.548508"
         y="91.29937" /></text>
    <text
       xml:space="preserve"
       style="font-size:40px;line-height:1.25;font-family:'Chess Leipzig';-inkscape-font-specification:'Chess Leipzig';stroke-width:0.264583"
       x="254.01411"
       y="94.275764"
       id="text58610"><tspan
         sodipodi:role="line"
         id="tspan58608"
         style="stroke-width:0.264583"
         x="254.01411"
         y="94.275764" /></text>
    <text
       xml:space="preserve"
       style="font-size:40px;line-height:1.25;font-family:'Chess Maya';-inkscape-font-specification:'Chess Maya';stroke-width:0.264583"
       x="237.01553"
       y="39.904449"
       id="text87666"><tspan
         sodipodi:role="line"
         id="tspan87664"
         style="stroke-width:0.264583"
         x="237.01553"
         y="39.904449" /></text>
    <path
       style="fill:#ffffff;fill-opacity:1;stroke:#ffffff;stroke-width:1.12699px;stroke-linecap:butt;stroke-linejoin:miter;stroke-opacity:1"
       d="m 4.3746275,80.275603 c 0.5548492,-0.514866 0.4247921,-1.42513 0.716404,-2.024443 0.2461493,-0.505877 0.782888,-0.808673 1.0746043,-1.28828 0.7995704,-1.314604 1.731524,-2.638202 2.6865131,-3.864866 0.3964481,-0.509221 0.9016813,-0.929723 1.2537061,-1.472325 0.104716,-0.161399 0.06117,-0.400649 0.179099,-0.55212 0.134466,-0.172711 0.399503,-0.198144 0.537303,-0.368096 0.36056,-0.444608 0.597003,-0.981551 0.895504,-1.472329 0.363048,-0.596892 0.420202,-1.231663 0.716403,-1.840407 0.422332,-0.867957 0.868593,-1.686165 1.253707,-2.576573 0.380258,-0.87918 0.466978,-1.879918 0.895504,-2.76061 0.366392,-0.753 0.887313,-1.455495 1.253706,-2.208489 0.168859,-0.347027 0.163939,-0.771545 0.358203,-1.104249 0.347794,-0.595637 1.84528,-2.191753 1.97011,-2.576566 0.03777,-0.116408 -0.06623,-0.265978 0,-0.368093 0.249733,-0.384936 1.295863,-0.682085 1.432806,-1.10425 0.03777,-0.116408 -0.03777,-0.251685 0,-0.368094 0.116692,-0.359717 0.579511,-0.682239 0.716404,-1.104242 0.213311,-0.657585 -0.693427,0.758159 0.179099,-0.736165 0.173755,-0.297586 0.565373,-0.425784 0.716403,-0.736165 0.0534,-0.109757 -0.0234,-0.247759 0,-0.368097 0.260743,-1.339682 0.02034,0.142231 0.537304,-0.920203 0.110086,-0.226253 0.05698,-0.516553 0.179099,-0.736166 0.469986,-0.845163 0.562329,-0.445229 0.895504,-1.472326 0.09171,-0.282707 0.391019,-0.142607 0.537302,-0.368081 0.06623,-0.102086 -0.03777,-0.251685 0,-0.368081 0.09171,-0.28271 0.39102,-0.142606 0.537302,-0.368084 0.208673,-0.321642 0.23248,-1.766071 0.358201,-2.024451 0.07551,-0.155196 0.264538,-0.223706 0.358204,-0.368079 0.184897,-0.284998 0.163127,-0.987603 0.358202,-1.288287 0.281959,-0.434606 0.610083,-0.848343 0.895506,-1.288283 0.232493,-0.358362 1.112387,-1.090735 1.432803,-1.288287 0.389873,-0.240376 0.932213,-0.22176 1.253708,-0.552123 0.133497,-0.137178 0.06116,-0.400638 0.179096,-0.552122 0.498675,-0.640472 2.082467,-1.219637 2.686519,-1.84035 0.915274,-0.940519 -0.750965,0.256685 0.537302,-0.736165 0.372492,-0.287075 0.302531,-0.04642 0.537305,-0.368084 0.208864,-0.286169 0.29115,-0.667263 0.537302,-0.920201 0.27089,-0.278364 0.833768,-0.548985 1.074605,-0.920204 0.148095,-0.228279 0.203015,-0.512915 0.358204,-0.736165 0.245364,-0.352985 0.738724,-0.517441 0.895501,-0.920204 0.06652,-0.170878 -0.06651,-0.381243 0,-0.552122 0.141969,-0.364719 0.545447,-0.568861 0.716405,-0.920204 0.38585,-0.792991 0.700502,-1.775059 0.895507,-2.576572 0.198463,-0.815761 0.898355,-1.846271 1.2537,-2.57657 0.372689,-0.765934 -0.01234,0.196746 0.358206,-0.184043 0.416199,-0.427682 0.9557,-1.166103 1.253703,-1.472327 0.08443,-0.08675 0.273773,0.08676 0.358202,0 0.435,-0.446998 -0.05326,-0.270248 0.358204,-0.552122 0.204808,-0.140308 0.542347,-0.0051 0.716403,-0.184039 0.08443,-0.08675 -0.0534,-0.25834 0,-0.368083 0.08443,-0.173516 0.452874,-0.01049 0.537302,-0.184043 0.0534,-0.109742 -0.0534,-0.25834 0,-0.368082 0.113274,-0.232796 0.47587,-0.299623 0.5373,-0.552124 0.04345,-0.178546 -0.03529,-0.371657 0,-0.552122 0.161269,-0.828629 0.717256,-1.658114 1.074605,-2.39253 0.256487,-0.527145 0.35284,-1.271731 0.537304,-1.840408 0.57182,-1.762778 0.01387,-3.369521 0.358214,-4.785061 0.0206,-0.08416 0.165221,-0.09846 0.179086,-0.18404 0.09526,-0.587336 -0.258545,-1.67712 0,-2.208489 0.06572,-0.135041 0.179086,0.09798 0.179086,-0.552123 0,-1.1282069 -0.455876,-2.1750342 0.716406,-2.5765717 1.451498,-0.4971786 4.048028,0.650398 5.373023,1.1042443 0.398051,0.1363381 1.074162,0.1838141 1.432811,0.3680819 0.636713,0.3271395 0.236146,0.264932 1.074602,0.5521225 0.551158,0.1887883 0.884835,0.909242 1.253703,1.288286 0.188795,0.193996 0.556213,0.148598 0.716408,0.368082 0.113284,0.155196 0.07438,0.390708 0.179086,0.552122 0.0332,0.05105 0.1369,-0.04338 0.179086,0 0.435,0.446999 -0.05328,0.270249 0.358214,0.552123 0.178962,0.1226 0.631274,0.289683 0.716405,0.552123 0.03782,0.116396 -0.03782,0.251682 0,0.368082 0.09173,0.282706 0.391033,0.142605 0.537302,0.368083 0.06622,0.102086 -0.03782,0.251686 0,0.368082 0.106058,0.326968 0.616297,0.6116 0.716406,0.920204 0.137067,0.422522 0.08732,0.870732 0.358213,1.288286 0.210811,0.324908 0.596806,0.73555 0.716406,1.104245 0.05664,0.174596 -0.06652,0.381243 0,0.552122 0.06269,0.161103 0.264511,0.223707 0.358214,0.368082 0.124504,0.191937 0.08513,0.543023 0.179086,0.736164 0.02688,0.05487 0.152407,-0.05487 0.179086,0 0.08009,0.164613 -0.160176,0.469816 0,0.552123 0.106815,0.05487 0.273758,-0.08676 0.358216,0 0.121606,0.124936 0.08248,0.905689 0.179086,1.104244 0.08883,0.182579 0.296364,0.361489 0.358219,0.552122 0.03781,0.1164 -0.05341,0.25834 0,0.368082 0.213497,0.43879 0.921072,0.814994 1.074607,1.288287 0.03782,0.116395 -0.06622,0.265995 0,0.368081 0.140089,0.215914 0.868157,0.708064 1.074599,0.920205 0.238797,0.245386 -0.379937,0.176599 0.179087,0.368082 0.543768,0.186259 1.264432,0.227463 1.79101,0.552123 0.144799,0.08927 0.201397,0.303639 0.358213,0.368082 0.614274,0 0.485261,-0.05819 1.074603,0.184044 1.040133,0.42753 2.029869,1.025396 3.04472,1.472327 0.803372,0.353802 0.556647,0.0099 1.253698,0.368082 0.566913,0.291268 1.029938,0.847946 1.611911,1.104244 0.803385,0.353804 0.556651,0.0099 1.253703,0.368082 0.921214,0.47331 1.785601,0.94332 2.686517,1.472325 0.559417,0.328484 1.275368,0.522811 1.791007,0.920207 2.081061,1.603845 4.073561,3.426917 6.089431,5.153142 0.411411,0.352294 0.685667,0.968549 1.074605,1.288285 0.147408,0.121189 0.403805,0.04686 0.537304,0.184039 0.133494,0.137178 0.04559,0.414948 0.179084,0.552124 0.246149,0.252939 0.628081,0.323122 0.895506,0.552122 0.320441,0.274403 0.462279,0.881664 0.895504,1.104245 0.106854,0.05487 0.251401,-0.05487 0.358216,0 0.156226,0.08027 1.812724,2.04676 1.970104,2.208491 0.412045,0.423395 1.137302,0.738469 1.611914,1.104244 0.468165,0.360803 0.742455,0.833207 1.074609,1.288285 0.101263,0.138809 0.238794,0.245388 0.358214,0.368084 0.179086,0.122694 0.402836,0.195361 0.537302,0.368082 0.117946,0.151486 0.04559,0.414948 0.179128,0.552122 0.133494,0.137176 0.403805,0.04686 0.5373,0.184043 0.227325,0.233606 0.165305,0.655913 0.358216,0.920206 0.55081,0.754672 1.215298,1.469001 1.791002,2.208489 0.340316,0.437096 0.87278,1.137872 1.074607,1.656364 0.04437,0.113907 -0.06626,0.265978 0,0.368099 0.07404,0.114117 0.263797,0.08704 0.358214,0.184026 0.671909,0.690434 0.113328,0.339291 0.53731,0.920201 0.151979,0.208205 0.424037,0.319347 0.537299,0.552124 0.247537,0.508705 0.605532,0.97571 0.895507,1.472326 0.09715,0.166366 0.0658,0.396939 0.179083,0.55212 0.08005,0.109761 0.284136,0.06991 0.358216,0.184028 0.17833,0.274872 0.18783,0.640058 0.35822,0.920201 0.20988,0.345082 0.8647,0.94319 1.07459,1.28829 0.44854,0.737451 1.43918,3.503304 1.79102,3.864853 0.0944,0.09703 0.2985,0.06136 0.35821,0.184028 0.99385,2.042515 -0.82085,-0.621112 0.17913,0.920204 0.23879,0.368096 0.412,0.791439 0.7164,1.104247 0.15219,0.156391 0.41788,0.184025 0.5373,0.368094 1.773,2.732846 -1.10645,-0.969288 0.35821,1.288282 0.14051,0.21654 0.39679,0.335582 0.53729,0.55213 0.22325,0.344126 1.71532,4.212114 1.79102,4.601015 0.0353,0.180489 -0.0665,0.381266 0,0.552128 0.0627,0.161098 0.29548,0.206952 0.35822,0.368096 0.14572,0.374354 0.13963,1.68753 0.35821,2.02445 0.074,0.11416 0.29851,0.06135 0.35822,0.184026 0.08,0.164594 -0.0353,0.371634 0,0.552125 0.13198,0.678181 0.40489,1.344295 0.5373,2.024448 0.0703,0.360925 -0.0703,0.743307 0,1.104244 0.30724,1.57863 0.17908,3.320441 0.17908,4.9691 0,2.331192 0,4.662367 0,6.993547 0,1.901764 0,3.803516 0,5.705265 0,0.769743 -0.12202,1.640242 0,2.392542 0.18203,1.122149 0.45906,2.898185 0.17909,4.048895 -0.12354,0.50782 -0.4141,0.96591 -0.5373,1.47233 -0.2217,0.91123 -0.26128,1.90977 -0.53731,2.7606 -0.18803,0.57961 -0.93219,1.62314 -1.0746,2.2085 -0.0579,0.23804 0.10685,0.51668 0,0.73616 -0.38498,0.79117 -0.6972,1.61689 -1.07461,2.39253 -0.0918,0.18873 -0.0873,0.54744 -0.17909,0.73616 -0.17921,0.36835 -0.53496,0.73135 -0.71641,1.10424 -0.0534,0.10981 0.0378,0.25169 0,0.3681 -0.10442,0.32176 -0.5648,0.60865 -0.71639,0.9202 -0.0813,0.16711 -0.31216,1.24097 -0.35822,1.28828 -0.0895,0.0921 -0.26863,0.0921 -0.35822,0.18407 -0.21912,0.22518 -0.26946,0.78258 -0.5373,0.9202 -0.10685,0.0548 -0.25884,-0.0681 -0.35821,0 -0.14052,0.0963 -0.2072,0.2905 -0.35822,0.36809 -0.38578,0.1982 -6.749248,0 -7.522235,0 -1.638085,0 -3.227858,0.13204 -4.835732,0.3681 -0.906408,0.13308 -1.95489,0 -2.865608,0 -2.029813,0 -4.059629,0 -6.089433,0 -2.561636,0 -5.728171,-0.28662 -8.23864,0 -2.13041,0.24322 -4.285296,0.18402 -6.44763,0.18402 -1.11459,0 -2.295599,0.11378 -3.402914,0 -4.356734,-0.44768 -8.869286,-0.18402 -13.253464,-0.18402 -5.097078,0 -10.132819,-0.18403 -15.223569,-0.18403 -1.492506,0 -2.985013,0 -4.477522,0 -0.68292,0 -1.663576,0.17077 -2.328312,0 -0.208821,-0.0537 -0.333097,-0.29814 -0.537302,-0.36809 -0.792662,-0.27151 -1.559909,0.23748 -2.149209,-0.3681 -0.133494,-0.13717 -0.07438,-0.39072 -0.179098,-0.55211 -0.07406,-0.11412 -0.298504,-0.0614 -0.358202,-0.18403 -0.102462,-0.21058 -0.03899,-0.70421 -0.179103,-0.9202 -0.09366,-0.14439 -0.264535,-0.22371 -0.358201,-0.36809 -0.3371,-0.51959 0.275915,-2.90983 0.537304,-3.31273 0.699924,-1.07885 1.821462,-1.87171 2.686514,-2.76061 0.533345,-0.54807 -0.267868,-0.23973 0.537297,-0.73617 0.799909,-0.49318 1.580649,-0.89612 2.328315,-1.47232 1.745282,-1.34507 3.057555,-3.19884 4.83572,-4.41699 0.623835,-0.42738 0.915501,-1.30883 1.432809,-1.840403 0.640102,-0.657763 0.741807,-0.683298 1.253708,-1.472329 0.265654,-0.409459 0.766593,-0.603699 1.074602,-0.920196 0.332788,-0.341972 0.292807,-0.777788 0.716405,-1.104247 0.633959,-0.488593 1.233481,-0.899421 1.791008,-1.472325 0.292761,-0.300824 0.363715,-0.648397 0.716405,-0.920211 0.151016,-0.116409 0.403806,-0.04685 0.5373,-0.184026 0.09442,-0.09698 0.08471,-0.271075 0.179086,-0.368097 0.37532,-0.385671 1.106421,-0.768867 1.432806,-1.104244 0.09442,-0.09698 0.08471,-0.271078 0.179089,-0.368099 0.606413,-0.623136 0.110005,0.255055 0.716406,-0.368094 0.09437,-0.09698 0.08471,-0.271075 0.179083,-0.368096 0.150008,-0.154147 0.759406,-0.412265 0.895504,-0.552125 0.09442,-0.09698 0.08471,-0.271072 0.179089,-0.368094 0.18879,-0.194 0.527615,-0.174098 0.716403,-0.368099 0.248252,-0.255095 0.980836,-1.332121 1.253708,-1.472323 0.10681,-0.05484 0.273753,0.0867 0.358213,0 0.08442,-0.0867 -0.03782,-0.251685 0,-0.368094 0.146772,-0.45248 0.863979,-0.671366 1.074607,-1.104249 0.272663,-0.560345 0.200307,-0.389858 0.716403,-0.920199 0.331618,-0.340761 0.369521,-0.931833 0.716403,-1.288292 0.391158,-0.401947 0.558526,-0.768875 0.895502,-1.28828 0.228377,-0.352032 0.94136,-0.921689 1.074609,-1.104245 0.307372,-0.421121 0.423921,-0.938765 0.537302,-1.288282 0.0534,-0.164596 0.295477,-0.206998 0.358214,-0.368097 0.429758,-1.10402 0.204718,-0.420684 0.537302,-1.104232 0.409813,-0.842222 0.426508,-1.595571 0.5373,-2.392542 0.05135,-0.369386 0.435885,-0.840378 0.179086,-1.104239 -0.136227,-0.139984 -1.524313,-0.02979 -1.611906,0 -0.453744,0.155398 -0.78558,0.455915 -1.253708,0.552115 -1.003711,0.206308 -2.034861,0.453159 -3.044713,0.73617 -0.310144,0.08692 -0.581665,0.296421 -0.895504,0.368097 -0.349685,0.07988 -0.734782,-0.116409 -1.074607,0 -0.576989,0.197627 -1.335304,0.307515 -1.970108,0.552124 -0.24997,0.09629 -0.459685,0.292707 -0.716403,0.368094 -0.172198,0.05061 -0.371032,-0.0683 -0.537303,0 -0.453391,0.186362 -0.262997,0.365765 -0.716403,0.552125 -1.82604,0.750563 -3.615391,0.974788 -5.552126,1.472321 -0.279301,0.07176 -0.613647,-0.0579 -0.895506,0 -1.059189,0.217708 -0.01802,0.117836 -1.074605,0.552127 -0.110864,0.0456 -0.238801,0 -0.358201,0 -0.179098,0.06136 -0.368445,0.09733 -0.537302,0.184028 -0.697908,0.358594 -1.278373,0.932869 -1.970111,1.288278 -0.168857,0.0867 -0.39227,0.05985 -0.537302,0.184025 -0.229318,0.196377 -0.350827,0.496654 -0.537305,0.736173 -0.336403,0.432097 -0.04577,-0.09141 -0.716401,0.368094 -0.880227,0.603006 -0.234727,0.425223 -0.895504,1.104247 -0.226436,0.23269 -0.889559,0.546012 -1.074604,0.736158 -0.0944,0.09698 -0.07231,0.285797 -0.179101,0.368094 -0.433305,0.333942 -0.927412,0.361359 -1.253705,0.920203 -0.09714,0.166366 -0.0456,0.414944 -0.179103,0.55212 -0.133487,0.137179 -0.368441,0.09724 -0.537298,0.184026 -0.27431,0.140935 -0.140062,0.327986 -0.358206,0.552122 -0.122677,0.126081 -1.023474,0.657366 -1.074602,0.736173 -0.384407,0.592507 0.03425,0.433687 -0.358201,0.736153 -0.379583,0.292531 -1.108751,0.58721 -1.432809,0.920218 -0.0944,0.09698 -0.08471,0.271073 -0.179103,0.368094 -0.198428,0.203888 -0.829855,0.267491 -1.074604,0.368094 -0.595055,0.244607 -1.098841,0.75277 -1.611908,1.10425 -0.320066,0.219258 -1.926745,0.316496 -2.328311,0.368094 -2.132907,0.273968 0.20173,0.04016 -1.074605,0.368096 -0.447362,0.114898 -0.977401,-0.07802 -1.432807,0 -1.2432,0.212913 -2.48485,0.327852 -3.761118,0 C 12.363186,93.186238 10.605858,92.383973 10.284956,92.054219 10.117042,91.881678 9.9859543,91.481302 9.7476527,91.318064 9.1193256,90.887614 8.2390635,90.478057 7.7775441,89.845723 7.6339977,89.649047 6.7032172,88.496293 6.5238378,88.373399 6.4127597,88.297321 6.260032,88.286353 6.1656355,88.189374 5.8273923,87.841788 6.0811178,87.84196 5.9865365,87.453206 5.8882573,87.04927 5.6031939,87.033467 5.449234,86.717048 5.2803753,86.370024 5.2598906,85.95982 5.0910317,85.612801 c -0.6104562,-1.25459 -0.8955043,-1.704055 -0.8955043,-3.1287 0,-1.26753 0.9614083,-0.600721 0.1790991,-2.208491 z"
       id="path997" />
    <g
       aria-label="n"
       id="text90574"
       style="font-size:600.874px;line-height:1.25;font-family:'Chess Magnetic';-inkscape-font-specification:'Chess Magnetic';fill:#000000;fill-opacity:1;stroke:#000000;stroke-width:3.97453;stroke-opacity:1"
       transform="matrix(0.27972128,0,0,0.28743656,-0.1722286,5.1155843)">
      <path
         d="M 374.50123,401.09668 H 93.721716 c -11.540224,0 -17.505933,-5.08552 -17.897127,-15.25657 -0.391194,-10.17104 6.161306,-21.41787 19.6575,-33.74048 5.867911,-6.84589 12.224811,-13.39839 19.070711,-19.6575 6.84589,-6.25911 13.49619,-12.51821 19.95089,-18.77731 -4.88992,-2.73836 -9.38865,-5.67232 -13.49619,-8.80187 -3.91194,-3.32515 -8.31287,-6.1613 -13.2028,-8.50847 -5.86791,5.28112 -12.127014,10.17105 -18.777312,14.66978 -6.454702,4.30313 -13.593993,6.74809 -21.417873,7.33488 -1.95597,0 -4.889925,0.48899 -8.801866,1.46698 -3.91194,0.97799 -5.86791,0.48899 -5.86791,-1.46698 -3.520747,0.78239 -6.454702,0.5868 -8.801866,-0.58679 -2.347164,-1.17358 -5.281119,-2.05377 -8.801865,-2.64056 -4.498731,-0.97798 -10.757836,-5.9657 -18.777314,-14.96317 -7.8238803,-9.19306 -12.9094025,-15.74556 -15.2565666,-19.6575 -3.5207463,-14.66977 0.097799,-27.67697 10.8556346,-39.0216 10.757835,-11.54023 19.559701,-23.56944 26.405596,-36.08765 7.041493,-13.69179 15.158769,-26.79679 24.351828,-39.315 9.388657,-12.51821 15.158769,-27.48138 17.310336,-44.88952 13.496192,-4.69433 24.449628,-13.78959 32.860298,-27.285778 8.60627,-13.691791 17.99492,-26.21 28.16597,-37.554627 2.54276,-8.215075 3.61854,-17.01694 3.22735,-26.405597 -0.19559,-9.388657 -0.97798,-18.386119 -2.34716,-26.9923875 2.93395,-2.15156712 7.13929,-3.12955217 12.616,-2.93395516 5.47672,0.19559701 10.95344,0.68458953 16.43015,1.46697756 2.93396,0.5867911 6.45471,1.4669776 10.56224,2.6405597 9.38866,5.2811196 18.19053,12.3226124 26.4056,21.1244774 8.41067,8.801865 14.37638,18.777313 17.89713,29.926343 8.41067,4.107537 16.72354,8.019478 24.93861,11.735821 8.21508,3.520746 16.62575,7.334888 25.23202,11.442425 24.44963,10.757836 47.62787,10.171045 69.53474,-1.760373 -5.47672,9.388657 -11.54023,16.919142 -18.19053,22.591455 -3.12955,2.347169 -6.55249,4.694329 -10.26884,7.041489 22.29806,20.92888 47.82347,26.60119 76.57623,17.01694 -6.06351,7.82388 -13.39839,14.18078 -22.00466,19.07071 -2.34717,1.56478 -4.79213,2.93396 -7.33489,4.10754 -2.54276,0.97799 -4.88992,1.95597 -7.04149,2.93395 15.84335,26.99239 39.1194,39.5106 69.82813,37.55463 -8.21507,6.25911 -16.82134,10.46444 -25.8188,12.61601 -5.67231,1.76037 -10.56224,2.44496 -14.66978,2.05377 8.41067,29.92634 27.67698,47.82347 57.79892,53.69138 -9.77985,3.71634 -19.26631,5.57451 -28.45937,5.57451 -4.49873,0 -8.89967,-0.29339 -13.2028,-0.88018 0,2.15157 0.3912,5.18332 1.17359,9.09526 -0.3912,13.49619 -0.6846,25.23201 -0.88019,35.20746 11.93142,12.51821 25.72101,20.24429 41.36877,23.17824 -9.77985,3.71635 -19.26631,5.57452 -28.45937,5.57452 -3.32515,0 -8.31287,-0.39119 -14.96317,-1.17358 -1.56477,9.77985 -3.32515,20.04869 -5.28112,30.80653 11.73582,13.105 25.9166,21.41787 42.54235,24.93862 -9.38865,3.71634 -18.87511,5.57451 -28.45936,5.57451 -8.01948,0 -17.01694,-1.56478 -26.99239,-4.69433 -2.54276,4.30313 -5.37892,8.50847 -8.50847,12.61601 z M 143.59895,88.630452 c -6.4547,9.388659 -13.49619,18.875118 -21.12447,28.459368 -7.62829,9.58425 -16.13676,15.84336 -25.525413,18.77731 -1.760373,13.105 -7.530485,27.97037 -17.310336,44.59612 -9.584253,16.62575 -17.603731,30.31754 -24.058433,41.07537 11.931418,14.47418 24.840821,27.67698 38.728209,39.6084 19.950893,-19.9509 37.848023,-40.09739 53.691383,-60.43948 15.84335,-20.34209 27.67697,-42.34675 35.50085,-66.01399 -4.10753,-4.69433 -6.1613,-10.56224 -6.1613,-17.60373 0,-2.54276 0.48899,-4.20534 1.46698,-4.98773 z m 8.80187,211.538168 14.37638,-14.37638 c 5.08552,-5.08552 9.68205,-10.36664 13.78959,-15.84336 6.4547,-6.4547 9.77985,-10.56224 9.97545,-12.32261 l -3.81414,1.46698 c -2.34717,0.97799 -3.42295,1.85817 -3.22736,2.64056 -4.49873,1.95597 -9.29085,4.10753 -14.37638,6.4547 -4.88992,2.15157 -9.97544,3.81414 -15.25656,4.98772 -11.34463,-1.56477 -21.80907,1.36918 -31.39332,8.80187 4.88992,3.32515 9.87764,6.4547 14.96317,9.38866 5.08552,2.93395 10.07324,5.86791 14.96317,8.80186 z m 87.43186,-214.472123 -9.97544,14.963173 c 4.30313,4.10753 6.4547,9.58425 6.4547,16.43015 0,19.5597 -9.87765,29.33955 -29.63295,29.33955 -0.58679,0 -2.83616,-0.1956 -6.7481,-0.58679 -19.16851,41.85776 -45.7697,79.41239 -79.80358,112.66388 4.10754,-2.34717 9.48646,-4.20534 16.13676,-5.57452 6.4547,0.58679 11.63802,0.58679 15.54996,0 3.91194,-0.78239 8.89966,-3.52074 14.96317,-8.21507 0.58679,0 9.38866,-1.66258 26.4056,-4.98773 17.21253,-3.32515 21.71126,2.05377 13.49619,16.13676 -1.76037,4.69433 -3.91194,9.97545 -6.4547,15.84336 -2.34717,5.67231 -5.86791,11.54022 -10.56224,17.60373 -4.30313,7.82388 -9.77985,14.47418 -16.43015,19.95089 36.38105,15.25657 72.95769,23.27605 109.72993,24.05844 36.96783,0.78239 71.00171,-4.69433 102.10164,-16.43015 0.58679,-16.23455 -0.97799,-34.52288 -4.69433,-54.86497 -6.84589,-39.70619 -21.41787,-73.44668 -43.71593,-101.22145 -10.36665,-13.49619 -21.71127,-25.03642 -34.03388,-34.62067 -15.45217,-12.51821 -36.38105,-26.0144 -62.78665,-40.488583 z M 43.551082,240.90273 c -12.127015,13.49619 -19.364104,23.27604 -21.711268,29.33955 3.520746,5.67231 7.921679,11.83362 13.202798,18.48392 5.281119,6.65029 12.029216,10.17104 20.244291,10.56223 4.107537,1.76037 8.312873,1.76037 12.616007,0 4.498731,-1.76037 8.215075,-3.81413 11.14903,-6.1613 2.933955,-1.17358 6.943694,-3.61854 12.029216,-7.33489 -8.215075,-6.4547 -16.332351,-13.59399 -24.351828,-21.41787 -8.019477,-7.82388 -15.745559,-15.64776 -23.178246,-23.47164 z M 382.12951,341.53739 c -34.03388,11.14903 -71.00171,15.45216 -110.9035,12.9094 -39.7062,-2.73835 -78.63001,-13.10499 -116.77142,-31.09992 -2.73836,2.54276 -5.67232,5.37892 -8.80187,8.50847 -3.12955,2.93395 -6.4547,6.3569 -9.97544,10.26884 -7.43269,7.62829 -16.62575,15.54997 -27.57918,23.76504 -10.757838,8.01947 -12.713808,13.10499 -5.86791,15.25656 h 261.4154 c 9.38866,-15.25657 15.54997,-28.45936 18.48392,-39.60839 z M 155.04138,73.373885 188.48847,95.085154 c 4.49873,-4.889925 10.56224,-7.334888 18.19052,-7.334888 3.52075,0 6.25911,0.391194 8.21508,1.173582 l 8.50847,-12.616008 c -7.62829,-3.91194 -12.42042,-6.356903 -14.37639,-7.334888 -3.52074,-10.366641 -6.1613,-17.310335 -7.92167,-20.831082 -1.56478,-3.716343 -5.28112,-8.801865 -11.14903,-15.256567 -3.52075,-3.325149 -7.13929,-6.259104 -10.85564,-8.801865 -3.52075,-2.738358 -8.21507,-4.009739 -14.08298,-3.814142 1.36918,9.975448 1.85817,18.679515 1.46697,26.112201 -0.39119,7.23709 -3.12955,14.376381 -8.21507,21.417873 -2.15157,2.151567 -3.22735,4.009739 -3.22735,5.574515 z m -37.26123,80.683765 c 8.21507,-13.49619 15.64776,-18.38612 22.29806,-14.66977 6.4547,3.71634 5.77011,12.32261 -2.05377,25.8188 -8.21507,13.49619 -15.54996,18.28832 -22.00466,14.37638 -6.8459,-3.32515 -6.25911,-11.83362 1.76037,-25.52541 z"
         id="path862"
         sodipodi:nodetypes="csscscccccscscccccccccccscccccccccccccccccsccccscccscccsccccscscccscccccccscccssccccccccccccccccccsccccsccccccccccccsccccccccccccccc"
         style="fill:#000000;fill-opacity:1;stroke:#000000;stroke-opacity:1" />
    </g>
  </g>
</svg>
