<?xml version="1.0" encoding="UTF-8" standalone="no"?>
<!-- Created with Inkscape (http://www.inkscape.org/) -->

<svg
   width="550"
   height="550"
   viewBox="0 0 145.52083 145.52083"
   version="1.1"
   id="svg5"
   inkscape:version="1.1.2 (b8e25be833, 2022-02-05)"
   sodipodi:docname="White_Pawn.svg"
   xmlns:inkscape="http://www.inkscape.org/namespaces/inkscape"
   xmlns:sodipodi="http://sodipodi.sourceforge.net/DTD/sodipodi-0.dtd"
   xmlns="http://www.w3.org/2000/svg"
   xmlns:svg="http://www.w3.org/2000/svg">
  <sodipodi:namedview
     id="namedview7"
     pagecolor="#ffffff"
     bordercolor="#cccccc"
     borderopacity="1"
     inkscape:pageshadow="0"
     inkscape:pageopacity="1"
     inkscape:pagecheckerboard="true"
     inkscape:document-units="mm"
     showgrid="false"
     inkscape:zoom="0.77593295"
     inkscape:cx="193.31567"
     inkscape:cy="363.43346"
     inkscape:window-width="1920"
     inkscape:window-height="1057"
     inkscape:window-x="-8"
     inkscape:window-y="-8"
     inkscape:window-maximized="1"
     inkscape:current-layer="layer1"
     showborder="false"
     fit-margin-top="10"
     lock-margins="true"
     fit-margin-left="10"
     fit-margin-right="10"
     fit-margin-bottom="10"
     units="px"
     height="550px" />
  <defs
     id="defs2">
    <rect
       x="-257.75424"
       y="433.0271"
       width="1618.6967"
       height="2051.7236"
       id="rect6462" />
  </defs>
  <g
     inkscape:label="Livello 1"
     inkscape:groupmode="layer"
     id="layer1"
     transform="translate(-237.69713,-0.87911654)">
    <text
       xml:space="preserve"
       style="font-size:40px;line-height:1.25;font-family:'Chess Condal';-inkscape-font-specification:'Chess Condal';fill:#ffffff;fill-opacity:1;stroke:none;stroke-width:0.264583;stroke-opacity:1"
       x="87.548508"
       y="91.29937"
       id="text29524"><tspan
         sodipodi:role="line"
         id="tspan29522"
         style="fill:#ffffff;fill-opacity:1;stroke:none;stroke-width:0.264583;stroke-opacity:1"
         x="87.548508"
         y="91.29937" /></text>
    <text
       xml:space="preserve"
       style="font-size:40px;line-height:1.25;font-family:'Chess Leipzig';-inkscape-font-specification:'Chess Leipzig';stroke-width:0.264583"
       x="254.01411"
       y="94.275764"
       id="text58610"><tspan
         sodipodi:role="line"
         id="tspan58608"
         style="stroke-width:0.264583"
         x="254.01411"
         y="94.275764" /></text>
    <text
       xml:space="preserve"
       transform="matrix(0.26458333,0,0,0.26458333,237.69713,0.87911654)"
       id="text6460"
       style="font-size:136.063px;line-height:1.25;font-family:'Chess Alpha';-inkscape-font-specification:'Chess Alpha';white-space:pre;shape-inside:url(#rect6462)" />
    <g
       id="g17610"
       transform="translate(-25.545541,-408.46095)">
      <path
         style="fill:#ffffff;fill-opacity:1;stroke:#000000;stroke-width:0.264583px;stroke-linecap:butt;stroke-linejoin:miter;stroke-opacity:1"
         d="m 290.20918,541.34409 c -0.32693,-2.18154 -0.92941,-4.42227 -0.68197,-6.64927 0.0851,-0.76589 0.40455,-1.46791 0.51148,-2.21641 0.0713,-0.49898 0.004,-1.08495 0.34099,-1.53443 0.0762,-0.10168 0.25113,-0.0806 0.34098,-0.17049 0.26269,-0.26271 0.39931,-0.98148 0.68198,-1.19346 0.14377,-0.10784 0.35074,-0.0901 0.51148,-0.1705 0.61095,-0.30548 1.08546,-1.08545 1.53444,-1.53445 0.39472,-0.3947 0.72967,-0.45008 1.19346,-0.68196 0.26112,-0.13057 0.13333,-0.30382 0.34099,-0.51149 0.25664,-0.25665 0.86458,-0.43532 1.19345,-0.68197 0.61241,-0.45931 1.10658,-1.05576 1.70494,-1.53445 1.10542,-0.88434 2.2787,-1.70902 3.40987,-2.55741 0.42718,-0.32038 0.90927,-0.75014 1.36395,-1.02296 0.37841,-0.22704 0.86626,-0.35478 1.19346,-0.68196 0.0899,-0.0899 0.0806,-0.25114 0.17049,-0.341 0.14489,-0.14488 0.35148,-0.21298 0.51148,-0.34099 0.78881,-0.63103 1.41943,-1.6038 2.04593,-2.38691 0.60898,-0.76123 1.06626,-1.64179 1.70493,-2.38691 0.26153,-0.30512 0.62956,-0.51811 0.85247,-0.85247 0.0315,-0.0473 -0.0508,-0.14507 0,-0.17049 0.10166,-0.0508 0.26062,0.0804 0.34099,0 0.0804,-0.0804 -0.0508,-0.23932 0,-0.341 0.13504,-0.27006 0.62929,-0.55488 0.85247,-0.85246 0.91977,-1.22634 -0.18932,0.35981 0.68197,-0.51146 0.12003,-0.12005 1.98441,-2.26389 2.04593,-2.38692 0.6399,-1.27981 1.46622,-2.50055 2.21642,-3.75086 0.25042,-0.41738 0.61243,-0.79341 0.85246,-1.19346 0.2762,-0.46035 0.33328,-1.09858 0.68198,-1.53445 0.15062,-0.18828 0.39185,-0.30213 0.51148,-0.51149 0.30113,-0.52697 0.42191,-1.61536 0.85247,-2.04592 0.0899,-0.0899 0.26474,-0.0688 0.34098,-0.1705 0.43309,-0.57742 0.57541,-1.56993 0.85247,-2.21641 0.22375,-0.52205 0.69139,-0.97065 0.85247,-1.53443 1.04619,-3.66164 -0.68341,1.65193 0.51148,-1.53445 0.56573,-1.50862 0.76268,-3.21209 1.02297,-4.77382 0.0561,-0.33637 -0.0937,-0.69509 0,-1.02296 0.0698,-0.2444 0.27934,-0.43542 0.34098,-0.68199 0.11027,-0.44106 0,-0.90929 0,-1.36395 0,-0.86352 -0.0276,0.36348 0.17049,-1.02296 0.061,-0.42667 -0.10454,-0.94578 0,-1.36395 0.27223,-1.0889 0.63215,-2.13776 0.85247,-3.23938 0.0722,-0.36092 0.4221,-0.6654 0.51149,-1.02296 0.13595,-0.54379 0.12644,-0.96234 0.34098,-1.53445 0.32879,-0.87675 0.75176,-1.74379 1.02296,-2.55738 0.10993,-0.32978 0.82481,-1.9031 0.51149,-2.21644 -0.63561,-0.63561 -3.25297,-0.51147 -4.09185,-0.51147 -1.90173,0 -4.64906,0.26138 -6.47876,0 -0.1258,-0.018 -0.22733,-0.11366 -0.34099,-0.1705 -0.22733,0 -0.45465,0 -0.68198,0 -1.16048,0 -2.28302,0.0172 -3.40987,-0.17049 -0.28029,-0.0467 -0.59831,0.12708 -0.85247,0 -0.10166,-0.0508 0,-0.22733 0,-0.341 0,-1.05341 0.63851,-1.66145 1.36395,-2.38691 0.79576,-0.79573 1.92307,-1.24108 2.7279,-2.04592 0.28979,-0.28977 0.42597,-0.70294 0.68198,-1.02296 0.2994,-0.37425 0.72356,-0.6487 1.02296,-1.02295 0.5371,-0.67138 1.09843,-1.43942 1.70494,-2.04592 0.0898,-0.0899 0.22732,-0.11367 0.34098,-0.1705 0.1705,-0.1705 0.35713,-0.32626 0.51148,-0.51149 0.13118,-0.1574 0.1961,-0.36658 0.34099,-0.51147 0.28978,-0.2898 0.76061,-0.36716 1.02296,-0.68199 0.3832,-0.45982 0.58163,-1.0931 1.02296,-1.53442 0.1449,-0.14491 0.3666,-0.19611 0.51149,-0.341 0.23186,-0.23185 0.4167,-0.84611 0.68197,-1.02296 0.85449,-0.56967 -0.23826,0.88599 0.68197,-0.34099 0.0975,-0.13002 0.66849,-0.66175 0.68198,-0.68196 0.0631,-0.0946 -0.0804,-0.26064 0,-0.341 0.12708,-0.12708 0.35074,-0.0901 0.51148,-0.1705 0.26113,-0.13057 0.13333,-0.30382 0.34099,-0.51149 0.0899,-0.0899 0.25113,-0.0806 0.34099,-0.17047 0.20775,-0.20775 0.30373,-0.64474 0.51148,-0.85249 0.0402,-0.0402 0.13031,0.0402 0.17049,0 0.22323,-0.22323 -0.0941,-1.72257 -0.17049,-1.87542 -0.21278,-0.42555 -0.95986,-1.47134 -1.19346,-1.70495 -0.0402,-0.0402 -0.13031,0.0402 -0.17049,0 -0.0814,-0.0814 -0.25222,-0.56358 -0.34099,-0.68196 -0.50946,-0.67929 -1.33869,-1.14295 -1.70494,-1.87544 -0.0508,-0.10166 0.036,-0.23316 0,-0.34097 -0.16915,-0.50747 -0.55056,-1.00881 -0.68197,-1.53445 -0.094,-0.37611 -0.0941,-0.81138 -0.1705,-1.19346 -0.0705,-0.35245 -0.27049,-0.67051 -0.34098,-1.02296 -0.14001,-0.70003 -0.12307,-1.39218 -0.34099,-2.04592 -0.25621,-0.76864 0,-3.76933 0,-4.77382 0,-0.98256 -0.26216,-3.47588 0,-4.26236 0.16576,-0.49726 0.54326,-0.63857 0.68197,-1.19345 0.0911,-0.36418 -0.11863,-0.83754 0,-1.19346 0.0715,-0.21447 0.25714,-0.4304 0.34099,-0.68196 0.10297,-0.3089 0.0636,-0.70239 0.1705,-1.02296 0.0993,-0.29782 0.42819,-0.43212 0.51148,-0.68199 0.0359,-0.10782 0,-0.22731 0,-0.34097 0.0568,-0.22733 0.0835,-0.46442 0.17049,-0.68199 0.0597,-0.14925 0.2691,-0.19722 0.34099,-0.341 0.20387,-0.40772 0.23893,-0.78523 0.34098,-1.19345 0.17031,-0.68122 0.17181,-0.003 0.51149,-0.68197 0.0508,-0.10165 -0.0276,-0.23071 0,-0.34099 0.0962,-0.38489 0.44594,-0.49842 0.68197,-0.85246 0.12998,-0.19497 0.10444,-0.52427 0.34099,-0.68196 0.20146,-0.13433 0.61505,-0.45215 0.85247,-0.5115 0.11027,-0.0276 0.24641,0.0631 0.34098,0 0.12607,-0.084 0.13148,-0.4591 0.34099,-0.51146 0.1654,-0.0414 0.35899,0.0762 0.51148,0 0.11366,-0.0568 0.0688,-0.26475 0.1705,-0.341 0.53466,-0.401 2.57806,-1.19861 3.23938,-1.36395 0.30858,0.10276 0.31709,-0.2762 0.51148,-0.341 0.57478,-0.19158 1.769,-0.23799 2.38691,-0.34097 0.47428,-0.079 0.51523,-0.2286 0.85247,-0.34099 0.35804,-0.11935 0.83542,0.11935 1.19345,0 0.9872,-0.32906 2.30649,-0.1705 3.40988,-0.1705 0.60836,0 1.27346,-0.0752 1.87543,0 0.46502,0.0581 0.90002,0.27472 1.36395,0.341 0.34509,0.0493 0.8543,-0.11306 1.19345,0 0.62338,0.20777 1.48219,0.51421 2.04593,0.85246 0.36871,0.22122 0.66331,0.61269 1.02296,0.85246 0.28643,0.19095 0.78086,0.2694 1.02296,0.51149 0.0899,0.0899 0.0806,0.25112 0.17049,0.341 0.17972,0.1797 0.47865,0.18849 0.68198,0.34097 0.48079,0.3606 0.63008,0.97107 1.02296,1.36395 0.17153,0.17153 0.9018,0.67072 1.02296,0.85246 0.0631,0.0946 0,0.22733 0,0.34099 0.0568,0.11367 0.0911,0.24175 0.1705,0.341 0.15062,0.18828 0.38743,0.30472 0.51148,0.51147 0.40516,0.67527 -0.50382,0.008 0.17049,0.68199 0.0899,0.0899 0.2705,0.0647 0.34099,0.17049 0.18981,0.28472 0.18489,1.1298 0.34099,1.36393 0.0705,0.10575 0.2756,0.0615 0.34098,0.1705 1.39479,2.32465 -1.05162,-0.71065 0.68198,1.02296 0.20094,0.20095 0.27676,0.86241 0.34099,1.02298 0.10188,0.25472 0.4241,0.41984 0.51148,0.68196 0.11415,0.34246 0.0637,1.2572 0.34098,1.53446 0.0899,0.0899 0.2705,0.0647 0.34099,0.17049 0.19563,0.29345 0.0526,1.01029 0.1705,1.36393 0.2082,0.62463 0.4578,1.20295 0.68197,1.87545 0.19478,0.58433 0,1.62277 0,2.21641 0,0.30065 0.0726,0.73242 0,1.02296 -0.025,0.10017 -0.31595,0.58182 -0.34099,0.68199 -0.42333,1.69333 -1.2797,3.19823 -2.21641,4.60333 -0.1686,0.25288 -0.18914,0.88974 -0.34099,1.19345 -0.0269,0.0538 -0.32981,0.5003 -0.34099,0.51147 -0.0402,0.0402 -0.14508,-0.0508 -0.17049,0 -0.0508,0.10168 0.0359,0.23315 0,0.34099 -0.10193,0.30578 -0.35066,0.35066 -0.51149,0.51147 -0.11102,0.11104 -0.12211,0.53687 -0.17049,0.68199 -0.0785,0.23548 -0.38615,0.17388 -0.51148,0.34099 -0.32061,0.42747 -0.26236,0.94433 -0.68197,1.36393 -0.0899,0.0899 -0.25113,0.0807 -0.34099,0.1705 -0.13222,0.13221 -0.8488,1.10273 -1.02296,1.36395 -0.14098,0.21148 -0.16127,0.50226 -0.34099,0.68199 -0.0402,0.0402 -0.14508,-0.0509 -0.17049,0 -0.0773,0.15449 0,0.65712 0,0.85246 0,0.36404 -0.11806,1.18026 0,1.53445 0.20381,0.61143 1.40239,2.08437 1.87543,2.55739 0.12956,0.12956 0.75345,0.54996 0.85247,0.68199 0.10782,0.14377 0.0627,0.36769 0.17049,0.51146 0.24418,0.3256 0.78463,0.49499 1.02296,0.85249 0.35636,0.53454 0.65892,0.83709 1.19346,1.19346 0.22685,0.15123 0.35163,0.52213 0.51148,0.68196 0.25349,0.2535 1.06713,0.60513 1.36395,0.85246 0.80083,0.66736 1.56322,1.64825 2.5574,2.04595 0.10553,0.0422 0.23933,-0.0509 0.34099,0 0.32814,0.16406 1.35785,1.35987 1.36395,1.36392 0.19974,0.13317 0.65641,0.14494 0.85247,0.341 0.0899,0.0898 0.0806,0.25114 0.17049,0.34099 0.17972,0.17971 0.50226,0.16127 0.68198,0.341 0.0899,0.0899 0.0648,0.27048 0.17049,0.34097 0.0946,0.0631 0.23316,-0.0359 0.34099,0 0.53216,0.1774 -0.0568,0.11366 0.17049,0.34099 0.36135,0.36134 0.97385,0.7629 1.36395,1.02296 0.37205,0.24805 0.42014,0.76113 0.68197,1.02296 0.32561,0.32559 0.5122,0.34314 0.68198,0.85249 0.34836,1.04507 -2.18647,1.58628 -2.89839,1.70492 -0.52018,0.0867 -1.17267,0 -1.70494,0 -2.17472,0 -5.08413,-0.34864 -7.16073,0.17049 -0.27568,0.0689 -0.57384,-0.0557 -0.85247,0 -0.53913,0.10782 -2.16161,0.45668 -2.55741,0.85247 -0.3359,0.33591 -0.0255,0.39192 -0.17049,0.68199 -0.71588,1.43174 -0.30418,3.59391 0,5.11479 0.11349,0.56745 0.0307,1.14562 0.17049,1.70495 0.0616,0.24638 0.27939,0.60608 0.34099,0.85246 0.10253,0.41013 -0.0525,0.94385 0,1.36395 0.32826,2.62612 0.21878,5.30797 0.85247,7.8427 0.0494,0.1977 0.87729,1.85171 1.02296,2.04594 0.0977,0.13023 0.61746,0.48843 0.68197,0.68197 0.21693,0.65079 0.46356,1.39774 0.85247,2.04592 0.57768,0.96279 1.35183,1.83906 1.70494,2.8984 0.20305,0.60915 1.0029,2.01583 1.36395,2.55741 0.0892,0.13375 0.2691,0.19722 0.34099,0.34097 0.10479,0.2096 0.0657,0.47241 0.17049,0.68199 0.17217,0.34433 0.72735,0.64762 0.85247,1.02296 0.0359,0.10781 -0.0359,0.23315 0,0.34099 0.17444,0.52332 1.08962,1.15628 1.36395,1.70492 0.16842,0.33684 0.57496,0.87241 0.68197,1.19346 0.0563,0.16875 0.0373,0.54875 0.1705,0.68199 0.0899,0.0898 0.25113,0.0806 0.34098,0.1705 0.1098,0.10977 0.6689,1.86235 1.02297,2.21641 0.0899,0.0898 0.22732,0.11367 0.34098,0.1705 0.11366,0.2273 0.18222,0.4835 0.34099,0.68196 0.20617,0.25771 0.63534,0.46485 0.85247,0.68197 0.29524,0.29524 0.44698,0.84097 0.68197,1.19345 0.13796,0.20696 1.00744,0.82143 1.02297,0.85249 0.0508,0.10165 -0.0631,0.24641 0,0.34097 0.0705,0.10575 0.25113,0.0806 0.34098,0.1705 0.68204,0.68204 1.25365,1.45171 2.04593,2.04591 0.35438,0.2658 0.33619,0.41905 0.51148,0.68199 0.61318,0.91977 0.0531,-0.11742 0.68197,0.51147 0.36388,0.36388 0.5775,0.85937 1.02297,1.19345 0.20332,0.15251 0.50225,0.16129 0.68197,0.341 0.1807,0.18071 0.38009,0.58134 0.68197,0.68199 0.10783,0.0359 0.23933,-0.0509 0.34099,0 0.0508,0.0254 -0.0402,0.13031 0,0.17047 0.23442,0.23442 0.73958,0.66355 1.02296,0.85249 0.61879,0.41251 1.33708,0.8256 1.87543,1.36395 0.0853,0.0852 0.0853,0.25572 0.1705,0.34097 0.28652,0.28654 0.95144,0.52978 1.19345,0.85249 0.10783,0.14377 0.0582,0.37113 0.1705,0.51146 0.47199,0.59 1.34601,1.00502 1.87543,1.53445 0.346,0.346 0.57816,0.95248 0.85247,1.36396 0.16815,0.25223 0.54701,0.41203 0.68197,0.68196 0.20996,0.41992 -0.4949,-0.15391 0.1705,0.51149 0.0899,0.0899 0.2756,0.0615 0.34098,0.1705 0.12056,0.20093 0.0499,0.48104 0.1705,0.68197 0.0654,0.10895 0.25112,0.0806 0.34098,0.17049 0.18625,0.18624 0.37113,0.7121 0.51148,0.85246 0.0899,0.0899 0.25113,0.0806 0.34099,0.1705 0.0568,0.0568 0.11366,0.45466 0.1705,0.51149 0.0402,0.0402 0.1303,-0.0402 0.17049,0 0.20961,0.20961 0.43262,0.77359 0.68197,1.02296 0.0402,0.0402 0.13031,-0.0402 0.1705,0 0.0804,0.0804 -0.0508,0.23932 0,0.34097 0.0269,0.0539 0.32981,0.50033 0.34098,0.51149 0.0402,0.0402 0.13031,-0.0402 0.1705,0 0.29885,0.29885 0.76453,3.48166 0.85247,3.92137 0.11594,0.5797 -0.18585,1.31789 0,1.87542 0.18148,0.54446 0.34099,1.041 0.34099,1.53445 0,0.18936 0.12055,1.07288 0,1.19345 -0.59156,0.59156 -2.48956,0.40241 -3.58037,0.51147 -0.74058,0.0741 -1.34201,0.42349 -2.04593,0.51149 -2.1025,0.26281 -5.14523,0 -7.33123,0 -0.93284,0 -1.97306,0.13219 -2.89839,0 -0.54962,-0.0785 -1.12144,-0.31636 -1.70494,-0.1705 -1.12871,0.28218 -2.38849,0.1705 -3.58036,0.1705 -0.83123,0 -1.57541,0.0803 -2.38691,0.1705 -1.51413,0.16822 -3.09198,-0.18894 -4.60333,0 -2.7747,0.34684 -5.57967,0.50564 -8.35419,0.85246 -1.9607,0.24508 -4.15814,0 -6.13778,0 -1.37694,0 -2.89118,0.1714 -4.26234,0 -1.01857,-0.12732 -2.04243,-0.41817 -3.06889,-0.51149 -1.96835,-0.17894 -3.99288,-0.0471 -5.96727,-0.17047 -2.23056,-0.13941 -4.4258,-0.68144 -6.64926,-0.85249 -1.73895,-0.13375 -3.53975,0 -5.2853,0 -1.50862,0 -3.10402,-0.14991 -4.60333,0 -1.55993,0.156 -3.05419,0.52708 -4.60333,0.68199 -1.72295,0.1723 -3.54878,0 -5.2853,0 -0.65131,0 -2.53693,0.21278 -3.06889,0 -0.19025,-0.0761 -0.31962,-0.26906 -0.51148,-0.341 -0.56748,-0.2128 -1.36239,0 -1.87543,-0.34099 -0.0739,-0.0492 -0.1471,-0.24403 -0.34099,-0.34097 -0.42329,-0.21167 -2.78993,0.0271 -3.58037,-0.1705 z"
         id="path16865" />
      <text
         xml:space="preserve"
         style="font-size:175.503px;line-height:1.25;font-family:'Chess Alpha';-inkscape-font-specification:'Chess Alpha';stroke-width:1.28987"
         x="248.25771"
         y="563.16779"
         id="text13618"><tspan
           sodipodi:role="line"
           id="tspan13616"
           style="stroke-width:1.28987"
           x="248.25771"
           y="563.16779">p</tspan></text>
    </g>
  </g>
</svg>
