<?xml version="1.0" encoding="UTF-8" standalone="no"?>
<!-- Created with Inkscape (http://www.inkscape.org/) -->

<svg
   width="512"
   height="512"
   viewBox="0 0 135.46666 135.46666"
   version="1.1"
   id="svg5"
   inkscape:version="1.1.2 (b8e25be833, 2022-02-05)"
   sodipodi:docname="White_Bishop.svg"
   xmlns:inkscape="http://www.inkscape.org/namespaces/inkscape"
   xmlns:sodipodi="http://sodipodi.sourceforge.net/DTD/sodipodi-0.dtd"
   xmlns:xlink="http://www.w3.org/1999/xlink"
   xmlns="http://www.w3.org/2000/svg"
   xmlns:svg="http://www.w3.org/2000/svg">
  <sodipodi:namedview
     id="namedview7"
     pagecolor="#ffffff"
     bordercolor="#cccccc"
     borderopacity="1"
     inkscape:pageshadow="0"
     inkscape:pageopacity="0"
     inkscape:pagecheckerboard="true"
     inkscape:document-units="px"
     showgrid="false"
     inkscape:zoom="1.4142136"
     inkscape:cx="251.02291"
     inkscape:cy="264.45794"
     inkscape:window-width="1920"
     inkscape:window-height="1057"
     inkscape:window-x="-8"
     inkscape:window-y="-8"
     inkscape:window-maximized="1"
     inkscape:current-layer="layer1"
     showborder="false"
     lock-margins="true"
     fit-margin-top="2.7"
     fit-margin-left="2.7"
     fit-margin-right="2.7"
     fit-margin-bottom="2.7"
     width="512mm"
     units="px" />
  <defs
     id="defs2">
    <linearGradient
       inkscape:collect="always"
       id="linearGradient7081">
      <stop
         style="stop-color:#000003;stop-opacity:1;"
         offset="0"
         id="stop7077" />
      <stop
         style="stop-color:#000003;stop-opacity:0;"
         offset="1"
         id="stop7079" />
    </linearGradient>
    <linearGradient
       inkscape:collect="always"
       id="linearGradient2415">
      <stop
         style="stop-color:#ffffff;stop-opacity:1;"
         offset="0"
         id="stop2411" />
      <stop
         style="stop-color:#ffffff;stop-opacity:0;"
         offset="1"
         id="stop2413" />
    </linearGradient>
    <linearGradient
       inkscape:collect="always"
       xlink:href="#linearGradient2415"
       id="linearGradient2417"
       x1="252.76004"
       y1="56.705269"
       x2="289.05634"
       y2="56.705269"
       gradientUnits="userSpaceOnUse" />
    <linearGradient
       inkscape:collect="always"
       xlink:href="#linearGradient7081"
       id="linearGradient7083"
       x1="201.46381"
       y1="63.513065"
       x2="303.51083"
       y2="63.513065"
       gradientUnits="userSpaceOnUse" />
  </defs>
  <g
     inkscape:label="Livello 1"
     inkscape:groupmode="layer"
     id="layer1"
     transform="translate(0.05418288,0.05380351)">
    <text
       xml:space="preserve"
       style="font-size:40px;line-height:1.25;font-family:'Chess Condal';-inkscape-font-specification:'Chess Condal';fill:#ffffff;fill-opacity:1;stroke:none;stroke-width:0.264583;stroke-opacity:1"
       x="87.548508"
       y="91.29937"
       id="text29524"><tspan
         sodipodi:role="line"
         id="tspan29522"
         style="fill:#ffffff;fill-opacity:1;stroke:none;stroke-width:0.264583;stroke-opacity:1"
         x="87.548508"
         y="91.29937" /></text>
    <text
       xml:space="preserve"
       style="font-size:40px;line-height:1.25;font-family:'Chess Leipzig';-inkscape-font-specification:'Chess Leipzig';stroke-width:0.264583"
       x="254.01411"
       y="94.275764"
       id="text58610"><tspan
         sodipodi:role="line"
         id="tspan58608"
         style="stroke-width:0.264583"
         x="254.01411"
         y="94.275764" /></text>
    <path
       style="fill:#ffffff;fill-opacity:1;stroke:#ffffff;stroke-width:0.253215px;stroke-linecap:butt;stroke-linejoin:miter;stroke-opacity:1"
       d="m 84.867608,122.84065 c 1.713382,0.0869 2.922112,-0.8469 4.273004,-1.77251 0.837069,-0.57354 1.697935,-1.11846 2.5005,-1.74086 0.963332,-0.79579 0.459406,-0.39558 1.392683,-1.10781 0.329092,-0.25115 0.689269,-0.54192 1.044512,-0.75965 0.567264,-0.34768 0.346014,-0.17483 0.917906,-0.41148 0.714074,-0.29547 1.412933,-0.65275 2.152328,-0.88625 0.207411,-0.0655 0.423064,-0.10151 0.633039,-0.15825 0.180481,-0.0488 0.357015,-0.11171 0.538081,-0.15827 0.188415,-0.0484 0.383257,-0.0712 0.569735,-0.12661 0.204774,-0.0609 0.398719,-0.154 0.60139,-0.22156 0.376775,-0.12559 0.760154,-0.23045 1.139464,-0.34817 0.42248,-0.13111 0.37568,-0.1226 0.79129,-0.22156 0.0271,-0.007 0.49702,-0.10745 0.53809,-0.12662 0.0822,-0.0384 0.14522,-0.10917 0.22156,-0.15825 0.1431,-0.092 0.29097,-0.17714 0.44313,-0.25321 0.24193,-0.12097 0.52285,-0.15332 0.75964,-0.28487 0.0391,-0.0217 0.0561,-0.0727 0.0949,-0.0949 0.0378,-0.0215 0.0877,-0.0122 0.1266,-0.0317 0.0472,-0.0236 0.0794,-0.0714 0.12662,-0.0949 0.0341,-0.017 0.26289,-0.0573 0.28486,-0.0633 0.22536,-0.0614 0.48715,-0.18012 0.728,-0.1266 0.32162,0.0715 0.70728,0.36067 0.9179,0.60139 0.28335,0.32381 0.38795,0.90079 0.31652,1.32938 -0.0434,0.26044 -0.0634,0.13127 -0.18991,0.34816 -0.0405,0.0694 -0.0571,0.15067 -0.0949,0.22157 -0.13444,0.25205 -0.28029,0.52442 -0.44313,0.75964 -0.14775,0.21341 -0.33787,0.40473 -0.50643,0.60139 -0.40739,0.4753 -0.76698,0.96976 -1.23442,1.39269 -0.45974,0.41595 -0.94699,0.78708 -1.456,1.13946 -0.3582,0.248 -0.5108,0.38339 -0.88625,0.6014 -0.56879,0.33026 -1.168459,0.59787 -1.772501,0.8546 -0.221853,0.0943 -0.437172,0.20523 -0.664693,0.28486 -0.550738,0.19276 -1.165051,0.31861 -1.740854,0.41148 -0.157624,0.0254 -0.318357,0.0313 -0.474778,0.0633 -0.708382,0.14489 -1.403865,0.36725 -2.120677,0.47477 -1.06753,0.16013 -2.157216,0.18588 -3.228493,0.31652 -0.560543,0.0683 -1.117968,0.18326 -1.677551,0.25321 -0.167833,0.021 -0.339257,0.006 -0.50643,0.0317 -0.10887,0.0168 -0.208505,0.0734 -0.316518,0.0949 -0.103973,0.0208 -0.211929,0.0143 -0.316519,0.0317 -0.402886,0.0672 -0.786859,0.19607 -1.202772,0.15825 -0.33956,-0.0309 -0.597958,-0.31537 -0.886253,-0.41147 -0.07077,-0.0236 -0.149588,-0.0121 -0.221563,-0.0317 -0.157569,-0.043 -0.310057,-0.12532 -0.474779,-0.15826 -0.131827,-0.0264 -0.250825,-0.0203 -0.379823,-0.0633 -0.09568,-0.0319 -0.212473,-0.11665 -0.316518,-0.15826 z"
       id="path1504" />
    <path
       style="fill:#ffffff;fill-opacity:1;stroke:#ffffff;stroke-width:0.573662px;stroke-linecap:butt;stroke-linejoin:miter;stroke-opacity:1"
       d="m 55.091154,80.875407 c -0.0657,-0.909434 -0.71746,-1.434797 -1.147327,-2.151238 -0.07777,-0.129635 -0.09562,-0.286833 -0.143425,-0.43025 -0.09562,-0.191211 -0.16825,-0.395776 -0.28683,-0.573662 -0.187503,-0.281263 -0.500675,-0.457395 -0.717081,-0.717079 -0.43251,-0.519013 -0.797429,-1.424667 -1.147325,-2.007824 -0.174061,-0.290078 -0.566505,-0.559345 -0.717079,-0.860496 -0.08816,-0.176294 -0.05527,-0.397366 -0.143424,-0.573662 -0.06047,-0.120942 -0.226362,-0.165888 -0.286832,-0.286833 -0.20743,-0.414875 -0.253578,-0.992484 -0.430247,-1.434159 -0.555825,-1.389557 -0.93906,-2.557773 -1.147327,-4.015648 -0.09334,-0.653419 -0.444288,-1.217527 -0.573662,-1.864407 -0.124519,-0.622625 -0.144856,-1.58334 -0.286833,-2.151237 -0.05186,-0.207409 -0.211766,-0.373484 -0.286832,-0.573663 -0.485121,-1.293659 0.143099,0.141972 -0.143425,-1.147328 -0.05585,-0.251312 -0.219094,-0.468713 -0.28683,-0.71708 -0.337818,-1.23866 -0.590551,-2.463516 -0.717078,-3.728815 -0.212374,-2.123669 -0.848308,-4.217155 -1.147328,-6.310301 -0.269251,-1.884749 0.395581,-6.982745 1.003911,-8.604956 0.07506,-0.200188 0.219224,-0.370843 0.28683,-0.573663 0.459901,-1.379703 0.456724,-2.908036 1.290743,-4.159062 0.745279,-1.117918 1.465587,-2.469502 2.438068,-3.441982 0.374742,-0.374741 0.839423,-0.685474 1.147328,-1.147328 0.08386,-0.125776 0.06841,-0.298992 0.143425,-0.430249 0.543718,-0.951509 1.543485,-1.686903 2.294652,-2.43807 0.753387,-0.753388 0.149062,-0.352097 0.717079,-1.147329 0.161789,-0.226498 0.69871,-0.633994 0.860494,-0.860495 0.418524,-0.585933 0.677076,-1.117322 1.290744,-1.577575 0.171026,-0.128269 0.422488,-0.135663 0.573662,-0.286831 0.106891,-0.106891 0.03651,-0.323353 0.143425,-0.430248 0.106891,-0.106891 0.300618,-0.06563 0.430246,-0.143425 0.311266,-0.186767 1.852044,-1.525648 2.007822,-1.577575 0.0907,-0.03022 0.201316,0.04276 0.286833,0 0.241877,-0.120941 0.341773,-0.434528 0.573662,-0.573663 0.129636,-0.07777 0.300617,-0.06563 0.430249,-0.143425 0.115932,-0.06956 0.191211,-0.191212 0.28683,-0.286833 0.143425,-0.09562 0.282446,-0.198149 0.430248,-0.28683 0.24485,-0.146916 0.472229,-0.139912 0.717079,-0.286833 0.568424,-0.341054 1.190678,-0.749591 1.72099,-1.147328 0.23882,-0.179113 0.650292,-0.220046 0.860495,-0.430246 0.163914,-0.163914 0.322919,-0.59171 0.573662,-0.717079 0.135208,-0.06761 0.300618,-0.06563 0.430249,-0.143425 0.355812,-0.213501 0.61476,-0.874195 1.003909,-1.003912 0.0907,-0.03022 0.219226,0.06761 0.286831,0 0.106891,-0.106891 0.05956,-0.304464 0.143425,-0.430249 0.525276,-0.787916 0.238594,-0.190865 0.717079,-0.573663 0.531661,-0.425327 0.734318,-1.164567 1.147327,-1.577576 0.03378,-0.0338 0.122047,0.04276 0.143425,0 0.09031,-0.180608 0.240392,-2.292604 0.143425,-2.43807 C 69.889269,14.298096 69.649604,14.407263 69.57617,14.186973 69.468693,13.864553 69.206598,13.1279 68.859091,12.896228 68.526016,12.674181 67.561802,11.872685 67.424932,11.46207 67.188411,10.75251 66.89037,7.7593641 67.138101,7.0161757 c 0.155502,-0.46649 1.675905,-1.4825089 2.151236,-1.5775749 0.750025,-0.1500162 2.867955,-0.1437718 3.441979,0.4302489 0.410211,0.4102084 0.677187,4.5655643 0.430249,5.3063873 -0.138893,0.416675 -0.315281,0.830881 -0.430249,1.290745 0.08645,0.259574 -0.232322,0.266729 -0.286829,0.430246 -0.06047,0.181412 0.06047,0.392256 0,0.573666 -0.05451,0.163523 -0.232323,0.266727 -0.286833,0.430246 -0.0866,0.259765 -0.101513,1.517954 0,1.720992 0.26547,0.530934 0.519803,0.923123 0.860495,1.43416 0.288959,0.433443 0.392327,1.028215 0.717078,1.434159 0.247624,0.309527 0.529647,0.38623 0.71708,0.573663 0.262331,0.262331 0.420415,0.766579 0.717078,1.003912 0.118057,0.09445 0.323353,0.03651 0.430248,0.143425 0.06761,0.06761 -0.06761,0.219224 0,0.286832 0.06761,0.06761 0.196134,-0.03022 0.286833,0 0.163523,0.0545 0.292354,0.183406 0.430246,0.28683 0.14336,0.10752 1.160928,0.817225 1.290743,0.860496 0.219981,0.07333 1.771524,0.07877 2.00782,0 0.202812,-0.06761 0.370845,-0.219224 0.573665,-0.28683 0.129072,-0.04302 0.301173,0.04302 0.430246,0 0.128269,-0.04276 0.155653,-0.254039 0.286833,-0.286833 0.139131,-0.03478 0.289618,0.02812 0.430246,0 1.297243,-0.259448 -0.389552,-0.01366 0.430248,-0.286833 0.340814,-0.113612 0.260478,0.169769 0.573663,-0.143403 0.07559,-0.07559 0.06782,-0.211245 0.143425,-0.286832 0.151165,-0.151166 0.395776,-0.168251 0.573662,-0.286833 0.475069,-0.316713 1.489409,-1.257823 1.72099,-1.720991 0.243757,-0.487506 -0.329517,-3.792843 -0.573663,-4.159061 -0.170613,-0.255908 -0.436701,-0.443159 -0.573662,-0.71708 -0.04273,-0.08551 0.03552,-0.198063 0,-0.286832 -0.210291,-0.525749 -0.46195,-1.019016 -0.573665,-1.577576 -0.172738,-0.863691 -0.111877,-3.0748247 0.286832,-3.8722305 0.341061,-0.6821175 1.521143,-1.6710277 2.294653,-1.8644053 0.139132,-0.034778 0.29709,0.053272 0.430248,0 0.125538,-0.050215 0.165887,-0.2263643 0.286832,-0.2868326 0.08551,-0.042756 0.201315,0.042756 0.286831,0 0.04273,-0.021465 -0.03378,-0.109623 0,-0.143425 0.05587,-0.055874 0.486146,0 0.573664,0 1.467981,0 1.665856,0.3751121 2.724899,1.4341586 0.07559,0.075583 0.222698,0.05789 0.286832,0.143425 0.182496,0.2433259 0.430249,1.689455 0.430249,2.0078237 0,0.5055371 0.122155,1.2324111 0,1.7209911 -0.09053,0.362109 -0.618548,0.851725 -0.717081,1.147328 -0.03022,0.0907 0.03022,0.196134 0,0.286831 -0.08383,0.251482 -0.432581,0.505456 -0.573663,0.717079 -0.136465,0.204719 -0.09733,0.671006 -0.286832,0.860496 -0.03378,0.0338 -0.122025,-0.04276 -0.143403,0 -0.124454,0.248923 -0.100712,0.581325 -0.286833,0.860495 -0.217263,0.325894 -0.542595,0.654939 -0.717078,1.003912 -0.04273,0.08551 0.03022,0.196134 0,0.286833 -0.306348,0.919038 -0.527777,1.617708 -0.286833,2.581486 0.02318,0.09276 -0.04273,0.201315 0,0.286833 0.02147,0.04276 0.109624,-0.0338 0.143425,0 0.06761,0.06761 -0.06761,0.219224 0,0.28683 0.03378,0.0338 0.122025,-0.04276 0.143425,0 0.04273,0.08551 -0.06761,0.219227 0,0.286833 0.06761,0.06761 0.219224,-0.0676 0.28683,0 0.06761,0.06761 -0.04273,0.201315 0,0.286832 0.01843,0.0369 0.486353,0.342935 0.573665,0.430247 0.248527,0.248529 0.564732,0.708149 0.860495,1.003912 0.03378,0.0338 0.109623,-0.0338 0.143425,0 0.174755,0.174755 0.255491,0.542324 0.430246,0.717079 0.03378,0.0338 0.122025,-0.04276 0.143424,0 0.04273,0.08551 -0.04273,0.201316 0,0.286833 0.06047,0.120941 0.208233,0.176792 0.286833,0.286832 0.319256,0.446955 0.534781,0.999869 0.860495,1.434158 0.199104,0.265468 0.567639,0.561613 0.717078,0.860496 0.122871,0.245748 0.280044,0.635194 0.430247,0.860496 0.222147,0.333219 0.464679,0.390116 0.573664,0.71708 0.168121,0.504363 0.43536,1.024355 0.573663,1.577574 0.103422,0.413675 0.04314,0.889632 0.143425,1.290745 0.05186,0.207407 0.244902,0.364024 0.286832,0.573662 0.06555,0.327767 0.03517,0.679185 0.143404,1.003912 0.09572,0.287193 0.345947,0.464171 0.430247,0.717079 0.03022,0.0907 -0.04273,0.201316 0,0.286833 0.02147,0.04276 0.109624,-0.0338 0.143425,0 0.02645,0.02643 0.116996,0.403821 0.143425,0.430247 0.296732,0.296733 -0.01149,-0.453446 0.286831,0.143425 0.176619,0.353227 -0.416296,-0.129462 0.143425,0.430249 0.03378,0.0338 0.122046,-0.04276 0.143425,0 0.06413,0.128269 -0.101406,0.328837 0,0.430247 0.08786,0.08786 0.375335,0.12209 0.430246,0.286832 0.210378,0.631127 0.493758,1.337848 0.717081,2.007824 0.05938,0.178159 0.385373,0.394162 0.430246,0.573663 0.04636,0.185509 -0.08551,0.40263 0,0.573663 0.166602,0.333214 0.349103,0.598191 0.430249,1.003912 0.442144,2.210715 0.143403,4.773883 0.143403,7.02738 0,1.756426 -0.06048,-0.423287 0.143424,1.003912 0.117493,0.822505 0.116583,3.486378 0,4.302478 -0.09618,0.673252 -0.265254,1.347854 -0.430246,2.007824 -0.09466,0.378692 -0.07201,1.005638 -0.143424,1.434158 -0.142731,0.856337 -0.07691,1.780174 -0.286833,2.724903 -0.07179,0.323085 -0.880297,2.703506 -1.003911,2.868319 -0.312905,0.41721 -0.308562,-0.17818 -0.430247,0.430248 -0.123217,0.616098 -0.163198,0.613234 -0.430248,1.147328 -0.240502,0.481004 -0.434583,1.594927 -0.573663,2.151237 -0.210789,0.84319 -0.795325,1.603752 -1.00391,2.438071 -0.129158,0.516642 -0.264642,1.080772 -0.430247,1.577577 -0.118079,0.354254 -0.47563,0.755187 -0.573664,1.147326 -0.02318,0.09276 0.03552,0.198063 0,0.286833 -0.218204,0.545513 -1.19295,2.483693 -1.577574,2.868319 -0.07559,0.07558 -0.227537,0.05451 -0.286833,0.143425 -0.05306,0.07955 0.05306,0.207278 0,0.286832 -0.0593,0.08894 -0.231833,0.05176 -0.286829,0.143425 -0.101406,0.169009 -0.07021,0.390654 -0.143425,0.573664 -0.143468,0.358666 -0.569131,0.634048 -0.717079,1.003912 -0.154417,0.386013 -0.264092,0.875353 -0.430248,1.290743 -0.122611,0.306537 -0.342195,0.91586 -0.573663,1.147327 -0.03378,0.03378 -0.109601,-0.03378 -0.143425,0 -0.05965,0.05964 -0.683864,1.874968 -0.717078,2.007823 -0.06361,0.254501 -0.440947,1.257201 -0.573663,1.434159 -0.121699,0.162267 -0.366111,0.237836 -0.430248,0.430249 -0.0851,0.255309 -0.0583,0.605186 -0.143425,0.860495 -0.106761,0.320264 -0.327384,0.695315 -0.430247,1.003912 -0.08543,0.256266 -0.08681,1.777594 0,1.864407 0.296732,0.296733 -0.01149,-0.453448 0.286831,0.143403 0.254231,0.508462 0.293389,1.173547 0.430249,1.720992 0.100776,0.403069 -0.08143,0.883517 0,1.290744 0.09342,0.467158 0.20474,0.94156 0.286831,1.434159 0.03144,0.188632 -0.04636,0.388153 0,0.573665 0.122698,0.490752 0.384498,0.387583 0.573663,0.860495 0.298155,0.745396 0.585757,1.650138 0.717079,2.438071 0.109016,0.654161 0.07641,1.233125 0.286832,1.864408 0.05737,0.172088 -0.05737,0.401564 0,0.573662 0.121722,0.365171 0.349378,0.630101 0.573663,1.003912 0.266995,0.444986 0.689967,1.49624 0.860494,2.007823 0.05531,0.165931 -0.07706,0.419554 0,0.573666 0.536301,1.072596 -0.04657,5.302626 -0.430246,6.453716 -0.07559,0.22677 -0.323351,0.35987 -0.430248,0.57366 -0.09772,0.19544 -0.105483,0.53572 -0.286833,0.71708 -1.014518,1.01452 -2.543364,1.47561 -4.015642,1.721 -0.613693,0.10228 -2.192001,-0.0343 -2.724901,0.14342 -0.380681,0.1269 -0.602909,0.38012 -1.003911,0.43024 -0.426924,0.0534 -0.864819,-0.0609 -1.29074,0 -0.678093,0.0969 -1.372042,0.21832 -2.007822,0.43026 -0.416572,0.13886 -0.200102,0.15008 -0.573662,0.43024 -0.224722,0.16853 -0.764235,0.14145 -0.860496,0.43025 -0.03022,0.0907 0.06761,0.21922 0,0.28683 -0.595628,0.59564 -0.590144,0.033 -1.00391,0.8605 -0.30904,0.61808 0.276884,1.52078 -0.143425,2.15124 -0.414697,0.62204 -0.765754,-0.52499 -1.147327,-0.14343 -0.03269,0.0327 -0.252429,1.14733 -0.143425,1.14733 0.04778,0 -0.03378,-0.1096 0,-0.14342 0.171069,-0.17107 0.912991,0.30901 1.003908,0.43024 0.0907,0.12094 0.049,0.3122 0.143425,0.43025 0.107672,0.1346 0.295655,0.17915 0.430249,0.28683 0.186636,0.14932 0.239028,0.43025 0.430245,0.57366 0.120942,0.0907 0.309309,0.0527 0.430249,0.14343 0.08551,0.0641 0.05448,0.22754 0.143425,0.28683 0.07955,0.053 0.196134,-0.0302 0.286831,0 0.199298,0.0664 0.560549,0.74869 0.717078,0.8605 0.173975,0.12426 0.390339,0.17684 0.573664,0.28683 0.09168,0.055 0.04779,0.23903 0.143425,0.28683 0.08551,0.0428 0.207278,-0.053 0.286831,0 0.08894,0.0593 0.05789,0.22269 0.143425,0.28683 0.239718,0.17979 0.717078,0.19366 0.717078,0.57367 0.742858,0.0745 0.368981,0.94272 0.716996,1.29073 0.121874,0.12187 0.32257,0.15223 0.430247,0.28683 0.312176,0.39022 0.347091,0.99737 0.860495,1.29075 0.853641,0.48779 2.584012,1.43415 3.441979,1.43415 1.843002,1.45973 3.83572,0.20444 5.880048,0 1.636307,-0.16363 3.411212,-0.54439 5.019555,-1.00391 0.50466,-0.14418 0.946842,-0.41122 1.434157,-0.57366 0.275703,-0.0919 0.727678,-0.14872 1.003911,-0.28684 1.352745,-0.67637 -0.03139,-0.0269 0.573662,-0.43024 0.952976,-0.63532 2.05405,-1.08254 3.01174,-1.721 0.26513,-0.17674 0.0889,-0.24373 0.28682,-0.57365 0.19078,-0.31798 0.62571,-0.71043 0.8605,-1.00391 0.24825,-0.31033 0.64156,-0.38869 0.8605,-0.71709 0.25162,-0.37742 0.74097,-1.23098 1.14732,-1.43415 0.0855,-0.0428 0.19806,0.0355 0.28683,0 0.68309,-0.27325 1.31197,-0.91538 2.00783,-1.14733 0.13605,-0.0454 0.28961,0.0281 0.43024,0 0.49329,-0.0987 0.90434,-0.35457 1.43416,-0.43025 1.51642,-0.21664 3.71061,0 5.30638,0 0.89329,0 -0.3572,0.0428 0.57367,-0.14343 0.47157,-0.0943 1.12193,0.0506 1.57757,0 0.67451,-0.0749 1.30425,-0.14342 2.00782,-0.14342 0.5874,0 1.28085,-0.0834 1.8644,0 0.67809,0.0969 0.81786,0.51164 1.43417,0.71708 0.32449,0.10817 0.6967,0.0565 1.00391,0.28683 0.10817,0.0812 0.16588,0.22637 0.28683,0.28683 0.12827,0.0641 0.32884,-0.10141 0.43024,0 0.10506,0.10506 0.24431,0.4497 0.43026,0.57367 0.32131,0.21421 0.61093,0.24092 0.86048,0.57366 0.6757,0.90092 0.77075,2.5639 0.43026,3.5854 -0.0477,0.14282 -0.23923,0.28742 -0.28683,0.43024 -0.0303,0.0907 0.0573,0.21034 0,0.28684 -0.10343,0.13789 -0.30837,0.16495 -0.43026,0.28683 -0.7329,0.73291 0.60134,-0.20004 -0.43024,0.57366 -1.72671,1.29503 -4.97096,1.15427 -7.02737,0.8605 -0.68421,-0.0977 -1.4569,0 -2.15124,0 -1.62538,0 -3.25076,0 -4.87614,0 -2.11773,0 -4.60748,0.54462 -6.59713,1.29075 -0.47624,0.17859 -1.14398,0.45691 -1.57757,0.71707 -0.11596,0.0696 -0.16588,0.22636 -0.28683,0.28684 -0.33039,0.16519 -0.3613,-0.12341 -0.71708,0.14342 -1.10027,0.82521 -2.138603,1.7733 -3.441981,2.29465 -0.990408,0.39616 0.123261,-0.0533 -0.860494,0.14343 -0.255134,0.051 -0.503234,0.21553 -0.717082,0.28683 -0.340574,0.11353 -0.79371,-0.0707 -1.147324,0 -0.467756,0.0935 -0.978177,0.17284 -1.43416,0.28684 -0.338248,0.0845 -0.665661,0.34568 -1.003909,0.43024 -0.252677,0.0632 -0.473044,0.0621 -0.71708,0.1434 -0.232455,0.0775 -0.513453,0.37934 -0.717079,0.43026 -0.22536,0.0564 -1.017322,0.10435 -1.290741,0.14342 -0.950872,0.13583 -2.055155,0 -3.011734,0 -2.151235,0 -4.302473,0 -6.45371,0 -0.277205,0 -1.694865,0.0261 -1.864405,-0.14342 -0.07559,-0.0756 -0.05446,-0.22755 -0.143425,-0.28684 -0.07955,-0.053 -0.196134,0.0302 -0.286833,0 -0.34766,-0.11589 -0.831513,-0.50654 -1.147324,-0.71708 -0.284116,0.0144 -0.06782,-0.21124 -0.143425,-0.28684 -0.155762,-0.15573 -1.307295,-0.79705 -1.43416,-0.86049 -0.256215,-0.12811 -0.268581,-0.51499 -0.430246,-0.71707 -0.288513,-0.36065 -0.570129,-0.57014 -0.860495,-0.8605 -0.544004,-0.54401 -0.08031,-0.27728 -0.430248,-0.8605 -0.09562,-0.0956 -0.191212,-0.19121 -0.286831,-0.28683 -0.0478,0 -0.109622,0.0338 -0.143425,0 -0.128984,-0.12898 -0.272123,-0.55896 -0.430248,-0.71708 -0.28309,-0.28309 -1.60989,-0.24289 -2.00782,-0.14342 -0.544216,0.13605 -2.193207,1.04588 -2.581484,1.43415 -0.198193,0.1982 -0.264086,0.69433 -0.430249,0.8605 -0.106891,0.10689 -0.300617,0.0657 -0.430246,0.14342 -0.308525,0.18512 -0.696962,0.56361 -1.003911,0.71708 -0.848145,0.42407 0.306738,-0.51688 -0.573665,0.14343 -0.10817,0.0812 -0.165887,0.22636 -0.28683,0.28682 -0.484672,0.24234 -1.092903,0.33134 -1.577574,0.57367 -0.12094,0.0605 -0.170895,0.21727 -0.286831,0.28683 -0.597348,0.35841 -1.377996,0.44716 -2.007822,0.71709 -0.370756,0.0154 -0.443293,0.43676 -0.71708,0.57366 -0.08551,0.0428 -0.198063,-0.0355 -0.286831,0 -0.342219,0.1369 -0.63032,0.48026 -1.003911,0.57366 -2.078111,0.51953 -4.310718,0.57367 -6.597127,0.57367 -0.583835,0 -1.592997,0.18607 -2.151236,0 -0.06413,-0.0214 -0.07784,-0.12701 -0.143425,-0.14342 -0.139132,-0.0347 -0.29709,0.0533 -0.430248,0 -0.125538,-0.0503 -0.162548,-0.23358 -0.28683,-0.28684 -0.224053,-0.096 -0.488842,-0.0578 -0.717081,-0.14343 -0.308454,-0.11566 -0.406772,-0.35266 -0.717079,-0.43024 -1.030577,-0.25765 -2.119173,-0.65859 -3.155147,-1.00391 -1.394154,-0.46472 -2.915613,-0.54163 -4.302474,-1.00391 -0.235559,-0.0785 -1.400961,-0.4412 -1.577573,-0.57367 -0.08551,-0.0641 -0.05176,-0.23183 -0.143425,-0.28683 -0.51296,-0.30778 -1.304745,-0.38711 -1.864406,-0.57367 -0.575694,-0.1919 -1.509831,-0.5285 -2.007822,-0.86049 -0.08894,-0.0593 -0.05446,-0.22754 -0.143425,-0.28684 -0.07955,-0.053 -0.196133,0.0302 -0.28683,0 -0.271367,-0.0904 -0.586552,-0.47093 -0.860494,-0.57365 -0.443608,-0.16635 -1.752351,-0.46521 -2.294655,-0.57367 -0.457587,-0.0915 -0.970779,0.0579 -1.434158,0 -1.376418,-0.17204 -2.760021,-0.14343 -4.159057,-0.14343 -1.389043,0 -4.312779,-0.21341 -5.593217,0 -0.859461,0.14326 -1.229026,0.45748 -2.007822,0.71709 -0.304761,0.10158 -0.823226,0 -1.147325,0 -0.01105,0 -0.700509,0.0331 -0.717078,0 -0.04276,-0.0856 0.03022,-0.19614 0,-0.28684 -0.273267,-0.8198 -0.02738,0.86699 -0.286833,-0.43025 -0.142882,-0.71438 0.174148,-1.51609 -0.143425,-2.15123 -0.05737,-0.11475 0.05737,-0.31553 0,-0.43025 -0.136985,-0.27399 -0.177248,-0.6075 -0.430246,-0.86049 -0.07559,-0.0756 -0.211246,-0.0679 -0.286832,-0.14343 -0.22747,-0.22747 -0.484262,-1.0393 -0.286833,-1.43417 0.319598,-0.63919 2.529087,-2.20584 3.155149,-2.58148 0.463097,-0.27786 1.34946,-0.32726 1.864406,-0.43025 1.05245,-0.21049 2.259336,0.25981 3.298563,0 0.464349,-0.11608 0.972817,-0.028 1.434157,-0.14342 2.426998,-0.809 -0.317864,0.005 1.434157,-0.28683 0.210877,-0.0351 0.366255,-0.23498 0.573665,-0.28684 0.556534,-0.13913 4.226651,-0.3121 4.73272,-0.14342 0.202811,0.0676 0.368098,0.2281 0.573665,0.28683 0.529627,0.15131 1.180878,0.009 1.72099,0.14343 0.359847,0.09 0.783233,-0.0728 1.147324,0 0.837717,0.16753 1.744944,0.22111 2.581485,0.43024 0.17998,0.045 0.393691,-0.045 0.573665,0 0.554734,0.13868 1.450818,0.44691 1.864405,0.8605 0.07559,0.0756 0.06782,0.21125 0.143425,0.28683 0.151166,0.15117 0.422491,0.13566 0.573665,0.28684 0.0338,0.0338 -0.04276,0.12204 0,0.14342 0.08551,0.0428 0.196133,-0.0302 0.28683,0 0.157171,0.0524 0.290761,0.33726 0.430249,0.43025 0.347758,0.23183 0.854001,0.42375 1.147327,0.71708 0.245516,0.24552 0.409373,0.4863 0.717079,0.71708 0.336848,0.25263 0.796234,0.3396 1.147324,0.57366 0.112507,0.075 0.165887,0.22636 0.286833,0.28683 0.147067,0.0735 0.426594,0.0699 0.573663,0.14343 0.701924,0.35096 0.183514,0.17347 0.71708,0.57366 0.213522,0.16014 2.047354,1.06489 2.294652,1.14732 0.817897,0.27264 1.6918,0.39574 2.581485,0.57367 0.374784,0.0749 0.880492,0.32769 1.290743,0.43025 0.46076,0.11519 3.045417,0.10799 3.585393,0 0.433985,-0.0868 0.719613,-0.3447 1.147327,-0.43025 0.140629,-0.0281 0.294191,0.0454 0.430249,0 0.04536,-0.0152 -0.04276,-0.12204 0,-0.14342 0.325721,-0.16285 0.925688,-0.19557 1.290741,-0.28684 0.377885,-0.0945 0.771015,-0.42314 1.147327,-0.57366 0.183016,-0.0732 0.434288,-0.004 0.573663,-0.14342 0.0338,-0.0338 -0.0338,-0.10963 0,-0.14343 0.05006,-0.0501 0.400481,0.0595 0.430248,0 0.04276,-0.0856 -0.06761,-0.21923 0,-0.28684 0.05071,-0.0507 0.472253,-0.042 0.573663,-0.14342 0.0338,-0.0338 -0.0338,-0.10963 0,-0.14342 0.118057,-0.11806 0.560408,-0.27358 0.717079,-0.43025 0.106305,-0.10631 0.10882,-0.25224 0.286832,-0.43025 0.0717,-0.0717 0.215126,-0.0717 0.286832,-0.14343 0.256764,-0.25676 0.605385,-0.89221 0.860494,-1.14732 0.0338,-0.0338 0.09562,0 0.143404,0 0.09562,-0.0956 0.205694,-0.17866 0.286833,-0.28683 0.317656,-0.42355 1.180161,-3.0325 1.290742,-3.5854 0.126644,-0.63321 0.373792,-1.2648 0.573663,-1.86441 0.02704,-0.0811 -0.05761,-0.37265 0,-0.43024 0.0338,-0.0338 0.122047,0.0428 0.143425,0 0.161811,-0.32364 0.143425,-0.75443 0.143425,-1.14733 0,-0.50345 0.187482,-1.13264 0.143403,-1.14733 -0.181411,-0.0605 -0.402628,0.0855 -0.573662,0 -1.174697,-0.58734 -2.694263,-0.69533 -4.015642,-0.8605 -0.466406,-0.0583 -0.970435,0.0773 -1.43416,0 -0.954021,-0.15901 -1.932786,-0.41774 -2.868315,-0.57366 -0.330085,-0.055 -0.679265,0.0812 -1.003911,0 -0.06558,-0.0165 -0.07712,-0.13015 -0.143424,-0.14343 -0.187504,-0.0375 -0.384364,0.027 -0.573663,0 -0.444504,-0.0635 -1.017778,-0.29144 -1.434159,-0.43024 -0.519925,-0.1733 -0.102056,-0.068 -0.430247,-0.28684 -0.491091,-0.32739 -1.183078,-0.53777 -1.720989,-0.71707 -0.447648,-0.14921 0.0478,-0.0956 -0.143425,-0.28684 -0.180891,-0.18088 -0.491068,-0.34765 -0.717079,-0.57366 -0.169442,-0.16944 -0.643202,-1.28207 -0.717078,-1.57758 -0.08304,-0.33215 0,-0.80341 0,-1.14732 0,-0.81855 -0.194551,-1.946692 0,-2.724904 0.154438,-0.617804 0.279281,-1.260549 0.430246,-1.864409 0.09005,-0.360199 0.813422,-1.546925 1.003911,-1.864407 0.20834,-0.347221 0.152054,-0.810382 0.286832,-1.147326 0.327291,-0.818229 0.221429,-0.09063 0.430246,-0.717079 0.287104,-0.861313 0.663547,-1.730576 1.003911,-2.581487 0.0912,-0.227968 0.33906,-0.489113 0.430247,-0.717081 0.475836,-1.189588 0.478419,-2.582582 0.860495,-3.728813 0.112528,-0.337559 -0.08597,-0.803472 0,-1.147328 0.01648,-0.06559 0.113179,-0.08296 0.143425,-0.143425 0.03022,-0.06043 0.198106,-3.082234 0.143425,-3.155149 -0.1217,-0.162267 -0.286831,-0.286833 -0.430247,-0.430249 z"
       id="path1200" />
    <text
       xml:space="preserve"
       style="font-size:145.799px;line-height:1.25;font-family:'Chess Leipzig';-inkscape-font-specification:'Chess Leipzig';fill:#000000;fill-opacity:1;stroke:#000000;stroke-width:0.966183;stroke-miterlimit:4;stroke-dasharray:none;stroke-opacity:1"
       x="-1.6266003"
       y="138.76784"
       id="text76144"
       transform="scale(0.97979304,1.0206237)"><tspan
         sodipodi:role="line"
         id="tspan76142"
         style="fill:#000000;fill-opacity:1;stroke:#000000;stroke-width:0.966183;stroke-miterlimit:4;stroke-dasharray:none;stroke-opacity:1"
         x="-1.6266003"
         y="138.76784">b</tspan></text>
    <path
       style="fill:#ffffff;fill-opacity:1;stroke:#ffffff;stroke-width:1.26909;stroke-linecap:round;stroke-linejoin:round;stroke-miterlimit:4;stroke-dasharray:none;stroke-opacity:1"
       d=""
       id="path8771"
       transform="scale(0.26458333)" />
  </g>
</svg>
