<?xml version="1.0" encoding="UTF-8" standalone="no"?>
<!-- Created with Inkscape (http://www.inkscape.org/) -->

<svg
   width="100mm"
   height="100mm"
   viewBox="0 0 100 100"
   version="1.1"
   id="svg5"
   inkscape:version="1.1.2 (b8e25be833, 2022-02-05)"
   sodipodi:docname="White_Bishop.svg"
   xmlns:inkscape="http://www.inkscape.org/namespaces/inkscape"
   xmlns:sodipodi="http://sodipodi.sourceforge.net/DTD/sodipodi-0.dtd"
   xmlns:xlink="http://www.w3.org/1999/xlink"
   xmlns="http://www.w3.org/2000/svg"
   xmlns:svg="http://www.w3.org/2000/svg">
  <sodipodi:namedview
     id="namedview7"
     pagecolor="#ffffff"
     bordercolor="#cccccc"
     borderopacity="1"
     inkscape:pageshadow="0"
     inkscape:pageopacity="0"
     inkscape:pagecheckerboard="true"
     inkscape:document-units="mm"
     showgrid="false"
     inkscape:zoom="1.4142136"
     inkscape:cx="195.16147"
     inkscape:cy="237.58788"
     inkscape:window-width="1920"
     inkscape:window-height="1057"
     inkscape:window-x="-8"
     inkscape:window-y="-8"
     inkscape:window-maximized="1"
     inkscape:current-layer="layer1"
     showborder="false" />
  <defs
     id="defs2">
    <linearGradient
       inkscape:collect="always"
       id="linearGradient7081">
      <stop
         style="stop-color:#000003;stop-opacity:1;"
         offset="0"
         id="stop7077" />
      <stop
         style="stop-color:#000003;stop-opacity:0;"
         offset="1"
         id="stop7079" />
    </linearGradient>
    <linearGradient
       inkscape:collect="always"
       id="linearGradient2415">
      <stop
         style="stop-color:#ffffff;stop-opacity:1;"
         offset="0"
         id="stop2411" />
      <stop
         style="stop-color:#ffffff;stop-opacity:0;"
         offset="1"
         id="stop2413" />
    </linearGradient>
    <linearGradient
       inkscape:collect="always"
       xlink:href="#linearGradient2415"
       id="linearGradient2417"
       x1="252.76004"
       y1="56.705269"
       x2="289.05634"
       y2="56.705269"
       gradientUnits="userSpaceOnUse" />
    <linearGradient
       inkscape:collect="always"
       xlink:href="#linearGradient7081"
       id="linearGradient7083"
       x1="201.46381"
       y1="63.513065"
       x2="303.51083"
       y2="63.513065"
       gradientUnits="userSpaceOnUse" />
  </defs>
  <g
     inkscape:label="Livello 1"
     inkscape:groupmode="layer"
     id="layer1">
    <text
       xml:space="preserve"
       style="font-size:40px;line-height:1.25;font-family:'Chess Condal';-inkscape-font-specification:'Chess Condal';fill:#ffffff;fill-opacity:1;stroke:none;stroke-width:0.264583;stroke-opacity:1"
       x="87.548508"
       y="91.29937"
       id="text29524"><tspan
         sodipodi:role="line"
         id="tspan29522"
         style="fill:#ffffff;fill-opacity:1;stroke:none;stroke-width:0.264583;stroke-opacity:1"
         x="87.548508"
         y="91.29937" /></text>
    <text
       xml:space="preserve"
       style="font-size:40px;line-height:1.25;font-family:'Chess Leipzig';-inkscape-font-specification:'Chess Leipzig';stroke-width:0.264583"
       x="254.01411"
       y="94.275764"
       id="text58610"><tspan
         sodipodi:role="line"
         id="tspan58608"
         style="stroke-width:0.264583"
         x="254.01411"
         y="94.275764" /></text>
    <text
       xml:space="preserve"
       style="font-size:67.2737px;line-height:1.25;font-family:'Chess Leipzig';-inkscape-font-specification:'Chess Leipzig';fill:#ffffff;fill-opacity:1;stroke:#fffffe;stroke-width:0.445687;stroke-miterlimit:4;stroke-dasharray:none;stroke-opacity:1"
       x="17.380354"
       y="82.423492"
       id="text76144-6"
       transform="scale(0.97979342,1.0206233)"><tspan
         sodipodi:role="line"
         id="tspan76142-3"
         style="fill:#ffffff;fill-opacity:1;stroke:#fffffe;stroke-width:0.445687;stroke-miterlimit:4;stroke-dasharray:none;stroke-opacity:1"
         x="17.380354"
         y="82.423492">b</tspan></text>
    <path
       style="fill:#ffffff;fill-opacity:1;stroke:#ffffff;stroke-width:2.27253;stroke-linecap:round;stroke-linejoin:round;stroke-miterlimit:4;stroke-dasharray:none;stroke-opacity:1"
       d="m 42.835868,54.850374 c -1.424009,-3.234659 -2.119396,-5.11902 -2.688376,-7.285031 -0.750779,-2.858047 -0.905423,-5.298186 -0.466577,-7.362086 0.385649,-1.813772 1.438391,-3.987304 2.793303,-5.767189 1.700057,-2.233289 4.299093,-4.626016 7.250197,-6.674671 l 0.453881,-0.315089 0.497406,0.344 c 2.032216,1.405452 4.286378,3.317898 5.660737,4.802602 2.875126,3.105966 4.360467,6.081265 4.59776,9.209819 0.199794,2.634338 -0.676541,6.26064 -2.616363,10.826574 -0.347886,0.818847 -1.111176,2.515486 -1.14843,2.552745 -0.0076,0.0076 -0.251933,-0.05756 -0.542909,-0.14487 -1.105763,-0.331769 -2.538952,-0.594133 -4.054425,-0.742217 -1.089629,-0.106472 -4.15088,-0.08979 -5.23211,0.02851 -1.490788,0.163113 -3.214275,0.501355 -4.022054,0.789342 -0.13467,0.04801 -0.26358,0.0873 -0.28647,0.0873 -0.02292,0 -0.110892,-0.157382 -0.19557,-0.349739 z m 9.708226,-8.127961 v -4.001027 h 2.042477 2.042488 v -2.546109 -2.546108 h -2.042488 -2.042477 v -2.85388 -2.85388 h -2.46217 -2.46217 v 2.85388 2.85388 h -2.070466 -2.07046 v 2.546108 2.546109 h 2.07046 2.070466 v 4.001027 4.001027 h 2.46217 2.46217 z"
       id="path8461" />
    <path
       style="fill:#ffffff;fill-opacity:1;stroke:#ffffff;stroke-width:0.803453;stroke-linecap:round;stroke-linejoin:round;stroke-miterlimit:4;stroke-dasharray:none;stroke-opacity:1"
       d="m 49.466553,44.785933 v -4.006319 h -2.057567 -2.05756 v -0.623205 -0.623205 h 2.05756 2.057567 v -2.868722 -2.868723 h 0.593531 0.593526 v 2.868723 2.868722 h 2.06746 2.067466 v 0.623205 0.623205 H 52.72107 50.65361 v 4.006319 4.00632 h -0.593526 -0.593531 z"
       id="path8539" />
    <path
       style="fill:#ffffff;fill-opacity:1;stroke:#ffffff;stroke-width:0.284066;stroke-linecap:round;stroke-linejoin:round;stroke-miterlimit:4;stroke-dasharray:none;stroke-opacity:1"
       d="m 49.655241,24.446423 c -0.282144,-0.0122 -0.497496,-0.08235 -0.664008,-0.216299 -0.16695,-0.134302 -0.270486,-0.351623 -0.313002,-0.657013 -0.0144,-0.103468 -0.0123,-0.450029 0.0036,-0.554809 0.05544,-0.370085 0.204216,-0.60541 0.462936,-0.732413 0.16935,-0.08313 0.355536,-0.119524 0.612245,-0.11969 0.208062,-1.33e-4 0.34956,0.01925 0.495432,0.06786 0.412764,0.137556 0.603762,0.477072 0.603762,1.073253 0,0.526889 -0.14955,0.852449 -0.466488,1.015498 -0.188292,0.09686 -0.426312,0.136932 -0.734327,0.123616 z"
       id="path8578" />
    <path
       style="fill:#ffffff;fill-opacity:1;stroke:#ffffff;stroke-width:0.284066;stroke-linecap:round;stroke-linejoin:round;stroke-miterlimit:4;stroke-dasharray:none;stroke-opacity:1"
       d="m 57.272582,24.642516 c -0.317333,-0.0341 -0.565181,-0.150574 -0.709019,-0.333189 -0.120012,-0.15236 -0.183708,-0.316338 -0.222144,-0.571839 -0.01644,-0.109216 -0.0204,-0.391266 -0.0072,-0.514841 0.05928,-0.556606 0.314154,-0.845367 0.822959,-0.932431 0.224394,-0.03841 0.535662,-0.03128 0.740634,0.01694 0.468245,0.110161 0.696833,0.40604 0.742985,0.961677 0.0098,0.11829 0.0042,0.350879 -0.01128,0.465154 -0.07292,0.539119 -0.336899,0.815044 -0.860303,0.899245 -0.0842,0.01355 -0.401712,0.01948 -0.496626,0.0093 z"
       id="path8617" />
    <path
       style="fill:#ffffff;fill-opacity:1;stroke:#ffffff;stroke-width:0.803453;stroke-linecap:round;stroke-linejoin:round;stroke-miterlimit:4;stroke-dasharray:none;stroke-opacity:1"
       d="m 61.912457,38.676848 c -0.3135,-0.963892 -0.966672,-2.675237 -1.319297,-3.45662 -1.136465,-2.518282 -2.698852,-4.536639 -4.631985,-5.983781 -0.245231,-0.183574 -0.263837,-0.202243 -0.295295,-0.296286 -0.04668,-0.139635 -0.04338,-0.315522 0.0081,-0.431105 0.08365,-0.187623 0.355361,-0.421138 0.623729,-0.536038 0.11964,-0.05122 0.168486,-0.06118 0.30108,-0.06136 0.1443,-1.58e-4 0.173262,0.0069 0.327984,0.08023 0.189569,0.08987 0.222161,0.122848 0.642383,0.650058 1.420937,1.78271 2.576644,3.996358 3.398247,6.509033 0.323928,0.990686 0.787464,2.657137 1.003224,3.606754 0.03918,0.172537 0.01188,0.13459 -0.05814,-0.08089 z"
       id="path8693" />
    <path
       style="fill:#ffffff;fill-opacity:1;stroke:#ffffff;stroke-width:0.803453;stroke-linecap:round;stroke-linejoin:round;stroke-miterlimit:4;stroke-dasharray:none;stroke-opacity:1"
       d="m 62.60332,42.705345 c -0.03804,-0.0037 -0.106308,-0.01165 -0.151626,-0.01757 l -0.0824,-0.01078 -0.01236,-0.172155 c -0.05304,-0.742433 -0.240906,-1.662693 -0.556469,-2.726642 -0.137496,-0.463566 -0.226056,-0.77501 -0.225798,-0.794213 9.6e-5,-0.008 0.02646,0.03112 0.0585,0.08704 0.141894,0.247413 0.487577,0.275699 0.669653,0.0548 0.120294,-0.145925 0.11445,-0.291728 -0.03588,-0.898381 -0.310529,-1.25277 -0.780317,-2.868868 -1.079597,-3.71389 -0.672495,-1.898808 -1.500435,-3.57037 -2.496668,-5.040658 -0.435713,-0.643042 -1.058537,-1.444003 -1.282247,-1.648992 -0.133896,-0.122691 -0.358931,-0.246345 -0.532673,-0.292688 -0.130392,-0.03478 -0.42741,-0.03364 -0.56385,0.0022 -0.169176,0.04441 -0.455219,0.198326 -0.615803,0.331356 -0.35745,0.296108 -0.493992,0.571629 -0.466542,0.941384 0.02346,0.315413 0.109254,0.472215 0.367554,0.671402 0.384941,0.296844 0.637985,0.500832 0.863015,0.695703 0.30336,0.262704 1.011149,0.972981 1.263761,1.268197 0.296712,0.346755 0.49401,0.593419 0.483252,0.604176 -0.0054,0.0053 -0.08437,-0.08169 -0.175656,-0.193377 -0.756648,-0.925762 -1.613879,-1.739651 -2.50702,-2.380248 -0.127758,-0.09164 -0.172776,-0.136994 -0.202728,-0.204256 -0.262458,-0.589483 -0.12564,-1.075539 0.41808,-1.485247 0.268535,-0.202347 0.612479,-0.337475 0.858959,-0.337475 0.160458,0 0.391896,0.06927 0.600311,0.179662 0.17577,0.09311 0.204678,0.117285 0.361146,0.302052 1.740203,2.054939 3.095656,4.651374 4.014087,7.689199 0.649973,2.149886 1.051127,3.87503 1.207631,5.193376 0.07197,0.60634 0.07493,1.506905 0.006,1.851221 -0.01236,0.06145 -0.01314,0.06167 -0.184704,0.04484 z"
       id="path8732" />
    <path
       style="fill:#ffffff;fill-opacity:1;stroke:#ffffff;stroke-width:0.40173;stroke-linecap:round;stroke-linejoin:round;stroke-miterlimit:4;stroke-dasharray:none;stroke-opacity:1"
       d="m 61.391813,38.44754 c -0.06755,-0.196967 -0.183294,-0.504101 -0.269322,-0.714706 -0.03774,-0.09249 -0.134784,-0.341775 -0.215556,-0.55396 -0.420923,-1.105679 -0.640757,-1.629974 -0.951899,-2.270248 -0.400098,-0.823315 -0.899813,-1.666651 -1.395065,-2.354331 -0.101124,-0.14042 -0.121818,-0.174717 -0.109548,-0.181607 0.01986,-0.01111 0.02154,-0.0092 0.146682,0.166769 0.66405,0.933298 1.275911,2.02852 1.740839,3.116026 0.283218,0.662497 0.713675,1.781936 1.004567,2.61246 0.09875,0.281934 0.114276,0.330453 0.105786,0.330453 -0.003,0 -0.02802,-0.06789 -0.05646,-0.150856 z"
       id="path8958" />
    <path
       style="fill:#ffffff;fill-opacity:1;stroke:#ffffff;stroke-width:0.803453;stroke-linecap:round;stroke-linejoin:round;stroke-miterlimit:4;stroke-dasharray:none;stroke-opacity:1"
       d="m 56.074509,58.543578 c -2.620534,-0.661998 -7.072362,-0.800787 -10.347183,-0.32258 -0.455502,0.06651 -1.022225,0.17037 -1.414583,0.259231 -0.174096,0.03943 -0.339978,0.07565 -0.368616,0.08048 l -0.05208,0.0088 0.240024,-0.801186 0.240024,-0.801189 0.286866,-0.06224 c 1.149341,-0.249352 2.515048,-0.412777 3.987716,-0.477181 0.713274,-0.03119 2.684476,-0.01384 3.292906,0.02899 1.343543,0.09458 2.439418,0.241751 3.501819,0.470286 0.255708,0.05501 0.467669,0.102488 0.471023,0.105512 0.0054,0.0046 0.181434,0.638916 0.386346,1.389761 0.03372,0.123821 0.04236,0.182324 0.02658,0.180902 -0.01284,-0.0011 -0.12573,-0.02797 -0.25086,-0.05958 z"
       id="path9071" />
    <path
       style="fill:#ffffff;fill-opacity:1;stroke:#ffffff;stroke-width:0.803453;stroke-linecap:round;stroke-linejoin:round;stroke-miterlimit:4;stroke-dasharray:none;stroke-opacity:1"
       d="m 48.799491,61.229816 c -0.676991,-0.295162 -1.224527,-0.542032 -1.216727,-0.548599 0.04632,-0.03901 2.466244,-1.069173 2.493508,-1.061487 0.054,0.01522 2.445502,1.046508 2.462332,1.061827 0.01332,0.01209 -2.47168,1.093546 -2.498308,1.087255 -0.0054,-0.0013 -0.563795,-0.243835 -1.240805,-0.538996 z"
       id="path9110" />
    <path
       style="fill:#ffffff;fill-opacity:1;stroke:#ffffff;stroke-width:0.803453;stroke-linecap:round;stroke-linejoin:round;stroke-miterlimit:4;stroke-dasharray:none;stroke-opacity:1"
       d="m 56.001933,61.675547 c -0.622061,-0.420946 -1.127945,-0.768448 -1.124153,-0.772228 0.0156,-0.01557 2.097239,-0.471876 2.101013,-0.460548 0.02682,0.08053 0.559751,1.890068 0.559751,1.900593 0,0.01196 -0.364842,0.103167 -0.395688,0.09891 -0.0054,-7.8e-4 -0.518855,-0.345777 -1.140923,-0.766725 z"
       id="path9149" />
    <path
       style="fill:#ffffff;fill-opacity:1;stroke:#ffffff;stroke-width:0.803453;stroke-linecap:round;stroke-linejoin:round;stroke-miterlimit:4;stroke-dasharray:none;stroke-opacity:1"
       d="m 42.848714,62.414783 c -0.05442,-0.01355 -0.09776,-0.03268 -0.09634,-0.04252 0.01,-0.06875 0.529374,-1.901199 0.543006,-1.915665 0.01632,-0.01726 1.93063,0.413833 1.960216,0.441418 0.01548,0.01444 -2.234968,1.534182 -2.278138,1.538442 -0.01644,0.0016 -0.07435,-0.0081 -0.128748,-0.02168 z"
       id="path9188" />
    <path
       style="fill:#ffffff;fill-opacity:1;stroke:#ffffff;stroke-width:0.803453;stroke-linecap:round;stroke-linejoin:round;stroke-miterlimit:4;stroke-dasharray:none;stroke-opacity:1"
       d="m 49.189575,67.615075 c -0.647436,-0.02568 -1.174631,-0.05282 -1.523393,-0.07844 -3.371997,-0.247677 -5.908285,-1.044368 -6.008113,-1.887252 -0.02166,-0.182503 0.143058,-0.427868 0.419052,-0.624397 0.695645,-0.495355 2.405914,-0.98175 4.308014,-1.225192 1.248671,-0.159813 2.243488,-0.216356 3.813441,-0.216751 1.331699,-3.15e-4 2.121748,0.03409 3.15559,0.137533 1.846606,0.18475 3.591087,0.586319 4.558004,1.049222 0.446405,0.213711 0.721403,0.425362 0.835079,0.642713 0.0612,0.11701 0.06284,0.292504 0.0036,0.405161 -0.172236,0.328555 -0.721361,0.65609 -1.568603,0.935616 -1.36486,0.450299 -3.011937,0.713046 -5.232943,0.834782 -0.367074,0.02012 -2.425696,0.04026 -2.759908,0.02701 z"
       id="path9227" />
    <path
       style="fill:#ffffff;fill-opacity:1;stroke:#ffffff;stroke-width:0.803453;stroke-linecap:round;stroke-linejoin:round;stroke-miterlimit:4;stroke-dasharray:none;stroke-opacity:1"
       d="M 41.948523,77.208615 C 40.828204,77.123595 39.662549,76.958817 39.020441,76.794693 38.228892,76.592379 36.634963,76.007536 36.382315,75.82672 35.947664,75.515638 35.17001,75.02407 34.714071,74.772185 34.464783,74.634467 33.946173,74.376437 33.713314,74.274269 l -0.1929,-0.08464 v -1.025957 c 0,-0.564282 0.0074,-1.025957 0.0165,-1.025957 0.0252,0 0.478175,0.180642 0.745199,0.297125 1.077371,0.469998 2.37616,1.263041 3.460785,2.113157 0.266604,0.208962 0.435828,0.310697 0.891762,0.536123 0.571517,0.282588 1.069097,0.4638 1.49572,0.544722 0.67515,0.128076 1.925861,0.135714 3.173368,0.01938 1.055879,-0.09847 1.854208,-0.296112 2.338516,-0.57897 0.568613,-0.332075 1.686904,-1.388867 2.052064,-1.93918 0.329364,-0.496374 0.65022,-1.251125 0.930689,-2.189304 0.150732,-0.504171 0.214056,-0.631033 0.415116,-0.831663 0.164484,-0.164137 0.306162,-0.253406 0.519906,-0.327596 0.152706,-0.053 0.364943,-0.09708 0.466721,-0.0969 0.14133,1.59e-4 0.410718,0.07629 0.607068,0.171386 0.15495,0.07504 0.216162,0.119223 0.348581,0.251569 0.207006,0.206891 0.274662,0.341996 0.461802,0.92224 0.323388,1.002664 0.660402,1.758687 0.987563,2.215383 0.415524,0.580031 1.525607,1.61137 2.000645,1.858714 0.655859,0.341502 1.588876,0.517332 3.209943,0.604908 0.795401,0.04296 1.261019,0.03528 1.904291,-0.03114 0.614873,-0.0636 1.199435,-0.25797 2.032564,-0.675804 0.350118,-0.175595 0.508691,-0.267071 0.623201,-0.359525 0.2508,-0.202458 0.787176,-0.6015 1.083707,-0.806238 2.087855,-1.441547 4.147815,-2.213722 6.147721,-2.304472 l 0.291828,-0.01326 v 0.972473 0.972468 H 69.61015 c -0.18783,0 -0.706253,0.05496 -1.020677,0.108252 -1.463057,0.247841 -3.086619,0.973241 -4.727942,2.112394 -0.284724,0.19761 -0.348708,0.232362 -0.672665,0.365304 -0.731496,0.300209 -1.536803,0.574235 -2.168285,0.737813 -0.623909,0.161622 -1.773652,0.32943 -2.855835,0.416826 -0.345192,0.0279 -1.827515,0.01386 -2.139695,-0.02034 -1.297781,-0.141786 -2.350024,-0.578778 -3.311493,-1.375259 -0.104682,-0.08671 -0.626567,-0.590064 -1.159757,-1.118567 -1.086167,-1.076616 -1.336205,-1.307519 -1.454195,-1.342865 -0.192822,-0.05778 -0.25986,-0.0018 -1.58269,1.324931 -0.538626,0.540155 -1.05945,1.047911 -1.157382,1.128353 -1.053899,0.865655 -2.22244,1.318031 -3.620529,1.401623 -0.305783,0.0183 -1.575694,0.02316 -1.790476,0.0068 z"
       id="path9266" />
    <path
       style="fill:#ffffff;fill-opacity:1;stroke:#ffffff;stroke-width:0.803453;stroke-linecap:round;stroke-linejoin:round;stroke-miterlimit:4;stroke-dasharray:none;stroke-opacity:1"
       d="m 56.529543,77.598974 c -0.597396,-0.01902 -1.022219,-0.07478 -1.533281,-0.201378 -0.889211,-0.220259 -1.750558,-0.653471 -2.473036,-1.243805 -0.166824,-0.136307 -0.672791,-0.621419 -1.434359,-1.37521 -0.616745,-0.610452 -1.045511,-1.018554 -1.070141,-1.018554 -0.01392,0 -0.301997,0.270942 -0.745067,0.700716 l -0.143442,0.139128 v -2.52661 -2.52662 l 0.09398,-0.04748 c 0.242688,-0.122637 0.687815,-0.222358 0.894053,-0.200295 0.26775,0.02864 0.666792,0.173583 0.883391,0.32086 0.160596,0.109197 0.37287,0.325022 0.47685,0.484814 0.115626,0.177705 0.173946,0.319624 0.372168,0.905766 0.09212,0.272369 0.222888,0.635237 0.290622,0.806369 0.146543,0.370332 0.409601,0.905711 0.546563,1.112411 0.305472,0.46104 1.249973,1.381091 1.786805,1.740557 0.178547,0.119556 0.453419,0.237755 0.759071,0.326417 0.693449,0.201144 1.957546,0.334026 3.195117,0.335892 1.267793,0.0018 1.770695,-0.105114 2.809372,-0.597815 0.359106,-0.170346 0.60171,-0.308526 0.781481,-0.445134 0.794154,-0.603468 1.154232,-0.859421 1.642097,-1.167257 1.899053,-1.198283 3.744171,-1.847615 5.605472,-1.972654 0.447581,-0.03 0.530807,-0.02712 0.632471,0.02208 0.09652,0.04668 0.18921,0.170946 0.209928,0.28134 l 0.01236,0.06544 0.35958,0.02388 c 0.845429,0.05604 1.770382,0.23718 2.48878,0.487392 0.110417,0.0384 0.259211,0.06398 0.581573,0.09976 0.714953,0.07935 1.495787,0.217374 1.495787,0.264401 0,0.0081 -0.0868,0.04848 -0.192906,0.0898 -0.309474,0.120456 -0.771179,0.35148 -0.974339,0.48753 -0.632322,0.423426 -0.733758,0.867107 -0.325176,1.422137 0.04974,0.06761 0.08764,0.12558 0.08416,0.128838 -0.0036,0.003 -0.188334,-0.08513 -0.410802,-0.19644 -0.275729,-0.137958 -0.439451,-0.232818 -0.514391,-0.298026 -0.152928,-0.133074 -0.300858,-0.19428 -0.739248,-0.305838 -0.544469,-0.138551 -1.026821,-0.212225 -1.628164,-0.248669 l -0.219726,-0.01332 -0.02286,0.09049 c -0.02556,0.101375 -0.11595,0.215861 -0.208416,0.263903 -0.04284,0.02232 -0.14994,0.03672 -0.354798,0.048 -1.076021,0.05916 -2.089468,0.329346 -3.267735,0.8712 -0.624155,0.287033 -1.263317,0.653747 -2.035162,1.167653 -0.546552,0.363911 -0.553848,0.367859 -1.032803,0.560837 -0.716124,0.288534 -1.567097,0.572598 -2.155097,0.719394 -0.551015,0.137573 -1.481813,0.280289 -2.462458,0.377549 -0.474545,0.04704 -1.326443,0.06388 -2.058244,0.04056 z"
       id="path9305" />
    <path
       style="fill:#ffffff;fill-opacity:1;stroke:#ffffff;stroke-width:1.13627;stroke-linecap:round;stroke-linejoin:round;stroke-miterlimit:4;stroke-dasharray:none;stroke-opacity:1"
       d="m 42.989192,79.340767 c -0.08464,-0.0048 -0.279792,-0.02766 -0.433674,-0.05034 -0.153893,-0.0228 -0.525311,-0.06059 -0.825389,-0.08416 -0.889487,-0.06983 -2.16676,-0.248718 -2.811676,-0.393792 -0.913289,-0.205434 -1.996126,-0.610415 -3.070845,-1.148459 -0.37416,-0.187326 -0.545688,-0.292344 -0.762546,-0.466853 -0.800933,-0.64455 -1.697974,-1.088184 -2.715291,-1.342829 -0.73434,-0.183822 -1.144097,-0.228228 -2.111123,-0.228834 -0.894503,-4.74e-4 -1.092161,0.01578 -1.72072,0.14175 -0.862374,0.172896 -1.526177,0.439559 -2.387242,0.958997 -0.594372,0.358558 -0.785784,0.5224 -1.663727,1.424073 -0.583038,0.598793 -1.013543,0.931589 -1.384733,1.070477 l -0.152454,0.05706 -0.122598,-0.100464 c -0.244056,-0.199974 -0.35052,-0.489888 -0.351708,-0.957713 -0.0012,-0.458286 0.09402,-0.802728 0.375252,-1.358039 0.370932,-0.732426 0.896843,-1.421675 1.849247,-2.423596 0.225593,-0.23733 0.405947,-0.435738 0.400775,-0.440916 -0.0054,-0.0054 -0.234882,0.02946 -0.510455,0.077 -0.543162,0.09366 -0.97002,0.197388 -1.774103,0.4311 -0.770783,0.22404 -0.922013,0.258054 -1.426565,0.32088 -0.570791,0.07107 -0.771305,0.07439 -0.794795,0.0132 -0.06079,-0.158441 0.02142,-0.483455 0.234324,-0.926819 0.197124,-0.410429 0.284034,-0.540551 0.543773,-0.814235 0.404508,-0.426222 0.838374,-0.717335 1.667099,-1.118579 0.300078,-0.145284 0.917009,-0.444288 1.370975,-0.664452 0.453959,-0.220162 1.001657,-0.46919 1.217099,-0.553395 1.093667,-0.427462 2.169844,-0.690111 3.357507,-0.819419 0.609924,-0.06641 1.873109,-0.06727 2.476156,-0.0017 2.609194,0.283745 4.784319,1.222028 6.932257,2.990359 0.335136,0.27591 0.394421,0.31341 0.611381,0.386748 0.59142,0.199914 1.357271,0.364181 2.025257,0.434405 0.598475,0.06292 1.784104,0.04272 2.313184,-0.0393 1.669198,-0.259037 2.759895,-0.949259 3.363585,-2.128594 0.308928,-0.603479 0.46008,-1.237145 0.517986,-2.171441 l 0.01392,-0.224619 -0.579216,-0.06285 c -3.076233,-0.333773 -5.523307,-1.097668 -6.361033,-1.985707 -0.206238,-0.21862 -0.307212,-0.402597 -0.32442,-0.591072 -0.0098,-0.107126 0.202038,-0.868797 1.261319,-4.535474 0.700194,-2.423699 1.281251,-4.439367 1.291235,-4.479262 0.01494,-0.05944 -0.04242,-0.173959 -0.317573,-0.634479 -0.730776,-1.223108 -1.488185,-2.634256 -2.075729,-3.86733 -0.195527,-0.410361 -0.364187,-0.773449 -0.374789,-0.806863 l -0.01932,-0.06075 h 10.340199 10.3402 v 0.523637 0.523636 l -0.193584,0.322735 c -0.10647,0.177505 -0.357966,0.561957 -0.558876,0.85434 -0.669509,0.974337 -1.560394,2.317768 -1.7908,2.700472 l -0.227676,0.378198 1.276409,4.476148 c 1.029473,3.610201 1.273877,4.498673 1.263287,4.592574 -0.05598,0.496847 -0.765653,1.066964 -1.867192,1.50005 -1.334543,0.524692 -3.195508,0.926887 -5.159168,1.11501 l -0.360732,0.03455 0.01824,0.337746 c 0.0573,1.064332 0.334338,1.910269 0.849869,2.595139 0.654936,0.870083 1.674533,1.394825 3.126976,1.609336 0.26988,0.03984 0.516905,0.04938 1.259057,0.04872 0.817445,-6e-4 0.969839,-0.0081 1.329017,-0.06403 0.358355,-0.0558 0.722627,-0.126773 0.958277,-0.186659 l 0.07695,-0.01962 v 2.713983 2.71399 l -0.06362,0.01602 c -0.172164,0.0432 -1.296071,0.190686 -1.741031,0.228456 -0.276996,0.02358 -0.667307,0.06232 -0.867353,0.08624 -0.670049,0.08013 -1.031975,0.10005 -1.516751,0.08348 -1.163081,-0.03972 -2.08537,-0.258102 -3.015879,-0.714024 -1.193987,-0.585029 -2.072255,-1.386142 -2.956594,-2.696907 l -0.242616,-0.359598 -0.222558,0.331218 c -0.578687,0.861209 -1.190117,1.522228 -1.908802,2.063608 -1.355927,1.021409 -2.995792,1.479593 -4.89584,1.367909 z m 1.468907,-1.725923 c 0.709823,-0.118572 1.282061,-0.298938 1.874608,-0.590861 0.763968,-0.376362 1.212131,-0.711486 2.028227,-1.516649 0.444221,-0.438288 0.565781,-0.573144 0.539903,-0.599028 -0.02592,-0.02592 -0.1644,0.09464 -0.615275,0.53535 -0.853602,0.834353 -1.251911,1.131365 -2.008811,1.497911 -0.742997,0.359819 -1.395125,0.539477 -2.276278,0.627095 -0.447743,0.04446 -2.016736,0.03606 -2.538652,-0.01362 -1.794712,-0.170958 -2.673646,-0.364955 -4.173416,-0.921209 -0.71181,-0.264006 -0.96006,-0.386304 -1.469261,-0.723845 -0.875141,-0.580128 -1.722305,-1.05672 -2.360308,-1.327835 -0.07883,-0.03342 -0.182706,-0.105756 -0.230826,-0.160572 -0.07306,-0.08321 -0.0875,-0.122736 -0.0875,-0.239568 0,-0.139716 -1.56e-4,-0.139998 -0.12924,-0.195324 -0.167892,-0.07196 -0.794567,-0.26022 -1.115837,-0.335208 -1.190543,-0.277871 -2.645986,-0.250637 -3.867507,0.07237 -0.435072,0.115044 -0.580776,0.173436 -0.709967,0.28455 -0.125118,0.107604 -0.87168,0.53931 -0.932646,0.53931 -0.0097,0 0.03258,-0.0665 0.094,-0.147774 0.25017,-0.331356 0.332436,-0.68148 0.216096,-0.919769 -0.147976,-0.3031 -0.616071,-0.617158 -1.413357,-0.948256 l -0.31806,-0.132084 0.09422,-0.02892 c 0.247494,-0.07586 0.71457,-0.153192 1.376999,-0.227982 0.385308,-0.04344 0.568314,-0.07867 0.801348,-0.154002 1.435355,-0.464028 3.011691,-0.582402 4.471976,-0.335826 0.397704,0.06715 1.060541,0.226392 1.334003,0.320472 l 0.142554,0.04902 0.0912,-0.08149 c 0.05016,-0.04476 0.128268,-0.0889 0.173568,-0.09796 0.0453,-0.0091 0.08236,-0.03378 0.08236,-0.05496 0,-0.0471 -0.01302,-0.04758 0.1698,0.0065 0.351371,0.103878 1.207541,0.489672 1.74355,0.785669 0.82458,0.455352 1.560557,0.932748 2.34829,1.523219 0.521898,0.3912 1.000385,0.658326 1.613999,0.901049 0.700625,0.27714 0.957149,0.312504 2.266312,0.312444 1.348451,-6e-5 2.145058,-0.07489 2.944726,-0.276588 0.639245,-0.161238 0.906899,-0.306785 1.498552,-0.814853 0.402402,-0.345546 1.023348,-0.986717 1.205513,-1.244771 0.301182,-0.426642 0.599742,-1.105169 0.898722,-2.042486 0.194028,-0.608282 0.263436,-0.765447 0.422267,-0.956314 0.10026,-0.120467 0.143448,-0.246792 0.08438,-0.246792 -0.04026,0 -0.242885,0.281364 -0.332405,0.461656 -0.04578,0.09233 -0.142578,0.36303 -0.21498,0.601554 -0.259464,0.854811 -0.583554,1.625876 -0.856062,2.036702 -0.325565,0.490824 -1.3633,1.476245 -1.892086,1.796723 -0.454848,0.275669 -1.252127,0.461957 -2.415628,0.564425 -0.622271,0.05478 -2.289442,0.04734 -2.64775,-0.01182 -0.364146,-0.06014 -0.823799,-0.209328 -1.277765,-0.414737 -0.501167,-0.226758 -0.841169,-0.429846 -1.264631,-0.755388 -0.820751,-0.630971 -1.848592,-1.278773 -2.725708,-1.717912 -1.702696,-0.852456 -3.250563,-1.246772 -4.890836,-1.245915 -1.102247,5.99e-4 -2.019694,0.134397 -2.997489,0.437241 -0.327168,0.101328 -0.49266,0.134772 -0.892746,0.180408 -1.456948,0.166194 -1.965418,0.348624 -1.9651,0.705054 1.56e-4,0.242303 0.132342,0.357851 0.651275,0.569543 0.72837,0.297132 1.279614,0.64311 1.278924,0.802703 -6e-4,0.142098 -0.178698,0.37461 -0.614364,0.802164 -0.499956,0.490637 -0.554982,0.570179 -0.50646,0.732113 0.07083,0.236418 0.262662,0.246936 0.743364,0.04074 0.545063,-0.233784 1.479575,-0.744671 1.72243,-0.941639 0.144168,-0.116928 0.991476,-0.321354 1.635071,-0.394482 0.450984,-0.05124 1.469093,-0.04428 1.841177,0.01254 0.936047,0.142974 1.820848,0.42627 2.775399,0.888635 0.673458,0.326202 1.395707,0.753258 2.045033,1.209179 0.305496,0.2145 0.396413,0.26076 0.937301,0.476928 1.627025,0.650238 2.56294,0.873473 4.474118,1.067189 0.562176,0.057 2.734828,0.04014 3.119686,-0.02412 z m 7.666314,-9.559626 c 3.445953,-0.181032 6.199105,-0.898881 6.892002,-1.796999 0.179058,-0.232097 0.238266,-0.390243 0.238668,-0.637464 3.18e-4,-0.178668 -0.0132,-0.240381 -0.08693,-0.397957 -0.198588,-0.424381 -0.683172,-0.769611 -1.531835,-1.09132 -1.018823,-0.386204 -2.515612,-0.705046 -4.098957,-0.873144 -1.709776,-0.181518 -4.225646,-0.204233 -6.057499,-0.05469 -2.540494,0.207391 -4.856594,0.802944 -5.735743,1.47487 -0.639077,0.488438 -0.724781,1.143736 -0.21894,1.674057 0.887003,0.929932 3.760017,1.601403 7.408584,1.731513 0.766284,0.02733 2.40286,0.01252 3.190654,-0.02887 z m -7.422714,-6.189057 c 0.894479,-0.604002 1.648054,-1.108947 1.674622,-1.122102 0.03528,-0.0175 0.53478,0.187214 1.862093,0.76327 l 1.81378,0.78719 1.829627,-0.787146 c 1.336067,-0.574808 1.84264,-0.780704 1.877908,-0.76327 0.02658,0.01314 0.778548,0.517276 1.671113,1.120324 l 1.622837,1.09645 0.522227,-0.11959 c 0.28722,-0.06577 0.529464,-0.126834 0.538326,-0.135688 0.0089,-0.0089 -0.170604,-0.646612 -0.39879,-1.41724 -0.312522,-1.055451 -0.42543,-1.401214 -0.457638,-1.401433 -0.02358,-1.59e-4 -0.827537,0.174252 -1.786732,0.387585 l -1.743983,0.387878 -1.822582,-0.783414 c -1.002419,-0.430879 -1.835177,-0.783752 -1.850561,-0.784164 -0.01542,-4.74e-4 -0.842735,0.352827 -1.838548,0.784975 l -1.810559,0.785722 -1.714816,-0.399954 c -0.943158,-0.219976 -1.716923,-0.398363 -1.719497,-0.396417 -0.0186,0.01403 -0.792437,2.830312 -0.784391,2.854509 0.0054,0.01697 0.204372,0.07682 0.441635,0.133003 0.237252,0.05618 0.435024,0.103395 0.439488,0.104921 0.0042,0.0016 0.739967,-0.491406 1.634441,-1.095409 z m 12.304016,-2.616056 c -6e-4,-0.01154 -0.162186,-0.606425 -0.359112,-1.321964 l -0.358056,-1.30098 -0.445283,-0.103605 c -1.174836,-0.273348 -2.586316,-0.465562 -4.096575,-0.557868 -0.701928,-0.04291 -2.792362,-0.04265 -3.497403,4.75e-4 -1.563263,0.0955 -2.80174,0.2619 -3.996195,0.536915 l -0.243708,0.05612 -0.399275,1.331561 c -0.2196,0.732359 -0.393336,1.337498 -0.386082,1.344755 0.0073,0.0073 0.231234,-0.04468 0.497723,-0.115408 0.599172,-0.159027 1.264181,-0.298546 1.869509,-0.392217 3.031173,-0.469065 7.040238,-0.406469 9.789724,0.15285 0.348672,0.07093 1.187075,0.279676 1.443935,0.35951 0.105852,0.03291 0.182178,0.03709 0.180798,0.0099 z"
       id="path9344" />
    <text
       xml:space="preserve"
       style="font-size:67.4759px;line-height:1.25;font-family:'Chess Leipzig';-inkscape-font-specification:'Chess Leipzig';fill:#000003;fill-opacity:1;stroke:#000000;stroke-width:0.447026;stroke-miterlimit:4;stroke-dasharray:none;stroke-opacity:1"
       x="17.248127"
       y="82.612259"
       id="text76144"
       transform="scale(0.97979342,1.0206233)"><tspan
         sodipodi:role="line"
         id="tspan76142"
         style="fill:#000003;fill-opacity:1;stroke:#000000;stroke-width:0.447026;stroke-miterlimit:4;stroke-dasharray:none;stroke-opacity:1"
         x="17.248127"
         y="82.612259">b</tspan></text>
    <path
       style="fill:#ffffff;fill-opacity:1;stroke:#ffffff;stroke-width:1.26909;stroke-linecap:round;stroke-linejoin:round;stroke-miterlimit:4;stroke-dasharray:none;stroke-opacity:1"
       d=""
       id="path8771"
       transform="scale(0.26458333)" />
  </g>
</svg>
