<?xml version="1.0" encoding="UTF-8" standalone="no"?>
<!-- Created with Inkscape (http://www.inkscape.org/) -->

<svg
   width="550"
   height="550"
   viewBox="0 0 145.52083 145.52084"
   version="1.1"
   id="svg5"
   inkscape:version="1.1.2 (b8e25be833, 2022-02-05)"
   sodipodi:docname="White_Rook.svg"
   xmlns:inkscape="http://www.inkscape.org/namespaces/inkscape"
   xmlns:sodipodi="http://sodipodi.sourceforge.net/DTD/sodipodi-0.dtd"
   xmlns="http://www.w3.org/2000/svg"
   xmlns:svg="http://www.w3.org/2000/svg">
  <sodipodi:namedview
     id="namedview7"
     pagecolor="#ffffff"
     bordercolor="#cccccc"
     borderopacity="1"
     inkscape:pageshadow="0"
     inkscape:pageopacity="1"
     inkscape:pagecheckerboard="true"
     inkscape:document-units="mm"
     showgrid="false"
     inkscape:zoom="0.77593296"
     inkscape:cx="264.19808"
     inkscape:cy="260.33177"
     inkscape:window-width="1920"
     inkscape:window-height="1057"
     inkscape:window-x="-8"
     inkscape:window-y="-8"
     inkscape:window-maximized="1"
     inkscape:current-layer="layer1"
     showborder="false"
     fit-margin-top="10"
     lock-margins="true"
     fit-margin-left="10"
     fit-margin-right="10"
     fit-margin-bottom="10"
     units="px"
     width="550px" />
  <defs
     id="defs2" />
  <g
     inkscape:label="Livello 1"
     inkscape:groupmode="layer"
     id="layer1"
     transform="translate(-249.49091,-32.383642)">
    <text
       xml:space="preserve"
       style="font-size:40px;line-height:1.25;font-family:'Chess Condal';-inkscape-font-specification:'Chess Condal';fill:#ffffff;fill-opacity:1;stroke:none;stroke-width:0.264583;stroke-opacity:1"
       x="87.548508"
       y="91.29937"
       id="text29524"><tspan
         sodipodi:role="line"
         id="tspan29522"
         style="fill:#ffffff;fill-opacity:1;stroke:none;stroke-width:0.264583;stroke-opacity:1"
         x="87.548508"
         y="91.29937" /></text>
    <text
       xml:space="preserve"
       style="font-size:40px;line-height:1.25;font-family:'Chess Leipzig';-inkscape-font-specification:'Chess Leipzig';stroke-width:0.264583"
       x="254.01411"
       y="94.275764"
       id="text58610"><tspan
         sodipodi:role="line"
         id="tspan58608"
         style="stroke-width:0.264583"
         x="254.01411"
         y="94.275764" /></text>
    <path
       style="fill:#ffffff;fill-opacity:1;stroke:none;stroke-width:0.998361px;stroke-linecap:butt;stroke-linejoin:miter;stroke-opacity:1"
       d="m 280.06064,45.014054 c 0.53709,4.524574 0.94454,8.749813 0.94454,13.364137 0,0.566965 -0.2374,3.721829 0,4.162599 0.0353,0.06531 0.20097,-0.06531 0.23623,0 0.36745,0.681873 -0.16924,3.848752 0.23622,4.600767 0.14455,0.2683 0.27971,1.135707 0.47229,1.314507 0.12457,0.115468 0.34787,0.103621 0.47225,0.219088 0.0787,0.07302 0.15748,0.584225 0.23622,0.65725 0.12458,0.115469 0.34787,0.10362 0.47229,0.219089 0.70318,0.652416 -0.35296,0.285383 0.70839,0.876339 0.21351,0.118812 0.49501,0.100277 0.70844,0.21909 0.38195,0.212548 0.54629,0.691588 0.94454,0.876339 0.14103,0.06531 0.3228,-0.04619 0.47229,0 0.55733,0.172348 0.85702,0.914109 1.18072,1.314506 0.37999,0.469897 0.78361,0.507961 1.18068,0.876336 0.39257,0.364208 0.32163,0.745883 0.47229,1.095419 -0.82028,1.717194 0.55906,0.380132 0.7084,0.657253 0.0705,0.130625 -0.0705,0.307519 0,0.438169 0.0975,0.180817 0.79697,0.246457 0.94457,0.657253 0.0498,0.138547 -0.0498,0.299593 0,0.438167 0.152,0.423135 0.40119,0.07658 0.7084,0.219089 0.0705,0.03271 -0.0556,0.167442 0,0.21909 0.42312,0.392558 1.11695,0.758009 1.41683,1.314506 0.49881,0.925517 -0.60811,1.347493 -0.94454,1.971759 -0.29851,0.554183 0.0439,1.014112 -0.23623,1.533588 -0.38312,0.711204 -0.94453,1.33293 -0.94453,1.971759 0,1.400307 -0.44985,3.985145 0.23622,5.258018 0.20332,0.377203 0.5097,0.911042 0.70843,1.095425 0.11792,0.109544 0.59037,-0.109544 0.70844,0 0.25737,0.238897 0.70839,1.38169 0.70839,1.752671 0,0.576911 -0.17981,1.043272 -0.47229,1.314506 -0.0556,0.05165 -0.20096,-0.06531 -0.23622,0 -0.0705,0.130625 0.0498,0.299593 0,0.438167 -0.14926,0.41543 -0.49411,0.916819 -0.70844,1.314506 -0.24797,0.460138 0.17629,1.262461 0,1.752674 -0.579,1.611519 -0.9653,4.34319 0,6.13436 0.44225,0.8206 -0.44224,-0.38243 0,0.43816 0.15161,0.28103 0.60361,0.58465 0.70844,0.87634 0.19235,0.53546 0.20057,1.02944 0.47225,1.53359 0.26169,0.4857 -0.14651,1.55585 -0.23622,1.97176 -0.0787,0.36512 -0.10773,1.73361 -0.23623,1.97176 -0.11243,0.20862 -1.00953,1.15568 -1.18072,1.31451 -0.0556,0.0516 -0.20096,-0.0653 -0.23622,0 -0.1093,0.20291 -0.0353,3.19168 0,3.28626 0.14259,0.39682 0.0529,1.19359 0.23622,1.53359 0.0498,0.0924 0.21429,0.11779 0.23622,0.21909 0.0866,0.40083 -0.20958,1.36361 0,1.75266 0.24524,0.45513 1.41683,2.4593 1.41683,2.62902 0,0.13367 0.0921,0.79097 0,0.87633 -0.0556,0.0516 -0.20096,-0.0653 -0.23622,0 -0.0705,0.13063 0.11126,0.33489 0,0.43817 -0.11126,0.10329 -0.38509,-0.12154 -0.47225,0 -0.40362,0.56166 -0.73296,8.93693 -0.47229,9.42062 0.0498,0.0924 0.15748,0.14604 0.23622,0.21909 0,0.14607 -0.0497,0.29959 0,0.43816 0.0705,0.19597 0.40186,0.2422 0.47229,0.43817 0.078,0.21683 0.0517,0.70512 0.23622,0.87634 0.0556,0.0516 0.1806,-0.0516 0.23623,0 0.31496,0.2921 -0.31497,1.46056 0,1.75267 0.17041,0.15821 0.68218,-0.38948 0.23622,0.43817 -0.0842,0.15654 -1.03707,-0.13324 -1.18068,0 -0.28245,0.26205 0.0623,1.4758 -0.23623,1.75268 -0.0556,0.0516 -0.18059,-0.0517 -0.23622,0 -0.11791,0.10954 0.11792,0.54771 0,0.65725 -0.93815,0.87041 -2.65952,0.94548 -4.25048,1.3145 -0.23544,0.0546 -0.42873,0.41797 -0.47229,0.43817 -0.14064,0.0653 -0.3228,-0.0462 -0.47229,0 -0.56745,0.17548 -1.07327,1.04558 -1.65298,1.31451 -2.61509,1.21311 -2.83996,0.68056 -3.54208,3.28626 -0.23623,0.87697 0.30712,1.99318 0,2.84809 -0.18569,0.51735 -0.35258,0.97901 -0.47226,1.53359 -0.0462,0.21484 0.16689,0.50234 0,0.65726 -0.0815,0.0757 -0.58777,-0.0225 -0.70843,0 -0.8685,0.16116 -1.76004,0.50185 -2.59755,0.65725 -0.38587,0.0716 -0.90239,-0.2582 -1.18068,0 -0.28911,0.26819 0.0737,2.06899 0,2.40992 -0.21781,1.01004 0.0568,3.12849 -0.23623,3.94353 -0.42567,1.18478 -0.43597,3.38728 0,4.60076 0.13947,0.38775 -0.31104,1.68323 0,1.97176 0.11792,0.10954 0.35414,0.10954 0.47229,0.21909 0.31497,0.29211 -0.0787,1.24148 0.23623,1.5336 0.11125,0.10325 0.3608,-0.1033 0.47229,0 0.0556,0.0516 -0.0705,0.18641 0,0.21909 0.28166,0.13062 0.64583,-0.0924 0.94454,0 0.49649,0.15356 1.08713,0.30693 1.65297,0.43817 0.59404,0.13778 1.28708,-0.11173 1.88911,0 2.62588,0.48725 5.39204,0.68771 8.02872,1.09541 2.07003,0.3201 4.29107,-0.24176 6.37579,0 5.83623,0.67685 12.25683,0.21909 18.1827,0.21909 0.70839,0 1.42231,-0.0815 2.12526,0 0.64407,0.0747 1.24505,0.36347 1.88912,0.43817 1.55993,0.18089 3.19872,-0.0423 4.72277,-0.21909 0.81433,-0.0944 1.80066,0.18482 2.59751,0 1.54458,-0.35825 3.24429,-0.16384 4.72282,-0.43817 0.48815,-0.0906 0.92577,-0.36225 1.41683,-0.43817 1.58602,-0.24525 3.19582,-0.30308 4.72277,-0.65724 0.65833,-0.15269 1.69038,0 2.36137,0 1.60553,0 3.19872,-0.0637 4.72281,0.21908 0.94775,0.17588 2.15668,-0.2824 3.0698,0 1.1884,0.36753 2.51239,0.48948 3.77823,0.65726 1.04534,0.13855 2.25145,0 3.30595,0 2.67625,0 5.35247,0 8.02872,0 0.87888,0 5.94173,0.18358 6.37579,-0.21909 0.57696,-0.5353 0.66992,-1.71697 1.18068,-2.19083 0.0556,-0.0517 0.18059,0.0516 0.23622,0 0.29107,-0.27016 0.36707,-0.80231 0.47225,-1.09543 0.0932,-0.2595 0.57567,-0.4109 0.70844,-0.65725 0.35923,-0.6663 0.0458,-2.98204 -0.23623,-3.50535 -0.2656,-0.49255 0.0983,-1.6425 0,-2.19084 -0.16727,-0.93085 -0.1947,-2.29442 -0.47229,-3.06718 -0.0235,-0.0692 -0.18059,0.0516 -0.23622,0 -0.11126,-0.10329 0.11126,-0.33489 0,-0.43817 -0.0556,-0.0516 -0.18059,0.0517 -0.23622,0 -0.35414,-0.32863 -0.35414,-0.98588 -0.70844,-1.31451 -0.41031,-0.38065 -1.30267,-0.9895 -1.65297,-1.31449 -0.0392,-0.0356 -0.20763,-0.64398 -0.23622,-0.65726 -0.14064,-0.0653 -0.33142,0.0653 -0.47229,0 -0.0705,-0.0327 0.0353,-0.15378 0,-0.21909 -0.24602,-0.45656 -1.13861,-1.05641 -1.41683,-1.31451 -0.11126,-0.10329 0.0874,-0.31664 0,-0.43817 -0.37647,-0.52378 -0.54692,-0.27702 -0.70839,-0.87633 -0.0572,-0.21255 0.16688,-0.50234 0,-0.65725 -0.0556,-0.0516 -0.1806,0.0516 -0.23623,0 -0.0995,-0.0921 0.0431,-0.7961 0,-0.87634 -0.0353,-0.0653 -0.15748,0 -0.23622,0 -0.0787,-0.073 -0.18647,-0.1267 -0.23622,-0.21909 -0.18295,-0.33976 0.0752,-0.44329 -0.23622,-0.87634 -0.15749,-0.21909 -0.27149,-0.47106 -0.47229,-0.65725 -0.0556,-0.0516 -0.20097,0.0653 -0.23623,0 -0.17942,-0.33306 -0.087,-0.74968 -0.23622,-1.09542 -0.16845,-0.39085 -1.24971,-1.78468 -1.65297,-1.97176 -0.0705,-0.0327 -0.1806,0.0516 -0.23623,0 -0.12457,-0.11547 -0.0897,-0.34757 -0.23622,-0.43817 -0.13084,-0.081 -0.31966,0.0352 -0.47229,0 -1.01493,0.45723 -0.2609,-0.37285 -0.47229,-0.43817 -0.22407,-0.0692 -0.4793,0.0532 -0.70839,0 -0.21585,-0.0501 -0.26561,-0.36145 -0.47229,-0.43816 -0.37255,-0.13829 -0.82169,-0.0526 -1.18068,-0.21909 -0.20332,-0.0943 -0.49419,-0.38848 -0.70844,-0.43817 -0.22917,-0.0532 -0.4972,0.098 -0.70839,0 -0.15749,-0.073 -0.0897,-0.34757 -0.23623,-0.43817 -0.0537,-0.0331 -1.60204,-0.39092 -1.65297,-0.43817 -0.0435,-0.0404 -0.19274,-0.61687 -0.23622,-0.65724 -0.0556,-0.0516 -0.21115,0.0692 -0.23622,0 -0.14456,-0.4029 -0.0799,-4.15963 0,-4.38169 0.0235,-0.0692 0.18059,0.0516 0.23622,0 0.17942,-0.16639 -0.0537,-1.06593 0,-1.3145 0.62793,-2.9129 -0.11831,7.2e-4 0.47229,-1.09543 0.26286,-0.48765 0,-4.87182 0,-5.69618 0,-0.68542 -0.22917,-1.99157 0,-2.62902 0.32358,-0.90074 0.16727,-1.77987 0.47225,-2.62901 0.28323,-0.7887 -0.28323,-1.8403 0,-2.62901 0.0482,-0.13371 0.42426,-0.52355 0.47229,-0.65725 0.0313,-0.0884 0.27814,-4.92201 0.23622,-5.03893 -0.13398,-0.37309 -0.23701,-0.76821 -0.47229,-1.09543 -0.0435,-0.0608 -0.18059,0.0516 -0.23622,0 -0.11792,-0.10954 0.11791,-0.54771 0,-0.65725 -0.0556,-0.0516 -0.1806,0.0516 -0.23622,0 -0.0776,-0.0718 -0.38431,-0.71284 -0.47229,-0.87634 -0.0313,-0.0609 -0.16375,-1.26434 -0.23623,-1.53358 -0.0979,-0.36399 -0.22839,-2.63606 0,-2.8481 0.12458,-0.11547 0.34787,-0.10362 0.47229,-0.21909 0.13868,-0.12866 0.0196,-0.91547 0.23623,-1.3145 0.22055,-0.40896 -0.22056,-1.12463 0,-1.53359 0.0353,-0.0653 0.18059,0.0516 0.23622,0 0.0353,-0.0331 0,-3.913499 0,-4.162599 0,-0.634505 -0.76062,-2.896544 -1.18069,-3.286262 -0.0556,-0.05165 -0.18059,0.05165 -0.23622,0 -0.25267,-0.234536 -0.67137,-3.389352 -0.47225,-3.94352 0.41188,-1.146496 2.06752,-0.988293 2.59751,-1.971755 0.25503,-0.473346 -0.0517,-1.848851 -0.23622,-2.190841 -0.0353,-0.06531 -0.20097,0.06531 -0.23622,0 -0.10577,-0.195975 0.16688,-0.502339 0,-0.657253 -0.31497,-0.292107 -0.22643,0.464747 -0.47225,-0.21909 -0.0498,-0.138547 0.0705,-0.307517 0,-0.438167 -0.38548,-0.715154 -0.12693,1.063022 -0.47229,-0.21909 -0.0235,-0.08443 -0.45823,-1.945703 -0.47229,-1.971755 -0.0787,-0.146072 -0.37451,-0.08319 -0.47229,-0.21909 -0.11635,-0.1617 -0.38979,-1.248539 -0.23622,-1.533588 0.23857,-0.442471 1.61814,-1.156543 1.88908,-1.533588 0.0874,-0.121538 -0.0498,-0.299595 0,-0.438171 0.0705,-0.195974 0.37255,-0.253435 0.47228,-0.438168 0.23114,-0.428953 0.43077,-1.082754 0.70844,-1.533589 0.19509,-0.317039 0.55338,-0.540719 0.70839,-0.876337 0.27383,-0.593105 0.0274,-0.913356 0.47229,-1.533588 0.0435,-0.06077 0.1806,0.05165 0.23623,0 0.17511,-0.162392 -0.0568,-0.604411 0.23622,-0.876336 0.0556,-0.05165 0.18059,0.05165 0.23622,0 0.66397,-0.616031 1.35611,-1.449086 1.88908,-2.190845 0.0787,-0.07302 0.15748,-0.146072 0.23622,-0.21909 0.0787,0 0.1806,0.05165 0.23622,0 0.0556,-0.05165 -0.0556,-0.167441 0,-0.219089 0.43112,-0.399972 1.39881,-0.859584 1.88912,-1.314506 0.12458,-0.11547 0.13868,-0.302284 0.23622,-0.438167 0.36159,-0.503318 0.13477,0.09395 0.70844,-0.438169 0.59972,-0.556441 0.84829,-0.961492 1.41683,-1.752672 0.71039,-0.988629 1.14194,-2.118973 1.65297,-3.067181 0.28167,-0.522706 0,-2.040427 0,-2.62901 0,-0.219088 0.16688,-0.502338 0,-0.657253 -0.25307,-0.234643 -0.23622,-0.114087 -0.23622,-0.657252 0,-0.463482 -0.0682,-2.755701 -0.23623,-3.067181 -0.0352,-0.06531 -0.18059,0.05165 -0.23622,0 -0.1281,-0.118958 0.17159,-4.063032 -0.47225,-5.258021 -0.55009,-1.020684 0.66076,-4.425868 -0.47229,-5.477103 -0.34474,-0.31973 -2.05784,-0.4069 -2.59755,-0.657253 -0.35884,-0.166426 -1.02199,0.09159 -1.41683,0 -0.86337,-0.200263 -4.31453,-0.517997 -4.95892,-0.21909 -0.15748,0.07302 -0.34787,0.103621 -0.47229,0.21909 -0.0556,0.05165 0.0744,0.196009 0,0.219089 -0.2985,0.09239 -0.7219,-0.20655 -0.94453,0 -0.22957,0.212874 -0.69046,0.859652 -0.94458,1.09542 -0.0556,0.05165 -0.1806,-0.05165 -0.23623,0 -0.22956,0.212911 -0.0415,0.635454 -0.23622,0.876339 -0.10577,0.130625 -0.37451,0.0832 -0.47229,0.219089 -0.15552,0.2164 -0.37411,1.479442 -0.47229,1.752674 -0.10694,0.29745 -0.37411,0.512541 -0.47229,0.876339 -0.12105,0.449983 0.11518,4.274929 -0.23622,4.600765 -0.31966,0.296541 -4.89949,0.136875 -5.43121,0.219088 -0.17354,0.0269 -0.31496,0.146073 -0.47229,0.21909 -0.39354,0.07302 -0.78176,0.177947 -1.18068,0.21909 -1.24528,0.128372 -2.53706,0.07516 -3.77823,0.219089 -2.16334,0.250891 -7.62812,1.248031 -9.44555,-0.438168 -0.13946,-0.129498 -0.40859,-0.977196 -0.47229,-1.095424 -0.12693,-0.235518 -0.34552,-0.421743 -0.47229,-0.657249 -0.15004,-0.278187 0.1046,-0.804252 0,-1.095422 -0.43417,-1.208498 -0.23622,-2.799271 -0.23622,-4.1626 0,-0.36551 0.23818,-1.750606 0,-1.97176 -0.55295,-0.513039 -1.94917,-0.164644 -2.83366,-0.438167 -0.37686,-0.11656 -0.67885,-0.438168 -1.18068,-0.438168 -1.88912,0 -3.77824,0 -5.66735,0 -0.5602,0 -2.49844,-0.311006 -2.83366,0 -0.0556,0.05165 0.0772,0.204769 0,0.219089 -0.38587,0.0716 -0.79477,-0.0716 -1.18072,0 -0.0772,0.01417 0.0196,0.148253 0,0.21909 -0.0603,0.224032 -0.14377,0.442834 -0.23623,0.657253 -0.22016,0.510825 -0.3604,0.472612 -0.47225,1.09542 -0.0678,0.378027 0.10303,0.931689 0,1.314507 -0.0427,0.158429 -0.18059,0.283238 -0.23622,0.438167 -0.14847,0.413155 0.0733,3.875641 -0.23622,4.162602 -0.92158,0.855025 -0.12693,-0.0507 -0.70844,0.219088 -0.98273,0.455891 0.25229,-0.01526 -0.23622,0.438168 -0.11556,0.107291 -4.13374,0.646425 -4.25048,0.657253 -2.88455,0.26761 -5.80791,0.21909 -8.73716,0.21909 -0.98144,0 -4.09288,0.170532 -4.72277,-0.21909 -0.60916,-0.376773 -0.63757,-0.591501 -0.94458,-0.876335 -0.11125,-0.103294 -0.3608,0.103294 -0.47225,0 -0.92158,-0.855029 0.0548,-0.11765 -0.23622,-0.657253 -0.16062,-0.297776 -0.54794,-0.578566 -0.70843,-0.876335 -0.42325,-0.785363 -0.23623,-2.385332 -0.23623,-3.286266 0,-0.740476 0.33847,-2.439149 0,-3.067177 -0.0274,-0.04761 -1.08956,-0.134513 -1.18068,-0.219089 -0.0556,-0.05165 0.0556,-0.167442 0,-0.219089 -0.11126,-0.103293 -0.33142,0.06531 -0.47229,0 -2.15147,-0.998048 -6.04045,-1.314503 -8.50101,-1.314503 -0.47225,0 -1.08286,-0.309843 -1.41683,0 -0.20057,0.186234 -0.73609,0.902024 -0.94453,1.095421 z"
       id="path860" />
    <text
       xml:space="preserve"
       style="font-size:150.934px;line-height:1.25;font-family:'Chess Leipzig';-inkscape-font-specification:'Chess Leipzig';fill:#000000;fill-opacity:1;stroke:#000000;stroke-width:0.998361;stroke-opacity:1"
       x="234.96609"
       y="184.51622"
       id="text60506"
       transform="scale(1.0381939,0.96321123)"><tspan
         sodipodi:role="line"
         id="tspan60504"
         style="fill:#000000;fill-opacity:1;stroke:#000000;stroke-width:0.998361;stroke-opacity:1"
         x="234.96609"
         y="184.51622">r</tspan></text>
  </g>
</svg>
