<?xml version="1.0" encoding="UTF-8" standalone="no"?>
<!-- Created with Inkscape (http://www.inkscape.org/) -->

<svg
   width="550"
   height="550"
   viewBox="0 0 145.52083 145.52083"
   version="1.1"
   id="svg5"
   inkscape:version="1.1.2 (b8e25be833, 2022-02-05)"
   sodipodi:docname="Black_King.svg"
   xmlns:inkscape="http://www.inkscape.org/namespaces/inkscape"
   xmlns:sodipodi="http://sodipodi.sourceforge.net/DTD/sodipodi-0.dtd"
   xmlns="http://www.w3.org/2000/svg"
   xmlns:svg="http://www.w3.org/2000/svg">
  <sodipodi:namedview
     id="namedview7"
     pagecolor="#ffffff"
     bordercolor="#cccccc"
     borderopacity="1"
     inkscape:pageshadow="0"
     inkscape:pageopacity="1"
     inkscape:pagecheckerboard="true"
     inkscape:document-units="mm"
     showgrid="false"
     inkscape:zoom="1.0973349"
     inkscape:cx="318.04328"
     inkscape:cy="258.80886"
     inkscape:window-width="1920"
     inkscape:window-height="1057"
     inkscape:window-x="-8"
     inkscape:window-y="-8"
     inkscape:window-maximized="1"
     inkscape:current-layer="layer1"
     showborder="false"
     fit-margin-top="10"
     lock-margins="true"
     fit-margin-left="10"
     fit-margin-right="10"
     fit-margin-bottom="10"
     units="px" />
  <defs
     id="defs2" />
  <g
     inkscape:label="Livello 1"
     inkscape:groupmode="layer"
     id="layer1"
     transform="translate(9.9999995,9.9999863)">
    <path
       style="fill:#161c47;fill-opacity:1;stroke:#161c47;stroke-width:0.991067px;stroke-linecap:butt;stroke-linejoin:miter;stroke-opacity:1"
       d="m 19.122225,115.31583 c -1.164258,-0.77912 -0.388623,-0.91888 -0.684304,-1.78803 -0.305115,-0.89694 -0.151063,0.003 -0.456204,-0.89401 -0.127488,-0.37478 0.05979,-3.07051 -0.228107,-3.35256 -0.471958,-0.46244 0.01853,0.70667 -0.456209,-0.22351 -0.068,-0.13325 0.068,-0.31372 0,-0.447 -0.04806,-0.0943 -0.180011,-0.12926 -0.228107,-0.22351 -0.068,-0.13326 0.107545,-0.34164 0,-0.44701 -0.05377,-0.0527 -0.174335,0.0527 -0.228108,0 -0.114054,-0.11176 0.114054,-0.55876 0,-0.67052 -0.05377,-0.0527 -0.174335,0.0527 -0.228107,0 -0.16128,-0.15802 0.0722,-0.45846 0,-0.6705 -0.215128,-0.63231 -0.823742,-1.16727 -1.140508,-1.78803 -0.14849,-0.29095 -0.04995,-0.85567 -0.228108,-1.11752 -0.0943,-0.1386 -0.354195,-0.0902 -0.456207,-0.22351 -0.144252,-0.18847 -0.120563,-0.45979 -0.228108,-0.67051 -0.228146,-0.44711 -0.678416,-0.58254 -0.912412,-1.11752 -0.123476,-0.28236 -0.06679,-0.63061 -0.228107,-0.89401 -0.921483,-1.504835 -0.04855,1.5976 -0.684316,-0.89402 -0.146408,-0.573869 -0.06978,-1.506653 -0.456204,-2.011531 -0.10202,-0.13326 -0.361877,-0.08487 -0.456204,-0.223508 -0.08931,-0.131297 -0.228107,-3.338308 -0.228107,-4.023069 0,-0.651974 -0.285022,-1.899999 0,-2.458535 0.158063,-0.309752 0.557459,-0.546221 0.684303,-0.670507 0.221675,-0.217207 0.06679,-0.630618 0.228108,-0.894018 0.377884,-0.617129 0.897634,-0.879536 1.368616,-1.341019 0.105426,-0.103339 -0.06887,-0.535567 0,-0.67051 0.436791,-0.855987 0.917028,-3.346529 0.228107,-4.246566 C 12.405662,81.136083 10.116324,79.748321 8.6294738,77.320198 8.4338718,77.000767 8.086356,76.772044 7.9451624,76.426182 7.2192174,74.647902 6.5075203,72.870723 5.8922427,71.0621 5.6438141,70.331847 5.1353931,69.589154 4.9798311,68.827062 4.8476891,68.179658 4.8839031,67.462934 4.7517235,66.815533 4.5370495,65.763892 4.0256085,64.781724 3.8393116,63.686479 3.2365367,60.142744 2.9159978,56.619832 3.3831077,52.958315 3.5173686,51.905783 3.6344879,48.666116 4.067408,47.81773 4.163639,47.629258 4.4043094,47.546056 4.5236157,47.370724 4.7034756,47.106391 4.6982158,46.529133 4.9798196,46.25321 c 0.053773,-0.05269 0.1743351,0.05269 0.2281076,0 0.424928,-0.416374 0.7155724,-1.148163 1.1405083,-1.564535 0.3135154,-0.307158 0.7999244,-0.392401 1.1405114,-0.670504 0.9535112,-0.778568 1.5200909,-1.731711 2.509135,-2.45854 0.4756281,-0.349538 1.7309951,-0.644371 2.0529191,-1.117519 0.08431,-0.123993 -0.107545,-0.341644 0,-0.447011 0.0061,-0.006 2.556902,-1.28212 2.73722,-1.341013 0.144251,-0.04709 0.34867,0.105341 0.456208,0 0.120222,-0.117797 0.08662,-0.354616 0.228108,-0.447008 0.342729,-0.22388 1.006024,-0.0459 1.368615,-0.223508 0.4604,-0.225551 0.878029,-0.653664 1.368616,-0.894016 0.48424,-0.237228 1.136883,-0.221731 1.596715,-0.447009 0.305267,-0.149575 0.542789,-0.531848 0.684301,-0.67051 0.221674,-0.217205 0.632011,-0.08613 0.912412,-0.223508 0.192347,-0.09429 0.252174,-0.380363 0.456207,-0.447004 0.84026,-0.274454 1.888079,-0.01557 2.737232,-0.223511 1.433163,-0.351055 6.241311,-0.520225 7.755453,-0.223508 0.482895,0.09466 0.890257,0.553322 1.36861,0.670507 0.287217,0.07034 0.867665,-0.133666 1.140539,0 0.716334,0.35095 0.971348,0.242752 1.596714,0.447009 0.101796,0.03337 0.122607,0.202817 0.228183,0.223509 0.298191,0.05847 0.617346,-0.0723 0.912396,0 0.07379,0.01816 -0.06812,0.190173 0,0.223508 0.912392,0.447008 0.113901,-0.223508 0.684321,0 0.315599,0.12373 0.589795,0.341641 0.912395,0.447008 0.330353,0.107896 0.817372,0.06526 1.140498,0.223509 0.345871,0.169408 2.847106,1.44867 2.965324,1.564532 0.05373,0.05269 -0.06812,0.190177 0,0.223511 0.203965,0.09996 0.480282,-0.09997 0.684325,0 0.190341,0.09329 0.427945,0.656671 0.456214,0.670504 0.135852,0.0666 0.311812,-0.04708 0.456214,0 0.571859,0.186804 0.924428,0.905808 1.140504,1.117527 0.09876,0.09681 0.76519,0.350835 0.91239,0.447006 0.323545,0.211384 0.281542,0.499494 0.456217,0.670507 0.042,0.04119 0.642281,0.182314 0.684321,0.223509 0.04957,0.04847 0.183529,0.425218 0.228186,0.447006 0.135848,0.06663 0.329597,-0.08261 0.456175,0 0.141527,0.09239 0.107847,0.329219 0.228182,0.446999 0.05373,0.05269 0.160072,-0.03337 0.228186,0 0.34776,0.170339 0.493566,0.613667 0.684321,0.894018 0.243701,0.358249 0.748275,0.348943 0.912393,0.670512 0.09763,0.191139 0.130553,0.479361 0.228185,0.670507 0.182394,0.357808 0.783732,0.292253 0.912392,0.670518 0.04806,0.141341 -0.08439,0.323024 0,0.447006 0.103308,0.152098 1.469189,1.216052 1.596715,1.341012 0.09574,0.0937 0.158933,0.535058 0.228182,0.67052 0.183533,0.359363 0.439569,0.127253 0.684325,0.447006 0.203965,0.266522 0.215696,0.65842 0.456178,0.894015 0.292893,0.286877 0.69314,0.455632 0.912429,0.670508 0.05374,0.05269 -0.06812,0.190176 0,0.223511 0.135849,0.06663 0.320138,-0.06663 0.456215,0 0.07872,0.03856 0.377281,0.816562 0.456178,0.894015 0.07909,0.07749 0.873115,0.369969 0.912431,0.447006 0.06812,0.13326 -0.107467,0.341641 0,0.447012 0.107469,0.105375 0.329599,-0.08261 0.456215,0 0.174069,0.11368 0.432262,1.105805 0.456178,1.117518 0.135849,0.06663 0.320138,-0.06663 0.456217,0 0.18769,0.09203 0.388402,1.141725 0.456213,1.341017 0.287594,0.844952 1.187651,1.656963 1.596716,2.458546 0.06812,0.133259 -0.107468,0.34164 0,0.447006 0.278891,0.27312 0.950802,0.484622 1.1405,0.670507 0.107472,0.105378 -0.10747,0.341644 0,0.447006 0.244834,0.240045 2.661875,-0.596673 2.737218,-0.670515 0.120332,-0.117797 0.107844,-0.329219 0.228182,-0.446998 0.120336,-0.117798 0.336033,-0.105711 0.456214,-0.223509 0.240293,-0.235595 0.215697,-0.658419 0.456216,-0.894015 0.120334,-0.1178 0.354194,-0.09025 0.456177,-0.223508 0.659425,-0.861465 1.703278,-3.784877 2.281039,-4.917084 0.184287,-0.361517 0.683679,-0.334336 0.912429,-0.670507 0.764738,-1.12401 1.3456,-1.541989 2.281003,-2.458537 0.511803,-0.501475 0.86861,-1.298123 1.368607,-1.788031 0.466471,-0.457062 0.65053,-0.557416 1.140539,-1.117517 0.736051,-0.841429 1.754438,-1.272066 2.509107,-2.011538 0.277758,-0.272232 0.106714,-0.499346 0.456217,-0.670505 0.214937,-0.105378 0.484255,-0.09281 0.684283,-0.223508 0.07758,-0.05054 0.627564,-0.800976 0.912432,-0.894016 0.144177,-0.04709 0.308784,0.03597 0.456215,0 0.706081,-0.172971 0.262999,-0.288842 0.912392,-0.670517 0.788765,-0.463706 2.534463,-1.4983 3.421539,-1.788031 0.297434,-0.09711 0.631989,-0.08613 0.912395,-0.223508 0.564252,-0.27642 1.141937,-0.983693 1.824822,-1.117514 0.223644,-0.04387 0.480282,0.09996 0.684324,0 0.152119,-0.07457 0.07606,-0.372509 0.228183,-0.447011 0.203965,-0.09996 0.460644,0.04387 0.684283,0 2.063264,-0.404331 -0.619575,-0.02113 0.684324,-0.447007 0.398547,-0.130181 0.741953,-0.09329 1.1405,-0.223508 0.102171,-0.03337 0.152122,-0.148981 0.228186,-0.223508 0.152121,-0.07445 0.291379,-0.183093 0.456214,-0.223508 0.29516,-0.0723 0.623852,0.09429 0.912393,0 0.735447,-0.240195 1.657753,-0.280164 2.509146,-0.44701 0.361763,-0.07094 0.782785,0.08761 1.1405,0 0.653217,-0.159993 1.248613,-0.482306 1.824824,-0.670507 0.344734,-0.11257 0.787098,0.08654 1.1405,0 1.878062,-0.460056 3.983102,-0.22351 5.930692,-0.22351 0.95707,0 2.8317,-0.177198 3.6496,0.22351 0.19224,0.09429 0.26375,0.352763 0.45622,0.44701 0.2804,0.137374 0.62135,0.109419 0.91242,0.223508 0.35004,0.137265 1.32559,0.628385 1.59673,0.894015 0.12033,0.1178 0.0825,0.361292 0.22818,0.447007 0.26867,0.158066 0.6436,0.06545 0.91243,0.223508 0.43611,0.854689 -0.067,0.20156 0.68428,0.447011 0.26224,0.08554 0.31636,0.533591 0.45622,0.670507 2.06007,2.018534 0.0461,0.02264 0.91243,0.447007 0.15211,0.07445 0.076,0.372507 0.22818,0.447007 0.13585,0.06663 0.31181,-0.04709 0.45618,0 0.36176,0.118168 0.47006,0.684084 0.68433,0.894017 0.38204,0.374354 1.10723,0.861413 1.3686,1.117512 0.22175,0.217204 0.0541,0.638426 0.22818,0.894015 0.59335,0.872064 0.838,0.784642 1.36862,1.564525 0.0843,0.123989 -0.0681,0.313718 0,0.447006 0.47463,0.930167 -0.0152,-0.238935 0.45621,0.223509 0.20547,0.201409 0.32013,0.851014 0.45621,1.117513 0.12261,0.240268 0.26224,0.48057 0.45618,0.670519 0.0538,0.05269 0.19412,-0.06663 0.22818,0 0.10218,0.199889 -0.1612,0.51246 0,0.670506 0.0538,0.05268 0.17445,-0.05269 0.22818,0 0.14343,0.140411 1.48845,4.269289 1.59672,4.693574 0.0738,0.289103 -0.13585,0.627468 0,0.894015 0.0961,0.188473 0.35988,0.258512 0.45622,0.44701 0.23272,0.456482 -0.10331,1.28266 0,1.788021 0.27586,1.351363 0.54544,6.802304 0.22818,8.046125 -0.0522,0.20445 -0.40407,0.242567 -0.45622,0.447012 -0.0553,0.216831 0.0553,0.453676 0,0.670512 -0.0264,0.109121 -1.13557,2.677192 -1.14053,2.682041 -0.0538,0.05269 -0.19413,-0.06664 -0.22819,0 -0.0681,0.133257 0.0681,0.313719 0,0.447003 -0.0961,0.188471 -0.35987,0.258547 -0.45621,0.447012 -0.27057,0.530068 -0.30652,1.795229 -0.45622,2.235038 -0.07,0.20597 -0.31975,0.984025 -0.45617,1.117513 -0.0538,0.05269 -0.19413,-0.06659 -0.22819,0 -0.21116,0.413662 -0.0742,1.112168 -0.22818,1.56453 -0.33225,0.976287 -0.16385,-0.157619 -0.68432,1.117516 -0.12299,0.301003 -0.0711,0.810261 -0.22818,1.117511 -0.33226,0.651233 -0.80818,1.360312 -1.14051,2.011545 -0.0681,0.133256 0.10747,0.341638 0,0.446996 -0.47195,0.46244 0.0189,-0.706659 -0.45622,0.223508 -0.0681,0.133259 0.0481,0.305637 0,0.447007 -0.17634,0.518516 -0.64125,0.851862 -0.91238,1.117513 -0.0957,0.0937 -0.15893,0.535058 -0.22819,0.67052 -0.0961,0.188469 -0.33679,0.271673 -0.45621,0.447007 -0.43132,0.633948 -0.59684,1.478809 -1.14051,2.011528 -0.0537,0.05269 -0.17444,-0.05269 -0.22818,0 -0.21343,0.209047 -0.31143,1.057682 -0.45622,1.341024 -0.47464,0.930167 0.0152,-0.238935 -0.45617,0.223508 -0.28306,0.27742 -0.0591,0.728356 -0.22818,0.894011 -0.0538,0.05269 -0.17445,-0.05269 -0.22819,0 -0.10747,0.105378 0.10747,0.341641 0,0.447011 -0.0538,0.05269 -0.19412,-0.06663 -0.22818,0 0,1.26652 0.15212,0.07445 -0.22819,0.447007 -0.32656,0.319949 0.38504,4.484381 0.45622,4.693575 0.16499,0.485408 0.43537,1.076643 0.68428,1.564522 0.3209,0.628962 -0.10558,1.58125 0.22819,2.235038 0.14456,0.283279 0,1.017345 0,1.341024 0,0.322583 0.21985,2.019547 0,2.235027 -0.0537,0.05269 -0.19412,-0.06663 -0.22819,0 -0.0654,0.128104 -0.42419,1.309678 -0.45617,1.341024 -0.0537,0.05269 -0.19413,-0.06663 -0.22818,0 -0.0681,0.13326 0.10746,0.341642 0,0.447007 -0.10747,0.105378 -0.32014,-0.06663 -0.45623,0 -0.0878,0.04305 -0.36705,0.719274 -0.4562,0.894017 -0.0761,0.14902 -0.38016,0.0744 -0.45618,0.22351 -0.22591,0.44258 -0.16007,0.98418 -0.45622,1.56453 -0.52198,1.02289 0.0946,-0.94842 -0.45622,0.67051 -0.0859,0.25324 0.12072,0.65717 0,0.89401 -0.68874,1.34977 -0.89698,3.09884 -1.59671,4.47007 -0.48585,0.95213 0.34663,2.55693 0,3.57606 -0.11996,0.35298 -0.53465,2.53544 -0.68429,2.68205 -0.0537,0.0527 -0.17444,-0.0527 -0.22818,0 -0.30878,0.30274 -0.0114,0.25261 -0.22818,0.894 -0.0538,0.15803 -0.38016,0.0746 -0.45622,0.22351 -0.0681,0.13326 0.0844,0.32303 0,0.44701 -0.0942,0.1386 -0.33603,0.10571 -0.45617,0.22351 -0.19602,0.19202 -1.53288,1.76717 -1.59676,1.78803 -0.14417,0.0471 -0.3296,-0.0827 -0.45618,0 -0.64334,0.42025 0.1824,0.38747 -1.3686,0.89401 -0.75399,0.24624 -1.23586,0.62715 -2.05293,0.89402 -0.766367,0.25031 -2.555318,-0.0891 -3.193436,0.2235 -0.420984,0.20627 -0.691209,0.0767 -1.140539,0.22351 -0.10179,0.0334 -0.123739,0.19797 -0.22818,0.22352 -0.691326,0.16933 -4.157743,0.47242 -4.562078,0.67051 -0.966732,0.47362 -2.239755,0.42679 -3.193432,0.89401 -0.290621,0.14242 -0.823845,-0.0776 -1.140502,0 -0.329975,0.0808 -0.589831,0.34164 -0.91239,0.447 -0.264512,0.0863 -0.647051,-0.0651 -0.912431,0 -1.204073,0.29496 -2.44705,0.37594 -3.649647,0.67052 -1.821872,0.44629 -4.245989,-0.26774 -6.158753,0 -3.023943,0.42327 -6.045611,0.65442 -9.124083,0.2235 -2.031928,-0.28442 -6.632112,0.55039 -8.211683,-0.2235 -0.649321,-0.3181 -2.224882,0 -2.965363,0 -2.204978,0 -4.409953,0 -6.61497,0 -1.035303,0 -2.179662,0.1419 -3.193432,0 -0.789216,-0.1105 -1.540216,-0.26556 -2.281,-0.44701 -0.401724,-0.0984 -1.006162,0.17758 -1.368646,0 -0.339057,-0.16614 -0.726062,-0.36578 -1.1405,-0.44701 -1.387679,-0.27193 -3.159035,-0.10334 -4.562039,-0.44701 -0.648072,-0.15877 -0.975665,-0.51837 -1.596717,-0.6705 -0.295164,-0.0723 -0.614165,0.0585 -0.912432,0 -1.024819,-0.20081 -1.989356,-0.65495 -2.965321,-0.89402 -0.77276,-0.18929 -5.852408,-0.8429 -5.930635,-0.89402 -0.377391,-0.24653 -1.212004,-0.96673 -1.596722,-1.11751 -0.211798,-0.0829 -0.472518,0.0829 -0.684304,0 -0.535762,-0.20998 -1.335217,-1.0212 -1.824823,-1.34102 -0.274123,-0.17909 -0.892235,-0.0416 -1.140509,-0.447 -0.161279,-0.26341 -0.152045,-0.59602 -0.228107,-0.89402 z"
       id="path856" />
    <path
       style="fill:#161c47;fill-opacity:1;stroke:#161c47;stroke-width:0.991067px;stroke-linecap:butt;stroke-linejoin:miter;stroke-opacity:1"
       d="m 52.675692,34.399248 c -0.08212,-2.720646 0.06225,-5.790829 1.596715,-8.046126 0.208735,-0.30677 0.288123,-0.858731 0.684309,-1.117519 0.834323,-0.545002 1.555597,-0.806084 2.509128,-1.117518 0.216415,-0.07068 0.467908,0.07068 0.684304,0 0.286954,-0.09373 0.575855,-0.337084 0.91241,-0.447008 0.595786,-0.194591 1.497683,0.272024 2.052924,0 0.8588,-0.420743 1.984064,-0.25471 2.96533,-0.447006 1.920548,-0.376366 0.0072,-0.0035 0.912408,-0.447007 0.375991,-0.184202 2.270262,-0.117027 2.509128,0 0.068,0.03334 -0.05377,0.170824 0,0.223501 0.114055,0.111751 0.570254,-0.11175 0.684306,0 0.05377,0.05268 -0.068,0.190187 0,0.223505 0.136003,0.06664 0.320177,-0.06663 0.456204,0 0.02763,0.01353 0.191177,0.634323 0.228107,0.670511 0.49564,0.485645 0.408885,0.130773 0.912409,1.117517 0.174677,0.342314 0.406483,0.174785 0.684309,0.447008 0.283128,0.277413 0.05904,0.728354 0.228107,0.894013 0.100657,0.09863 0.58514,0.379004 0.684309,0.670513 0.204416,0.600899 0.180652,1.248047 0.456207,1.788028 0.120866,0.236839 -0.08616,0.640769 0,0.894015 0.417342,1.22678 0.684306,2.044844 0.684306,3.352551 0,0.884839 0.230909,4.467306 -0.228108,4.917081 -0.05377,0.05268 -0.174335,-0.05269 -0.228107,0 -0.206992,0.202817 -0.141183,0.688247 -0.456203,0.89401 -0.141449,0.0924 -0.335991,0.105711 -0.456203,0.223508 -0.07602,0.07449 -0.152084,0.596013 -0.228107,0.670512 -0.128889,0.126292 -0.742489,0.280499 -0.912408,0.447007 -0.120224,0.117798 -0.107886,0.329219 -0.22811,0.447006 -0.175506,0.171969 -0.678246,0.166148 -0.912408,0.223509 -0.442834,0.108491 -0.731678,0.510274 -1.140513,0.670511 -0.168659,0.06611 -1.006904,0.09258 -1.140507,0.22351 -0.05377,0.05269 0.068,0.190176 0,0.223508 -0.272043,0.133259 -0.614184,-0.05844 -0.912414,0 -0.471544,0.0924 -0.897069,0.354581 -1.368615,0.447006 -0.962261,0.188581 -4.248195,0.46801 -5.246354,0.223508 -1.216547,-0.298 0.228109,-0.07449 -0.684308,-0.670512 -0.126543,-0.08265 -0.308673,0.03597 -0.456204,0 -0.525298,-0.128663 -1.713307,-0.784746 -2.052924,-1.117516 -0.456204,-0.447007 -0.684309,-1.117516 -1.140513,-1.564525 -0.05377,-0.05269 -0.174333,0.05269 -0.228107,0 -0.165821,-0.162478 -0.290395,-0.955057 -0.456207,-1.117519 -0.05377,-0.05269 -0.174335,0.05269 -0.228108,0 -0.04798,-0.04702 -0.15723,-1.286825 -0.228107,-1.564525 -0.05219,-0.204427 -0.360023,-0.258534 -0.456204,-0.447009 -0.322918,-0.632883 -0.456181,-1.113534 -0.456181,-1.788048 z"
       id="path1781" />
    <text
       xml:space="preserve"
       style="font-size:149.832px;line-height:1.25;font-family:'Chess Condal';-inkscape-font-specification:'Chess Condal';fill:#e1e5ee;fill-opacity:1;stroke:#161c47;stroke-width:0.991067;stroke-opacity:1"
       x="-12.835923"
       y="141.90372"
       id="text19176"
       transform="scale(1.0102357,0.98986796)"><tspan
         sodipodi:role="line"
         id="tspan19174"
         style="fill:#e1e5ee;fill-opacity:1;stroke:#161c47;stroke-width:0.991067;stroke-opacity:1"
         x="-12.835923"
         y="141.90372">k</tspan></text>
  </g>
</svg>
