<?xml version="1.0" encoding="UTF-8" standalone="no"?>
<!-- Created with Inkscape (http://www.inkscape.org/) -->

<svg
   width="550"
   height="550"
   viewBox="0 0 145.52083 145.52083"
   version="1.1"
   id="svg5"
   inkscape:version="1.1.2 (b8e25be833, 2022-02-05)"
   sodipodi:docname="Black_Pawn.svg"
   xmlns:inkscape="http://www.inkscape.org/namespaces/inkscape"
   xmlns:sodipodi="http://sodipodi.sourceforge.net/DTD/sodipodi-0.dtd"
   xmlns:xlink="http://www.w3.org/1999/xlink"
   xmlns="http://www.w3.org/2000/svg"
   xmlns:svg="http://www.w3.org/2000/svg">
  <sodipodi:namedview
     id="namedview7"
     pagecolor="#ffffff"
     bordercolor="#cccccc"
     borderopacity="1"
     inkscape:pageshadow="0"
     inkscape:pageopacity="1"
     inkscape:pagecheckerboard="true"
     inkscape:document-units="mm"
     showgrid="false"
     inkscape:zoom="1.0973349"
     inkscape:cx="216.88912"
     inkscape:cy="269.74445"
     inkscape:window-width="1920"
     inkscape:window-height="1017"
     inkscape:window-x="-1928"
     inkscape:window-y="32"
     inkscape:window-maximized="1"
     inkscape:current-layer="layer1"
     showborder="false"
     fit-margin-top="10"
     lock-margins="true"
     fit-margin-left="10"
     fit-margin-right="10"
     fit-margin-bottom="10"
     units="px"
     height="550px" />
  <defs
     id="defs2">
    <linearGradient
       id="linearGradient9377"
       inkscape:swatch="solid">
      <stop
         style="stop-color:#2c0707;stop-opacity:1;"
         offset="0"
         id="stop9375" />
    </linearGradient>
    <linearGradient
       inkscape:collect="always"
       id="linearGradient4702">
      <stop
         style="stop-color:#2c0707;stop-opacity:1;"
         offset="0"
         id="stop4698" />
      <stop
         style="stop-color:#2c0707;stop-opacity:0;"
         offset="1"
         id="stop4700" />
    </linearGradient>
    <linearGradient
       id="linearGradient2914"
       inkscape:swatch="solid">
      <stop
         style="stop-color:#000000;stop-opacity:1;"
         offset="0"
         id="stop2912" />
    </linearGradient>
    <rect
       x="-257.75424"
       y="433.0271"
       width="1618.6967"
       height="2051.7236"
       id="rect6462" />
    <radialGradient
       inkscape:collect="always"
       xlink:href="#linearGradient4702"
       id="radialGradient4704"
       cx="310.2311"
       cy="74.017169"
       fx="310.2311"
       fy="74.017169"
       r="38.271461"
       gradientTransform="matrix(1,0,0,1.3164634,0,-23.423722)"
       gradientUnits="userSpaceOnUse" />
  </defs>
  <g
     inkscape:label="Livello 1"
     inkscape:groupmode="layer"
     id="layer1"
     transform="translate(-237.69713,-0.87911654)">
    <text
       xml:space="preserve"
       style="font-size:40px;line-height:1.25;font-family:'Chess Condal';-inkscape-font-specification:'Chess Condal';fill:#ffffff;fill-opacity:1;stroke:none;stroke-width:0.264583;stroke-opacity:1"
       x="87.548508"
       y="91.29937"
       id="text29524"><tspan
         sodipodi:role="line"
         id="tspan29522"
         style="fill:#ffffff;fill-opacity:1;stroke:none;stroke-width:0.264583;stroke-opacity:1"
         x="87.548508"
         y="91.29937" /></text>
    <text
       xml:space="preserve"
       style="font-size:40px;line-height:1.25;font-family:'Chess Leipzig';-inkscape-font-specification:'Chess Leipzig';stroke-width:0.264583"
       x="254.01411"
       y="94.275764"
       id="text58610"><tspan
         sodipodi:role="line"
         id="tspan58608"
         style="stroke-width:0.264583"
         x="254.01411"
         y="94.275764" /></text>
    <text
       xml:space="preserve"
       transform="matrix(0.26458333,0,0,0.26458333,237.69713,0.87911654)"
       id="text6460"
       style="font-size:136.063px;line-height:1.25;font-family:'Chess Alpha';-inkscape-font-specification:'Chess Alpha';white-space:pre;shape-inside:url(#rect6462)" />
    <path
       style="opacity:1;mix-blend-mode:normal;fill:#070c2c;fill-opacity:1;stroke:url(#radialGradient4704);stroke-width:0.218;stroke-linecap:butt;stroke-linejoin:miter;stroke-opacity:1;stroke-miterlimit:4;stroke-dasharray:none"
       d="m 272.67957,122.51293 c -0.2697,-1.79967 -0.76672,-3.64818 -0.56259,-5.48536 0.0702,-0.63182 0.33374,-1.21096 0.42195,-1.82844 0.0588,-0.41163 0.003,-0.89503 0.2813,-1.26583 0.0629,-0.0839 0.20717,-0.0665 0.28129,-0.14065 0.21671,-0.21673 0.32942,-0.80968 0.56261,-0.98455 0.1186,-0.089 0.28934,-0.0743 0.42195,-0.14066 0.504,-0.25201 0.89545,-0.89545 1.26584,-1.26585 0.32563,-0.32561 0.60195,-0.3713 0.98455,-0.56259 0.21542,-0.10772 0.11,-0.25064 0.28131,-0.42196 0.21171,-0.21172 0.71324,-0.35912 0.98454,-0.56259 0.50521,-0.37891 0.91288,-0.87096 1.4065,-1.26586 0.91193,-0.72954 1.87983,-1.40986 2.813,-2.10975 0.3524,-0.2643 0.7501,-0.61883 1.1252,-0.8439 0.31217,-0.1873 0.71462,-0.29268 0.98455,-0.56258 0.0742,-0.0742 0.0665,-0.20718 0.14064,-0.28131 0.11953,-0.11952 0.28996,-0.1757 0.42195,-0.28131 0.65074,-0.52057 1.17097,-1.32306 1.68781,-1.96909 0.50238,-0.62798 0.87961,-1.35441 1.40649,-1.9691 0.21575,-0.25171 0.51936,-0.42742 0.70325,-0.70325 0.026,-0.03902 -0.0419,-0.119677 0,-0.140647 0.0839,-0.04191 0.215,0.06633 0.2813,0 0.0663,-0.06633 -0.0419,-0.197429 0,-0.28131 0.1114,-0.222788 0.51914,-0.457752 0.70325,-0.703243 0.75877,-1.011677 -0.15618,0.296828 0.5626,-0.421932 0.099,-0.09904 1.63705,-1.867611 1.6878,-1.969105 0.52789,-1.055788 1.20957,-2.062845 1.82845,-3.094296 0.20659,-0.34432 0.50523,-0.654529 0.70324,-0.984553 0.22786,-0.379768 0.27494,-0.90628 0.56261,-1.265854 0.12425,-0.155323 0.32326,-0.249244 0.42195,-0.421957 0.24842,-0.434727 0.34805,-1.332602 0.70325,-1.687795 0.0742,-0.07416 0.2184,-0.05676 0.28129,-0.140655 0.35728,-0.476346 0.47469,-1.295124 0.70325,-1.828442 0.18458,-0.430668 0.57037,-0.800744 0.70325,-1.265837 0.86306,-3.020694 -0.56378,1.36277 0.42195,-1.265855 0.4667,-1.244546 0.62918,-2.649834 0.84391,-3.938193 0.0463,-0.277491 -0.0773,-0.573419 0,-0.843898 0.0576,-0.201619 0.23044,-0.359202 0.28129,-0.562612 0.091,-0.363855 0,-0.750124 0,-1.125199 0,-0.712367 -0.0228,0.299855 0.14065,-0.843898 0.0503,-0.351984 -0.0862,-0.780227 0,-1.125199 0.22457,-0.898295 0.52149,-1.763559 0.70325,-2.672347 0.0596,-0.297744 0.34821,-0.548926 0.42195,-0.843898 0.11216,-0.448603 0.10431,-0.793888 0.2813,-1.265854 0.27123,-0.723281 0.62017,-1.438551 0.84389,-2.109727 0.0907,-0.272054 0.68044,-1.569975 0.42196,-1.828467 -0.52435,-0.52435 -2.68356,-0.42194 -3.3756,-0.42194 -1.56884,0 -3.83527,0.215627 -5.34469,0 -0.10378,-0.01485 -0.18754,-0.09376 -0.2813,-0.140655 -0.18754,0 -0.37507,0 -0.56261,0 -0.95734,0 -1.88339,0.01419 -2.81299,-0.140647 -0.23123,-0.03852 -0.49358,0.104836 -0.70325,0 -0.0839,-0.04191 0,-0.187537 0,-0.28131 0,-0.869017 0.52674,-1.370624 1.1252,-1.969097 0.65647,-0.656442 1.58645,-1.023837 2.2504,-1.687795 0.23906,-0.239047 0.3514,-0.579895 0.5626,-0.843897 0.24699,-0.30874 0.59691,-0.535149 0.8439,-0.843889 0.44308,-0.55386 0.90615,-1.187459 1.4065,-1.687795 0.0741,-0.07416 0.18753,-0.09377 0.28129,-0.140655 0.14066,-0.140655 0.29462,-0.269151 0.42195,-0.421957 0.10822,-0.129848 0.16178,-0.302413 0.2813,-0.421941 0.23906,-0.239072 0.62747,-0.302891 0.8439,-0.562612 0.31612,-0.379331 0.47982,-0.90176 0.8439,-1.265829 0.11953,-0.119545 0.30243,-0.161783 0.42196,-0.281311 0.19127,-0.191266 0.34375,-0.698003 0.56259,-0.843897 0.70492,-0.469953 -0.19655,0.730903 0.5626,-0.281302 0.0804,-0.107261 0.55147,-0.545915 0.5626,-0.562587 0.0521,-0.07804 -0.0663,-0.215017 0,-0.28131 0.10484,-0.104836 0.28935,-0.07433 0.42195,-0.140655 0.21542,-0.107715 0.10999,-0.250639 0.2813,-0.421957 0.0742,-0.07416 0.20717,-0.06649 0.2813,-0.140631 0.17139,-0.171384 0.25057,-0.531882 0.42195,-0.703267 0.0332,-0.03316 0.1075,0.03316 0.14065,0 0.18415,-0.184155 -0.0776,-1.421045 -0.14065,-1.54714 -0.17553,-0.35106 -0.79184,-1.213791 -0.98455,-1.406509 -0.0332,-0.03316 -0.1075,0.03316 -0.14065,0 -0.0671,-0.06715 -0.20807,-0.464929 -0.2813,-0.562587 -0.42028,-0.560385 -1.10436,-0.942884 -1.4065,-1.547157 -0.0419,-0.08387 0.0297,-0.192346 0,-0.281285 -0.13954,-0.418641 -0.45419,-0.832224 -0.5626,-1.265854 -0.0775,-0.310275 -0.0776,-0.669353 -0.14065,-0.984553 -0.0582,-0.290756 -0.22314,-0.553141 -0.2813,-0.843897 -0.1155,-0.577495 -0.10152,-1.148488 -0.2813,-1.687795 -0.21136,-0.634095 0,-3.109533 0,-3.938194 0,-0.810569 -0.21627,-2.867449 0,-3.516261 0.13675,-0.410218 0.44817,-0.526792 0.5626,-0.984544 0.0752,-0.300433 -0.0979,-0.690934 0,-0.984553 0.059,-0.176928 0.21213,-0.355061 0.2813,-0.562587 0.0849,-0.254829 0.0525,-0.579441 0.14066,-0.843897 0.0819,-0.245689 0.35323,-0.356481 0.42194,-0.562612 0.0296,-0.08895 0,-0.187521 0,-0.281286 0.0469,-0.187537 0.0689,-0.383126 0.14065,-0.562612 0.0493,-0.123125 0.222,-0.162698 0.2813,-0.28131 0.16819,-0.336351 0.19711,-0.647781 0.2813,-0.984544 0.14049,-0.561977 0.14173,-0.0025 0.42195,-0.562596 0.0419,-0.08386 -0.0228,-0.190325 0,-0.281302 0.0794,-0.317517 0.36788,-0.411174 0.5626,-0.703242 0.10723,-0.160842 0.0862,-0.4325 0.2813,-0.562587 0.1662,-0.110817 0.50739,-0.373004 0.70325,-0.421966 0.091,-0.02277 0.20328,0.05205 0.28129,0 0.10401,-0.0693 0.10847,-0.378737 0.28131,-0.421932 0.13644,-0.03415 0.29615,0.06286 0.42195,0 0.0938,-0.04686 0.0568,-0.218407 0.14065,-0.28131 0.44107,-0.330807 2.12679,-0.988801 2.67235,-1.125199 0.25456,0.08477 0.26158,-0.227853 0.42195,-0.28131 0.47417,-0.158046 1.45934,-0.196332 1.96909,-0.281286 0.39126,-0.06517 0.42505,-0.188585 0.70325,-0.281302 0.29537,-0.09846 0.68919,0.09846 0.98455,0 0.8144,-0.27146 1.90275,-0.140655 2.813,-0.140655 0.50187,0 1.05055,-0.06204 1.54715,0 0.38362,0.04793 0.74248,0.226632 1.1252,0.28131 0.28468,0.04067 0.70476,-0.09327 0.98454,0 0.51426,0.171402 1.22274,0.424201 1.68781,0.703243 0.30417,0.182497 0.5472,0.505442 0.84389,0.703242 0.2363,0.157526 0.64418,0.222243 0.8439,0.421957 0.0742,0.07416 0.0665,0.207163 0.14065,0.28131 0.14826,0.148245 0.39486,0.155496 0.5626,0.281286 0.39663,0.297479 0.51979,0.80109 0.8439,1.125199 0.1415,0.141505 0.74394,0.553315 0.8439,0.703242 0.0521,0.07804 0,0.187538 0,0.281302 0.0469,0.09377 0.0752,0.199433 0.14065,0.28131 0.12426,0.155323 0.31961,0.251381 0.42195,0.421941 0.33424,0.557068 -0.41563,0.0066 0.14065,0.562612 0.0742,0.07416 0.22315,0.05337 0.2813,0.140647 0.15658,0.234881 0.15252,0.932035 0.2813,1.125182 0.0582,0.08724 0.22736,0.05074 0.28129,0.140656 1.15064,1.917735 -0.86754,-0.586256 0.56261,0.843897 0.16576,0.165775 0.22831,0.711451 0.2813,0.843914 0.084,0.210133 0.34986,0.34635 0.42195,0.562587 0.0942,0.282515 0.0525,1.037135 0.28129,1.265863 0.0742,0.07416 0.22315,0.05337 0.2813,0.140647 0.16139,0.242083 0.0434,0.833445 0.14066,1.125183 0.17175,0.515292 0.37766,0.992381 0.56259,1.547164 0.16069,0.482047 0,1.338715 0,1.828442 0,0.248023 0.0599,0.604214 0,0.843897 -0.0206,0.08264 -0.26064,0.479976 -0.2813,0.562612 -0.34923,1.396924 -1.05569,2.638401 -1.82844,3.797547 -0.13909,0.208615 -0.15603,0.733997 -0.2813,0.984544 -0.0222,0.04438 -0.27208,0.412726 -0.2813,0.421941 -0.0332,0.03316 -0.11969,-0.04191 -0.14065,0 -0.0419,0.08388 0.0296,0.192338 0,0.281301 -0.0841,0.252256 -0.28928,0.28928 -0.42196,0.421941 -0.0916,0.0916 -0.10073,0.442894 -0.14064,0.562612 -0.0648,0.194261 -0.31856,0.143443 -0.42195,0.281302 -0.26449,0.352644 -0.21644,0.779031 -0.5626,1.125183 -0.0742,0.07416 -0.20717,0.06657 -0.2813,0.140655 -0.10908,0.109067 -0.70022,0.909704 -0.8439,1.125199 -0.1163,0.174462 -0.13304,0.414343 -0.2813,0.562612 -0.0332,0.03316 -0.11968,-0.04199 -0.14065,0 -0.0638,0.127448 0,0.542095 0,0.703242 0,0.300318 -0.0974,0.973664 0,1.265855 0.16814,0.504403 1.15691,1.719514 1.54715,2.109735 0.10688,0.106882 0.62157,0.453693 0.70325,0.562612 0.089,0.118604 0.0517,0.303328 0.14065,0.421932 0.20144,0.268606 0.64729,0.408346 0.8439,0.703268 0.29398,0.440972 0.54358,0.690562 0.98455,0.984552 0.18714,0.124758 0.29008,0.430735 0.42195,0.562587 0.20912,0.209127 0.88033,0.499206 1.1252,0.703243 0.66065,0.550543 1.28959,1.359734 2.10974,1.687819 0.0871,0.03481 0.19744,-0.04199 0.2813,0 0.2707,0.135343 1.12017,1.121834 1.1252,1.125175 0.16478,0.109859 0.54151,0.119569 0.70325,0.28131 0.0742,0.07408 0.0665,0.20718 0.14065,0.281302 0.14826,0.148253 0.41434,0.133041 0.5626,0.28131 0.0742,0.07416 0.0535,0.223134 0.14065,0.281285 0.078,0.05206 0.19235,-0.02961 0.2813,0 0.43901,0.146348 -0.0469,0.09376 0.14065,0.281302 0.2981,0.29809 0.80338,0.62936 1.1252,0.843898 0.30692,0.20463 0.3466,0.627899 0.56259,0.843897 0.26862,0.268598 0.42255,0.283076 0.56261,0.703267 0.28738,0.862138 -1.80374,1.308612 -2.39105,1.406485 -0.42912,0.07152 -0.9674,0 -1.4065,0 -1.79405,0 -4.19418,-0.287613 -5.90729,0.140647 -0.22742,0.05684 -0.47339,-0.04595 -0.70325,0 -0.44476,0.08895 -1.78323,0.376741 -2.10975,0.70325 -0.2771,0.277112 -0.021,0.323317 -0.14065,0.562613 -0.59057,1.181123 -0.25093,2.964819 0,4.219478 0.0936,0.468122 0.0253,0.945087 0.14065,1.40651 0.0508,0.203253 0.23048,0.499989 0.2813,0.703242 0.0846,0.33834 -0.0433,0.778635 0,1.1252 0.2708,2.166434 0.18048,4.378844 0.70325,6.469885 0.0408,0.163094 0.72373,1.52758 0.8439,1.687812 0.0806,0.107434 0.50938,0.402933 0.56259,0.562595 0.17896,0.536874 0.38242,1.153075 0.70325,1.687795 0.47657,0.79426 1.11521,1.517144 1.40651,2.391054 0.1675,0.502522 0.82734,1.662972 1.12519,2.109752 0.0736,0.110338 0.222,0.162698 0.28131,0.281285 0.0864,0.172911 0.0542,0.389718 0.14064,0.562612 0.14204,0.284057 0.60004,0.534258 0.70325,0.843897 0.0296,0.08894 -0.0296,0.192339 0,0.281302 0.14391,0.431717 0.89889,0.953881 1.1252,1.406485 0.13894,0.277878 0.47432,0.7197 0.5626,0.984553 0.0464,0.139211 0.0308,0.452694 0.14065,0.562612 0.0742,0.07408 0.20718,0.06649 0.2813,0.140655 0.0906,0.09055 0.55181,1.536357 0.8439,1.828441 0.0742,0.07408 0.18753,0.09377 0.2813,0.140655 0.0938,0.187513 0.15032,0.398867 0.2813,0.562588 0.17008,0.212599 0.52413,0.383481 0.70325,0.562595 0.24356,0.24356 0.36874,0.693764 0.5626,0.984545 0.11381,0.170733 0.83109,0.677647 0.8439,0.703267 0.0419,0.0839 -0.0521,0.20328 0,0.28129 0.0582,0.0872 0.20717,0.0665 0.28129,0.14065 0.56266,0.56265 1.03421,1.1976 1.68781,1.68779 0.29235,0.21927 0.27734,0.34569 0.42195,0.56261 0.50584,0.75877 0.0438,-0.0969 0.56259,0.42194 0.30019,0.30018 0.47641,0.70894 0.84391,0.98454 0.16773,0.12582 0.41433,0.13306 0.56259,0.28131 0.14907,0.14908 0.31356,0.47958 0.5626,0.56262 0.089,0.0296 0.19744,-0.042 0.2813,0 0.0419,0.0209 -0.0332,0.1075 0,0.14063 0.19339,0.19338 0.61012,0.5474 0.8439,0.70326 0.51047,0.34031 1.10303,0.68109 1.54715,1.1252 0.0704,0.0703 0.0704,0.21096 0.14065,0.28129 0.23637,0.23638 0.7849,0.43704 0.98455,0.70326 0.089,0.11861 0.048,0.30617 0.14065,0.42194 0.38937,0.48672 1.1104,0.82909 1.54715,1.26585 0.28543,0.28544 0.47696,0.78576 0.70325,1.12521 0.13872,0.20808 0.45126,0.33991 0.56259,0.56259 0.17321,0.34641 -0.40827,-0.12697 0.14066,0.42195 0.0742,0.0742 0.22736,0.0507 0.28129,0.14066 0.0995,0.16576 0.0412,0.39684 0.14066,0.56259 0.0539,0.0899 0.20716,0.0665 0.28129,0.14065 0.15365,0.15364 0.30617,0.58745 0.42195,0.70324 0.0742,0.0742 0.20717,0.0665 0.2813,0.14066 0.0469,0.0469 0.0938,0.37507 0.14066,0.42196 0.0332,0.0332 0.10749,-0.0332 0.14064,0 0.17292,0.17291 0.3569,0.63817 0.5626,0.84389 0.0332,0.0332 0.1075,-0.0332 0.14066,0 0.0663,0.0663 -0.0419,0.19743 0,0.28129 0.0222,0.0445 0.27207,0.41275 0.28129,0.42195 0.0332,0.0332 0.1075,-0.0332 0.14065,0 0.24654,0.24654 0.63071,2.87222 0.70325,3.23496 0.0956,0.47823 -0.15331,1.08721 0,1.54714 0.14972,0.44916 0.28131,0.85878 0.28131,1.26586 0,0.15621 0.0994,0.88508 0,0.98454 -0.48801,0.48801 -2.05378,0.33197 -2.95365,0.42194 -0.61095,0.0611 -1.1071,0.34936 -1.68781,0.42196 -1.73447,0.21681 -4.24459,0 -6.04794,0 -0.76955,0 -1.62769,0.10905 -2.39105,0 -0.45341,-0.0648 -0.92514,-0.26098 -1.4065,-0.14065 -0.93113,0.23278 -1.9704,0.14065 -2.95364,0.14065 -0.68573,0 -1.29964,0.0662 -1.9691,0.14066 -1.24909,0.13877 -2.55074,-0.15587 -3.79754,0 -2.28901,0.28612 -4.60299,0.41713 -6.89185,0.70324 -1.61749,0.20218 -3.43028,0 -5.0634,0 -1.13591,0 -2.38509,0.1414 -3.51624,0 -0.84028,-0.10504 -1.68492,-0.34497 -2.5317,-0.42196 -1.6238,-0.14762 -3.29395,-0.0388 -4.92274,-0.14063 -1.84011,-0.11501 -3.65109,-0.56216 -5.48535,-0.70327 -1.43456,-0.11033 -2.92014,0 -4.36014,0 -1.24455,0 -2.56068,-0.12367 -3.79755,0 -1.28687,0.1287 -2.51957,0.43482 -3.79754,0.56262 -1.42136,0.14214 -2.92759,0 -4.36015,0 -0.5373,0 -2.09285,0.17553 -2.5317,0 -0.15695,-0.0628 -0.26367,-0.22197 -0.42195,-0.28131 -0.46814,-0.17556 -1.12391,0 -1.54714,-0.28131 -0.061,-0.0406 -0.12136,-0.20131 -0.28131,-0.28128 -0.34919,-0.17462 -2.30157,0.0224 -2.95365,-0.14066 z"
       id="path16865"
       inkscape:transform-center-x="-0.00010331597"
       inkscape:transform-center-y="2.1707669" />
    <text
       xml:space="preserve"
       style="font-size:144.782px;line-height:1.25;font-family:'Chess Alpha';-inkscape-font-specification:'Chess Alpha';fill:#e1e5ee;fill-opacity:1;stroke:#070c2c;stroke-width:1.06409;stroke-opacity:1"
       x="238.07143"
       y="140.51653"
       id="text13618"><tspan
         sodipodi:role="line"
         id="tspan13616"
         style="fill:#e1e5ee;fill-opacity:1;stroke:#070c2c;stroke-width:1.06409;stroke-opacity:1"
         x="238.07143"
         y="140.51653">p</tspan></text>
  </g>
</svg>
