<?xml version="1.0" encoding="UTF-8" standalone="no"?>
<!-- Created with Inkscape (http://www.inkscape.org/) -->

<svg
   width="550"
   height="550"
   viewBox="0 0 145.52084 145.52084"
   version="1.1"
   id="svg5"
   inkscape:version="1.1.2 (b8e25be833, 2022-02-05)"
   sodipodi:docname="White_Queen.svg"
   xmlns:inkscape="http://www.inkscape.org/namespaces/inkscape"
   xmlns:sodipodi="http://sodipodi.sourceforge.net/DTD/sodipodi-0.dtd"
   xmlns="http://www.w3.org/2000/svg"
   xmlns:svg="http://www.w3.org/2000/svg">
  <sodipodi:namedview
     id="namedview7"
     pagecolor="#ffffff"
     bordercolor="#cccccc"
     borderopacity="1"
     inkscape:pageshadow="0"
     inkscape:pageopacity="1"
     inkscape:pagecheckerboard="true"
     inkscape:document-units="mm"
     showgrid="false"
     inkscape:zoom="1.5518659"
     inkscape:cx="295.12859"
     inkscape:cy="288.04035"
     inkscape:window-width="1920"
     inkscape:window-height="1057"
     inkscape:window-x="-8"
     inkscape:window-y="-8"
     inkscape:window-maximized="1"
     inkscape:current-layer="layer1"
     showborder="false"
     fit-margin-top="10"
     lock-margins="true"
     fit-margin-left="10"
     fit-margin-right="10"
     fit-margin-bottom="10"
     units="px"
     width="550px" />
  <defs
     id="defs2" />
  <g
     inkscape:label="Livello 1"
     inkscape:groupmode="layer"
     id="layer1"
     transform="translate(-246.32808,-49.565425)">
    <text
       xml:space="preserve"
       style="font-size:40px;line-height:1.25;font-family:'Chess Condal';-inkscape-font-specification:'Chess Condal';fill:#ffffff;fill-opacity:1;stroke:none;stroke-width:0.264583;stroke-opacity:1"
       x="87.548508"
       y="91.29937"
       id="text29524"><tspan
         sodipodi:role="line"
         id="tspan29522"
         style="fill:#ffffff;fill-opacity:1;stroke:none;stroke-width:0.264583;stroke-opacity:1"
         x="87.548508"
         y="91.29937" /></text>
    <path
       style="fill:#e1e5ee;fill-opacity:1;stroke:#fffffb;stroke-width:0.901588px;stroke-linecap:butt;stroke-linejoin:miter;stroke-opacity:1"
       d="m 267.97865,96.107886 c -0.50176,-0.01863 -0.71009,0.623018 -1.14779,0.735151 -0.67033,0.171718 -1.46477,-0.100622 -2.15213,0 -0.14979,0.02173 -0.28073,0.125114 -0.43043,0.147019 -1.01115,0.148021 -3.43442,0.151642 -4.3043,-0.294073 -0.22553,-0.11549 -0.50031,-0.439821 -0.71739,-0.588125 -0.33698,-0.230221 -0.31877,-0.832876 -0.43043,-1.17625 -0.0677,-0.207937 -0.24505,-0.373196 -0.28679,-0.588122 -0.26694,-1.366973 0.11748,-3.421728 0.43043,-4.704988 0.0788,-0.322739 0.30699,-0.335331 0.43042,-0.588125 0.064,-0.131497 -0.0643,-0.309598 0,-0.441087 0.0882,-0.180755 0.40481,-0.04308 0.57389,-0.147054 0.11614,-0.07127 0.171,-0.222735 0.2868,-0.294072 0.90677,-0.557541 2.28439,-0.294073 3.29995,-0.294073 0.82729,0 3.01312,-0.220459 3.73038,0.147054 0.61068,0.312908 0.29655,0.162026 0.57389,0.58813 0.28679,0.441084 0,-0.294075 0.43043,0.441084 0.30295,0.517201 0.0135,1.082301 0.14339,1.617349 0.19625,0.804745 0.1434,1.645202 0.1434,2.499516 0,0.339952 -0.0525,0.602842 -0.1434,0.882188 -0.13498,0.414742 0.24607,1.281039 0,1.617339 -0.12185,0.166336 -0.28679,0.294072 -0.43042,0.441094 z"
       id="path1622" />
    <path
       style="fill:#e1e5ee;fill-opacity:1;stroke:#fffffb;stroke-width:0.901588px;stroke-linecap:butt;stroke-linejoin:miter;stroke-opacity:1"
       d="m 287.92182,88.609314 c -0.90552,-0.446752 -1.88974,-1.35433 -2.2956,-2.352503 -0.11209,-0.275169 -0.0993,-0.587534 -0.14339,-0.882185 -0.28613,-1.904764 -0.5302,-4.505581 1.14774,-5.88123 1.45188,-1.190294 4.36254,-0.848805 6.02602,-0.735154 0.7566,0.05167 2.93035,0.104693 3.58691,0.441093 0.90424,0.463317 1.14782,1.751706 1.14782,2.646551 0,1.193909 -0.0101,2.264891 -0.71739,3.23468 -0.12186,0.166337 -0.31777,0.268097 -0.43043,0.441091 -0.23428,0.360166 -0.48415,0.650576 -0.86089,0.882188 -0.48226,0.296523 -0.33022,-0.0038 -0.71739,0.294073 -0.10839,0.08313 -0.16595,0.232086 -0.28679,0.294072 -0.0993,0.05092 -0.86328,0.185655 -1.00425,0.294073 -0.0855,0.06571 -0.0579,0.228325 -0.1434,0.294073 -0.14912,0.397213 -0.51451,0.0083 -0.71739,0.147054 -0.0892,0.06078 -0.0515,0.237673 -0.1434,0.294072 -0.36465,0.224219 -1.02273,0.272203 -1.43481,0.441091 -0.29521,0.121046 -0.59759,0.52069 -0.86079,0.588123 -0.0747,0.01931 -0.58601,-0.06737 -0.71739,0 -0.47247,0.242053 -2.2075,0.74664 -1.43477,-0.441086 z"
       id="path1624" />
    <path
       style="fill:#e1e5ee;fill-opacity:1;stroke:#fffffb;stroke-width:0.901588px;stroke-linecap:butt;stroke-linejoin:miter;stroke-opacity:1"
       d="m 319.91695,80.522604 c -1.32195,-0.04153 -3.96443,0.580392 -4.73473,-0.735151 -0.35802,-0.611612 -0.8656,-1.347761 -1.00425,-2.058433 -0.10536,-0.539455 -0.0818,-1.091322 -0.2868,-1.617341 -0.21846,-0.559687 -0.38091,-2.273198 0,-2.793584 0.0202,-0.02587 0.55484,-0.415065 0.57383,-0.441095 0.32651,-1.003984 -0.0973,-0.04729 0.43043,-0.588118 0.24404,-0.249919 0.33021,-0.632282 0.57392,-0.882187 0.45423,-0.465436 1.42519,-0.879724 2.00871,-1.02922 0.57321,-0.146881 0,-0.148158 0.57392,-0.441096 0.21375,-0.109591 0.47816,0 0.71729,0 0.31877,0 0.82608,-0.08241 1.14785,0 0.36142,0.09262 1.85036,1.308077 2.1522,1.617342 0.31339,0.321082 0.0303,0.238708 0.1434,0.588128 0.0428,0.131496 0.25414,0.159575 0.28713,0.294073 0.0464,0.190173 -0.0606,0.402146 0,0.588128 0.0677,0.207938 0.23496,0.375488 0.28679,0.588118 0.10301,0.422247 0.0606,0.896351 0.1434,1.323279 0.17066,0.873563 0.65858,1.858326 0.43043,2.793588 -0.0347,0.143016 -0.31002,1.052815 -0.43043,1.176246 -0.1296,0.132771 -0.54642,0.206453 -0.71742,0.294072 -0.20971,0.107452 -0.55868,0.580349 -0.57383,0.588118 -0.12825,0.06582 -0.32887,-0.103969 -0.43042,0 -0.0757,0.07748 -0.0677,0.216561 -0.1434,0.294072 -0.0677,0.06937 -0.21947,-0.06927 -0.28679,0 -0.13499,0.138188 -0.0784,0.368936 -0.43047,0.441092 -0.1407,0.02898 -0.28713,0 -0.43042,0 z"
       id="path1626" />
    <path
       style="fill:#e1e5ee;fill-opacity:1;stroke:#fffffb;stroke-width:0.901588px;stroke-linecap:butt;stroke-linejoin:miter;stroke-opacity:1"
       d="m 347.75127,89.0504 c -0.67925,-0.155506 -1.47699,0.172959 -2.1521,0 -0.60641,-0.155367 -2.60851,-1.095592 -2.86956,-1.764367 -0.29588,-0.757788 -0.68194,-3.819209 -0.57392,-4.704996 0.32921,-2.697586 -0.0374,0.301834 0.28679,-1.029209 0.10435,-0.427232 0.0912,-1.122771 0.43043,-1.470315 0.63778,-0.653569 1.81367,-1.011617 2.72609,-1.323271 0.0906,-0.03105 0.21914,0.06927 0.2868,0 0.034,-0.03467 -0.0428,-0.125117 0,-0.147021 0.15383,-0.07875 3.26885,-0.06516 3.58691,0 0.32012,0.06561 0.32854,0.315356 0.57389,0.441093 0.23025,0.118042 0.50304,0.147673 0.71733,0.294073 0.0892,0.06078 0.0677,0.216562 0.14339,0.294073 0.3657,0.374682 0.79818,0.404474 1.14785,0.882175 0.45591,0.622987 0.74109,3.848274 0.57393,4.704995 -0.1232,0.630632 -0.39357,1.062936 -0.57393,1.617342 -0.066,0.203866 -0.49101,0.243087 -0.57392,0.294072 -0.23193,0.142637 -0.3419,0.445483 -0.57393,0.588128 -0.12959,0.07976 -0.30934,0.05402 -0.43042,0.147019 -0.0855,0.06571 -0.0677,0.216561 -0.1434,0.294072 -0.20702,0.212251 -0.75347,0.229774 -1.00428,0.294073 -0.13128,0.03346 -0.16596,0.232086 -0.28714,0.294075 -0.11478,0.05878 -0.31574,-0.05878 -0.43042,0 -0.37095,0.190068 -0.27165,0.143086 -0.86089,0.294073 z"
       id="path1628" />
    <path
       style="fill:#e1e5ee;fill-opacity:1;stroke:#fffffb;stroke-width:0.901588px;stroke-linecap:butt;stroke-linejoin:miter;stroke-opacity:1"
       d="m 283.61755,167.85897 c -0.37707,-0.74483 -0.60025,-1.62782 -1.00435,-2.35249 -0.11849,-0.21277 -0.33628,-0.36289 -0.43043,-0.58813 -0.0636,-0.15212 -0.24741,-1.37428 -0.28713,-1.61734 -0.12118,-0.74531 -0.1471,-0.1564 -0.43042,-0.88218 -0.0357,-0.091 0.0236,-0.19897 0,-0.29407 -0.12119,-0.49673 -0.50203,-0.9547 -0.5739,-1.4703 -0.0269,-0.19407 0.0303,-0.39475 0,-0.58813 -0.0666,-0.40933 -0.40407,-0.82815 -0.57389,-1.17625 -0.0428,-0.0877 0.0428,-0.20638 0,-0.29407 -0.3393,-0.69538 -0.70938,-1.42932 -0.86085,-2.20547 -0.0549,-0.28014 0.0673,-0.60535 0,-0.88218 -0.0852,-0.34898 -0.20197,-0.6802 -0.28713,-1.02922 -0.16629,-0.6821 0.0236,-1.51834 -0.1434,-2.20547 -0.0168,-0.0673 -0.1269,-0.0798 -0.1434,-0.14702 -0.10738,-0.44067 0.16326,-1.05219 0,-1.47031 -0.064,-0.16406 -0.22284,-0.27703 -0.28679,-0.4411 -0.0966,-0.24733 -0.23328,-0.75475 -0.28713,-1.02921 -0.0374,-0.19224 0.0606,-0.40213 0,-0.58812 -0.239,-0.73436 -0.45113,-1.4506 -0.57389,-2.20546 -0.0549,-0.3384 0.0656,-0.69281 0,-1.02922 -0.24641,-1.26214 -0.1434,-2.6512 -0.1434,-3.96984 0,-0.45058 0.0862,-1.02868 0,-1.4703 -0.41457,-2.12434 -0.72358,-4.29576 -1.14778,-6.46936 -0.32787,-1.67988 -1.0532,-3.29118 -1.29132,-4.99905 -0.10839,-0.77643 -0.16023,-1.57413 -0.28679,-2.3525 -0.0959,-0.5896 -0.33426,-1.17253 -0.43043,-1.76437 -0.11782,-0.72365 0.007,-1.50511 -0.28679,-2.20547 -0.068,-0.1624 -0.23967,-0.27117 -0.2868,-0.44109 -0.1306,-0.46886 -0.0626,-1.01061 -0.28713,-1.47031 -0.0606,-0.12397 -0.26054,-0.15812 -0.28679,-0.29407 -0.0374,-0.19224 0.0303,-0.39476 0,-0.58813 -0.12657,-0.77761 -0.52488,-1.56343 -0.71739,-2.35249 -0.13902,-0.57046 -0.15215,-1.21229 -0.2868,-1.76437 -0.0168,-0.0673 -0.12219,-0.0813 -0.14339,-0.14702 -0.3107,-0.955 -0.52,-2.07631 -0.71736,-3.08766 -0.0431,-0.22059 -0.2023,-0.85596 -0.28713,-1.02921 -0.0168,-0.0321 -0.55258,-0.31591 -0.2868,-0.58813 0.37169,-0.38089 1.60965,0.54985 1.72171,0.58813 0.0909,0.0311 0.20736,-0.0544 0.2868,0 0.404,0.009 0.0367,0.3315 0.14339,0.4411 0.10705,0.10959 0.30464,0.061 0.43043,0.14701 0.39926,0.27279 0.71059,0.65816 1.14782,0.88219 0.40982,0.21001 0.49522,0.63241 0.86085,0.88219 0.98429,0.67244 1.72386,1.76659 2.58256,2.64655 0.4065,0.41656 0.81757,0.70559 1.29129,1.02922 0.29251,0.1999 0.36263,0.59351 0.57392,0.88219 0.0899,0.12291 1.00213,0.87993 1.14778,1.02921 0.22486,0.23046 0.46234,0.76786 0.71739,1.02922 0.60308,0.61801 1.22261,1.14418 1.72171,1.9114 0.28073,0.4314 0.74115,0.75141 1.14782,1.02922 0.35644,0.24351 0.3834,0.65405 0.71739,0.88218 0.25178,0.17199 1.13172,0.71868 1.29124,0.88219 0.034,0.0347 -0.034,0.11238 0,0.14702 0.0828,0.0852 0.49082,0.20883 0.5739,0.29407 0.034,0.0347 -0.034,0.11239 0,0.14705 0.33425,0.34251 0.95921,0.10077 1.29131,0.4411 0.034,0.0347 -0.034,0.11238 0,0.14701 0.15316,0.15679 0.37835,-0.92254 0.43046,-1.02921 0.38724,-0.79362 0.17874,-2.93865 0.43043,-3.96983 0.0168,-0.0673 0.13027,-0.079 0.14339,-0.14705 0.0374,-0.19224 -0.0236,-0.3936 0,-0.58813 0.0768,-0.62899 0.33157,-1.15726 0.43047,-1.76437 0.0428,-0.26033 0.24471,-0.47481 0.28712,-0.73514 0.0303,-0.19339 -0.0464,-0.39795 0,-0.58813 0.0515,-0.21263 0.21914,-0.38019 0.2868,-0.58813 0.15888,-0.48814 0.21442,-0.95062 0.28679,-1.47031 0.27064,-1.9407 0.0101,0.68441 0.28713,-0.73515 0.13263,-0.68011 0.0596,-1.36789 0.1434,-2.05843 0.1158,-0.95075 0.28612,-1.90877 0.57393,-2.79359 0.15686,-0.48211 0.0633,-1.15936 0.28679,-1.61734 0.0606,-0.12397 0.22654,-0.1701 0.28679,-0.29407 0.14845,-0.30449 0.11849,-0.83121 0.2868,-1.17625 0.15349,-0.31484 0.47543,-0.92826 0.71742,-1.17624 0.0757,-0.0775 0.22015,-0.0614 0.2868,-0.14702 0.13363,-0.17117 0.15854,-0.41278 0.28679,-0.58813 0.30262,-0.41356 1.50231,1.13592 1.72168,1.32328 2.13776,1.82557 2.7132,4.13057 4.01734,6.46936 0.55315,0.99198 0.0757,-0.32039 0.43042,0.58812 0.27636,0.70821 0.46554,1.5303 0.86086,2.20547 0.24505,0.41847 0.31944,0.13298 0.43046,0.58813 0.0784,0.31963 0.0714,0.58758 0.28679,0.88217 0.0811,0.1109 0.22654,0.1701 0.28713,0.29408 0.0882,0.18072 0.0552,0.40737 0.1434,0.58811 0.22419,0.45985 0.31877,1.0344 0.57382,1.47032 0.0694,0.11887 0.22655,0.17006 0.28713,0.29407 0.12893,0.26396 0.14105,0.73011 0.2868,1.02921 0.0471,0.096 0.50711,0.93797 0.57392,1.02922 0.064,0.0877 0.22756,0.0559 0.2868,0.14702 0.13801,0.21208 0.14912,0.81713 0.28713,1.02922 0.0596,0.0912 0.22755,0.0558 0.28679,0.14701 0.0417,0.0639 0.27199,0.84354 0.28713,0.88219 0.1434,0.36783 0.27367,0.26692 0.43043,0.58812 0.0428,0.0877 -0.0677,0.22474 0,0.29407 0.0337,0.0328 0.85147,0.0193 0.86089,0 0.0428,-0.0877 -0.0535,-0.21249 0,-0.29407 0.0596,-0.0912 0.22755,-0.0559 0.28679,-0.14702 0.0444,-0.0683 0.24809,-0.90909 0.2868,-1.02921 0.0616,-0.18935 0.36889,-0.39878 0.43042,-0.58813 0.11378,-0.34939 -0.16998,-0.26703 0.1434,-0.58812 0.0757,-0.0775 0.22755,-0.0559 0.2868,-0.14702 0.0535,-0.0816 -0.0357,-0.20304 0,-0.29407 0.0643,-0.16406 0.2326,-0.27344 0.28713,-0.4411 0.0454,-0.1395 -0.0454,-0.30159 0,-0.44109 0.10906,-0.33529 0.47913,-0.54236 0.57389,-0.88218 0.0525,-0.18849 -0.0525,-0.39963 0,-0.58812 0.10603,-0.37994 0.452,-0.65437 0.57392,-1.02923 0.39145,-1.20334 0.7998,-2.3536 1.29122,-3.52873 0.17032,-0.40711 0.2087,-0.94439 0.43046,-1.32328 0.0693,-0.11887 0.21981,-0.17372 0.28679,-0.29407 0.4788,-0.85869 0.63055,-1.89978 1.00436,-2.79359 0.0677,-0.16241 0.21913,-0.27866 0.28679,-0.4411 0.17201,-0.41171 0.15619,-0.92176 0.28679,-1.32328 -0.0535,-0.32032 0.239,-0.049 0.28713,-0.14702 0.10772,-0.22046 0.065,-1.29519 0.1434,-1.61734 0.0838,-0.34312 0.3629,-0.68354 0.43043,-1.02921 0.0269,-0.14419 -0.0269,-0.2969 0,-0.44109 0.0417,-0.21494 0.24505,-0.3732 0.28679,-0.58813 0.0855,-0.43834 0.60927,-3.65669 0.71729,-3.8228 0.0596,-0.0912 0.239,-0.049 0.28679,-0.14702 0.064,-0.13149 -0.0269,-0.296898 0,-0.441092 -0.10636,-0.2721 0.24506,-0.269652 0.28714,-0.441092 0.0347,-0.142639 -0.0535,-0.304559 0,-0.441096 0.0101,-0.01381 0.3737,-0.618866 0.43046,-0.735151 0.48573,-0.995462 0.67036,-2.109024 1.14781,-3.087647 0.11479,-0.235256 0.45911,-0.352871 0.57393,-0.588127 0.0677,-0.138637 0.0367,-0.3315 0.1434,-0.441092 0.97967,-0.334674 0.0464,0.09976 0.57392,-0.441096 0.0757,-0.07748 0.19793,-0.08624 0.2868,-0.147019 0.1131,-0.0772 0.85597,-1.280966 1.14785,-0.882187 0.47761,0.652638 0.79575,1.336799 1.14781,2.058432 0.13532,0.277241 0.13128,0.616388 0.28713,0.882188 0.58379,0.997143 0,-0.696536 0.57393,0.88218 0.20937,0.572565 0.3393,1.203571 0.57392,1.764375 0.47227,1.129344 0.12724,-0.344436 0.57383,1.029219 0.4591,1.411405 0.89158,2.872155 1.43478,4.263895 0.1646,0.42218 0.46705,0.88522 0.57392,1.32328 0.1195,0.48994 0.20298,1.1514 0.43043,1.61734 0.0606,0.12398 0.21745,0.1752 0.28713,0.29407 0.49162,0.83975 0.56342,2.02633 0.86078,2.94062 0.12893,0.39633 0.46918,0.80049 0.57393,1.17625 0.0525,0.18848 -0.0464,0.39793 0,0.58813 0.0515,0.21262 0.21173,0.38289 0.28679,0.58812 0.24203,0.66092 0.26155,1.41817 0.5739,2.05843 0.0774,0.15806 0.21913,0.27865 0.28679,0.44109 0.15551,0.37147 0.16225,0.79284 0.28713,1.17624 0.30901,0.95002 0.58291,1.92985 1.00435,2.79359 0.0801,0.16458 0.0596,0.60659 0.1434,0.73517 0.0596,0.0912 0.22755,0.0558 0.28679,0.14701 0.0525,0.0816 -0.0236,0.19897 0,0.29408 0.10065,0.41221 0.33908,0.96238 0.57386,1.32328 0.19625,0.30141 0.56178,0.56318 0.71739,0.88218 0.0428,0.0877 -0.0303,0.20108 0,0.29408 0.0919,0.28248 0.28579,0.21863 0.43043,0.44109 0.0535,0.0816 -0.0303,0.20107 0,0.29407 0.0747,0.22926 0.64535,0.77176 0.86089,0.88218 0.62956,0.32257 0.75791,-0.53539 1.14781,-0.73515 0.0855,-0.0438 0.21914,0.0693 0.2868,0 0.15114,-0.15499 0.13565,-0.43314 0.28713,-0.58812 0.15013,-0.15406 0.46499,-0.32954 0.57382,-0.44109 0.13801,-0.14126 0.32113,-0.80525 0.43043,-1.02923 0.35644,-0.73044 1.16956,-2.633 1.29131,-3.3817 0.0303,-0.19338 -0.0525,-0.39963 0,-0.58813 0.10604,-0.37993 0.45201,-0.65436 0.57393,-1.02922 0.21375,-0.65721 0.25583,-1.40638 0.57392,-2.05843 0.39034,-0.80012 0.93347,-1.52748 1.29122,-2.3525 0.31675,-0.73036 -0.0764,-0.48374 0.43043,-1.17624 0.32348,-0.44217 1.26613,-1.39286 1.43481,-1.9114 0.0303,-0.093 -0.0428,-0.20639 0,-0.29407 0.63562,-1.30279 0.19119,-0.0733 0.71739,-0.88219 0.11848,-0.18238 0.15316,-0.41697 0.28679,-0.58813 0.0666,-0.0856 0.21139,-0.0695 0.28713,-0.14702 0.10671,-0.10959 0.0364,-0.3315 0.1434,-0.44109 0.11209,-0.1149 0.43187,-0.0985 0.57382,-0.14705 0.4479,-0.15299 -0.0481,-0.098 0.1434,-0.29407 0.0384,-0.0389 0.37138,0 0.43043,0 0.79932,0 1.5333,0.67673 1.86524,1.4703 0.0774,0.18576 0.0552,0.40739 0.14339,0.58813 0.20702,0.42435 0.56689,0.71355 0.71739,1.17624 0.0784,0.24095 0.0418,0.67425 0.1434,0.88219 0.0606,0.12398 0.24404,0.16254 0.28679,0.29407 0.26054,0.80087 0.18514,1.81094 0.2868,2.64655 -0.14845,0.37941 0.22755,0.57825 0.28713,0.88219 0.13263,0.68029 0.0101,1.39038 0.28679,2.05843 0.0677,0.16244 0.2326,0.27345 0.2868,0.4411 0.0909,0.27897 -0.0401,0.59109 0,0.88219 0.13363,0.95942 0.15047,2.07976 0.43046,2.94062 0.0855,0.2642 -0.066,0.61132 0,0.88219 0.19658,0.80584 0.23327,1.69156 0.43043,2.49951 0.0579,0.23775 -0.0471,0.49487 0,0.73516 0.0417,0.21491 0.23495,0.37548 0.28713,0.58812 0.0794,0.32595 -0.0976,0.78211 0.14339,1.02922 0.0899,0.0922 0.60645,0.0335 0.71743,0.14702 0.034,0.0347 -0.034,0.11239 0,0.14702 0.12522,0.12839 0.82907,0.0872 1.00425,0.14705 0.13767,0.0471 0.26054,0.28059 0.28713,0.29408 0.19355,0.0991 0.85883,0.002 1.00435,-0.14702 0.034,-0.0347 -0.0337,-0.11239 0,-0.14702 0.0757,-0.0775 0.21139,-0.0695 0.28713,-0.14705 0.28949,-0.29653 0.44655,-0.84322 0.71739,-1.17625 0.74055,-0.91069 1.15408,-1.8539 1.57818,-2.94062 0.0794,-0.20349 0.13565,-0.43314 0.28679,-0.58812 0.0337,-0.0347 0.12859,0.0465 0.1434,0 0.0454,-0.1395 -0.064,-0.30959 0,-0.44109 0.0481,-0.098 0.21139,-0.0695 0.28713,-0.14705 0.15114,-0.15499 0.13566,-0.43315 0.2868,-0.58813 0.034,-0.0347 0.12219,0.0438 0.14339,0 0.0427,-0.0877 -0.0428,-0.20639 0,-0.29408 0.16494,-0.33798 0.6294,-0.64495 0.86086,-0.88218 0.67501,-0.69174 1.18312,-1.65348 1.86513,-2.3525 0.0757,-0.0775 0.2114,-0.0695 0.2868,-0.14701 0.52219,-0.53508 1.33477,-1.86015 2.0087,-2.20546 0.25684,-0.13157 0.46544,-0.0359 0.71743,-0.29408 0.14844,-0.15208 1.75069,-1.29395 1.86514,-1.32327 0.0929,-0.0238 0.20735,0.0544 0.28679,0 0.0892,-0.0608 0.0677,-0.21657 0.1434,-0.29408 0.1067,-0.10928 0.54077,0.11308 0.57392,0.14702 0.10704,0.10959 0.0757,0.30249 0.1434,0.4411 0.68639,1.40679 0.57392,3.00279 0.57392,4.55795 0,1.65132 -0.16864,3.24142 -0.43046,4.85203 -0.23832,1.46482 -0.0639,-0.7941 -0.28679,1.02921 -0.15484,1.26944 -0.33224,2.5838 -0.57393,3.8228 -0.25952,1.32995 -0.0135,-0.39936 -0.28679,0.4411 -0.0569,0.17644 0.0569,0.41169 0,0.58813 -0.239,0.73482 -0.38805,1.70642 -0.86089,2.35249 -0.0811,0.1109 -0.21711,0.1752 -0.28713,0.29407 -0.45981,0.78541 0.11378,0.0918 -0.1434,0.88219 -0.19355,0.59525 -0.66174,1.15197 -0.86088,1.76437 -0.18177,0.55902 -0.27266,1.24986 -0.57393,1.76437 -0.0693,0.11887 -0.22654,0.17009 -0.28679,0.29407 -0.47301,0.17379 -0.066,0.49807 -0.1434,0.73515 -0.18009,0.55352 -0.43945,1.06621 -0.57393,1.61734 -0.0464,0.19018 0.0465,0.39793 0,0.58812 -0.40905,1.67696 -0.25044,3.82514 0.1434,5.44015 0.0562,0.23064 -0.0562,0.50451 0,0.73515 0.0677,0.27593 0.17571,0.50722 0.28713,0.73515 0.0993,0.20387 0.0916,3.29993 0,3.67577 -0.0168,0.0673 -0.12724,0.0798 -0.1434,0.14706 -0.0993,0.40785 -0.10232,0.6506 -0.28679,1.02921 -0.10873,0.22294 -0.0367,0.66261 -0.1434,0.88218 -0.0606,0.12398 -0.23933,0.16427 -0.28713,0.29408 -0.10199,0.27913 -0.0236,0.60976 -0.14339,0.88217 -0.0818,0.19001 -0.30868,0.27476 -0.43046,0.4411 -0.2592,0.35419 -0.11109,0.96258 -0.2868,1.32328 -0.2188,0.44838 -0.11377,-0.26893 -0.28679,0.44109 -0.17201,0.70523 -0.11243,1.49065 -0.28713,2.20547 -0.10873,0.44603 -0.47335,0.91085 -0.57393,1.32327 -0.0236,0.0951 0.0428,0.20639 0,0.29407 -0.41413,0.84879 -0.22149,-0.33512 -0.43042,0.73516 -0.0337,0.16337 0.0535,0.42398 0,0.58812 -0.11311,0.34783 -0.31743,0.68139 -0.43043,1.02922 -0.0542,0.16658 0.0757,0.43232 0,0.58811 -0.19961,0.40911 -0.29892,0.91885 -0.43043,1.32329 -0.0454,0.1395 0.064,0.30959 0,0.44109 -0.11276,0.23074 -0.21846,0.45449 -0.28713,0.73515 -0.0303,0.12415 0.0623,0.4596 0,0.58813 -0.41229,0.84505 -0.2868,1.95338 -0.2868,2.94062 0,0.0516 0.0552,0.67891 0,0.73515 -0.034,0.0347 -0.10973,-0.0347 -0.14339,0 -0.16629,0.17031 -0.41094,0.63169 -0.57389,0.88219 -0.12724,0.19562 -0.43935,0.30325 -0.57386,0.44109 -0.12825,0.13129 -0.7358,0.99717 -0.86085,1.02922 -0.13936,0.0357 -0.29421,-0.0465 -0.43043,0 -0.0454,0.0155 0.0337,0.11238 0,0.14701 -0.19894,0.20401 -1.12308,0.23019 -1.43482,0.29408 -0.29184,-0.051 -0.46479,0.24229 -0.71738,0.29407 -0.83033,0.1702 -1.76291,0.23112 -2.58253,0.44109 -0.066,0.0169 -0.0774,0.13022 -0.1434,0.14705 -0.30228,0.0774 -0.70776,-0.10131 -1.00435,0 -0.064,0.0217 -0.0956,0.098 -0.1434,0.14702 -0.14339,0.049 -0.28208,0.11663 -0.43043,0.14706 -0.64831,0.13287 -1.35857,0.16081 -2.00863,0.29407 -0.48139,0.0987 -0.94191,0.46187 -1.43478,0.58813 -0.65559,0.16796 -1.36864,0.30991 -2.00864,0.44109 -0.34617,0.0709 -0.97843,-0.0131 -1.29131,0.14702 -0.36469,0.1869 -0.72379,0.35419 -1.14782,0.44109 -0.31978,0.0655 -0.68864,-0.0809 -1.00429,0 -1.78007,0.45605 -3.90188,0.0849 -5.73908,0.29407 -0.76219,0.0868 -1.53835,0.16472 -2.29556,0.29408 -0.6057,0.10345 -1.25533,-0.0781 -1.86524,0 -0.24203,0.031 -0.47453,0.12439 -0.71739,0.14705 -0.42864,0.0399 -0.87368,-0.10697 -1.29122,0 -0.066,0.0169 -0.0774,0.13022 -0.14339,0.14702 -0.59497,0.1524 -1.39553,0 -2.00874,0 -1.67381,0 -3.34775,0 -5.02159,0 -1.61746,0 -3.40128,0.16606 -5.02166,0 -0.2868,-0.049 -0.57393,-0.098 -0.86089,-0.14702 -0.1434,-0.049 -0.28141,-0.12156 -0.43043,-0.14705 -1.05397,-0.18003 -2.13288,-0.23129 -3.15645,-0.44109 -0.62156,-0.12739 -1.2183,0.0186 -1.86524,-0.14706 -0.29353,-0.0752 -0.56137,-0.25023 -0.86079,-0.29407 -1.41963,-0.20784 -2.8807,-0.001 -4.30427,-0.14702 -1.53973,-0.15778 -2.98242,-0.2878 -4.44776,-0.58812 -1.87591,-0.38447 1.42427,0.56406 -1.00436,-0.14705 -0.61704,-0.18065 -1.23368,-0.48026 -1.86524,-0.58812 -0.23596,-0.0402 -0.48058,0.0347 -0.71732,0 -0.82096,-0.12018 -1.63473,-0.42326 -2.43913,-0.58813 -0.37754,-0.0774 -0.55407,-0.31535 -0.86079,-0.44109 -0.67928,-0.27841 -1.47951,-0.35833 -2.1522,-0.58812 -0.58887,-0.20118 -1.10523,-0.67161 -1.72174,-0.88219 -0.44655,-0.15257 -0.99321,-0.0678 -1.43471,-0.29407 -0.28545,-0.14619 -0.55528,-0.46288 -0.86086,-0.58812 -0.58668,-0.2405 -0.79444,0.0217 -0.57389,-0.88219 z"
       id="path1045" />
    <path
       style="fill:#e1e5ee;fill-opacity:1;stroke:#fffffb;stroke-width:0.901588px;stroke-linecap:butt;stroke-linejoin:miter;stroke-opacity:1"
       d="m 374.15082,97.137108 c -1.26664,0.359534 -2.10854,-0.23243 -3.29992,-0.735162 -0.53427,-0.225463 -1.12698,-0.365213 -1.57818,-0.735154 -0.23226,-0.190346 -0.22452,-1.067344 -0.28679,-1.323279 -0.19591,-0.802155 -0.31978,-3.157515 -0.1434,-3.969834 0.1848,-0.851848 0.728,-2.163714 1.43472,-2.646553 0.39935,-0.272788 0.71338,-0.806589 1.14785,-1.029221 0.0855,-0.04381 0.19624,0.03104 0.28713,0 0.10132,-0.03467 0.21139,-0.06954 0.28679,-0.147021 0.034,-0.03467 -0.0454,-0.13153 0,-0.147052 0.30969,-0.105763 3.004,-0.248125 3.29995,-0.147021 0.44591,0.152332 1.62726,0.688525 1.86521,1.176248 0.0202,0.04381 0,0.09803 0,0.147018 0.0481,0.09804 0.0845,0.202903 0.14339,0.294073 0.21981,0.337779 0.0818,-0.06306 0.43043,0.294073 0.44033,0.4513 -0.0838,0.122252 0.1434,0.588117 0.1434,0.294073 0.28679,0.220565 0.43032,0.441097 0.0838,0.128942 0.0364,0.331499 0.1434,0.441091 0.0757,0.07748 0.22284,0.05933 0.2868,0.147054 0.56127,0.766904 0.73984,2.802839 0.57389,3.822798 -0.0401,0.248675 -0.21207,0.651896 -0.2868,0.882185 -0.23933,0.736176 -0.0337,-0.245054 -0.28713,0.147021 -0.0838,0.128943 -0.0525,0.317116 -0.1434,0.441094 -0.0639,0.08772 -0.21139,0.06954 -0.28679,0.147018 -0.19826,0.203317 -0.30295,0.604667 -0.43033,0.735162 -0.59822,0.613 -2.93095,1.449321 -3.73047,1.176248 z"
       id="path1630" />
    <text
       xml:space="preserve"
       style="font-size:136.303px;line-height:1.25;font-family:'Chess Condal';-inkscape-font-specification:'Chess Condal';fill:#161c47;fill-opacity:1;stroke:#e1e5ee;stroke-width:0.901588;stroke-opacity:1"
       x="254.86584"
       y="189.05608"
       id="text45350"
       transform="scale(0.98783687,1.0123129)"><tspan
         sodipodi:role="line"
         id="tspan45348"
         style="fill:#161c47;fill-opacity:1;stroke:#e1e5ee;stroke-width:0.901588;stroke-opacity:1"
         x="254.86584"
         y="189.05608">q</tspan></text>
  </g>
</svg>
