<?xml version="1.0" encoding="UTF-8" standalone="no"?>
<!-- Created with Inkscape (http://www.inkscape.org/) -->

<svg
   width="550"
   height="550"
   viewBox="0 0 145.52083 145.52083"
   version="1.1"
   id="svg5"
   inkscape:version="1.1.2 (b8e25be833, 2022-02-05)"
   sodipodi:docname="White_Bishop.svg"
   xmlns:inkscape="http://www.inkscape.org/namespaces/inkscape"
   xmlns:sodipodi="http://sodipodi.sourceforge.net/DTD/sodipodi-0.dtd"
   xmlns:xlink="http://www.w3.org/1999/xlink"
   xmlns="http://www.w3.org/2000/svg"
   xmlns:svg="http://www.w3.org/2000/svg">
  <sodipodi:namedview
     id="namedview7"
     pagecolor="#ffffff"
     bordercolor="#cccccc"
     borderopacity="1"
     inkscape:pageshadow="0"
     inkscape:pageopacity="0"
     inkscape:pagecheckerboard="true"
     inkscape:document-units="px"
     showgrid="false"
     inkscape:zoom="1"
     inkscape:cx="286"
     inkscape:cy="239"
     inkscape:window-width="1920"
     inkscape:window-height="1017"
     inkscape:window-x="-8"
     inkscape:window-y="32"
     inkscape:window-maximized="1"
     inkscape:current-layer="layer1"
     showborder="false"
     lock-margins="true"
     fit-margin-top="2.7"
     fit-margin-left="2.7"
     fit-margin-right="2.7"
     fit-margin-bottom="2.7"
     width="512mm"
     units="px" />
  <defs
     id="defs2">
    <linearGradient
       inkscape:collect="always"
       id="linearGradient7081">
      <stop
         style="stop-color:#000003;stop-opacity:1;"
         offset="0"
         id="stop7077" />
      <stop
         style="stop-color:#000003;stop-opacity:0;"
         offset="1"
         id="stop7079" />
    </linearGradient>
    <linearGradient
       inkscape:collect="always"
       id="linearGradient2415">
      <stop
         style="stop-color:#ffffff;stop-opacity:1;"
         offset="0"
         id="stop2411" />
      <stop
         style="stop-color:#ffffff;stop-opacity:0;"
         offset="1"
         id="stop2413" />
    </linearGradient>
    <linearGradient
       inkscape:collect="always"
       xlink:href="#linearGradient2415"
       id="linearGradient2417"
       x1="252.76004"
       y1="56.705269"
       x2="289.05634"
       y2="56.705269"
       gradientUnits="userSpaceOnUse" />
    <linearGradient
       inkscape:collect="always"
       xlink:href="#linearGradient7081"
       id="linearGradient7083"
       x1="201.46381"
       y1="63.513065"
       x2="303.51083"
       y2="63.513065"
       gradientUnits="userSpaceOnUse" />
  </defs>
  <g
     inkscape:label="Livello 1"
     inkscape:groupmode="layer"
     id="layer1"
     transform="translate(0.05418288,0.05380351)">
    <text
       xml:space="preserve"
       style="font-size:40px;line-height:1.25;font-family:'Chess Condal';-inkscape-font-specification:'Chess Condal';fill:#ffffff;fill-opacity:1;stroke:none;stroke-width:0.264583;stroke-opacity:1"
       x="87.548508"
       y="91.29937"
       id="text29524"><tspan
         sodipodi:role="line"
         id="tspan29522"
         style="fill:#ffffff;fill-opacity:1;stroke:none;stroke-width:0.264583;stroke-opacity:1"
         x="87.548508"
         y="91.29937" /></text>
    <text
       xml:space="preserve"
       style="font-size:40px;line-height:1.25;font-family:'Chess Leipzig';-inkscape-font-specification:'Chess Leipzig';stroke-width:0.264583"
       x="254.01411"
       y="94.275764"
       id="text58610"><tspan
         sodipodi:role="line"
         id="tspan58608"
         style="stroke-width:0.264583"
         x="254.01411"
         y="94.275764" /></text>
    <path
       style="fill:#e4e1d0;fill-opacity:1;stroke:#ffffff;stroke-width:0.248047px;stroke-linecap:butt;stroke-linejoin:miter;stroke-opacity:1"
       d="m 86.815593,126.742 c 1.678415,0.0851 2.862478,-0.82962 4.185801,-1.73634 0.819985,-0.56184 1.663283,-1.09563 2.449469,-1.70533 0.943672,-0.77955 0.45003,-0.38751 1.364261,-1.08521 0.322375,-0.24602 0.675202,-0.53086 1.023196,-0.74414 0.555686,-0.34059 0.338952,-0.17126 0.899172,-0.40308 0.699502,-0.28944 1.384098,-0.63943 2.108403,-0.86816 0.203179,-0.0641 0.414431,-0.0995 0.62012,-0.15503 0.176798,-0.0478 0.349729,-0.10943 0.5271,-0.15503 0.184565,-0.0474 0.375435,-0.0698 0.558105,-0.12403 0.2006,-0.0596 0.39058,-0.15086 0.58912,-0.21704 0.36908,-0.12303 0.74464,-0.22575 1.11621,-0.34106 0.41386,-0.12844 0.36801,-0.12011 0.77514,-0.21704 0.0265,-0.007 0.48688,-0.10526 0.52711,-0.12404 0.0805,-0.0376 0.14225,-0.10695 0.21704,-0.15502 0.14018,-0.0901 0.28503,-0.17352 0.43408,-0.24805 0.237,-0.1185 0.51218,-0.15018 0.74414,-0.27905 0.0384,-0.0213 0.0549,-0.0712 0.093,-0.093 0.037,-0.0211 0.0859,-0.0119 0.12402,-0.031 0.0462,-0.0232 0.0778,-0.0699 0.12404,-0.093 0.0334,-0.0167 0.25752,-0.0562 0.27904,-0.062 0.22077,-0.0602 0.47721,-0.17645 0.71314,-0.12403 0.31506,0.07 0.69285,0.35332 0.89917,0.58912 0.27757,0.31721 0.38004,0.88241 0.31006,1.30225 -0.0425,0.25513 -0.0621,0.1286 -0.18603,0.34106 -0.0397,0.068 -0.056,0.14759 -0.093,0.21705 -0.13169,0.24691 -0.27457,0.51372 -0.43408,0.74414 -0.14473,0.20905 -0.33098,0.39647 -0.4961,0.58912 -0.39908,0.46559 -0.75132,0.94996 -1.20923,1.36426 -0.45035,0.40746 -0.92766,0.77101 -1.42628,1.11621 -0.35089,0.24293 -0.50038,0.37556 -0.86816,0.58912 -0.55719,0.32352 -1.14462,0.58567 -1.73633,0.83716 -0.21732,0.0923 -0.42825,0.20105 -0.65113,0.27905 -0.539496,0.18882 -1.141272,0.3121 -1.705324,0.40308 -0.154407,0.0249 -0.31186,0.0306 -0.465089,0.062 -0.693925,0.14193 -1.375215,0.35975 -2.077397,0.46508 -1.045744,0.15686 -2.113191,0.18208 -3.162606,0.31006 -0.549103,0.0669 -1.095152,0.17952 -1.643315,0.24805 -0.164408,0.0205 -0.332333,0.006 -0.496094,0.031 -0.106649,0.0164 -0.20425,0.0719 -0.31006,0.093 -0.101851,0.0203 -0.207603,0.014 -0.310059,0.031 -0.394664,0.0658 -0.7708,0.19207 -1.178225,0.15502 -0.33263,-0.0303 -0.585755,-0.30893 -0.868167,-0.40307 -0.06933,-0.0232 -0.146534,-0.0118 -0.217041,-0.031 -0.154353,-0.0421 -0.303729,-0.12275 -0.465089,-0.15502 -0.129137,-0.0259 -0.245707,-0.0199 -0.372072,-0.0621 -0.09373,-0.0312 -0.208136,-0.11427 -0.310059,-0.15503 z"
       id="path1504" />
    <path
       style="fill:#e4e1d0;fill-opacity:1;stroke:#ffffff;stroke-width:0.561955px;stroke-linecap:butt;stroke-linejoin:miter;stroke-opacity:1"
       d="m 57.646823,85.633188 c -0.06436,-0.890873 -0.702818,-1.405515 -1.123913,-2.107335 -0.07618,-0.12699 -0.09367,-0.280979 -0.140497,-0.421469 -0.09367,-0.187309 -0.164817,-0.3877 -0.280977,-0.561955 -0.183677,-0.275523 -0.490457,-0.44806 -0.702446,-0.702445 -0.423684,-0.50842 -0.781155,-1.395591 -1.123911,-1.966848 -0.170508,-0.284158 -0.554943,-0.547929 -0.702444,-0.842934 -0.08636,-0.172697 -0.05414,-0.389257 -0.140498,-0.561955 -0.05923,-0.118474 -0.221742,-0.162502 -0.280978,-0.280979 -0.203197,-0.406408 -0.248402,-0.97223 -0.421466,-1.404891 -0.544482,-1.361198 -0.919896,-2.505574 -1.123913,-3.933695 -0.09143,-0.640084 -0.43522,-1.19268 -0.561954,-1.826359 -0.121978,-0.609918 -0.1419,-1.551026 -0.280979,-2.107334 -0.0508,-0.203176 -0.207444,-0.365862 -0.280979,-0.561955 -0.47522,-1.267258 0.140179,0.139074 -0.140498,-1.123914 -0.05471,-0.246183 -0.214622,-0.459147 -0.280976,-0.702446 -0.330923,-1.213381 -0.578499,-2.413239 -0.702444,-3.652716 -0.208039,-2.080329 -0.830996,-4.131091 -1.123913,-6.18152 -0.263756,-1.846284 0.387509,-6.840239 0.983423,-8.429344 0.07353,-0.196102 0.21475,-0.363275 0.280976,-0.561955 0.450515,-1.351546 0.447404,-2.848689 1.264402,-4.074183 0.730069,-1.095104 1.435677,-2.419104 2.388312,-3.371738 0.367094,-0.367093 0.822291,-0.671485 1.123912,-1.123913 0.08215,-0.12321 0.06701,-0.29289 0.140498,-0.421469 0.532622,-0.93209 1.511986,-1.652476 2.247823,-2.388313 0.738011,-0.738013 0.14602,-0.344912 0.702444,-1.123914 0.158488,-0.221876 0.684451,-0.621055 0.842934,-0.842934 0.409982,-0.573975 0.663257,-1.09452 1.264402,-1.545379 0.167535,-0.125652 0.413866,-0.132895 0.561954,-0.280977 0.10471,-0.10471 0.03577,-0.316755 0.140498,-0.421468 0.10471,-0.10471 0.294483,-0.06429 0.421466,-0.140498 0.304913,-0.182956 1.814247,-1.494512 1.966846,-1.54538 0.08885,-0.02961 0.197207,0.04189 0.280979,0 0.236941,-0.118472 0.334799,-0.42566 0.561954,-0.561956 0.126991,-0.07618 0.294483,-0.06429 0.421469,-0.140497 0.113566,-0.06814 0.187309,-0.18731 0.280977,-0.28098 0.140497,-0.09366 0.276681,-0.194105 0.421467,-0.280976 0.239853,-0.143918 0.462592,-0.137057 0.702445,-0.280979 0.556823,-0.334094 1.166378,-0.734294 1.685867,-1.123913 0.233946,-0.175458 0.637021,-0.215556 0.842934,-0.421466 0.160569,-0.160569 0.316329,-0.579634 0.561955,-0.702445 0.132448,-0.06622 0.294482,-0.06429 0.421468,-0.140498 0.348551,-0.209144 0.602214,-0.856354 0.983421,-0.983424 0.08885,-0.02961 0.214752,0.06623 0.280978,0 0.10471,-0.104709 0.05834,-0.29825 0.140498,-0.421468 0.514555,-0.771836 0.233724,-0.18697 0.702444,-0.561956 0.520811,-0.416647 0.719332,-1.1408 1.123912,-1.54538 0.03309,-0.03311 0.119556,0.04189 0.140498,0 0.08846,-0.176922 0.235487,-2.245816 0.140498,-2.388313 -0.114756,-0.172124 -0.34953,-0.06519 -0.421465,-0.280979 -0.105284,-0.315839 -0.36203,-1.037459 -0.702445,-1.264403 -0.326278,-0.217516 -1.270814,-1.002654 -1.404891,-1.40489 -0.231693,-0.695079 -0.523652,-3.62714 -0.280977,-4.355161 0.152328,-0.45697 1.641703,-1.452254 2.107334,-1.54538 0.734718,-0.146954 2.809425,-0.140838 3.371734,0.421468 0.401839,0.401837 0.663367,4.47239 0.421469,5.198094 -0.136059,0.408171 -0.308847,0.813924 -0.421469,1.264403 0.08469,0.254277 -0.22758,0.261286 -0.280976,0.421466 -0.05924,0.177709 0.05923,0.38425 0,0.561958 -0.0534,0.160186 -0.227581,0.261284 -0.280978,0.421466 -0.08483,0.254463 -0.09944,1.486975 0,1.685869 0.260051,0.520099 0.509195,0.904284 0.842933,1.404892 0.283062,0.424597 0.384321,1.007231 0.702444,1.40489 0.242571,0.303211 0.518838,0.378349 0.702446,0.561956 0.256977,0.256978 0.411835,0.750934 0.702444,0.983424 0.115647,0.09252 0.316754,0.03576 0.421467,0.140498 0.06623,0.06623 -0.06623,0.21475 0,0.280979 0.06623,0.06622 0.192131,-0.02961 0.280979,0 0.160186,0.05339 0.286388,0.179663 0.421466,0.280976 0.140434,0.105326 1.137235,0.800547 1.264401,0.842934 0.215492,0.07183 1.73537,0.07717 1.966844,0 0.198673,-0.06622 0.363277,-0.21475 0.561958,-0.280976 0.126437,-0.04214 0.295026,0.04214 0.421465,0 0.125652,-0.04189 0.152477,-0.248855 0.280979,-0.280979 0.136292,-0.03407 0.283708,0.02754 0.421465,0 1.27077,-0.254153 -0.381601,-0.01338 0.421469,-0.280979 0.333857,-0.111294 0.255162,0.166304 0.561955,-0.140477 0.07404,-0.07404 0.06644,-0.206934 0.140497,-0.280979 0.148081,-0.14808 0.3877,-0.164816 0.561955,-0.280979 0.465374,-0.310248 1.459013,-1.232152 1.685868,-1.685868 0.238782,-0.477557 -0.322792,-3.715439 -0.561955,-4.074183 -0.167132,-0.250685 -0.427789,-0.434114 -0.561955,-0.702445 -0.04186,-0.08377 0.03479,-0.194021 0,-0.280978 -0.205999,-0.51502 -0.452522,-0.99822 -0.561958,-1.545381 -0.169212,-0.846064 -0.109594,-3.012073 0.280979,-3.793205 0.3341,-0.668197 1.490099,-1.636925 2.247823,-1.826356 0.136292,-0.03407 0.291027,0.05218 0.421467,0 0.122976,-0.04919 0.162502,-0.221745 0.280979,-0.280979 0.08377,-0.04188 0.197206,0.04188 0.280977,0 0.04186,-0.02103 -0.03309,-0.107386 0,-0.140498 0.05473,-0.05473 0.476225,0 0.561957,0 1.438022,0 1.631858,0.367457 2.669288,1.40489 0.07404,0.07404 0.218153,0.05671 0.280979,0.140498 0.178771,0.23836 0.421468,1.654976 0.421468,1.966847 0,0.495221 0.119662,1.207261 0,1.685869 -0.08868,0.354719 -0.605924,0.834343 -0.702447,1.123914 -0.02961,0.08885 0.02961,0.19213 0,0.280977 -0.08212,0.246349 -0.423753,0.49514 -0.561955,0.702445 -0.13368,0.200541 -0.09534,0.657311 -0.280979,0.842934 -0.03309,0.03311 -0.119534,-0.04189 -0.140476,0 -0.121914,0.243843 -0.09866,0.569462 -0.280979,0.842934 -0.21283,0.319243 -0.531521,0.641573 -0.702444,0.983424 -0.04186,0.08377 0.02961,0.192131 0,0.280979 -0.300096,0.900283 -0.517006,1.584694 -0.280979,2.528803 0.02271,0.09086 -0.04186,0.197207 0,0.280979 0.02103,0.04189 0.107387,-0.03311 0.140498,0 0.06623,0.06622 -0.06622,0.21475 0,0.280977 0.03309,0.03311 0.119535,-0.04189 0.140498,0 0.04186,0.08376 -0.06623,0.214752 0,0.280979 0.06623,0.06623 0.21475,-0.06623 0.280976,0 0.06623,0.06623 -0.04186,0.197206 0,0.280979 0.01806,0.03615 0.476427,0.335935 0.561958,0.421465 0.243455,0.243458 0.553207,0.693697 0.842933,0.983424 0.03309,0.03311 0.107386,-0.03311 0.140498,0 0.171189,0.171189 0.250278,0.531257 0.421466,0.702445 0.03309,0.03311 0.119535,-0.04189 0.140497,0 0.04186,0.08377 -0.04186,0.197208 0,0.280979 0.05924,0.118473 0.203983,0.173185 0.280979,0.280979 0.312741,0.437833 0.523867,0.979463 0.842934,1.40489 0.195041,0.26005 0.556055,0.550151 0.702444,0.842934 0.120363,0.240733 0.274329,0.622231 0.421466,0.842935 0.217613,0.326418 0.455196,0.382155 0.561957,0.702445 0.16469,0.494071 0.426475,1.00345 0.561956,1.545379 0.101311,0.405233 0.04226,0.871476 0.140498,1.264403 0.0508,0.203175 0.239904,0.356596 0.280978,0.561956 0.06421,0.321077 0.03445,0.665323 0.140477,0.983424 0.09377,0.281331 0.338887,0.454697 0.421467,0.702444 0.02961,0.08885 -0.04186,0.197208 0,0.280979 0.02103,0.04189 0.107386,-0.03311 0.140498,0 0.02591,0.02589 0.114608,0.39558 0.140498,0.421466 0.290676,0.290678 -0.01126,-0.444192 0.280977,0.140498 0.173015,0.346019 -0.407801,-0.12682 0.140497,0.421469 0.03309,0.03311 0.119556,-0.04189 0.140498,0 0.06282,0.125651 -0.09934,0.322126 0,0.421466 0.08606,0.08606 0.367676,0.119599 0.421466,0.280979 0.206084,0.618246 0.483682,1.310545 0.702447,1.966847 0.05817,0.174524 0.377508,0.386118 0.421465,0.561957 0.04541,0.181722 -0.08377,0.394413 0,0.561955 0.163202,0.326414 0.341978,0.585983 0.421468,0.983424 0.433122,2.165598 0.140477,4.676456 0.140477,6.883964 0,1.720581 -0.05924,-0.414648 0.140497,0.983424 0.115096,0.805719 0.114204,3.415227 0,4.214673 -0.09422,0.659512 -0.25984,1.320346 -0.421465,1.966847 -0.09273,0.370964 -0.07054,0.985115 -0.140498,1.40489 -0.139818,0.838861 -0.07534,1.743844 -0.280979,2.669293 -0.07032,0.316491 -0.862331,2.648331 -0.983423,2.809782 -0.306519,0.408695 -0.302264,-0.174545 -0.421466,0.421466 -0.120702,0.603526 -0.159868,0.60072 -0.421467,1.123914 -0.235595,0.471187 -0.425714,1.562377 -0.561956,2.107334 -0.206488,0.825982 -0.779094,1.571022 -0.983422,2.388315 -0.126523,0.506098 -0.259241,1.058715 -0.421466,1.545381 -0.115669,0.347024 -0.465924,0.739775 -0.561957,1.123911 -0.02271,0.09086 0.03479,0.194021 0,0.280979 -0.213751,0.534381 -1.168604,2.433006 -1.545379,2.809782 -0.07404,0.07403 -0.222893,0.0534 -0.280979,0.140498 -0.05197,0.07793 0.05197,0.203048 0,0.280979 -0.05809,0.08712 -0.227102,0.0507 -0.280976,0.140498 -0.09934,0.16556 -0.06877,0.382681 -0.140498,0.561956 -0.14054,0.351346 -0.557515,0.621109 -0.702444,0.983424 -0.151266,0.378135 -0.258703,0.857489 -0.421468,1.264402 -0.120108,0.300281 -0.33521,0.897169 -0.561955,1.123911 -0.03309,0.03309 -0.107364,-0.03309 -0.140498,0 -0.05843,0.05842 -0.669908,1.836704 -0.702444,1.966848 -0.06232,0.249306 -0.431947,1.231543 -0.561956,1.40489 -0.119215,0.158955 -0.358639,0.232982 -0.421467,0.421468 -0.08336,0.250099 -0.05711,0.592836 -0.140498,0.842934 -0.104582,0.313728 -0.320702,0.681126 -0.421466,0.983424 -0.08368,0.251037 -0.08504,1.741317 0,1.826359 0.290676,0.290676 -0.01126,-0.444195 0.280977,0.140476 0.249043,0.498085 0.287402,1.149596 0.421468,1.68587 0.09872,0.394842 -0.07977,0.865486 0,1.264402 0.09152,0.457624 0.200562,0.922344 0.280978,1.40489 0.0308,0.184782 -0.04541,0.380232 0,0.561957 0.120193,0.480737 0.376651,0.379674 0.561956,0.842935 0.292069,0.730183 0.573802,1.616461 0.702444,2.388314 0.106791,0.640811 0.07485,1.207959 0.280979,1.826358 0.05619,0.168577 -0.0562,0.393369 0,0.561956 0.119237,0.357718 0.342247,0.617241 0.561955,0.983424 0.261546,0.435904 0.675886,1.465702 0.842933,1.966842 0.05418,0.16255 -0.07549,0.411 0,0.56196 0.525356,1.05071 -0.04562,5.19442 -0.421465,6.32201 -0.07404,0.22214 -0.316752,0.35253 -0.421468,0.56196 -0.09573,0.19144 -0.10333,0.52478 -0.280979,0.70244 -0.993814,0.99382 -2.491458,1.4455 -3.93369,1.68587 -0.601169,0.1002 -2.147267,-0.0336 -2.669291,0.1405 -0.372912,0.12431 -0.590605,0.37236 -0.983423,0.42146 -0.418211,0.0523 -0.84717,-0.0596 -1.264399,0 -0.664254,0.0949 -1.344041,0.21386 -1.966846,0.42147 -0.40807,0.13604 -0.196017,0.14702 -0.561955,0.42147 -0.220135,0.16509 -0.748637,0.13856 -0.842934,0.42146 -0.02961,0.0889 0.06623,0.21476 0,0.28098 -0.583473,0.58348 -0.578101,0.0323 -0.983422,0.84294 -0.302733,0.60547 0.271233,1.48975 -0.140498,2.10734 -0.406234,0.60935 -0.750127,-0.51428 -1.123913,-0.14051 -0.03202,0.0321 -0.247276,1.12392 -0.140497,1.12392 0.04681,0 -0.03309,-0.10736 0,-0.14049 0.167577,-0.16758 0.894358,0.30271 0.98342,0.42146 0.08885,0.11847 0.048,0.30583 0.140498,0.42146 0.105474,0.13186 0.289621,0.1755 0.421468,0.28098 0.182828,0.14628 0.23415,0.42148 0.421465,0.56196 0.118473,0.0889 0.302996,0.0517 0.421468,0.14049 0.08377,0.0628 0.05337,0.22291 0.140498,0.28098 0.07793,0.0519 0.192131,-0.0296 0.280977,0 0.195231,0.0651 0.549109,0.73341 0.702444,0.84294 0.170424,0.12173 0.382373,0.17323 0.561957,0.28098 0.0898,0.0539 0.04681,0.23415 0.140498,0.28098 0.08377,0.0419 0.203048,-0.0519 0.280977,0 0.08712,0.0581 0.05671,0.21815 0.140498,0.28098 0.234825,0.17612 0.702444,0.1897 0.702444,0.56196 0.727698,0.0729 0.36145,0.92347 0.702364,1.26439 0.119386,0.11938 0.315987,0.14912 0.421466,0.28097 0.305805,0.38225 0.340007,0.97702 0.842934,1.26441 0.836219,0.47783 2.531276,1.40488 3.371734,1.40488 1.805389,1.42994 3.75744,0.20027 5.760047,0 1.602913,-0.16029 3.341596,-0.53328 4.917115,-0.98342 0.494361,-0.14124 0.927519,-0.40283 1.404888,-0.56196 0.270077,-0.09 0.712828,-0.14568 0.983427,-0.28098 1.32513,-0.66257 -0.0307,-0.0263 0.56195,-0.42146 0.93353,-0.62235 2.01213,-1.06045 2.95027,-1.68587 0.25973,-0.17314 0.0871,-0.23877 0.28097,-0.56195 0.18689,-0.31149 0.61294,-0.69593 0.84294,-0.98342 0.24319,-0.304 0.62847,-0.38076 0.84294,-0.70246 0.24648,-0.36972 0.72585,-1.20586 1.1239,-1.40488 0.0838,-0.0419 0.19403,0.0348 0.28098,0 0.66915,-0.26767 1.28519,-0.8967 1.96685,-1.12392 0.13328,-0.0444 0.28371,0.0276 0.42147,0 0.48322,-0.0966 0.88588,-0.34733 1.40489,-0.42146 1.48547,-0.21223 3.63488,0 5.19808,0 0.87506,0 -0.34991,0.0419 0.56196,-0.14051 0.46196,-0.0923 1.09904,0.0496 1.54538,0 0.66074,-0.0734 1.27763,-0.14049 1.96684,-0.14049 0.57541,0 1.25472,-0.0817 1.82636,0 0.66425,0.0949 0.80116,0.5012 1.4049,0.70244 0.31786,0.10597 0.68248,0.0553 0.98342,0.28098 0.10596,0.0795 0.16249,0.22175 0.28098,0.28098 0.12565,0.0628 0.32212,-0.0993 0.42146,0 0.10291,0.10291 0.23932,0.44052 0.42147,0.56196 0.31476,0.20984 0.59847,0.23601 0.84293,0.56196 0.6619,0.88252 0.75502,2.51157 0.42147,3.51222 -0.0467,0.1399 -0.23435,0.28156 -0.28098,0.42146 -0.0296,0.0889 0.0562,0.20605 0,0.28098 -0.10131,0.13509 -0.30207,0.16159 -0.42147,0.28098 -0.71795,0.71795 0.58907,-0.19595 -0.42146,0.56196 -1.69147,1.2686 -4.86951,1.13071 -6.88396,0.84294 -0.67024,-0.0957 -1.42716,0 -2.10734,0 -1.5922,0 -3.18441,0 -4.77662,0 -2.07451,0 -4.51345,0.5335 -6.46249,1.2644 -0.46652,0.17495 -1.12064,0.44759 -1.54538,0.70244 -0.11359,0.0682 -0.1625,0.22174 -0.28098,0.28098 -0.32364,0.16182 -0.35393,-0.12089 -0.70244,0.1405 -1.07782,0.80837 -2.09496,1.73711 -3.371738,2.24782 -0.970196,0.38808 0.120745,-0.0522 -0.842933,0.1405 -0.249927,0.05 -0.492964,0.21114 -0.702447,0.28098 -0.333625,0.11121 -0.777512,-0.0693 -1.12391,0 -0.45821,0.0916 -0.958214,0.16931 -1.404891,0.28098 -0.331345,0.0828 -0.652076,0.33863 -0.983421,0.42146 -0.247521,0.0619 -0.46339,0.0609 -0.702446,0.14048 -0.227711,0.0759 -0.502974,0.3716 -0.702445,0.42147 -0.220761,0.0552 -0.99656,0.10223 -1.2644,0.1405 -0.931465,0.13306 -2.013213,0 -2.950269,0 -2.107332,0 -4.214668,0 -6.322001,0 -0.271549,0 -1.660277,0.0256 -1.826357,-0.1405 -0.07404,-0.0741 -0.05335,-0.2229 -0.140498,-0.28098 -0.07793,-0.0519 -0.192131,0.0296 -0.280979,0 -0.340565,-0.11353 -0.814543,-0.4962 -1.123909,-0.70245 -0.278318,0.0141 -0.06644,-0.20692 -0.140498,-0.28098 -0.152583,-0.15256 -1.280616,-0.78079 -1.404891,-0.84293 -0.250987,-0.1255 -0.2631,-0.50448 -0.421466,-0.70244 -0.282625,-0.35329 -0.558493,-0.5585 -0.842933,-0.84294 -0.532903,-0.5329 -0.07868,-0.27162 -0.421469,-0.84293 -0.09367,-0.0937 -0.187309,-0.18731 -0.280977,-0.28098 -0.04683,0 -0.107385,0.0331 -0.140497,0 -0.126352,-0.12635 -0.26657,-0.54755 -0.421468,-0.70244 -0.277313,-0.27732 -1.577035,-0.23794 -1.966844,-0.1405 -0.53311,0.13328 -2.148448,1.02453 -2.528801,1.40489 -0.194148,0.19414 -0.258696,0.68016 -0.421468,0.84293 -0.10471,0.10471 -0.294483,0.0643 -0.421465,0.1405 -0.30223,0.18134 -0.682739,0.5521 -0.983423,0.70244 -0.830837,0.41542 0.300478,-0.50633 -0.561958,0.1405 -0.105962,0.0795 -0.162502,0.22174 -0.280976,0.28097 -0.474781,0.2374 -1.0706,0.32458 -1.545379,0.56196 -0.118472,0.0593 -0.167408,0.21283 -0.280978,0.28098 -0.585157,0.3511 -1.349873,0.43803 -1.966846,0.70245 -0.363189,0.0151 -0.434245,0.42785 -0.702445,0.56195 -0.08377,0.0419 -0.194021,-0.0348 -0.280978,0 -0.335235,0.13411 -0.617456,0.47047 -0.983423,0.56196 -2.0357,0.50892 -4.222744,0.56196 -6.462491,0.56196 -0.57192,0 -1.560487,0.18228 -2.107333,0 -0.06282,-0.021 -0.07625,-0.12442 -0.140498,-0.1405 -0.136293,-0.034 -0.291027,0.0522 -0.421468,0 -0.122976,-0.0492 -0.159231,-0.2288 -0.280977,-0.28097 -0.21948,-0.0941 -0.478864,-0.0566 -0.702446,-0.14051 -0.302158,-0.1133 -0.39847,-0.34547 -0.702445,-0.42146 -1.009544,-0.25239 -2.075924,-0.64514 -3.090755,-0.98342 -1.365703,-0.45524 -2.856111,-0.53057 -4.214669,-0.98343 -0.230752,-0.0769 -1.37237,-0.43219 -1.545378,-0.56195 -0.08377,-0.0628 -0.0507,-0.2271 -0.140498,-0.28098 -0.502491,-0.3015 -1.278118,-0.37921 -1.826357,-0.56196 -0.563945,-0.18799 -1.479018,-0.51772 -1.966846,-0.84294 -0.08712,-0.0581 -0.05335,-0.22289 -0.140498,-0.28098 -0.07793,-0.0519 -0.19213,0.0296 -0.280976,0 -0.265828,-0.0886 -0.574582,-0.46131 -0.842933,-0.56195 -0.434554,-0.16294 -1.716589,-0.45571 -2.247825,-0.56195 -0.448249,-0.0896 -0.950968,0.0567 -1.40489,0 -1.348328,-0.16854 -2.703693,-0.14051 -4.074178,-0.14051 -1.360695,0 -4.224763,-0.20905 -5.479069,0 -0.841921,0.14034 -1.203944,0.44815 -1.966846,0.70245 -0.298542,0.0995 -0.806426,0 -1.123911,0 -0.01083,0 -0.686213,0.0324 -0.702444,0 -0.04189,-0.0838 0.02961,-0.19213 0,-0.28097 -0.26769,-0.80308 -0.02682,0.84929 -0.280979,-0.42148 -0.139966,-0.6998 0.170594,-1.48514 -0.140498,-2.10733 -0.0562,-0.1124 0.0562,-0.30908 0,-0.42147 -0.134189,-0.2684 -0.173631,-0.5951 -0.421465,-0.84293 -0.07404,-0.0741 -0.206935,-0.0665 -0.280979,-0.1405 -0.222827,-0.22283 -0.474379,-1.01808 -0.280979,-1.4049 0.313075,-0.62615 2.477473,-2.16082 3.090759,-2.5288 0.453645,-0.27218 1.321919,-0.32058 1.826356,-0.42146 1.030972,-0.2062 2.213228,0.2545 3.231245,0 0.454873,-0.11371 0.952964,-0.0275 1.404889,-0.1405 2.377467,-0.79249 -0.311377,0.005 1.404888,-0.28098 0.206574,-0.0344 0.358781,-0.23018 0.561958,-0.28097 0.545176,-0.1363 4.140393,-0.30574 4.636134,-0.1405 0.198672,0.0662 0.360585,0.22345 0.561957,0.28097 0.518818,0.14823 1.156778,0.008 1.685868,0.1405 0.352504,0.0881 0.767249,-0.0713 1.12391,0 0.82062,0.16411 1.709333,0.2166 2.528801,0.42147 0.176307,0.0441 0.385656,-0.0441 0.561957,0 0.543413,0.13584 1.42121,0.43778 1.826357,0.84294 0.07404,0.0741 0.06644,0.20693 0.140498,0.28097 0.14808,0.14808 0.413869,0.1329 0.561957,0.28098 0.03311,0.0331 -0.04189,0.11955 0,0.1405 0.08377,0.0419 0.19213,-0.0296 0.280976,0 0.153964,0.0513 0.284828,0.33037 0.421469,0.42147 0.340661,0.2271 0.836572,0.4151 1.123912,0.70244 0.240505,0.24051 0.401019,0.47638 0.702444,0.70245 0.329974,0.24748 0.779985,0.33267 1.12391,0.56195 0.110211,0.0735 0.162502,0.22174 0.280979,0.28098 0.144066,0.072 0.417889,0.0684 0.561955,0.1405 0.6876,0.3438 0.179769,0.16993 0.702447,0.56196 0.209164,0.15687 2.005571,1.04316 2.247822,1.1239 0.801205,0.26708 1.657273,0.38766 2.528801,0.56196 0.367136,0.0734 0.862523,0.321 1.264401,0.42147 0.451357,0.11284 2.983267,0.10579 3.512222,0 0.425129,-0.085 0.704928,-0.33767 1.123913,-0.42147 0.137758,-0.0276 0.288187,0.0444 0.421468,0 0.04444,-0.0149 -0.04189,-0.11955 0,-0.14049 0.319073,-0.15953 0.906796,-0.19158 1.264399,-0.28098 0.370174,-0.0925 0.75528,-0.41451 1.123912,-0.56196 0.179282,-0.0717 0.425426,-0.004 0.561956,-0.14049 0.03311,-0.0331 -0.03311,-0.1074 0,-0.14051 0.04904,-0.049 0.392308,0.0583 0.421467,0 0.04189,-0.0838 -0.06622,-0.21475 0,-0.28098 0.04968,-0.0497 0.462616,-0.0412 0.561956,-0.14049 0.03311,-0.0331 -0.03311,-0.10739 0,-0.1405 0.115648,-0.11565 0.548972,-0.26799 0.702444,-0.42147 0.104136,-0.10414 0.1066,-0.24709 0.280979,-0.42146 0.07024,-0.0702 0.210736,-0.0702 0.280978,-0.14051 0.251524,-0.25152 0.59303,-0.874 0.842934,-1.1239 0.03311,-0.0331 0.09367,0 0.140477,0 0.09367,-0.0937 0.201496,-0.17502 0.280979,-0.28098 0.311174,-0.4149 1.156076,-2.97061 1.264401,-3.51223 0.124058,-0.62029 0.366163,-1.23898 0.561955,-1.82636 0.02649,-0.0795 -0.05644,-0.36504 0,-0.42146 0.03311,-0.0331 0.119556,0.0419 0.140498,0 0.158508,-0.31703 0.140498,-0.73903 0.140498,-1.12392 0,-0.49317 0.183656,-1.10952 0.140476,-1.12391 -0.177709,-0.0593 -0.394411,0.0837 -0.561954,0 -1.150724,-0.57536 -2.639278,-0.68114 -3.933691,-0.84294 -0.456887,-0.0571 -0.95063,0.0757 -1.404891,0 -0.934551,-0.15577 -1.893341,-0.40921 -2.809778,-0.56195 -0.323348,-0.0539 -0.665402,0.0795 -0.983423,0 -0.06425,-0.0161 -0.07554,-0.1275 -0.140497,-0.1405 -0.183677,-0.0368 -0.376519,0.0264 -0.561955,0 -0.435433,-0.0622 -0.997008,-0.2855 -1.404891,-0.42147 -0.509314,-0.16976 -0.09997,-0.0667 -0.421466,-0.28097 -0.481069,-0.32071 -1.158934,-0.52681 -1.685867,-0.70245 -0.438512,-0.14616 0.04683,-0.0936 -0.140498,-0.28098 -0.177199,-0.17719 -0.481047,-0.34055 -0.702444,-0.56195 -0.165985,-0.16599 -0.630076,-1.25591 -0.702445,-1.54538 -0.08135,-0.32538 0,-0.78702 0,-1.12391 0,-0.80185 -0.19058,-1.90697 0,-2.6693 0.151287,-0.60519 0.273581,-1.23482 0.421466,-1.82636 0.08821,-0.35284 0.796822,-1.515352 0.983423,-1.826355 0.204089,-0.340135 0.148951,-0.793844 0.280979,-1.123911 0.32061,-0.80153 0.21691,-0.08878 0.421465,-0.702444 0.281244,-0.843736 0.650005,-1.695259 0.983423,-2.528804 0.08933,-0.223317 0.33214,-0.479131 0.421466,-0.702447 0.466126,-1.165311 0.468655,-2.529877 0.842934,-3.652715 0.110232,-0.33067 -0.08422,-0.787075 0,-1.123913 0.01614,-0.06425 0.110869,-0.08126 0.140498,-0.140498 0.02961,-0.05919 0.194063,-3.019331 0.140498,-3.090758 -0.119217,-0.158956 -0.280977,-0.280979 -0.421467,-0.421469 z"
       id="path1200" />
    <text
       xml:space="preserve"
       style="font-size:142.824px;line-height:1.25;font-family:'Chess Leipzig';-inkscape-font-specification:'Chess Leipzig';fill:#2c0707;fill-opacity:1;stroke:#e4e1d0;stroke-width:0.946465;stroke-miterlimit:4;stroke-dasharray:none;stroke-opacity:1"
       x="2.6983843"
       y="142.40527"
       id="text76144"
       transform="scale(0.979793,1.0206237)"><tspan
         sodipodi:role="line"
         id="tspan76142"
         style="fill:#2c0707;fill-opacity:1;stroke:#e4e1d0;stroke-width:0.946465;stroke-miterlimit:4;stroke-dasharray:none;stroke-opacity:1"
         x="2.6983843"
         y="142.40527">b</tspan></text>
    <path
       style="fill:#ffffff;fill-opacity:1;stroke:#ffffff;stroke-width:1.26909;stroke-linecap:round;stroke-linejoin:round;stroke-miterlimit:4;stroke-dasharray:none;stroke-opacity:1"
       d=""
       id="path8771"
       transform="scale(0.26458333)" />
  </g>
</svg>
