<?xml version="1.0" encoding="UTF-8" standalone="no"?>
<!-- Created with Inkscape (http://www.inkscape.org/) -->

<svg
   width="550"
   height="550"
   viewBox="0 0 145.52083 145.52083"
   version="1.1"
   id="svg5"
   inkscape:version="1.1.2 (b8e25be833, 2022-02-05)"
   sodipodi:docname="White_Pawn.svg"
   xmlns:inkscape="http://www.inkscape.org/namespaces/inkscape"
   xmlns:sodipodi="http://sodipodi.sourceforge.net/DTD/sodipodi-0.dtd"
   xmlns="http://www.w3.org/2000/svg"
   xmlns:svg="http://www.w3.org/2000/svg">
  <sodipodi:namedview
     id="namedview7"
     pagecolor="#ffffff"
     bordercolor="#cccccc"
     borderopacity="1"
     inkscape:pageshadow="0"
     inkscape:pageopacity="1"
     inkscape:pagecheckerboard="true"
     inkscape:document-units="mm"
     showgrid="false"
     inkscape:zoom="1.5518659"
     inkscape:cx="324.12594"
     inkscape:cy="249.37721"
     inkscape:window-width="1920"
     inkscape:window-height="1057"
     inkscape:window-x="-8"
     inkscape:window-y="-8"
     inkscape:window-maximized="1"
     inkscape:current-layer="layer1"
     showborder="false"
     fit-margin-top="10"
     lock-margins="true"
     fit-margin-left="10"
     fit-margin-right="10"
     fit-margin-bottom="10"
     units="px"
     height="550px" />
  <defs
     id="defs2">
    <rect
       x="-257.75424"
       y="433.0271"
       width="1618.6967"
       height="2051.7236"
       id="rect6462" />
  </defs>
  <g
     inkscape:label="Livello 1"
     inkscape:groupmode="layer"
     id="layer1"
     transform="translate(-237.69713,-0.87911654)">
    <text
       xml:space="preserve"
       style="font-size:40px;line-height:1.25;font-family:'Chess Condal';-inkscape-font-specification:'Chess Condal';fill:#ffffff;fill-opacity:1;stroke:none;stroke-width:0.264583;stroke-opacity:1"
       x="87.548508"
       y="91.29937"
       id="text29524"><tspan
         sodipodi:role="line"
         id="tspan29522"
         style="fill:#ffffff;fill-opacity:1;stroke:none;stroke-width:0.264583;stroke-opacity:1"
         x="87.548508"
         y="91.29937" /></text>
    <text
       xml:space="preserve"
       style="font-size:40px;line-height:1.25;font-family:'Chess Leipzig';-inkscape-font-specification:'Chess Leipzig';stroke-width:0.264583"
       x="254.01411"
       y="94.275764"
       id="text58610"><tspan
         sodipodi:role="line"
         id="tspan58608"
         style="stroke-width:0.264583"
         x="254.01411"
         y="94.275764" /></text>
    <text
       xml:space="preserve"
       transform="matrix(0.26458333,0,0,0.26458333,237.69713,0.87911654)"
       id="text6460"
       style="font-size:136.063px;line-height:1.25;font-family:'Chess Alpha';-inkscape-font-specification:'Chess Alpha';white-space:pre;shape-inside:url(#rect6462)" />
    <path
       style="fill:#e1e5ee;fill-opacity:1;stroke:#e1e5ee;stroke-width:0.220486px;stroke-linecap:butt;stroke-linejoin:miter;stroke-opacity:1"
       d="m 272.29588,123.00932 c -0.27244,-1.81796 -0.77451,-3.68524 -0.56831,-5.54107 0.0709,-0.63825 0.33713,-1.22327 0.42624,-1.84702 0.0594,-0.41581 0.003,-0.90412 0.28416,-1.27869 0.0635,-0.0847 0.20927,-0.0672 0.28415,-0.14208 0.21891,-0.21892 0.33276,-0.8179 0.56832,-0.99455 0.1198,-0.0899 0.29228,-0.0751 0.42623,-0.14208 0.50913,-0.25457 0.90455,-0.90455 1.2787,-1.27871 0.32894,-0.32892 0.60806,-0.37507 0.99455,-0.5683 0.21761,-0.10881 0.11111,-0.25319 0.28416,-0.42625 0.21387,-0.21387 0.72049,-0.36276 0.99455,-0.56831 0.51034,-0.38276 0.92215,-0.8798 1.42078,-1.27871 0.92119,-0.73695 1.89892,-1.42418 2.84157,-2.13118 0.35598,-0.26698 0.75772,-0.62512 1.13663,-0.85247 0.31534,-0.1892 0.72188,-0.29565 0.99455,-0.5683 0.0749,-0.0749 0.0672,-0.20928 0.14207,-0.28416 0.12074,-0.12074 0.2929,-0.17749 0.42624,-0.28416 0.65734,-0.52586 1.18286,-1.33651 1.70494,-1.9891 0.50749,-0.63436 0.88855,-1.36816 1.42078,-1.98909 0.21794,-0.25427 0.52463,-0.43176 0.71039,-0.7104 0.0263,-0.0394 -0.0423,-0.12089 0,-0.142073 0.0847,-0.04233 0.21719,0.067 0.28416,0 0.067,-0.067 -0.0423,-0.199434 0,-0.284167 0.11254,-0.225051 0.52441,-0.462401 0.7104,-0.710385 0.76647,-1.021952 -0.15777,0.299842 0.5683,-0.426218 0.10003,-0.100042 1.65368,-1.886579 1.70495,-1.989104 0.53325,-1.066511 1.22185,-2.083796 1.84702,-3.125723 0.20868,-0.347818 0.51036,-0.661177 0.71039,-0.994552 0.23016,-0.383626 0.27773,-0.915486 0.56831,-1.278711 0.12552,-0.156901 0.32655,-0.251776 0.42624,-0.426243 0.25094,-0.439142 0.35159,-1.346136 0.71039,-1.704937 0.0749,-0.07492 0.22062,-0.05733 0.28415,-0.142083 0.36091,-0.481185 0.47951,-1.308278 0.71039,-1.847013 0.18646,-0.435042 0.57616,-0.808876 0.7104,-1.278694 0.87182,-3.051373 -0.56951,1.376611 0.42623,-1.278711 0.47144,-1.257186 0.63557,-2.676747 0.85248,-3.978192 0.0467,-0.280309 -0.0781,-0.579242 0,-0.852468 0.0582,-0.203667 0.23278,-0.362851 0.28415,-0.568326 0.0919,-0.367551 0,-0.757744 0,-1.136628 0,-0.719601 -0.023,0.302901 0.14207,-0.852468 0.0508,-0.355559 -0.0871,-0.788152 0,-1.136627 0.22686,-0.907419 0.5268,-1.781471 0.7104,-2.699489 0.0602,-0.300768 0.35175,-0.554502 0.42624,-0.852469 0.11329,-0.453159 0.10537,-0.801952 0.28415,-1.278711 0.27399,-0.730626 0.62647,-1.453161 0.85247,-2.131154 0.0916,-0.274818 0.68734,-1.58592 0.42624,-1.847038 -0.52967,-0.529676 -2.71081,-0.426225 -3.40988,-0.426225 -1.58478,0 -3.87423,0.217817 -5.39898,0 -0.10483,-0.015 -0.18944,-0.09472 -0.28416,-0.142084 -0.18944,0 -0.37887,0 -0.56831,0 -0.96707,0 -1.90253,0.01433 -2.84157,-0.142075 -0.23357,-0.03892 -0.49859,0.1059 -0.71039,0 -0.0847,-0.04233 0,-0.189442 0,-0.284168 0,-0.877843 0.53209,-1.384544 1.13662,-1.989096 0.66314,-0.663109 1.60257,-1.034235 2.27326,-1.704936 0.24149,-0.241476 0.35498,-0.585785 0.56832,-0.852469 0.2495,-0.311876 0.60297,-0.540584 0.85247,-0.85246 0.44758,-0.559485 0.91536,-1.199519 1.42078,-1.704937 0.0748,-0.07492 0.18944,-0.09472 0.28415,-0.142084 0.14209,-0.142083 0.29761,-0.271883 0.42624,-0.426242 0.10931,-0.131167 0.16341,-0.305484 0.28416,-0.426226 0.24148,-0.2415 0.63384,-0.305967 0.85246,-0.568326 0.31934,-0.383184 0.4847,-0.910919 0.85247,-1.278686 0.12075,-0.120759 0.3055,-0.163426 0.42625,-0.284167 0.19321,-0.193209 0.34725,-0.705094 0.56831,-0.852469 0.71207,-0.474726 -0.19856,0.738327 0.5683,-0.284159 0.0812,-0.10835 0.55708,-0.551459 0.56832,-0.568301 0.0526,-0.07883 -0.067,-0.2172 0,-0.284167 0.1059,-0.105901 0.29229,-0.07508 0.42624,-0.142084 0.21761,-0.108808 0.11111,-0.253184 0.28416,-0.426242 0.0749,-0.07492 0.20927,-0.06717 0.28415,-0.142059 0.17313,-0.173125 0.25311,-0.537285 0.42624,-0.71041 0.0335,-0.0335 0.10859,0.0335 0.14207,0 0.18603,-0.186025 -0.0784,-1.435478 -0.14207,-1.562853 -0.17732,-0.354626 -0.79989,-1.226119 -0.99455,-1.420795 -0.0335,-0.0335 -0.1086,0.0335 -0.14208,0 -0.0678,-0.06783 -0.21018,-0.469651 -0.28416,-0.568301 -0.42455,-0.566076 -1.11557,-0.95246 -1.42078,-1.56287 -0.0423,-0.08472 0.03,-0.1943 0,-0.284142 -0.14096,-0.422893 -0.4588,-0.840677 -0.56831,-1.278711 -0.0783,-0.313426 -0.0784,-0.676152 -0.14209,-0.994552 -0.0588,-0.293709 -0.22541,-0.55876 -0.28415,-0.852469 -0.11667,-0.583359 -0.10256,-1.160152 -0.28416,-1.704937 -0.21351,-0.640534 0,-3.141115 0,-3.978191 0,-0.818802 -0.21846,-2.896573 0,-3.551974 0.13814,-0.414385 0.45272,-0.532143 0.56831,-0.994544 0.0759,-0.303484 -0.0989,-0.697952 0,-0.994552 0.0596,-0.178726 0.21429,-0.358668 0.28416,-0.568302 0.0858,-0.257417 0.053,-0.585326 0.14209,-0.852468 0.0827,-0.248184 0.35682,-0.360101 0.42623,-0.568326 0.0299,-0.08985 0,-0.189426 0,-0.284142 0.0473,-0.189442 0.0696,-0.387018 0.14208,-0.568327 0.0498,-0.124375 0.22425,-0.16435 0.28415,-0.284167 0.1699,-0.339767 0.19911,-0.65436 0.28415,-0.994544 0.14193,-0.567684 0.14318,-0.0025 0.42625,-0.568309 0.0423,-0.08471 -0.023,-0.192259 0,-0.284159 0.0802,-0.320742 0.37161,-0.415351 0.56831,-0.710385 0.10831,-0.162475 0.087,-0.436892 0.28416,-0.568301 0.16788,-0.111942 0.51254,-0.376793 0.71039,-0.426251 0.0919,-0.023 0.20534,0.05258 0.28415,0 0.10506,-0.07 0.10957,-0.382584 0.28416,-0.426218 0.13783,-0.0345 0.29916,0.0635 0.42623,0 0.0947,-0.04733 0.0573,-0.220625 0.14209,-0.284167 0.44555,-0.334167 2.14838,-0.998844 2.69949,-1.136627 0.25715,0.08563 0.26424,-0.230167 0.42623,-0.284167 0.47898,-0.159651 1.47417,-0.198326 1.9891,-0.284143 0.39523,-0.06583 0.42935,-0.1905 0.71039,-0.284159 0.29837,-0.09946 0.69618,0.09946 0.99454,0 0.82267,-0.274217 1.92208,-0.142083 2.84157,-0.142083 0.50697,0 1.06122,-0.06267 1.56287,0 0.38751,0.04842 0.75001,0.228934 1.13662,0.284167 0.28758,0.04108 0.71192,-0.09422 0.99455,0 0.51948,0.173142 1.23516,0.428509 1.70494,0.710385 0.30726,0.18435 0.55276,0.510576 0.85247,0.710385 0.23869,0.159125 0.65072,0.2245 0.85247,0.426242 0.0749,0.07492 0.0672,0.209267 0.14207,0.284167 0.14977,0.149751 0.39888,0.157076 0.56832,0.284143 0.40066,0.3005 0.52507,0.809226 0.85247,1.136627 0.14294,0.142942 0.7515,0.558935 0.85247,0.710385 0.0526,0.07883 0,0.189442 0,0.284159 0.0473,0.09473 0.0759,0.201459 0.14208,0.284167 0.12552,0.1569 0.32286,0.253934 0.42624,0.426226 0.33763,0.562726 -0.41985,0.0067 0.14207,0.568326 0.0749,0.07492 0.22542,0.05392 0.28416,0.142075 0.15818,0.237268 0.15408,0.941502 0.28416,1.136611 0.0587,0.08812 0.22967,0.05125 0.28415,0.142084 1.16233,1.937212 -0.87635,-0.59221 0.56832,0.852468 0.16745,0.167459 0.23063,0.718677 0.28416,0.852485 0.0849,0.212268 0.35342,0.349868 0.42623,0.568302 0.0951,0.285384 0.0531,1.047668 0.28415,1.278719 0.0749,0.07492 0.22542,0.05392 0.28416,0.142075 0.16303,0.244542 0.0438,0.84191 0.14209,1.136611 0.1735,0.520526 0.3815,1.00246 0.5683,1.562878 0.16232,0.486943 0,1.352311 0,1.847012 0,0.250543 0.0605,0.610352 0,0.852469 -0.0208,0.08347 -0.26329,0.484851 -0.28415,0.568326 -0.35278,1.411111 -1.06642,2.665197 -1.84702,3.836116 -0.1405,0.210734 -0.15761,0.741452 -0.28416,0.994544 -0.0224,0.04483 -0.27484,0.416918 -0.28415,0.426226 -0.0335,0.0335 -0.1209,-0.04233 -0.14208,0 -0.0423,0.08473 0.0299,0.194292 0,0.284159 -0.0849,0.254817 -0.29222,0.292217 -0.42624,0.426226 -0.0925,0.09253 -0.10176,0.447393 -0.14208,0.568326 -0.0654,0.196234 -0.32179,0.1449 -0.42623,0.284159 -0.26718,0.356226 -0.21864,0.786943 -0.56831,1.136611 -0.0749,0.07492 -0.20928,0.06725 -0.28416,0.142083 -0.11018,0.110176 -0.70733,0.918944 -0.85247,1.136628 -0.11748,0.176233 -0.13439,0.418551 -0.28416,0.568326 -0.0335,0.0335 -0.1209,-0.04242 -0.14207,0 -0.0644,0.128742 0,0.547601 0,0.710385 0,0.303367 -0.0984,0.983552 0,1.278711 0.16984,0.509526 1.16866,1.736978 1.56286,2.131163 0.10797,0.107966 0.62788,0.458301 0.71039,0.568326 0.0898,0.119808 0.0522,0.306409 0.14208,0.426217 0.20348,0.271334 0.65386,0.412493 0.85247,0.71041 0.29696,0.445451 0.5491,0.697577 0.99455,0.994552 0.18904,0.126026 0.29302,0.43511 0.42623,0.568301 0.21124,0.211251 0.88928,0.504277 1.13663,0.710385 0.66736,0.556135 1.30269,1.373545 2.13117,1.704962 0.0879,0.03517 0.19944,-0.04242 0.28416,0 0.27345,0.136717 1.13154,1.133228 1.13663,1.136603 0.16645,0.110975 0.54701,0.120783 0.71039,0.284167 0.0749,0.07483 0.0672,0.209284 0.14208,0.284159 0.14976,0.149758 0.41855,0.134392 0.56831,0.284167 0.0749,0.07492 0.054,0.2254 0.14208,0.284142 0.0788,0.05258 0.1943,-0.02992 0.28416,0 0.44347,0.147834 -0.0473,0.09472 0.14207,0.284159 0.30113,0.301118 0.81155,0.635752 1.13663,0.852469 0.31004,0.206708 0.35012,0.634276 0.56831,0.852468 0.27134,0.271326 0.42683,0.285951 0.56832,0.71041 0.2903,0.870893 -1.82206,1.321903 -2.41533,1.42077 -0.43349,0.07225 -0.97723,0 -1.42079,0 -1.81227,0 -4.23678,-0.290534 -5.96729,0.142075 -0.22973,0.05742 -0.4782,-0.04642 -0.71039,0 -0.44928,0.08985 -1.80134,0.380567 -2.13118,0.710393 -0.27992,0.279926 -0.0212,0.326601 -0.14207,0.568326 -0.59657,1.193119 -0.25349,2.994932 0,4.262334 0.0946,0.472876 0.0256,0.954685 0.14207,1.420795 0.0513,0.205317 0.23283,0.505068 0.28416,0.710385 0.0854,0.341775 -0.0438,0.786543 0,1.136627 0.27355,2.188438 0.18232,4.423318 0.71039,6.535597 0.0412,0.16475 0.73108,1.543095 0.85247,1.704954 0.0814,0.108525 0.51455,0.407025 0.56831,0.568309 0.18078,0.542326 0.3863,1.164786 0.71039,1.704937 0.48141,0.802327 1.12653,1.532553 1.42079,2.415338 0.16921,0.507627 0.83575,1.679862 1.13663,2.13118 0.0743,0.111458 0.22425,0.16435 0.28416,0.284142 0.0873,0.174667 0.0548,0.393676 0.14207,0.568326 0.14348,0.286943 0.60613,0.539685 0.7104,0.852469 0.0299,0.08984 -0.0299,0.194292 0,0.284159 0.14536,0.436101 0.90801,0.963568 1.13662,1.420769 0.14035,0.280701 0.47914,0.72701 0.56831,0.994552 0.0469,0.140626 0.0311,0.457293 0.14209,0.568327 0.0749,0.07483 0.20927,0.06717 0.28415,0.142083 0.0915,0.09148 0.55741,1.551962 0.85247,1.847012 0.0749,0.07483 0.18944,0.09473 0.28415,0.142084 0.0947,0.189417 0.15185,0.402918 0.28416,0.568301 0.17181,0.214759 0.52945,0.387376 0.7104,0.56831 0.24603,0.246034 0.37248,0.70081 0.56831,0.994544 0.11496,0.172467 0.83953,0.68453 0.85247,0.71041 0.0423,0.0847 -0.0526,0.20534 0,0.28414 0.0588,0.0881 0.20928,0.0672 0.28415,0.14209 0.56837,0.56836 1.04471,1.20976 1.70495,1.70492 0.29532,0.2215 0.28016,0.34921 0.42623,0.56833 0.51099,0.76648 0.0443,-0.0979 0.56831,0.42623 0.30324,0.30323 0.48125,0.71614 0.85248,0.99454 0.16943,0.12709 0.41854,0.13441 0.56831,0.28417 0.15058,0.15059 0.31674,0.48445 0.56831,0.56832 0.0899,0.0299 0.19944,-0.0424 0.28416,0 0.0423,0.0212 -0.0335,0.1086 0,0.14206 0.19535,0.19535 0.61631,0.55296 0.85247,0.71041 0.51565,0.34376 1.11423,0.688 1.56286,1.13663 0.0711,0.071 0.0711,0.2131 0.14208,0.28414 0.23877,0.23879 0.79287,0.44149 0.99454,0.71041 0.0899,0.11981 0.0485,0.30928 0.14209,0.42622 0.39332,0.49167 1.12168,0.83752 1.56286,1.27871 0.28833,0.28833 0.4818,0.79373 0.71039,1.13664 0.14013,0.21019 0.45585,0.34335 0.56831,0.5683 0.17497,0.34993 -0.41242,-0.12826 0.14209,0.42624 0.0749,0.0749 0.22966,0.0512 0.28415,0.14208 0.10046,0.16744 0.0416,0.40087 0.14208,0.56831 0.0545,0.0908 0.20927,0.0672 0.28415,0.14208 0.15521,0.1552 0.30928,0.59342 0.42623,0.71038 0.0749,0.0749 0.20928,0.0672 0.28416,0.14209 0.0473,0.0473 0.0947,0.37888 0.14209,0.42624 0.0335,0.0335 0.10858,-0.0335 0.14207,0 0.17468,0.17467 0.36052,0.64466 0.56831,0.85247 0.0335,0.0335 0.10859,-0.0335 0.14209,0 0.067,0.067 -0.0423,0.19943 0,0.28414 0.0224,0.0449 0.27484,0.41694 0.28415,0.42624 0.0335,0.0335 0.10859,-0.0335 0.14208,0 0.24904,0.24904 0.63711,2.90139 0.71039,3.26782 0.0966,0.48308 -0.15487,1.09824 0,1.56285 0.15124,0.45372 0.28416,0.8675 0.28416,1.27871 0,0.1578 0.10046,0.89407 0,0.99455 -0.49297,0.49296 -2.07464,0.33534 -2.98365,0.42622 -0.61715,0.0618 -1.11834,0.35291 -1.70494,0.42624 -1.75209,0.21901 -4.2877,0 -6.10937,0 -0.77737,0 -1.64422,0.11016 -2.41533,0 -0.45802,-0.0654 -0.93454,-0.26363 -1.42079,-0.14208 -0.94059,0.23515 -1.99041,0.14208 -2.98364,0.14208 -0.69269,0 -1.31284,0.0669 -1.98909,0.14209 -1.26178,0.14018 -2.57666,-0.15745 -3.83612,0 -2.31226,0.28903 -4.64974,0.42136 -6.96184,0.71038 -1.63392,0.20424 -3.46512,0 -5.11483,0 -1.14745,0 -2.40932,0.14284 -3.55195,0 -0.84881,-0.1061 -1.70203,-0.34847 -2.55742,-0.42624 -1.64029,-0.14912 -3.32741,-0.0392 -4.97273,-0.14206 -1.85881,-0.11617 -3.68818,-0.56787 -5.54107,-0.71041 -1.44912,-0.11146 -2.94979,0 -4.40442,0 -1.25719,0 -2.58669,-0.12492 -3.83612,0 -1.29994,0.13 -2.54516,0.43924 -3.83611,0.56833 -1.4358,0.14358 -2.95733,0 -4.40443,0 -0.54276,0 -2.11411,0.17731 -2.55741,0 -0.15855,-0.0634 -0.26635,-0.22422 -0.42624,-0.28417 -0.4729,-0.17733 -1.13533,0 -1.56286,-0.28416 -0.0616,-0.041 -0.12258,-0.20336 -0.28416,-0.28414 -0.35274,-0.17639 -2.32495,0.0226 -2.98365,-0.14208 z"
       id="path16865" />
    <text
       xml:space="preserve"
       style="font-size:146.253px;line-height:1.25;font-family:'Chess Alpha';-inkscape-font-specification:'Chess Alpha';fill:#161c47;fill-opacity:1;stroke:#e1e5ee;stroke-width:1.07489;stroke-opacity:1"
       x="237.33624"
       y="141.19577"
       id="text13618"><tspan
         sodipodi:role="line"
         id="tspan13616"
         style="fill:#161c47;fill-opacity:1;stroke:#e1e5ee;stroke-width:1.07489;stroke-opacity:1"
         x="237.33624"
         y="141.19577">p</tspan></text>
  </g>
</svg>
